M48
; DRILL file {KiCad 7.0.1} date Sun Oct 22 20:19:51 2023
; FORMAT={-:-/ absolute / metric / decimal}
; #@! TF.CreationDate,2023-10-22T20:19:51-04:00
; #@! TF.GenerationSoftware,Kicad,Pcbnew,7.0.1
; #@! TF.FileFunction,Plated,1,2,PTH
FMAT,2
METRIC
; #@! TA.AperFunction,Plated,PTH,ViaDrill
T1C0.400
; #@! TA.AperFunction,Plated,PTH,ComponentDrill
T2C0.500
; #@! TA.AperFunction,Plated,PTH,ViaDrill
T3C0.600
; #@! TA.AperFunction,Plated,PTH,ComponentDrill
T4C1.000
; #@! TA.AperFunction,Plated,PTH,ComponentDrill
T5C3.000
%
G90
G05
T1
X42.5Y-50.0
X42.5Y-54.0
X42.5Y-75.0
X42.5Y-77.5
X42.5Y-87.5
X42.5Y-90.0
X42.5Y-92.5
X42.5Y-95.0
X42.5Y-97.5
X42.5Y-100.0
X42.5Y-102.5
X42.5Y-105.0
X42.5Y-107.5
X42.5Y-110.0
X42.5Y-112.5
X42.5Y-115.0
X42.6Y-68.8
X42.6Y-84.8
X43.299Y-67.8
X43.6Y-61.8
X45.0Y-75.0
X45.0Y-77.5
X45.2Y-67.4
X47.5Y-75.0
X47.5Y-77.5
X47.5Y-80.0
X47.5Y-82.5
X48.2Y-60.2
X48.8Y-89.8
X50.0Y-42.5
X50.0Y-52.5
X50.0Y-69.0
X50.0Y-122.5
X50.305Y-90.895
X50.4Y-61.0
X50.6Y-68.0
X50.7Y-82.8
X51.2Y-77.0
X51.8Y-91.4
X52.2Y-70.0
X52.5Y-42.5
X52.5Y-122.5
X52.6Y-92.2
X55.0Y-42.5
X55.0Y-100.0
X55.0Y-115.0
X55.0Y-117.5
X55.6Y-66.6
X55.6Y-71.2
X57.5Y-42.5
X57.5Y-100.0
X57.5Y-115.0
X57.5Y-117.5
X59.0Y-68.888
X60.0Y-42.5
X60.0Y-57.5
X60.0Y-100.0
X61.2Y-44.649
X62.0Y-68.2
X62.2Y-58.0
X62.5Y-42.5
X62.5Y-80.0
X62.5Y-100.0
X65.0Y-42.5
X65.0Y-45.0
X65.0Y-47.5
X65.0Y-50.0
X65.0Y-52.5
X65.0Y-55.0
X65.0Y-80.0
X65.0Y-82.5
X66.0Y-65.4
X66.4Y-70.4
X66.6Y-63.0
X66.8Y-72.6
X67.5Y-42.5
X67.5Y-60.0
X67.5Y-80.0
X67.5Y-82.5
X67.5Y-85.0
X67.5Y-120.0
X69.2Y-90.759
X69.2Y-96.2
X69.9Y-98.0
X69.9Y-92.158
X70.0Y-60.0
X70.0Y-80.0
X70.0Y-82.5
X70.0Y-85.0
X70.0Y-115.0
X70.0Y-117.5
X70.0Y-120.0
X70.6Y-91.2
X70.6Y-97.225
X71.0Y-54.8
X71.4Y-48.6
X72.5Y-60.0
X72.5Y-62.5
X72.5Y-65.0
X73.5Y-54.8
X73.6Y-47.6
X74.0Y-57.4
X74.6Y-67.2
X74.8Y-58.0
X75.0Y-82.5
X75.0Y-85.0
X75.0Y-102.5
X75.0Y-105.0
X75.0Y-107.5
X75.0Y-110.0
X75.0Y-112.5
X75.0Y-115.0
X75.4Y-69.0
X76.0Y-58.0
X76.1Y-47.6
X76.4Y-68.8
X76.6Y-93.2
X77.2Y-58.2
X77.3Y-78.3
X77.5Y-65.0
X77.5Y-110.0
X77.5Y-112.5
X77.5Y-115.0
X78.2Y-69.2
X78.4Y-106.8
X78.6Y-46.6
X79.2Y-53.65
X79.2Y-109.6
X79.4Y-78.2
X79.8Y-59.6
X80.0Y-42.5
X80.0Y-44.4
X80.0Y-67.5
X80.0Y-112.2
X80.049Y-60.787
X80.8Y-115.0
X81.2Y-73.2
X81.8Y-95.6
X82.5Y-42.5
X82.5Y-44.4
X82.5Y-67.5
X82.75Y-54.4
X82.77Y-78.77
X82.8Y-93.8
X83.825Y-54.188
X85.0Y-42.5
X85.0Y-72.5
X85.0Y-75.0
X85.0Y-80.0
X85.0Y-82.5
X85.0Y-87.5
X85.2Y-47.2
X85.2Y-77.4
X85.445Y-57.068
X85.773Y-56.124
X86.8Y-49.8
X87.4Y-92.8
X87.5Y-42.5
X87.5Y-67.5
X87.5Y-70.0
X87.5Y-72.5
X87.5Y-75.0
X87.5Y-80.0
X87.5Y-82.5
X87.6Y-122.2
X88.429Y-92.778
X88.461Y-122.8
X89.2Y-61.162
X89.655Y-98.345
X90.0Y-42.5
X90.0Y-80.0
X90.0Y-82.5
X90.2Y-55.4
X90.2Y-57.0
X90.8Y-74.2
X91.4Y-84.8
X91.6Y-73.2
X92.0Y-55.4
X92.0Y-57.0
X92.5Y-42.5
X92.5Y-80.0
X92.5Y-82.5
X93.8Y-66.0
X95.0Y-42.5
X95.0Y-80.0
X95.0Y-82.5
X95.0Y-122.5
X95.94Y-56.34
X96.0Y-47.4
X96.0Y-66.0
X97.5Y-42.5
X97.5Y-80.0
X97.5Y-82.5
X97.5Y-122.5
X97.6Y-58.0
X98.375Y-65.375
X98.4Y-78.2
X99.6Y-49.749
X100.0Y-42.5
X100.0Y-122.5
X100.2Y-63.0
X102.4Y-49.6
X102.5Y-42.5
X102.5Y-122.5
X104.9Y-49.6
X105.0Y-42.5
X105.0Y-122.5
X105.2Y-57.4
X107.4Y-49.6
X107.4Y-68.4
X107.5Y-42.5
X107.5Y-122.5
X107.7Y-57.4
X107.8Y-55.2
X109.6Y-52.6
X110.0Y-42.5
X110.0Y-122.5
X110.4Y-84.8
X110.945Y-106.8
X112.5Y-42.5
X112.5Y-122.5
X113.0Y-89.8
X114.9Y-55.2
X115.0Y-42.5
X115.0Y-57.5
X115.0Y-60.0
X115.0Y-62.5
X115.0Y-122.5
X117.4Y-55.2
X117.5Y-42.5
X117.5Y-57.5
X117.5Y-60.0
X117.5Y-62.5
X117.5Y-122.5
X119.979Y-62.472
X120.0Y-42.5
X120.0Y-60.0
X120.0Y-67.5
X120.0Y-72.5
X120.0Y-77.5
X120.0Y-82.5
X120.0Y-87.5
X120.0Y-92.5
X120.0Y-97.5
X120.0Y-102.5
X120.0Y-107.5
X120.0Y-112.5
X120.0Y-122.5
X120.4Y-55.2
X120.4Y-56.8
X122.5Y-42.5
X122.5Y-122.5
X125.0Y-42.5
X125.0Y-67.5
X125.0Y-72.5
X125.0Y-77.5
X125.0Y-82.5
X125.0Y-87.5
X125.0Y-92.5
X125.0Y-97.5
X125.0Y-102.5
X125.0Y-107.5
X125.0Y-112.5
X127.5Y-42.5
X130.0Y-42.5
X130.0Y-67.5
X130.0Y-72.5
X130.0Y-77.5
X130.0Y-82.5
X130.0Y-87.5
X130.0Y-92.5
X130.0Y-97.5
X130.0Y-102.5
X130.0Y-107.5
X130.0Y-112.5
X132.5Y-42.5
X135.0Y-42.5
X135.0Y-67.5
X135.0Y-72.5
X135.0Y-77.5
X135.0Y-82.5
X135.0Y-87.5
X135.0Y-92.5
X135.0Y-97.5
X135.0Y-102.5
X135.0Y-107.5
X135.0Y-112.5
X135.0Y-122.5
X137.5Y-42.5
X137.5Y-122.5
X140.0Y-42.5
X140.0Y-67.5
X140.0Y-72.5
X140.0Y-77.5
X140.0Y-82.5
X140.0Y-87.5
X140.0Y-92.5
X140.0Y-97.5
X140.0Y-102.5
X140.0Y-107.5
X140.0Y-112.5
X140.0Y-122.5
X145.0Y-42.5
X145.0Y-122.5
X147.5Y-42.5
X152.5Y-50.0
X152.5Y-55.0
X152.5Y-65.0
X152.5Y-67.5
X152.5Y-70.0
X152.5Y-72.5
X152.5Y-75.0
X152.5Y-77.5
X152.5Y-87.5
X152.5Y-90.0
X152.5Y-92.5
X152.5Y-95.0
X152.5Y-97.5
X152.5Y-100.0
X152.5Y-110.0
X152.5Y-115.0
T2
X41.75Y-44.0
X41.75Y-121.0
X42.409Y-42.409
X42.409Y-45.591
X42.409Y-119.409
X42.409Y-122.591
X44.0Y-41.75
X44.0Y-46.25
X44.0Y-118.75
X44.0Y-123.25
X45.591Y-42.409
X45.591Y-45.591
X45.591Y-119.409
X45.591Y-122.591
X46.25Y-44.0
X46.25Y-121.0
X149.75Y-44.0
X149.75Y-121.0
X150.409Y-42.409
X150.409Y-45.591
X150.409Y-119.409
X150.409Y-122.591
X152.0Y-41.75
X152.0Y-46.25
X152.0Y-118.75
X152.0Y-123.25
X153.591Y-42.409
X153.591Y-45.591
X153.591Y-119.409
X153.591Y-122.591
X154.25Y-44.0
X154.25Y-121.0
T3
X55.4Y-43.8
X72.0Y-124.6
X110.0Y-48.6
X111.2Y-51.4
X111.2Y-66.2
X111.2Y-94.8
X121.2Y-51.8
X121.2Y-54.2
X123.8Y-105.0
X123.8Y-124.6
X128.4Y-53.2
X132.6Y-105.2
X141.6Y-41.6
X154.8Y-63.6
X155.2Y-109.8
T4
X45.8Y-88.58
X45.8Y-91.12
X45.8Y-93.66
X45.8Y-96.2
X45.8Y-101.98
X45.8Y-104.52
X45.8Y-107.06
X45.8Y-109.6
X70.4Y-40.8
X72.94Y-40.8
X127.26Y-124.6
X129.8Y-124.6
T5
X44.0Y-44.0
X44.0Y-121.0
X152.0Y-44.0
X152.0Y-121.0
T2
X40.81Y-63.447G85X40.21Y-63.447
G05
X40.81Y-72.427G85X40.21Y-72.427
G05
X46.76Y-63.807G85X46.16Y-63.807
G05
X46.76Y-72.067G85X46.16Y-72.067
G05
T0
M30
