G04 #@! TF.GenerationSoftware,KiCad,Pcbnew,7.0.1*
G04 #@! TF.CreationDate,2023-10-22T20:19:39-04:00*
G04 #@! TF.ProjectId,battery_charging_devboard,62617474-6572-4795-9f63-68617267696e,rev?*
G04 #@! TF.SameCoordinates,Original*
G04 #@! TF.FileFunction,Copper,L2,Bot*
G04 #@! TF.FilePolarity,Positive*
%FSLAX46Y46*%
G04 Gerber Fmt 4.6, Leading zero omitted, Abs format (unit mm)*
G04 Created by KiCad (PCBNEW 7.0.1) date 2023-10-22 20:19:39*
%MOMM*%
%LPD*%
G01*
G04 APERTURE LIST*
G04 Aperture macros list*
%AMRoundRect*
0 Rectangle with rounded corners*
0 $1 Rounding radius*
0 $2 $3 $4 $5 $6 $7 $8 $9 X,Y pos of 4 corners*
0 Add a 4 corners polygon primitive as box body*
4,1,4,$2,$3,$4,$5,$6,$7,$8,$9,$2,$3,0*
0 Add four circle primitives for the rounded corners*
1,1,$1+$1,$2,$3*
1,1,$1+$1,$4,$5*
1,1,$1+$1,$6,$7*
1,1,$1+$1,$8,$9*
0 Add four rect primitives between the rounded corners*
20,1,$1+$1,$2,$3,$4,$5,0*
20,1,$1+$1,$4,$5,$6,$7,0*
20,1,$1+$1,$6,$7,$8,$9,0*
20,1,$1+$1,$8,$9,$2,$3,0*%
G04 Aperture macros list end*
G04 #@! TA.AperFunction,ComponentPad*
%ADD10C,0.800000*%
G04 #@! TD*
G04 #@! TA.AperFunction,ComponentPad*
%ADD11C,6.000000*%
G04 #@! TD*
G04 #@! TA.AperFunction,ComponentPad*
%ADD12R,1.700000X1.700000*%
G04 #@! TD*
G04 #@! TA.AperFunction,ComponentPad*
%ADD13O,1.700000X1.700000*%
G04 #@! TD*
G04 #@! TA.AperFunction,ComponentPad*
%ADD14O,1.400000X0.800000*%
G04 #@! TD*
G04 #@! TA.AperFunction,SMDPad,CuDef*
%ADD15RoundRect,0.750000X3.000000X3.000000X-3.000000X3.000000X-3.000000X-3.000000X3.000000X-3.000000X0*%
G04 #@! TD*
G04 #@! TA.AperFunction,ViaPad*
%ADD16C,0.800000*%
G04 #@! TD*
G04 #@! TA.AperFunction,Conductor*
%ADD17C,0.250000*%
G04 #@! TD*
G04 #@! TA.AperFunction,Conductor*
%ADD18C,0.300000*%
G04 #@! TD*
G04 #@! TA.AperFunction,Conductor*
%ADD19C,0.600000*%
G04 #@! TD*
G04 #@! TA.AperFunction,Conductor*
%ADD20C,0.400000*%
G04 #@! TD*
G04 APERTURE END LIST*
D10*
X149750000Y-121000000D03*
X150409010Y-119409010D03*
X150409010Y-122590990D03*
X152000000Y-118750000D03*
D11*
X152000000Y-121000000D03*
D10*
X152000000Y-123250000D03*
X153590990Y-119409010D03*
X153590990Y-122590990D03*
X154250000Y-121000000D03*
D12*
X45800000Y-96200000D03*
D13*
X45800000Y-93660000D03*
X45800000Y-91120000D03*
X45800000Y-88580000D03*
D12*
X129800000Y-124600000D03*
D13*
X127260000Y-124600000D03*
D12*
X45800000Y-109600000D03*
D13*
X45800000Y-107060000D03*
X45800000Y-104520000D03*
X45800000Y-101980000D03*
D14*
X40510000Y-63447500D03*
X46460000Y-63807500D03*
X46460000Y-72067500D03*
X40510000Y-72427500D03*
D10*
X41750000Y-121000000D03*
X42409010Y-119409010D03*
X42409010Y-122590990D03*
X44000000Y-118750000D03*
D11*
X44000000Y-121000000D03*
D10*
X44000000Y-123250000D03*
X45590990Y-119409010D03*
X45590990Y-122590990D03*
X46250000Y-121000000D03*
X41750000Y-44000000D03*
X42409010Y-42409010D03*
X42409010Y-45590990D03*
X44000000Y-41750000D03*
D11*
X44000000Y-44000000D03*
D10*
X44000000Y-46250000D03*
X45590990Y-42409010D03*
X45590990Y-45590990D03*
X46250000Y-44000000D03*
X149750000Y-44000000D03*
X150409010Y-42409010D03*
X150409010Y-45590990D03*
X152000000Y-41750000D03*
D11*
X152000000Y-44000000D03*
D10*
X152000000Y-46250000D03*
X153590990Y-42409010D03*
X153590990Y-45590990D03*
X154250000Y-44000000D03*
D12*
X72940000Y-40800000D03*
D13*
X70400000Y-40800000D03*
D15*
X55300000Y-59400000D03*
X150300000Y-59400000D03*
X150300000Y-82200000D03*
X55300000Y-82200000D03*
X150300000Y-105000000D03*
X55300000Y-105000000D03*
D16*
X113000000Y-89800000D03*
X110945000Y-106800000D03*
X74600000Y-67200000D03*
X74000000Y-57400000D03*
X76000000Y-58000000D03*
X43600000Y-61800000D03*
X74800000Y-58000000D03*
X62200000Y-58000000D03*
X62000000Y-68200000D03*
X59000000Y-68888000D03*
X50400000Y-61000000D03*
X52200000Y-70000000D03*
X51200000Y-77000000D03*
X48200000Y-60200000D03*
X141600000Y-41600000D03*
X114900000Y-55200000D03*
X117400000Y-55200000D03*
X100200000Y-63000000D03*
X155200000Y-109800000D03*
X123800000Y-105000000D03*
X123800000Y-124600000D03*
X91600000Y-73200000D03*
X91400000Y-84800000D03*
X69200000Y-96200000D03*
X69200000Y-90759089D03*
X50305378Y-90894622D03*
X42600000Y-84800000D03*
X48800000Y-89800000D03*
X42600000Y-68800000D03*
X50600000Y-68000000D03*
X50000000Y-69000000D03*
X69900500Y-92158089D03*
X52600000Y-92200000D03*
X51800000Y-91400000D03*
X70600000Y-91200000D03*
X55400000Y-43800000D03*
X89654938Y-98345062D03*
X107500000Y-42500000D03*
X92000000Y-57000000D03*
X76100000Y-47600000D03*
X140000000Y-87500000D03*
X135000000Y-82500000D03*
X117500000Y-42500000D03*
X120000000Y-92500000D03*
X107700000Y-57400000D03*
X95000000Y-80000000D03*
X125000000Y-112500000D03*
X140000000Y-67500000D03*
X132500000Y-42500000D03*
X70000000Y-115000000D03*
X70000000Y-60000000D03*
X100000000Y-42500000D03*
X57500000Y-115000000D03*
X75000000Y-102500000D03*
X135000000Y-87500000D03*
X120000000Y-67500000D03*
X130000000Y-87500000D03*
X42500000Y-107500000D03*
X152500000Y-97500000D03*
X93800000Y-66000000D03*
X70000000Y-80000000D03*
X107800000Y-55200000D03*
X42500000Y-112500000D03*
X67500000Y-80000000D03*
X57500000Y-100000000D03*
X81800000Y-95600000D03*
X152500000Y-70000000D03*
X77500000Y-112500000D03*
X117500000Y-57500000D03*
X120000000Y-82500000D03*
X140000000Y-122500000D03*
X55000000Y-117500000D03*
X125000000Y-102500000D03*
X60000000Y-57500000D03*
X67500000Y-42500000D03*
X87500000Y-72500000D03*
X90000000Y-42500000D03*
X119978896Y-62471672D03*
X92500000Y-80000000D03*
X42500000Y-75000000D03*
X72500000Y-65000000D03*
X79800000Y-59600000D03*
X62500000Y-80000000D03*
X77500000Y-110000000D03*
X117500000Y-122500000D03*
X120000000Y-107500000D03*
X152500000Y-95000000D03*
X85000000Y-87500000D03*
X105200000Y-57400000D03*
X115000000Y-57500000D03*
X42500000Y-50000000D03*
X115000000Y-42500000D03*
X42500000Y-110000000D03*
X70000000Y-85000000D03*
X135000000Y-97500000D03*
X130000000Y-82500000D03*
X130000000Y-72500000D03*
X140000000Y-82500000D03*
X152500000Y-67500000D03*
X100000000Y-122500000D03*
X45000000Y-75000000D03*
X105000000Y-42500000D03*
X77500000Y-65000000D03*
X120000000Y-60000000D03*
X152500000Y-77500000D03*
X125000000Y-92500000D03*
X87500000Y-67500000D03*
X112500000Y-122500000D03*
X87500000Y-82500000D03*
X107500000Y-122500000D03*
X66400000Y-70400000D03*
X67500000Y-82500000D03*
X140000000Y-72500000D03*
X140000000Y-107500000D03*
X65000000Y-52500000D03*
X75000000Y-85000000D03*
X122500000Y-42500000D03*
X70000000Y-82500000D03*
X42500000Y-92500000D03*
X130000000Y-92500000D03*
X65000000Y-80000000D03*
X127500000Y-42500000D03*
X80000000Y-44400000D03*
X52500000Y-122500000D03*
X120000000Y-87500000D03*
X75000000Y-82500000D03*
X42500000Y-97500000D03*
X47500000Y-82500000D03*
X75000000Y-110000000D03*
X95000000Y-82500000D03*
X71000000Y-54800000D03*
X152500000Y-90000000D03*
X97500000Y-80000000D03*
X70000000Y-120000000D03*
X112500000Y-42500000D03*
X90000000Y-80000000D03*
X110000000Y-42500000D03*
X120000000Y-102500000D03*
X130000000Y-67500000D03*
X135000000Y-67500000D03*
X87500000Y-75000000D03*
X122500000Y-122500000D03*
X135000000Y-122500000D03*
X130000000Y-112500000D03*
X95000000Y-122500000D03*
X95000000Y-42500000D03*
X47500000Y-77500000D03*
X50000000Y-42500000D03*
X90200000Y-55400000D03*
X152500000Y-87500000D03*
X140000000Y-92500000D03*
X135000000Y-77500000D03*
X42500000Y-105000000D03*
X120400000Y-56800000D03*
X130000000Y-107500000D03*
X152500000Y-100000000D03*
X152500000Y-115000000D03*
X125000000Y-97500000D03*
X125000000Y-72500000D03*
X82500000Y-44400000D03*
X57500000Y-117500000D03*
X120400000Y-55200000D03*
X65000000Y-42500000D03*
X82800000Y-93800000D03*
X90000000Y-82500000D03*
X87500000Y-42500000D03*
X73600000Y-47600000D03*
X85000000Y-82500000D03*
X152500000Y-92500000D03*
X87500000Y-70000000D03*
X55000000Y-42500000D03*
X120000000Y-42500000D03*
X65000000Y-55000000D03*
X52500000Y-42500000D03*
X92500000Y-82500000D03*
X152500000Y-50000000D03*
X85000000Y-72500000D03*
X104900000Y-49600000D03*
X125000000Y-107500000D03*
X125000000Y-82500000D03*
X152500000Y-75000000D03*
X97500000Y-122500000D03*
X152500000Y-55000000D03*
X137500000Y-122500000D03*
X42500000Y-115000000D03*
X72500000Y-62500000D03*
X97500000Y-82500000D03*
X135000000Y-107500000D03*
X65000000Y-50000000D03*
X42500000Y-87500000D03*
X135000000Y-42500000D03*
X96000000Y-66000000D03*
X110000000Y-122500000D03*
X62500000Y-100000000D03*
X152500000Y-72500000D03*
X85000000Y-80000000D03*
X152500000Y-65000000D03*
X85000000Y-75000000D03*
X120000000Y-97500000D03*
X117500000Y-60000000D03*
X80000000Y-42500000D03*
X135000000Y-92500000D03*
X125000000Y-77500000D03*
X135000000Y-102500000D03*
X152500000Y-110000000D03*
X42500000Y-100000000D03*
X120000000Y-77500000D03*
X82500000Y-42500000D03*
X92500000Y-42500000D03*
X147500000Y-42500000D03*
X115000000Y-122500000D03*
X66600000Y-63000000D03*
X135000000Y-112500000D03*
X75000000Y-107500000D03*
X50000000Y-122500000D03*
X62500000Y-42500000D03*
X117500000Y-62500000D03*
X140000000Y-102500000D03*
X140000000Y-112500000D03*
X66000000Y-65400000D03*
X55000000Y-115000000D03*
X130000000Y-77500000D03*
X130000000Y-97500000D03*
X73500000Y-54800000D03*
X125000000Y-67500000D03*
X65000000Y-47500000D03*
X77500000Y-115000000D03*
X105000000Y-122500000D03*
X50000000Y-52500000D03*
X60000000Y-42500000D03*
X130000000Y-102500000D03*
X75000000Y-115000000D03*
X57500000Y-42500000D03*
X66800000Y-72600000D03*
X140000000Y-77500000D03*
X115000000Y-62500000D03*
X92000000Y-55400000D03*
X120000000Y-112500000D03*
X145000000Y-42500000D03*
X145000000Y-122500000D03*
X120000000Y-72500000D03*
X107400000Y-49600000D03*
X67500000Y-60000000D03*
X70000000Y-117500000D03*
X87500000Y-80000000D03*
X75000000Y-105000000D03*
X102500000Y-42500000D03*
X125000000Y-87500000D03*
X42500000Y-90000000D03*
X135000000Y-72500000D03*
X42500000Y-77500000D03*
X42500000Y-54000000D03*
X65000000Y-82500000D03*
X72500000Y-60000000D03*
X42500000Y-95000000D03*
X67500000Y-120000000D03*
X140000000Y-97500000D03*
X125000000Y-42500000D03*
X140000000Y-42500000D03*
X102500000Y-122500000D03*
X42500000Y-102500000D03*
X120000000Y-122500000D03*
X60000000Y-100000000D03*
X75000000Y-112500000D03*
X55000000Y-100000000D03*
X137500000Y-42500000D03*
X97500000Y-42500000D03*
X45000000Y-77500000D03*
X47500000Y-75000000D03*
X47500000Y-80000000D03*
X82500000Y-67500000D03*
X85000000Y-42500000D03*
X67500000Y-85000000D03*
X80000000Y-67500000D03*
X130000000Y-42500000D03*
X115000000Y-60000000D03*
X90200000Y-57000000D03*
X65000000Y-45000000D03*
X102400000Y-49600000D03*
X72000000Y-124600000D03*
X90800000Y-74200000D03*
X82750000Y-54400000D03*
X85444773Y-57067727D03*
X111200000Y-94800000D03*
X111200000Y-66200000D03*
X111200000Y-51400000D03*
X154800000Y-63600000D03*
X75400000Y-69000000D03*
X69899500Y-98000000D03*
X70600000Y-97224837D03*
X45200000Y-67400000D03*
X43299500Y-67800000D03*
X76400000Y-68800000D03*
X50699500Y-82800000D03*
X61200000Y-44649500D03*
X55600000Y-66600000D03*
X55600000Y-71200000D03*
X83825000Y-54187500D03*
X85773405Y-56123795D03*
X77200000Y-58200000D03*
X79200000Y-53650000D03*
X86800000Y-49800000D03*
X128400000Y-53200000D03*
X110400000Y-84800000D03*
X85200000Y-47200000D03*
X110000000Y-48600000D03*
X132600000Y-105200000D03*
X99600000Y-49749500D03*
X96000000Y-47400000D03*
X121200000Y-54200000D03*
X121200000Y-51800000D03*
X107400000Y-68400000D03*
X109600500Y-52600000D03*
X71400000Y-48600000D03*
X78400000Y-106800000D03*
X78200000Y-69200000D03*
X81200000Y-73200000D03*
X79200000Y-109600000D03*
X98375000Y-65375000D03*
X80000000Y-112200000D03*
X98400000Y-78200000D03*
X82770023Y-78770023D03*
X80800000Y-115000000D03*
X85200000Y-77400000D03*
X88461076Y-122800500D03*
X88428622Y-92778182D03*
X87400000Y-92800000D03*
X87600000Y-122200500D03*
X80049500Y-60787500D03*
X89200000Y-61162500D03*
X77300000Y-78300000D03*
X76600000Y-93200000D03*
X78600000Y-46600000D03*
X79400000Y-78200000D03*
X97600000Y-58000000D03*
X95939693Y-56339692D03*
D17*
X112200000Y-90600000D02*
X113000000Y-89800000D01*
X112200000Y-105545000D02*
X112200000Y-90600000D01*
X110945000Y-106800000D02*
X112200000Y-105545000D01*
D18*
X51050000Y-61650000D02*
X50400000Y-61000000D01*
X51050000Y-63613604D02*
X51050000Y-61650000D01*
X52400000Y-64963604D02*
X51050000Y-63613604D01*
X52400000Y-69800000D02*
X52400000Y-64963604D01*
X52200000Y-70000000D02*
X52400000Y-69800000D01*
X74800000Y-58000000D02*
X75400000Y-58600000D01*
X75400000Y-58600000D02*
X75400000Y-69000000D01*
X76000000Y-58000000D02*
X76400000Y-58400000D01*
X76400000Y-58400000D02*
X76400000Y-68800000D01*
X73900000Y-57500000D02*
X73900000Y-58900000D01*
X73900000Y-58900000D02*
X74800000Y-59800000D01*
X74800000Y-59800000D02*
X74800000Y-67000000D01*
X74800000Y-67000000D02*
X74600000Y-67200000D01*
X74000000Y-57400000D02*
X73900000Y-57500000D01*
X43299500Y-62100500D02*
X43600000Y-61800000D01*
X43299500Y-67800000D02*
X43299500Y-62100500D01*
X60000000Y-59200000D02*
X60800000Y-58400000D01*
X60800000Y-58400000D02*
X60800000Y-45049500D01*
X60000000Y-67888000D02*
X60000000Y-59200000D01*
X59000000Y-68888000D02*
X60000000Y-67888000D01*
X60800000Y-45049500D02*
X61200000Y-44649500D01*
X62200000Y-58400000D02*
X62200000Y-58000000D01*
X62000000Y-58600000D02*
X62200000Y-58400000D01*
X62000000Y-68200000D02*
X62000000Y-58600000D01*
X55600000Y-66600000D02*
X55600000Y-71200000D01*
X50600000Y-76400000D02*
X51200000Y-77000000D01*
X51700000Y-69300000D02*
X50600000Y-70400000D01*
X50200000Y-63800000D02*
X51700000Y-65300000D01*
X51700000Y-65300000D02*
X51700000Y-69300000D01*
X50200000Y-62200000D02*
X50200000Y-63800000D01*
X48200000Y-60200000D02*
X50200000Y-62200000D01*
X50600000Y-70400000D02*
X50600000Y-76400000D01*
X50699500Y-77500500D02*
X50699500Y-82800000D01*
X51200000Y-77000000D02*
X50699500Y-77500500D01*
X49400000Y-89000000D02*
X51800000Y-91400000D01*
X49400000Y-69600000D02*
X49400000Y-89000000D01*
X50000000Y-69000000D02*
X49400000Y-69600000D01*
X50000000Y-69989950D02*
X50700000Y-69289950D01*
X50000000Y-88200000D02*
X50000000Y-69989950D01*
X52600000Y-90800000D02*
X50000000Y-88200000D01*
X50700000Y-69289950D02*
X50700000Y-68100000D01*
X50700000Y-68100000D02*
X50600000Y-68000000D01*
X52600000Y-92200000D02*
X52600000Y-90800000D01*
D19*
X141600000Y-73500000D02*
X150300000Y-82200000D01*
X141600000Y-41600000D02*
X141600000Y-73500000D01*
X150400000Y-105000000D02*
X150300000Y-105000000D01*
X155200000Y-109800000D02*
X150400000Y-105000000D01*
X151600000Y-60400000D02*
X151300000Y-60400000D01*
X154800000Y-63600000D02*
X151600000Y-60400000D01*
D18*
X109600500Y-52600000D02*
X109600500Y-66199500D01*
X109600500Y-66199500D02*
X107400000Y-68400000D01*
D19*
X123800000Y-124600000D02*
X123800000Y-105000000D01*
X129800000Y-121200000D02*
X129800000Y-124600000D01*
X132600000Y-105200000D02*
X132600000Y-118400000D01*
X132600000Y-118400000D02*
X129800000Y-121200000D01*
D18*
X89200000Y-87000000D02*
X91400000Y-84800000D01*
X89228622Y-93109553D02*
X89228622Y-92446811D01*
X89200000Y-97890124D02*
X89200000Y-93138175D01*
X89654938Y-98345062D02*
X89200000Y-97890124D01*
X89200000Y-93138175D02*
X89228622Y-93109553D01*
X89228622Y-92446811D02*
X89200000Y-92418189D01*
X89200000Y-92418189D02*
X89200000Y-87000000D01*
X88629221Y-98029221D02*
X88428622Y-97828622D01*
X88461076Y-122800500D02*
X88629221Y-122632355D01*
X88629221Y-122632355D02*
X88629221Y-98029221D01*
X88428622Y-97828622D02*
X88428622Y-92778182D01*
X87628622Y-93028622D02*
X87400000Y-92800000D01*
X87628622Y-122171878D02*
X87628622Y-93028622D01*
X87600000Y-122200500D02*
X87628622Y-122171878D01*
X91600000Y-74531371D02*
X91600000Y-73200000D01*
X91400000Y-84800000D02*
X91400000Y-74731371D01*
X91400000Y-74731371D02*
X91600000Y-74531371D01*
X80200000Y-74200000D02*
X81200000Y-73200000D01*
X80200000Y-78600000D02*
X80200000Y-74200000D01*
X79200000Y-79600000D02*
X80200000Y-78600000D01*
X79200000Y-109600000D02*
X79200000Y-79600000D01*
X69200000Y-90759089D02*
X69200000Y-96200000D01*
X48000000Y-87400000D02*
X47200000Y-86600000D01*
X47200000Y-86600000D02*
X44400000Y-86600000D01*
X48000000Y-89989950D02*
X48000000Y-87400000D01*
X48904672Y-90894622D02*
X48000000Y-89989950D01*
X50305378Y-90894622D02*
X48904672Y-90894622D01*
X44400000Y-86600000D02*
X42600000Y-84800000D01*
X48800000Y-87200000D02*
X48800000Y-89800000D01*
X47600000Y-86000000D02*
X48800000Y-87200000D01*
X45400000Y-86000000D02*
X47600000Y-86000000D01*
X43600000Y-73200000D02*
X43600000Y-84200000D01*
X43600000Y-84200000D02*
X45400000Y-86000000D01*
X42600000Y-68800000D02*
X42600000Y-72200000D01*
X42600000Y-72200000D02*
X43600000Y-73200000D01*
X45400000Y-68200000D02*
X45200000Y-68000000D01*
X45200000Y-68000000D02*
X45200000Y-67400000D01*
X50000000Y-69000000D02*
X49200000Y-68200000D01*
X49200000Y-68200000D02*
X45400000Y-68200000D01*
X69899500Y-92159089D02*
X69900500Y-92158089D01*
X69899500Y-98000000D02*
X69899500Y-92159089D01*
X70600000Y-97224837D02*
X70600000Y-91200000D01*
X70600000Y-97224837D02*
X70375163Y-97000000D01*
D19*
X55300000Y-43900000D02*
X55400000Y-43800000D01*
X55300000Y-59400000D02*
X55300000Y-43900000D01*
X60809524Y-87709524D02*
X55300000Y-82200000D01*
X60809524Y-96209524D02*
X60809524Y-87709524D01*
X72000000Y-107400000D02*
X60809524Y-96209524D01*
X72000000Y-124600000D02*
X72000000Y-107400000D01*
D18*
X82750000Y-54400000D02*
X82777046Y-54400000D01*
X90800000Y-60800000D02*
X87067727Y-57067727D01*
X87067727Y-57067727D02*
X85444773Y-57067727D01*
X90800000Y-74200000D02*
X90800000Y-60800000D01*
X82777046Y-54400000D02*
X85444773Y-57067727D01*
D19*
X111400000Y-94600000D02*
X111400000Y-66400000D01*
X111400000Y-66400000D02*
X111200000Y-66200000D01*
X111200000Y-51400000D02*
X111200000Y-66200000D01*
X111200000Y-94800000D02*
X111400000Y-94600000D01*
D18*
X85761295Y-56123795D02*
X83825000Y-54187500D01*
X79200000Y-57200000D02*
X79200000Y-53650000D01*
X77200000Y-58200000D02*
X78200000Y-58200000D01*
X85773405Y-56123795D02*
X85761295Y-56123795D01*
X78200000Y-58200000D02*
X79200000Y-57200000D01*
D19*
X132400000Y-57200000D02*
X128400000Y-53200000D01*
D18*
X110400000Y-84800000D02*
X110400000Y-49000000D01*
X110400000Y-49000000D02*
X110000000Y-48600000D01*
X85200000Y-48200000D02*
X85200000Y-47200000D01*
D19*
X132400000Y-105000000D02*
X132400000Y-57200000D01*
X132600000Y-105200000D02*
X132400000Y-105000000D01*
D18*
X86800000Y-49800000D02*
X85200000Y-48200000D01*
D17*
X96000000Y-47400000D02*
X97250500Y-47400000D01*
X97250500Y-47400000D02*
X99600000Y-49749500D01*
D19*
X121200000Y-51800000D02*
X121200000Y-54200000D01*
D20*
X70400000Y-47600000D02*
X71400000Y-48600000D01*
X70400000Y-40800000D02*
X70400000Y-47600000D01*
D18*
X78200000Y-69200000D02*
X78200000Y-106600000D01*
X78200000Y-106600000D02*
X78400000Y-106800000D01*
X82770023Y-78770023D02*
X80000000Y-81540046D01*
X98400000Y-65400000D02*
X98375000Y-65375000D01*
X98400000Y-78200000D02*
X98400000Y-65400000D01*
X80000000Y-81540046D02*
X80000000Y-112200000D01*
X80800000Y-81800000D02*
X80800000Y-115000000D01*
X85200000Y-77400000D02*
X80800000Y-81800000D01*
X88825000Y-60787500D02*
X89200000Y-61162500D01*
X80049500Y-60787500D02*
X88825000Y-60787500D01*
X79400000Y-69000000D02*
X79000000Y-68600000D01*
X78800000Y-58800000D02*
X78800000Y-68400000D01*
X77400000Y-92400000D02*
X77400000Y-78400000D01*
X80000000Y-52600000D02*
X80000000Y-57600000D01*
X77400000Y-78400000D02*
X77300000Y-78300000D01*
X79400000Y-78200000D02*
X79400000Y-69000000D01*
X78800000Y-68400000D02*
X79000000Y-68600000D01*
X78600000Y-46600000D02*
X78600000Y-51200000D01*
X78600000Y-51200000D02*
X80000000Y-52600000D01*
X76600000Y-93200000D02*
X77400000Y-92400000D01*
X80000000Y-57600000D02*
X78800000Y-58800000D01*
X95939693Y-56339693D02*
X97600000Y-58000000D01*
X95939693Y-56339692D02*
X95939693Y-56339693D01*
G04 #@! TA.AperFunction,Conductor*
G36*
X153105061Y-119847575D02*
G01*
X153110859Y-119852711D01*
X153144056Y-119882121D01*
X153180216Y-119938045D01*
X153182228Y-120004611D01*
X153149512Y-120062618D01*
X152212132Y-121000000D01*
X153149512Y-121937380D01*
X153182228Y-121995386D01*
X153180217Y-122061951D01*
X153144059Y-122117876D01*
X153105065Y-122152422D01*
X153050082Y-122180577D01*
X152988338Y-122178711D01*
X152935156Y-122147288D01*
X152000000Y-121212132D01*
X151064843Y-122147287D01*
X151011662Y-122178710D01*
X150949919Y-122180576D01*
X150894937Y-122152423D01*
X150868999Y-122129445D01*
X150855941Y-122117877D01*
X150819782Y-122061953D01*
X150817770Y-121995387D01*
X150850486Y-121937380D01*
X151787868Y-121000000D01*
X150850487Y-120062619D01*
X150817771Y-120004613D01*
X150819782Y-119938048D01*
X150855938Y-119882125D01*
X150894939Y-119847574D01*
X150949917Y-119819422D01*
X151011661Y-119821288D01*
X151064843Y-119852711D01*
X152000000Y-120787868D01*
X152000001Y-120787868D01*
X152935155Y-119852711D01*
X152988336Y-119821288D01*
X153050079Y-119819422D01*
X153105061Y-119847575D01*
G37*
G04 #@! TD.AperFunction*
G04 #@! TA.AperFunction,Conductor*
G36*
X45105061Y-119847575D02*
G01*
X45110859Y-119852711D01*
X45144056Y-119882121D01*
X45180216Y-119938045D01*
X45182228Y-120004611D01*
X45149512Y-120062618D01*
X44212132Y-121000000D01*
X45149512Y-121937380D01*
X45182228Y-121995386D01*
X45180217Y-122061951D01*
X45144059Y-122117876D01*
X45105065Y-122152422D01*
X45050082Y-122180577D01*
X44988338Y-122178711D01*
X44935156Y-122147288D01*
X44000000Y-121212132D01*
X43064843Y-122147287D01*
X43011662Y-122178710D01*
X42949919Y-122180576D01*
X42894937Y-122152423D01*
X42868999Y-122129445D01*
X42855941Y-122117877D01*
X42819782Y-122061953D01*
X42817770Y-121995387D01*
X42850486Y-121937380D01*
X43787868Y-121000001D01*
X43787868Y-121000000D01*
X42850487Y-120062619D01*
X42817771Y-120004613D01*
X42819782Y-119938048D01*
X42855938Y-119882125D01*
X42894939Y-119847574D01*
X42949917Y-119819422D01*
X43011661Y-119821288D01*
X43064843Y-119852711D01*
X44000000Y-120787868D01*
X44000001Y-120787868D01*
X44935155Y-119852711D01*
X44988336Y-119821288D01*
X45050079Y-119819422D01*
X45105061Y-119847575D01*
G37*
G04 #@! TD.AperFunction*
G04 #@! TA.AperFunction,Conductor*
G36*
X153105061Y-42847575D02*
G01*
X153110859Y-42852711D01*
X153144056Y-42882121D01*
X153180216Y-42938045D01*
X153182228Y-43004611D01*
X153149512Y-43062618D01*
X152212132Y-44000000D01*
X153149512Y-44937380D01*
X153182228Y-44995386D01*
X153180217Y-45061951D01*
X153144059Y-45117876D01*
X153105065Y-45152422D01*
X153050082Y-45180577D01*
X152988338Y-45178711D01*
X152935156Y-45147288D01*
X152000000Y-44212132D01*
X151064843Y-45147287D01*
X151011662Y-45178710D01*
X150949919Y-45180576D01*
X150894937Y-45152423D01*
X150863896Y-45124924D01*
X150855941Y-45117877D01*
X150819782Y-45061953D01*
X150817770Y-44995387D01*
X150850486Y-44937380D01*
X151787868Y-44000000D01*
X150850487Y-43062619D01*
X150817771Y-43004613D01*
X150819782Y-42938048D01*
X150855938Y-42882125D01*
X150894939Y-42847574D01*
X150949917Y-42819422D01*
X151011661Y-42821288D01*
X151064843Y-42852711D01*
X152000000Y-43787868D01*
X152000001Y-43787868D01*
X152935155Y-42852711D01*
X152988336Y-42821288D01*
X153050079Y-42819422D01*
X153105061Y-42847575D01*
G37*
G04 #@! TD.AperFunction*
G04 #@! TA.AperFunction,Conductor*
G36*
X45105061Y-42847575D02*
G01*
X45110859Y-42852711D01*
X45144056Y-42882121D01*
X45180216Y-42938045D01*
X45182228Y-43004611D01*
X45149512Y-43062618D01*
X44212132Y-44000000D01*
X45149512Y-44937380D01*
X45182228Y-44995386D01*
X45180217Y-45061951D01*
X45144059Y-45117876D01*
X45105065Y-45152422D01*
X45050082Y-45180577D01*
X44988338Y-45178711D01*
X44935156Y-45147288D01*
X44000000Y-44212132D01*
X43064843Y-45147287D01*
X43011662Y-45178710D01*
X42949919Y-45180576D01*
X42894937Y-45152423D01*
X42863896Y-45124924D01*
X42855941Y-45117877D01*
X42819782Y-45061953D01*
X42817770Y-44995387D01*
X42850486Y-44937380D01*
X43787868Y-44000001D01*
X43787868Y-44000000D01*
X42850487Y-43062619D01*
X42817771Y-43004613D01*
X42819782Y-42938048D01*
X42855938Y-42882125D01*
X42894939Y-42847574D01*
X42949917Y-42819422D01*
X43011661Y-42821288D01*
X43064843Y-42852711D01*
X44000000Y-43787868D01*
X44000001Y-43787868D01*
X44935155Y-42852711D01*
X44988336Y-42821288D01*
X45050079Y-42819422D01*
X45105061Y-42847575D01*
G37*
G04 #@! TD.AperFunction*
G04 #@! TA.AperFunction,Conductor*
G36*
X153002702Y-39300617D02*
G01*
X153404202Y-39318147D01*
X153414937Y-39319087D01*
X153810693Y-39371189D01*
X153821331Y-39373064D01*
X154211043Y-39459462D01*
X154221483Y-39462260D01*
X154602164Y-39582288D01*
X154612315Y-39585982D01*
X154981100Y-39738738D01*
X154990893Y-39743305D01*
X155301906Y-39905208D01*
X155344942Y-39927611D01*
X155354310Y-39933019D01*
X155690959Y-40147488D01*
X155699820Y-40153693D01*
X156016487Y-40396680D01*
X156024774Y-40403634D01*
X156319056Y-40673294D01*
X156326705Y-40680943D01*
X156596365Y-40975225D01*
X156603319Y-40983512D01*
X156846306Y-41300179D01*
X156852511Y-41309040D01*
X157066980Y-41645689D01*
X157072388Y-41655057D01*
X157256691Y-42009099D01*
X157261263Y-42018903D01*
X157414013Y-42387674D01*
X157417713Y-42397840D01*
X157537738Y-42778512D01*
X157540538Y-42788960D01*
X157626933Y-43178660D01*
X157628811Y-43189314D01*
X157680910Y-43585042D01*
X157681853Y-43595818D01*
X157699382Y-43997297D01*
X157699500Y-44002706D01*
X157699500Y-121401605D01*
X157699499Y-121401613D01*
X157699499Y-121461764D01*
X157699381Y-121467172D01*
X157681856Y-121868651D01*
X157680913Y-121879428D01*
X157628816Y-122275160D01*
X157626938Y-122285813D01*
X157540546Y-122675511D01*
X157537746Y-122685960D01*
X157417720Y-123066639D01*
X157414020Y-123076804D01*
X157261277Y-123445566D01*
X157256706Y-123455370D01*
X157072397Y-123809428D01*
X157066988Y-123818797D01*
X156852522Y-124155443D01*
X156846317Y-124164304D01*
X156603335Y-124480967D01*
X156596382Y-124489254D01*
X156326711Y-124783551D01*
X156319062Y-124791200D01*
X156207853Y-124893105D01*
X156024813Y-125060832D01*
X156024791Y-125060852D01*
X156016504Y-125067806D01*
X155699818Y-125310809D01*
X155690956Y-125317013D01*
X155354327Y-125531470D01*
X155344959Y-125536879D01*
X154990907Y-125721188D01*
X154981103Y-125725760D01*
X154612334Y-125878510D01*
X154602169Y-125882210D01*
X154221490Y-126002238D01*
X154211040Y-126005038D01*
X153821341Y-126091432D01*
X153810689Y-126093310D01*
X153414960Y-126145410D01*
X153404183Y-126146353D01*
X153003482Y-126163848D01*
X152998073Y-126163966D01*
X43538240Y-126163966D01*
X43532831Y-126163848D01*
X43131350Y-126146319D01*
X43120576Y-126145376D01*
X43057050Y-126137013D01*
X42724848Y-126093278D01*
X42714194Y-126091400D01*
X42324496Y-126005006D01*
X42314047Y-126002206D01*
X41933366Y-125882177D01*
X41923202Y-125878477D01*
X41554442Y-125725733D01*
X41544637Y-125721161D01*
X41190633Y-125536879D01*
X41190575Y-125536848D01*
X41181229Y-125531453D01*
X40844576Y-125316980D01*
X40835720Y-125310779D01*
X40519045Y-125067786D01*
X40510758Y-125060832D01*
X40216476Y-124791172D01*
X40208827Y-124783523D01*
X39939167Y-124489241D01*
X39932213Y-124480954D01*
X39689220Y-124164279D01*
X39683022Y-124155428D01*
X39468542Y-123818763D01*
X39463153Y-123809428D01*
X39278835Y-123455357D01*
X39274266Y-123445557D01*
X39252453Y-123392896D01*
X39121522Y-123076797D01*
X39117822Y-123066633D01*
X39083355Y-122957318D01*
X38997790Y-122685940D01*
X38994995Y-122675511D01*
X38908597Y-122285797D01*
X38906721Y-122275151D01*
X38854621Y-121879403D01*
X38853681Y-121868669D01*
X38836152Y-121467168D01*
X38836034Y-121461760D01*
X38836034Y-121000000D01*
X40695152Y-121000000D01*
X40714525Y-121357310D01*
X40772419Y-121710451D01*
X40868149Y-122055241D01*
X41000601Y-122387670D01*
X41168218Y-122703829D01*
X41369031Y-123000004D01*
X41561394Y-123226471D01*
X41561395Y-123226471D01*
X41753175Y-123034691D01*
X41806356Y-123003268D01*
X41868099Y-123001402D01*
X41923081Y-123029555D01*
X41928879Y-123034691D01*
X41962076Y-123064101D01*
X41998236Y-123120025D01*
X42000248Y-123186591D01*
X41967532Y-123244598D01*
X41774630Y-123437500D01*
X41774630Y-123437501D01*
X41860485Y-123518828D01*
X42145363Y-123735386D01*
X42451984Y-123919873D01*
X42776746Y-124070124D01*
X43115859Y-124184385D01*
X43465335Y-124261310D01*
X43821078Y-124300000D01*
X44178922Y-124300000D01*
X44534664Y-124261310D01*
X44884140Y-124184385D01*
X45223253Y-124070124D01*
X45548015Y-123919873D01*
X45854636Y-123735386D01*
X46139514Y-123518828D01*
X46225368Y-123437502D01*
X46225368Y-123437500D01*
X46032467Y-123244599D01*
X45999751Y-123186593D01*
X46001762Y-123120028D01*
X46037918Y-123064105D01*
X46076919Y-123029554D01*
X46131897Y-123001402D01*
X46193641Y-123003268D01*
X46246823Y-123034691D01*
X46438603Y-123226471D01*
X46630968Y-123000004D01*
X46831781Y-122703829D01*
X46999398Y-122387670D01*
X47131850Y-122055241D01*
X47227580Y-121710451D01*
X47285474Y-121357310D01*
X47304847Y-121000000D01*
X47285474Y-120642689D01*
X47227580Y-120289548D01*
X47131850Y-119944758D01*
X46999398Y-119612329D01*
X46831781Y-119296170D01*
X46630968Y-118999995D01*
X46438604Y-118773527D01*
X46438603Y-118773527D01*
X46246823Y-118965307D01*
X46193642Y-118996730D01*
X46131899Y-118998596D01*
X46076917Y-118970443D01*
X46037922Y-118935898D01*
X46001762Y-118879973D01*
X45999750Y-118813406D01*
X46032466Y-118755399D01*
X46225368Y-118562497D01*
X46139514Y-118481171D01*
X45854636Y-118264613D01*
X45548015Y-118080126D01*
X45223253Y-117929875D01*
X44884140Y-117815614D01*
X44534664Y-117738689D01*
X44178922Y-117700000D01*
X43821078Y-117700000D01*
X43465335Y-117738689D01*
X43115859Y-117815614D01*
X42776746Y-117929875D01*
X42451984Y-118080126D01*
X42145368Y-118264610D01*
X41860482Y-118481175D01*
X41774629Y-118562497D01*
X41774629Y-118562498D01*
X41967532Y-118755400D01*
X42000248Y-118813405D01*
X41998237Y-118879971D01*
X41962079Y-118935896D01*
X41923085Y-118970442D01*
X41868102Y-118998597D01*
X41806358Y-118996731D01*
X41753176Y-118965308D01*
X41561395Y-118773526D01*
X41561394Y-118773527D01*
X41369030Y-118999995D01*
X41168218Y-119296170D01*
X41000601Y-119612329D01*
X40868149Y-119944758D01*
X40772419Y-120289548D01*
X40714525Y-120642689D01*
X40695152Y-121000000D01*
X38836034Y-121000000D01*
X38836034Y-110474675D01*
X44699500Y-110474675D01*
X44714033Y-110547738D01*
X44714033Y-110547739D01*
X44714034Y-110547740D01*
X44769399Y-110630601D01*
X44852260Y-110685966D01*
X44888792Y-110693232D01*
X44925325Y-110700500D01*
X44925326Y-110700500D01*
X46674674Y-110700500D01*
X46674675Y-110700500D01*
X46699029Y-110695655D01*
X46747740Y-110685966D01*
X46830601Y-110630601D01*
X46885966Y-110547740D01*
X46900500Y-110474674D01*
X46900500Y-108841673D01*
X51670456Y-108841673D01*
X51670457Y-108841674D01*
X51713828Y-108877268D01*
X51896235Y-108974766D01*
X52094165Y-109034808D01*
X52248412Y-109050000D01*
X58351588Y-109050000D01*
X58505834Y-109034808D01*
X58703764Y-108974766D01*
X58886169Y-108877270D01*
X58929541Y-108841673D01*
X55300000Y-105212132D01*
X51670456Y-108841673D01*
X46900500Y-108841673D01*
X46900500Y-108725326D01*
X46885966Y-108652260D01*
X46830601Y-108569399D01*
X46747740Y-108514034D01*
X46747739Y-108514033D01*
X46747738Y-108514033D01*
X46674675Y-108499500D01*
X46674674Y-108499500D01*
X44925326Y-108499500D01*
X44925325Y-108499500D01*
X44852261Y-108514033D01*
X44769399Y-108569399D01*
X44714033Y-108652261D01*
X44699500Y-108725325D01*
X44699500Y-110474675D01*
X38836034Y-110474675D01*
X38836034Y-107060000D01*
X44694785Y-107060000D01*
X44713602Y-107263083D01*
X44769418Y-107459251D01*
X44860324Y-107641818D01*
X44983236Y-107804580D01*
X45133958Y-107941981D01*
X45307361Y-108049347D01*
X45307363Y-108049348D01*
X45497544Y-108123024D01*
X45698024Y-108160500D01*
X45901974Y-108160500D01*
X45901976Y-108160500D01*
X46102456Y-108123024D01*
X46286855Y-108051588D01*
X51250000Y-108051588D01*
X51265191Y-108205834D01*
X51325233Y-108403764D01*
X51422731Y-108586171D01*
X51458325Y-108629542D01*
X55087868Y-105000001D01*
X55512132Y-105000001D01*
X59141673Y-108629541D01*
X59177270Y-108586169D01*
X59274766Y-108403764D01*
X59334808Y-108205834D01*
X59350000Y-108051588D01*
X59350000Y-101948412D01*
X59334808Y-101794165D01*
X59274766Y-101596235D01*
X59177268Y-101413828D01*
X59141674Y-101370457D01*
X59141673Y-101370456D01*
X55512132Y-105000000D01*
X55512132Y-105000001D01*
X55087868Y-105000001D01*
X55087868Y-105000000D01*
X51458326Y-101370457D01*
X51458325Y-101370457D01*
X51422731Y-101413829D01*
X51325233Y-101596235D01*
X51265191Y-101794165D01*
X51250000Y-101948412D01*
X51250000Y-108051588D01*
X46286855Y-108051588D01*
X46292637Y-108049348D01*
X46466041Y-107941981D01*
X46616764Y-107804579D01*
X46739673Y-107641821D01*
X46739673Y-107641819D01*
X46739675Y-107641818D01*
X46822494Y-107475493D01*
X46830582Y-107459250D01*
X46886397Y-107263083D01*
X46905215Y-107060000D01*
X46886397Y-106856917D01*
X46830582Y-106660750D01*
X46821834Y-106643181D01*
X46739675Y-106478181D01*
X46616763Y-106315419D01*
X46466041Y-106178018D01*
X46292638Y-106070652D01*
X46102457Y-105996976D01*
X46014466Y-105980528D01*
X45901976Y-105959500D01*
X45698024Y-105959500D01*
X45609847Y-105975983D01*
X45497542Y-105996976D01*
X45307361Y-106070652D01*
X45133958Y-106178018D01*
X44983236Y-106315419D01*
X44860324Y-106478181D01*
X44769418Y-106660748D01*
X44713602Y-106856916D01*
X44694785Y-107060000D01*
X38836034Y-107060000D01*
X38836034Y-104520000D01*
X44694785Y-104520000D01*
X44713602Y-104723083D01*
X44769418Y-104919251D01*
X44860324Y-105101818D01*
X44983236Y-105264580D01*
X45133958Y-105401981D01*
X45307361Y-105509347D01*
X45307363Y-105509348D01*
X45497544Y-105583024D01*
X45698024Y-105620500D01*
X45901974Y-105620500D01*
X45901976Y-105620500D01*
X46102456Y-105583024D01*
X46292637Y-105509348D01*
X46466041Y-105401981D01*
X46616764Y-105264579D01*
X46739673Y-105101821D01*
X46739673Y-105101819D01*
X46739675Y-105101818D01*
X46790373Y-105000001D01*
X46830582Y-104919250D01*
X46886397Y-104723083D01*
X46905215Y-104520000D01*
X46886397Y-104316917D01*
X46875084Y-104277158D01*
X46830581Y-104120748D01*
X46739675Y-103938181D01*
X46616763Y-103775419D01*
X46466041Y-103638018D01*
X46292638Y-103530652D01*
X46102457Y-103456976D01*
X46035629Y-103444484D01*
X45901976Y-103419500D01*
X45698024Y-103419500D01*
X45597784Y-103438237D01*
X45497542Y-103456976D01*
X45307361Y-103530652D01*
X45133958Y-103638018D01*
X44983236Y-103775419D01*
X44860324Y-103938181D01*
X44769418Y-104120748D01*
X44713602Y-104316916D01*
X44694785Y-104520000D01*
X38836034Y-104520000D01*
X38836034Y-102130000D01*
X44658973Y-102130000D01*
X44664738Y-102192218D01*
X44723062Y-102397208D01*
X44818058Y-102587988D01*
X44946497Y-102758067D01*
X45104003Y-102901654D01*
X45285201Y-103013846D01*
X45483939Y-103090837D01*
X45650000Y-103121880D01*
X45650000Y-102130000D01*
X45950000Y-102130000D01*
X45950000Y-103121880D01*
X46116060Y-103090837D01*
X46314798Y-103013846D01*
X46495996Y-102901654D01*
X46653502Y-102758067D01*
X46781941Y-102587988D01*
X46876937Y-102397208D01*
X46935261Y-102192218D01*
X46941027Y-102130000D01*
X45950000Y-102130000D01*
X45650000Y-102130000D01*
X44658973Y-102130000D01*
X38836034Y-102130000D01*
X38836034Y-101829999D01*
X44658972Y-101829999D01*
X44658973Y-101830000D01*
X45650000Y-101830000D01*
X45650000Y-100838120D01*
X45950000Y-100838120D01*
X45950000Y-101830000D01*
X46941027Y-101830000D01*
X46941027Y-101829999D01*
X46935261Y-101767781D01*
X46876937Y-101562791D01*
X46781941Y-101372011D01*
X46653502Y-101201932D01*
X46605669Y-101158326D01*
X51670457Y-101158326D01*
X55299999Y-104787868D01*
X58929542Y-101158325D01*
X58886171Y-101122731D01*
X58703764Y-101025233D01*
X58505834Y-100965191D01*
X58351588Y-100950000D01*
X52248412Y-100950000D01*
X52094165Y-100965191D01*
X51896235Y-101025233D01*
X51713829Y-101122731D01*
X51670457Y-101158325D01*
X51670457Y-101158326D01*
X46605669Y-101158326D01*
X46495996Y-101058345D01*
X46314798Y-100946153D01*
X46116060Y-100869162D01*
X45950000Y-100838120D01*
X45650000Y-100838120D01*
X45483939Y-100869162D01*
X45285201Y-100946153D01*
X45104003Y-101058345D01*
X44946497Y-101201932D01*
X44818058Y-101372011D01*
X44723062Y-101562791D01*
X44664738Y-101767781D01*
X44658972Y-101829999D01*
X38836034Y-101829999D01*
X38836034Y-97074675D01*
X44699500Y-97074675D01*
X44714033Y-97147738D01*
X44714033Y-97147739D01*
X44714034Y-97147740D01*
X44769399Y-97230601D01*
X44852260Y-97285966D01*
X44888792Y-97293232D01*
X44925325Y-97300500D01*
X44925326Y-97300500D01*
X46674674Y-97300500D01*
X46674675Y-97300500D01*
X46699029Y-97295655D01*
X46747740Y-97285966D01*
X46830601Y-97230601D01*
X46885966Y-97147740D01*
X46900500Y-97074674D01*
X46900500Y-95325326D01*
X46885966Y-95252260D01*
X46830601Y-95169399D01*
X46747740Y-95114034D01*
X46747739Y-95114033D01*
X46747738Y-95114033D01*
X46674675Y-95099500D01*
X46674674Y-95099500D01*
X44925326Y-95099500D01*
X44925325Y-95099500D01*
X44852261Y-95114033D01*
X44769399Y-95169399D01*
X44714033Y-95252261D01*
X44699500Y-95325325D01*
X44699500Y-97074675D01*
X38836034Y-97074675D01*
X38836034Y-93660000D01*
X44694785Y-93660000D01*
X44713602Y-93863083D01*
X44769418Y-94059251D01*
X44860324Y-94241818D01*
X44983236Y-94404580D01*
X45133958Y-94541981D01*
X45307361Y-94649347D01*
X45307363Y-94649348D01*
X45497544Y-94723024D01*
X45698024Y-94760500D01*
X45901974Y-94760500D01*
X45901976Y-94760500D01*
X46102456Y-94723024D01*
X46292637Y-94649348D01*
X46466041Y-94541981D01*
X46616764Y-94404579D01*
X46739673Y-94241821D01*
X46739673Y-94241819D01*
X46739675Y-94241818D01*
X46785313Y-94150161D01*
X46830582Y-94059250D01*
X46886397Y-93863083D01*
X46905215Y-93660000D01*
X46887992Y-93474138D01*
X46886397Y-93456916D01*
X46830581Y-93260748D01*
X46739675Y-93078181D01*
X46616763Y-92915419D01*
X46466041Y-92778018D01*
X46292638Y-92670652D01*
X46102457Y-92596976D01*
X46033516Y-92584089D01*
X45901976Y-92559500D01*
X45698024Y-92559500D01*
X45597784Y-92578237D01*
X45497542Y-92596976D01*
X45307361Y-92670652D01*
X45133958Y-92778018D01*
X44983236Y-92915419D01*
X44860324Y-93078181D01*
X44769418Y-93260748D01*
X44713602Y-93456916D01*
X44694785Y-93660000D01*
X38836034Y-93660000D01*
X38836034Y-91120000D01*
X44694785Y-91120000D01*
X44713602Y-91323083D01*
X44769418Y-91519251D01*
X44860324Y-91701818D01*
X44983236Y-91864580D01*
X45133958Y-92001981D01*
X45307361Y-92109347D01*
X45307363Y-92109348D01*
X45497544Y-92183024D01*
X45698024Y-92220500D01*
X45901974Y-92220500D01*
X45901976Y-92220500D01*
X46102456Y-92183024D01*
X46292637Y-92109348D01*
X46466041Y-92001981D01*
X46616764Y-91864579D01*
X46739673Y-91701821D01*
X46739673Y-91701819D01*
X46739675Y-91701818D01*
X46785313Y-91610161D01*
X46830582Y-91519250D01*
X46886397Y-91323083D01*
X46905215Y-91120000D01*
X46886397Y-90916917D01*
X46880296Y-90895476D01*
X46844161Y-90768475D01*
X46830582Y-90720750D01*
X46818546Y-90696578D01*
X46739675Y-90538181D01*
X46616763Y-90375419D01*
X46466041Y-90238018D01*
X46292638Y-90130652D01*
X46102457Y-90056976D01*
X46035629Y-90044483D01*
X45901976Y-90019500D01*
X45698024Y-90019500D01*
X45597784Y-90038237D01*
X45497542Y-90056976D01*
X45307361Y-90130652D01*
X45133958Y-90238018D01*
X44983236Y-90375419D01*
X44860324Y-90538181D01*
X44769418Y-90720748D01*
X44713602Y-90916916D01*
X44694785Y-91120000D01*
X38836034Y-91120000D01*
X38836034Y-88730000D01*
X44658973Y-88730000D01*
X44664738Y-88792218D01*
X44723062Y-88997208D01*
X44818058Y-89187988D01*
X44946497Y-89358067D01*
X45104003Y-89501654D01*
X45285201Y-89613846D01*
X45483939Y-89690837D01*
X45650000Y-89721880D01*
X45650000Y-88730000D01*
X45950000Y-88730000D01*
X45950000Y-89721880D01*
X46116060Y-89690837D01*
X46314798Y-89613846D01*
X46495996Y-89501654D01*
X46653502Y-89358067D01*
X46781941Y-89187988D01*
X46876937Y-88997208D01*
X46935261Y-88792218D01*
X46941027Y-88730000D01*
X45950000Y-88730000D01*
X45650000Y-88730000D01*
X44658973Y-88730000D01*
X38836034Y-88730000D01*
X38836034Y-88429999D01*
X44658972Y-88429999D01*
X44658973Y-88430000D01*
X45650000Y-88430000D01*
X45650000Y-87438120D01*
X45950000Y-87438120D01*
X45950000Y-88430000D01*
X46941027Y-88430000D01*
X46941027Y-88429999D01*
X46935261Y-88367781D01*
X46876937Y-88162791D01*
X46781941Y-87972011D01*
X46653502Y-87801932D01*
X46495996Y-87658345D01*
X46314798Y-87546153D01*
X46116060Y-87469162D01*
X45950000Y-87438120D01*
X45650000Y-87438120D01*
X45483939Y-87469162D01*
X45285201Y-87546153D01*
X45104003Y-87658345D01*
X44946497Y-87801932D01*
X44818058Y-87972011D01*
X44723062Y-88162791D01*
X44664738Y-88367781D01*
X44658972Y-88429999D01*
X38836034Y-88429999D01*
X38836034Y-84800000D01*
X41944721Y-84800000D01*
X41963763Y-84956818D01*
X42019780Y-85104523D01*
X42109515Y-85234528D01*
X42109516Y-85234529D01*
X42109517Y-85234530D01*
X42227760Y-85339283D01*
X42304335Y-85379473D01*
X42326577Y-85394418D01*
X42328945Y-85396412D01*
X42328949Y-85396414D01*
X42328950Y-85396415D01*
X43018377Y-85790920D01*
X43044472Y-85810864D01*
X44071950Y-86838342D01*
X44161658Y-86928050D01*
X44181395Y-86938106D01*
X44197990Y-86948276D01*
X44215908Y-86961295D01*
X44215909Y-86961295D01*
X44215910Y-86961296D01*
X44236979Y-86968141D01*
X44254949Y-86975584D01*
X44274696Y-86985646D01*
X44296579Y-86989111D01*
X44315498Y-86993652D01*
X44336567Y-87000499D01*
X44358212Y-87000499D01*
X44358224Y-87000500D01*
X44368481Y-87000500D01*
X46982745Y-87000500D01*
X47030198Y-87009939D01*
X47070426Y-87036819D01*
X47563181Y-87529574D01*
X47590061Y-87569802D01*
X47599500Y-87617255D01*
X47599500Y-90053385D01*
X47606346Y-90074457D01*
X47610886Y-90093368D01*
X47614353Y-90115252D01*
X47624412Y-90134994D01*
X47631858Y-90152970D01*
X47638704Y-90174040D01*
X47651726Y-90191964D01*
X47661889Y-90208549D01*
X47671947Y-90228289D01*
X47671949Y-90228291D01*
X47671950Y-90228292D01*
X47688283Y-90244625D01*
X47688296Y-90244640D01*
X48576622Y-91132964D01*
X48666330Y-91222672D01*
X48686067Y-91232728D01*
X48702662Y-91242898D01*
X48720580Y-91255917D01*
X48720581Y-91255917D01*
X48720582Y-91255918D01*
X48741651Y-91262763D01*
X48759621Y-91270206D01*
X48779368Y-91280268D01*
X48801251Y-91283733D01*
X48820170Y-91288274D01*
X48841239Y-91295121D01*
X48862884Y-91295121D01*
X48862896Y-91295122D01*
X48873153Y-91295122D01*
X49276297Y-91295122D01*
X49308851Y-91299471D01*
X49783722Y-91428676D01*
X50081899Y-91509805D01*
X50085536Y-91510404D01*
X50226393Y-91545122D01*
X50384363Y-91545122D01*
X50537743Y-91507318D01*
X50677618Y-91433905D01*
X50795861Y-91329152D01*
X50799946Y-91323232D01*
X50846696Y-91282686D01*
X50907225Y-91269782D01*
X50966451Y-91287740D01*
X51009621Y-91332086D01*
X51209113Y-91680712D01*
X51217430Y-91698327D01*
X51219779Y-91704522D01*
X51309515Y-91834528D01*
X51309516Y-91834529D01*
X51309517Y-91834530D01*
X51427760Y-91939283D01*
X51547220Y-92001981D01*
X51567635Y-92012696D01*
X51721015Y-92050500D01*
X51822907Y-92050500D01*
X51889180Y-92069696D01*
X51934934Y-92121341D01*
X51946003Y-92189445D01*
X51944721Y-92199998D01*
X51963763Y-92356818D01*
X52019780Y-92504523D01*
X52109515Y-92634528D01*
X52109516Y-92634529D01*
X52109517Y-92634530D01*
X52227760Y-92739283D01*
X52367635Y-92812696D01*
X52521015Y-92850500D01*
X52678985Y-92850500D01*
X52832365Y-92812696D01*
X52972240Y-92739283D01*
X53090483Y-92634530D01*
X53180220Y-92504523D01*
X53236237Y-92356818D01*
X53255278Y-92200000D01*
X53236237Y-92043182D01*
X53220958Y-92002895D01*
X53213758Y-91971282D01*
X53010074Y-91222672D01*
X53004849Y-91203472D01*
X53000500Y-91170918D01*
X53000500Y-90758224D01*
X53000499Y-90758212D01*
X53000499Y-90736568D01*
X53000499Y-90736567D01*
X52993652Y-90715498D01*
X52989111Y-90696578D01*
X52985646Y-90674697D01*
X52985646Y-90674696D01*
X52975584Y-90654949D01*
X52968141Y-90636979D01*
X52961296Y-90615910D01*
X52951386Y-90602271D01*
X52948276Y-90597990D01*
X52938104Y-90581392D01*
X52928050Y-90561658D01*
X52838342Y-90471950D01*
X51724459Y-89358067D01*
X50436819Y-88070426D01*
X50409939Y-88030198D01*
X50400500Y-87982745D01*
X50400500Y-83554546D01*
X50413013Y-83500263D01*
X50448027Y-83456936D01*
X50498474Y-83433308D01*
X50554174Y-83434149D01*
X50620515Y-83450500D01*
X50778485Y-83450500D01*
X50931865Y-83412696D01*
X51071740Y-83339283D01*
X51093274Y-83320205D01*
X51142924Y-83293376D01*
X51199324Y-83291331D01*
X51250788Y-83314493D01*
X51286657Y-83358065D01*
X51299500Y-83413021D01*
X51299500Y-85258033D01*
X51306724Y-85339283D01*
X51310114Y-85377418D01*
X51314982Y-85394431D01*
X51366091Y-85573050D01*
X51460301Y-85753406D01*
X51460302Y-85753407D01*
X51588891Y-85911109D01*
X51746593Y-86039698D01*
X51926951Y-86133909D01*
X52122582Y-86189886D01*
X52241963Y-86200500D01*
X57548247Y-86200499D01*
X57595685Y-86209932D01*
X59169857Y-86861739D01*
X59210100Y-86888625D01*
X60222705Y-87901230D01*
X60249585Y-87941458D01*
X60259024Y-87988911D01*
X60259024Y-96198002D01*
X60258952Y-96202235D01*
X60256761Y-96266350D01*
X60266487Y-96306257D01*
X60268858Y-96318731D01*
X60274454Y-96359446D01*
X60281603Y-96375904D01*
X60288343Y-96395945D01*
X60292591Y-96413377D01*
X60312730Y-96449196D01*
X60318376Y-96460563D01*
X60334744Y-96498244D01*
X60342533Y-96507818D01*
X60346066Y-96512161D01*
X60357961Y-96529640D01*
X60366756Y-96545281D01*
X60395809Y-96574334D01*
X60404317Y-96583761D01*
X60430245Y-96615631D01*
X60444902Y-96625977D01*
X60461076Y-96639601D01*
X71413181Y-107591706D01*
X71440061Y-107631934D01*
X71449500Y-107679387D01*
X71449500Y-123590118D01*
X71445259Y-123619444D01*
X71419920Y-123862696D01*
X71347217Y-124560648D01*
X71347216Y-124560653D01*
X71347388Y-124565495D01*
X71346562Y-124584840D01*
X71344721Y-124599999D01*
X71363763Y-124756818D01*
X71419780Y-124904523D01*
X71509515Y-125034528D01*
X71509516Y-125034529D01*
X71509517Y-125034530D01*
X71627760Y-125139283D01*
X71767635Y-125212696D01*
X71921015Y-125250500D01*
X72078985Y-125250500D01*
X72232365Y-125212696D01*
X72372240Y-125139283D01*
X72490483Y-125034530D01*
X72580220Y-124904523D01*
X72636237Y-124756818D01*
X72655278Y-124600000D01*
X72655278Y-124599999D01*
X123144721Y-124599999D01*
X123163763Y-124756818D01*
X123219780Y-124904523D01*
X123309515Y-125034528D01*
X123309516Y-125034529D01*
X123309517Y-125034530D01*
X123427760Y-125139283D01*
X123567635Y-125212696D01*
X123721015Y-125250500D01*
X123878985Y-125250500D01*
X124032365Y-125212696D01*
X124172240Y-125139283D01*
X124290483Y-125034530D01*
X124380220Y-124904523D01*
X124436237Y-124756818D01*
X124437065Y-124750000D01*
X126118973Y-124750000D01*
X126124738Y-124812218D01*
X126183062Y-125017208D01*
X126278058Y-125207988D01*
X126406497Y-125378067D01*
X126564003Y-125521654D01*
X126745201Y-125633846D01*
X126943939Y-125710837D01*
X127110000Y-125741880D01*
X127110000Y-124750000D01*
X127410000Y-124750000D01*
X127410000Y-125741880D01*
X127576060Y-125710837D01*
X127774798Y-125633846D01*
X127955996Y-125521654D01*
X128113502Y-125378067D01*
X128241941Y-125207988D01*
X128336937Y-125017208D01*
X128395261Y-124812218D01*
X128401027Y-124750000D01*
X127410000Y-124750000D01*
X127110000Y-124750000D01*
X126118973Y-124750000D01*
X124437065Y-124750000D01*
X124455278Y-124600000D01*
X124453436Y-124584839D01*
X124452611Y-124565472D01*
X124452783Y-124560648D01*
X124441257Y-124449999D01*
X126118972Y-124449999D01*
X126118973Y-124450000D01*
X127110000Y-124450000D01*
X127110000Y-123458120D01*
X127410000Y-123458120D01*
X127410000Y-124450000D01*
X128401027Y-124450000D01*
X128401027Y-124449999D01*
X128395261Y-124387781D01*
X128336937Y-124182791D01*
X128241941Y-123992011D01*
X128113502Y-123821932D01*
X127955996Y-123678345D01*
X127774798Y-123566153D01*
X127576060Y-123489162D01*
X127410000Y-123458120D01*
X127110000Y-123458120D01*
X126943939Y-123489162D01*
X126745201Y-123566153D01*
X126564003Y-123678345D01*
X126406497Y-123821932D01*
X126278058Y-123992011D01*
X126183062Y-124182791D01*
X126124738Y-124387781D01*
X126118972Y-124449999D01*
X124441257Y-124449999D01*
X124411049Y-124160006D01*
X124355217Y-123624017D01*
X124355216Y-123624014D01*
X124354743Y-123619471D01*
X124350500Y-123590116D01*
X124350500Y-106009884D01*
X124354743Y-105980528D01*
X124355216Y-105975985D01*
X124355217Y-105975983D01*
X124452783Y-105039350D01*
X124452611Y-105034524D01*
X124453437Y-105015158D01*
X124455278Y-105000000D01*
X124436237Y-104843182D01*
X124380220Y-104695477D01*
X124290483Y-104565470D01*
X124172240Y-104460717D01*
X124158994Y-104453764D01*
X124032364Y-104387303D01*
X123878985Y-104349500D01*
X123721015Y-104349500D01*
X123567635Y-104387303D01*
X123427761Y-104460716D01*
X123309515Y-104565471D01*
X123219780Y-104695476D01*
X123163763Y-104843181D01*
X123144721Y-104999999D01*
X123146562Y-105015158D01*
X123147388Y-105034504D01*
X123147216Y-105039348D01*
X123205638Y-105600199D01*
X123245259Y-105980555D01*
X123249500Y-106009882D01*
X123249500Y-123590118D01*
X123245259Y-123619444D01*
X123219920Y-123862696D01*
X123147217Y-124560648D01*
X123147216Y-124560653D01*
X123147388Y-124565495D01*
X123146562Y-124584840D01*
X123144721Y-124599999D01*
X72655278Y-124599999D01*
X72653436Y-124584839D01*
X72652611Y-124565472D01*
X72652783Y-124560648D01*
X72611049Y-124160006D01*
X72555217Y-123624017D01*
X72555216Y-123624014D01*
X72554743Y-123619471D01*
X72550500Y-123590116D01*
X72550500Y-107411522D01*
X72550572Y-107407289D01*
X72552762Y-107343174D01*
X72543035Y-107303262D01*
X72540665Y-107290794D01*
X72535070Y-107250080D01*
X72527920Y-107233620D01*
X72521180Y-107213578D01*
X72516933Y-107196148D01*
X72496792Y-107160327D01*
X72491149Y-107148964D01*
X72474780Y-107111280D01*
X72463456Y-107097360D01*
X72451559Y-107079880D01*
X72448436Y-107074326D01*
X72442766Y-107064241D01*
X72413713Y-107035188D01*
X72405205Y-107025761D01*
X72379277Y-106993891D01*
X72364615Y-106983541D01*
X72348444Y-106969919D01*
X61578525Y-96200000D01*
X68544721Y-96200000D01*
X68563763Y-96356818D01*
X68619780Y-96504523D01*
X68709515Y-96634528D01*
X68709516Y-96634529D01*
X68709517Y-96634530D01*
X68827760Y-96739283D01*
X68967635Y-96812696D01*
X69121015Y-96850500D01*
X69278985Y-96850500D01*
X69345326Y-96834149D01*
X69401026Y-96833308D01*
X69451473Y-96856936D01*
X69486487Y-96900263D01*
X69499000Y-96954546D01*
X69499000Y-96970916D01*
X69494650Y-97003471D01*
X69285748Y-97771254D01*
X69278541Y-97802894D01*
X69263263Y-97843182D01*
X69244221Y-98000000D01*
X69263263Y-98156818D01*
X69319280Y-98304523D01*
X69409015Y-98434528D01*
X69409016Y-98434529D01*
X69409017Y-98434530D01*
X69527260Y-98539283D01*
X69667135Y-98612696D01*
X69820515Y-98650500D01*
X69978485Y-98650500D01*
X70131865Y-98612696D01*
X70271740Y-98539283D01*
X70389983Y-98434530D01*
X70479720Y-98304523D01*
X70535737Y-98156818D01*
X70554778Y-98000000D01*
X70556593Y-97985053D01*
X70561179Y-97985609D01*
X70567554Y-97946234D01*
X70613308Y-97894550D01*
X70664554Y-97879699D01*
X70664367Y-97878940D01*
X70678985Y-97875337D01*
X70832365Y-97837533D01*
X70972240Y-97764120D01*
X71090483Y-97659367D01*
X71180220Y-97529360D01*
X71236237Y-97381655D01*
X71255278Y-97224837D01*
X71236237Y-97068019D01*
X71220958Y-97027732D01*
X71213758Y-96996119D01*
X71004850Y-96228310D01*
X71000500Y-96195755D01*
X71000500Y-92229081D01*
X71004850Y-92196526D01*
X71213769Y-91428676D01*
X71220959Y-91397100D01*
X71236237Y-91356818D01*
X71255278Y-91200000D01*
X71236237Y-91043182D01*
X71180220Y-90895477D01*
X71120295Y-90808660D01*
X71090484Y-90765471D01*
X71082290Y-90758212D01*
X70972240Y-90660717D01*
X70927000Y-90636973D01*
X70832364Y-90587303D01*
X70678985Y-90549500D01*
X70521015Y-90549500D01*
X70367635Y-90587303D01*
X70227761Y-90660716D01*
X70109515Y-90765471D01*
X70079705Y-90808660D01*
X70035280Y-90848017D01*
X69977655Y-90862220D01*
X69920029Y-90848017D01*
X69875605Y-90808660D01*
X69854559Y-90753167D01*
X69850623Y-90720750D01*
X69836237Y-90602271D01*
X69780220Y-90454566D01*
X69690483Y-90324559D01*
X69572240Y-90219806D01*
X69490782Y-90177053D01*
X69432364Y-90146392D01*
X69278985Y-90108589D01*
X69121015Y-90108589D01*
X68967635Y-90146392D01*
X68827761Y-90219805D01*
X68709515Y-90324560D01*
X68619780Y-90454565D01*
X68563763Y-90602270D01*
X68544721Y-90759088D01*
X68563763Y-90915908D01*
X68579040Y-90956193D01*
X68586248Y-90987833D01*
X68795150Y-91755616D01*
X68799500Y-91788171D01*
X68799500Y-95170918D01*
X68795150Y-95203473D01*
X68586248Y-95971254D01*
X68579041Y-96002894D01*
X68563763Y-96043182D01*
X68544721Y-96200000D01*
X61578525Y-96200000D01*
X61396343Y-96017818D01*
X61369463Y-95977590D01*
X61360024Y-95930137D01*
X61360024Y-87721076D01*
X61360096Y-87716843D01*
X61362287Y-87652697D01*
X61352558Y-87612777D01*
X61350187Y-87600298D01*
X61344594Y-87559604D01*
X61337447Y-87543150D01*
X61330707Y-87523111D01*
X61326458Y-87505672D01*
X61306308Y-87469836D01*
X61300674Y-87458493D01*
X61284304Y-87420804D01*
X61272982Y-87406887D01*
X61261085Y-87389406D01*
X61252290Y-87373764D01*
X61223237Y-87344712D01*
X61214728Y-87335284D01*
X61188801Y-87303415D01*
X61174139Y-87293065D01*
X61157968Y-87279443D01*
X59988625Y-86110100D01*
X59961739Y-86069857D01*
X59846240Y-85790918D01*
X59309931Y-84495686D01*
X59300499Y-84448249D01*
X59300499Y-79141966D01*
X59300499Y-79141963D01*
X59289886Y-79022582D01*
X59233909Y-78826951D01*
X59139698Y-78646593D01*
X59011109Y-78488891D01*
X58853407Y-78360302D01*
X58853406Y-78360301D01*
X58673050Y-78266091D01*
X58575233Y-78238102D01*
X58477418Y-78210114D01*
X58358037Y-78199500D01*
X58358033Y-78199500D01*
X52241966Y-78199500D01*
X52122582Y-78210114D01*
X51926949Y-78266091D01*
X51746593Y-78360301D01*
X51588891Y-78488891D01*
X51460301Y-78646593D01*
X51366091Y-78826949D01*
X51356374Y-78860909D01*
X51345975Y-78897256D01*
X51343216Y-78906897D01*
X51314234Y-78957836D01*
X51265096Y-78989777D01*
X51206777Y-78995583D01*
X51152306Y-78973958D01*
X51113850Y-78929732D01*
X51100000Y-78872785D01*
X51100000Y-77947389D01*
X51113237Y-77891644D01*
X51150118Y-77847802D01*
X51543177Y-77556211D01*
X51559419Y-77546011D01*
X51572240Y-77539283D01*
X51600370Y-77514360D01*
X51608695Y-77507607D01*
X51624196Y-77496109D01*
X51648683Y-77471820D01*
X51653749Y-77467071D01*
X51690483Y-77434530D01*
X51780220Y-77304523D01*
X51836237Y-77156818D01*
X51855278Y-77000000D01*
X51836237Y-76843182D01*
X51780220Y-76695477D01*
X51690483Y-76565470D01*
X51572240Y-76460717D01*
X51494747Y-76420044D01*
X51472809Y-76405356D01*
X51470102Y-76403091D01*
X51063342Y-76172473D01*
X51017356Y-76127024D01*
X51000500Y-76064604D01*
X51000500Y-71200000D01*
X54944721Y-71200000D01*
X54963763Y-71356818D01*
X55019780Y-71504523D01*
X55109515Y-71634528D01*
X55109516Y-71634529D01*
X55109517Y-71634530D01*
X55227760Y-71739283D01*
X55367635Y-71812696D01*
X55521015Y-71850500D01*
X55678985Y-71850500D01*
X55832365Y-71812696D01*
X55972240Y-71739283D01*
X56090483Y-71634530D01*
X56180220Y-71504523D01*
X56236237Y-71356818D01*
X56255278Y-71200000D01*
X56236237Y-71043182D01*
X56220958Y-71002894D01*
X56213758Y-70971282D01*
X56004850Y-70203473D01*
X56000500Y-70170918D01*
X56000500Y-68888000D01*
X58344721Y-68888000D01*
X58363763Y-69044818D01*
X58419780Y-69192523D01*
X58509515Y-69322528D01*
X58509516Y-69322529D01*
X58509517Y-69322530D01*
X58627760Y-69427283D01*
X58767635Y-69500696D01*
X58921015Y-69538500D01*
X59078985Y-69538500D01*
X59232365Y-69500696D01*
X59372240Y-69427283D01*
X59490483Y-69322530D01*
X59580220Y-69192523D01*
X59582572Y-69186320D01*
X59590888Y-69168708D01*
X59780714Y-68836973D01*
X59990918Y-68469623D01*
X60010854Y-68443537D01*
X60254393Y-68200000D01*
X61344721Y-68200000D01*
X61363763Y-68356818D01*
X61419780Y-68504523D01*
X61509515Y-68634528D01*
X61509516Y-68634529D01*
X61509517Y-68634530D01*
X61627760Y-68739283D01*
X61767635Y-68812696D01*
X61921015Y-68850500D01*
X62078985Y-68850500D01*
X62232365Y-68812696D01*
X62372240Y-68739283D01*
X62490483Y-68634530D01*
X62580220Y-68504523D01*
X62636237Y-68356818D01*
X62655278Y-68200000D01*
X62636237Y-68043182D01*
X62620958Y-68002894D01*
X62613758Y-67971282D01*
X62404850Y-67203473D01*
X62400500Y-67170918D01*
X62400500Y-58817255D01*
X62409939Y-58769802D01*
X62436816Y-58729576D01*
X62505484Y-58660909D01*
X62505484Y-58660908D01*
X62519713Y-58646680D01*
X62519717Y-58646674D01*
X62528050Y-58638342D01*
X62538109Y-58618598D01*
X62548267Y-58602021D01*
X62561296Y-58584089D01*
X62566882Y-58566895D01*
X62602584Y-58512399D01*
X62690483Y-58434530D01*
X62780220Y-58304523D01*
X62836237Y-58156818D01*
X62855278Y-58000000D01*
X62836237Y-57843182D01*
X62780220Y-57695477D01*
X62705027Y-57586540D01*
X62690484Y-57565471D01*
X62619127Y-57502255D01*
X62572240Y-57460717D01*
X62529609Y-57438342D01*
X62456560Y-57400002D01*
X73344721Y-57400002D01*
X73348861Y-57434097D01*
X73349752Y-57447259D01*
X73349845Y-57453757D01*
X73349845Y-57453763D01*
X73349846Y-57453764D01*
X73353659Y-57477666D01*
X73355353Y-57488280D01*
X73355997Y-57492866D01*
X73363799Y-57557118D01*
X73370125Y-57580864D01*
X73497847Y-58381349D01*
X73496193Y-58381612D01*
X73499500Y-58401186D01*
X73499500Y-58963435D01*
X73506346Y-58984507D01*
X73510886Y-59003418D01*
X73514353Y-59025302D01*
X73524412Y-59045044D01*
X73531858Y-59063020D01*
X73538704Y-59084090D01*
X73551726Y-59102014D01*
X73561889Y-59118599D01*
X73571947Y-59138339D01*
X73571949Y-59138341D01*
X73571950Y-59138342D01*
X73588283Y-59154675D01*
X73588296Y-59154690D01*
X74363181Y-59929573D01*
X74390061Y-59969801D01*
X74399500Y-60017254D01*
X74399500Y-66193425D01*
X74383549Y-66254264D01*
X74037353Y-66869105D01*
X74031359Y-66878699D01*
X74019780Y-66895475D01*
X74013139Y-66912986D01*
X74012755Y-66913983D01*
X73992665Y-66965470D01*
X73987205Y-66979461D01*
X73984186Y-66989326D01*
X73963763Y-67043180D01*
X73944721Y-67200000D01*
X73963763Y-67356818D01*
X74019780Y-67504523D01*
X74109515Y-67634528D01*
X74109516Y-67634529D01*
X74109517Y-67634530D01*
X74227760Y-67739283D01*
X74367635Y-67812696D01*
X74521015Y-67850500D01*
X74678985Y-67850500D01*
X74845826Y-67809379D01*
X74901526Y-67808538D01*
X74951974Y-67832166D01*
X74986987Y-67875493D01*
X74999500Y-67929776D01*
X74999500Y-67970918D01*
X74995150Y-68003473D01*
X74786248Y-68771254D01*
X74779041Y-68802894D01*
X74763763Y-68843182D01*
X74744721Y-69000000D01*
X74763763Y-69156818D01*
X74819780Y-69304523D01*
X74909515Y-69434528D01*
X74909516Y-69434529D01*
X74909517Y-69434530D01*
X75027760Y-69539283D01*
X75167635Y-69612696D01*
X75321015Y-69650500D01*
X75478985Y-69650500D01*
X75632365Y-69612696D01*
X75772240Y-69539283D01*
X75890483Y-69434530D01*
X75912846Y-69402130D01*
X75957269Y-69362776D01*
X76014895Y-69348572D01*
X76072521Y-69362775D01*
X76167635Y-69412696D01*
X76321015Y-69450500D01*
X76478985Y-69450500D01*
X76632365Y-69412696D01*
X76772240Y-69339283D01*
X76890483Y-69234530D01*
X76980220Y-69104523D01*
X77036237Y-68956818D01*
X77055278Y-68800000D01*
X77036237Y-68643182D01*
X77020958Y-68602895D01*
X77013758Y-68571282D01*
X76812573Y-67831858D01*
X76804849Y-67803472D01*
X76800500Y-67770918D01*
X76800500Y-58929776D01*
X76813013Y-58875493D01*
X76848026Y-58832166D01*
X76898474Y-58808538D01*
X76954174Y-58809379D01*
X77121015Y-58850500D01*
X77278984Y-58850500D01*
X77278985Y-58850500D01*
X77419852Y-58815779D01*
X77423483Y-58815181D01*
X77430064Y-58813390D01*
X77430068Y-58813390D01*
X78196525Y-58604849D01*
X78229080Y-58600500D01*
X78275500Y-58600500D01*
X78337500Y-58617113D01*
X78382887Y-58662500D01*
X78399500Y-58724500D01*
X78399500Y-68425500D01*
X78382887Y-68487500D01*
X78337500Y-68532887D01*
X78275500Y-68549500D01*
X78121015Y-68549500D01*
X77967635Y-68587303D01*
X77827761Y-68660716D01*
X77709515Y-68765471D01*
X77619780Y-68895476D01*
X77563763Y-69043181D01*
X77544721Y-69199999D01*
X77563763Y-69356819D01*
X77579040Y-69397104D01*
X77586248Y-69428744D01*
X77795150Y-70196527D01*
X77799500Y-70229082D01*
X77799500Y-77622387D01*
X77783506Y-77683303D01*
X77739649Y-77728504D01*
X77679244Y-77746330D01*
X77617874Y-77732183D01*
X77565173Y-77704523D01*
X77532364Y-77687303D01*
X77378985Y-77649500D01*
X77221015Y-77649500D01*
X77067635Y-77687303D01*
X76927761Y-77760716D01*
X76809515Y-77865471D01*
X76719780Y-77995476D01*
X76663763Y-78143181D01*
X76644721Y-78300000D01*
X76663763Y-78456818D01*
X76689331Y-78524236D01*
X76695145Y-78544724D01*
X76698077Y-78559928D01*
X76934394Y-79141964D01*
X76990391Y-79279880D01*
X76999500Y-79326528D01*
X76999500Y-92147969D01*
X76982767Y-92210176D01*
X76937086Y-92255593D01*
X76783198Y-92343652D01*
X76328948Y-92603584D01*
X76326582Y-92605577D01*
X76304335Y-92620525D01*
X76227762Y-92660715D01*
X76109516Y-92765471D01*
X76019780Y-92895476D01*
X75963763Y-93043181D01*
X75944721Y-93199999D01*
X75963763Y-93356818D01*
X76019780Y-93504523D01*
X76109515Y-93634528D01*
X76109516Y-93634529D01*
X76109517Y-93634530D01*
X76227760Y-93739283D01*
X76367635Y-93812696D01*
X76521015Y-93850500D01*
X76678985Y-93850500D01*
X76832365Y-93812696D01*
X76972240Y-93739283D01*
X77090483Y-93634530D01*
X77180220Y-93504523D01*
X77182572Y-93498320D01*
X77190888Y-93480707D01*
X77204502Y-93456917D01*
X77567875Y-92821893D01*
X77613169Y-92776285D01*
X77675213Y-92759480D01*
X77737334Y-92775997D01*
X77782839Y-92821397D01*
X77799500Y-92883480D01*
X77799500Y-105862505D01*
X77795794Y-105892592D01*
X77794278Y-105898652D01*
X77745468Y-106775481D01*
X77745015Y-106797580D01*
X77744721Y-106799996D01*
X77763763Y-106956818D01*
X77819780Y-107104523D01*
X77909515Y-107234528D01*
X77909516Y-107234529D01*
X77909517Y-107234530D01*
X78027760Y-107339283D01*
X78167635Y-107412696D01*
X78321015Y-107450500D01*
X78478985Y-107450500D01*
X78645826Y-107409379D01*
X78701526Y-107408538D01*
X78751974Y-107432166D01*
X78786987Y-107475493D01*
X78799500Y-107529776D01*
X78799500Y-108570918D01*
X78795150Y-108603473D01*
X78586248Y-109371254D01*
X78579041Y-109402894D01*
X78563763Y-109443182D01*
X78544721Y-109600000D01*
X78563763Y-109756818D01*
X78619780Y-109904523D01*
X78709515Y-110034528D01*
X78709516Y-110034529D01*
X78709517Y-110034530D01*
X78827760Y-110139283D01*
X78967635Y-110212696D01*
X79121015Y-110250500D01*
X79278985Y-110250500D01*
X79445826Y-110209379D01*
X79501526Y-110208538D01*
X79551974Y-110232166D01*
X79586987Y-110275493D01*
X79599500Y-110329776D01*
X79599500Y-111170918D01*
X79595150Y-111203473D01*
X79386248Y-111971254D01*
X79379041Y-112002894D01*
X79363763Y-112043182D01*
X79344721Y-112200000D01*
X79363763Y-112356818D01*
X79419780Y-112504523D01*
X79509515Y-112634528D01*
X79509516Y-112634529D01*
X79509517Y-112634530D01*
X79627760Y-112739283D01*
X79767635Y-112812696D01*
X79921015Y-112850500D01*
X80078985Y-112850500D01*
X80245826Y-112809379D01*
X80301526Y-112808538D01*
X80351974Y-112832166D01*
X80386987Y-112875493D01*
X80399500Y-112929776D01*
X80399500Y-113970918D01*
X80395150Y-114003473D01*
X80186248Y-114771254D01*
X80179041Y-114802894D01*
X80163763Y-114843182D01*
X80144721Y-115000000D01*
X80163763Y-115156818D01*
X80219780Y-115304523D01*
X80309515Y-115434528D01*
X80309516Y-115434529D01*
X80309517Y-115434530D01*
X80427760Y-115539283D01*
X80567635Y-115612696D01*
X80721015Y-115650500D01*
X80878985Y-115650500D01*
X81032365Y-115612696D01*
X81172240Y-115539283D01*
X81290483Y-115434530D01*
X81380220Y-115304523D01*
X81436237Y-115156818D01*
X81455278Y-115000000D01*
X81436237Y-114843182D01*
X81420958Y-114802894D01*
X81413758Y-114771282D01*
X81204850Y-114003473D01*
X81200500Y-113970918D01*
X81200500Y-82017255D01*
X81209939Y-81969802D01*
X81236819Y-81929574D01*
X83864077Y-79302315D01*
X84755533Y-78410858D01*
X84781625Y-78390918D01*
X85471044Y-77996418D01*
X85471044Y-77996417D01*
X85471049Y-77996415D01*
X85473406Y-77994429D01*
X85495662Y-77979473D01*
X85572240Y-77939283D01*
X85690483Y-77834530D01*
X85780220Y-77704523D01*
X85836237Y-77556818D01*
X85855278Y-77400000D01*
X85836237Y-77243182D01*
X85780220Y-77095477D01*
X85690483Y-76965470D01*
X85572240Y-76860717D01*
X85538830Y-76843182D01*
X85432364Y-76787303D01*
X85278985Y-76749500D01*
X85121015Y-76749500D01*
X84967635Y-76787303D01*
X84827761Y-76860716D01*
X84709515Y-76965471D01*
X84619779Y-77095476D01*
X84617429Y-77101674D01*
X84609114Y-77119283D01*
X84209076Y-77818378D01*
X84189132Y-77844473D01*
X83544421Y-78489184D01*
X83498955Y-78518096D01*
X83445518Y-78524994D01*
X83394200Y-78508577D01*
X83354690Y-78471943D01*
X83260507Y-78335494D01*
X83182166Y-78266091D01*
X83142263Y-78230740D01*
X83082741Y-78199500D01*
X83002387Y-78157326D01*
X82849008Y-78119523D01*
X82691038Y-78119523D01*
X82537658Y-78157326D01*
X82397784Y-78230739D01*
X82279538Y-78335494D01*
X82189802Y-78465499D01*
X82187452Y-78471697D01*
X82179137Y-78489306D01*
X81779098Y-79188403D01*
X81759154Y-79214498D01*
X79812181Y-81161472D01*
X79762818Y-81191722D01*
X79705102Y-81196264D01*
X79651615Y-81174109D01*
X79614015Y-81130086D01*
X79600500Y-81073791D01*
X79600500Y-79817255D01*
X79609939Y-79769802D01*
X79636819Y-79729574D01*
X80519713Y-78846681D01*
X80519717Y-78846673D01*
X80528050Y-78838342D01*
X80538108Y-78818600D01*
X80548267Y-78802021D01*
X80561297Y-78784089D01*
X80568144Y-78763011D01*
X80575591Y-78745037D01*
X80585645Y-78725306D01*
X80585645Y-78725305D01*
X80585646Y-78725304D01*
X80589112Y-78703416D01*
X80593651Y-78684510D01*
X80600500Y-78663433D01*
X80600500Y-78536567D01*
X80600500Y-74417256D01*
X80609939Y-74369804D01*
X80636818Y-74329575D01*
X80656891Y-74309500D01*
X80755535Y-74210856D01*
X80781626Y-74190917D01*
X81374476Y-73851676D01*
X81471044Y-73796418D01*
X81471044Y-73796417D01*
X81471049Y-73796415D01*
X81473406Y-73794429D01*
X81495662Y-73779473D01*
X81572240Y-73739283D01*
X81690483Y-73634530D01*
X81780220Y-73504523D01*
X81836237Y-73356818D01*
X81855278Y-73200000D01*
X81836237Y-73043182D01*
X81780220Y-72895477D01*
X81733690Y-72828067D01*
X81690484Y-72765471D01*
X81690483Y-72765470D01*
X81572240Y-72660717D01*
X81447608Y-72595304D01*
X81432364Y-72587303D01*
X81278985Y-72549500D01*
X81121015Y-72549500D01*
X80967635Y-72587303D01*
X80827761Y-72660716D01*
X80709515Y-72765471D01*
X80619779Y-72895476D01*
X80617429Y-72901674D01*
X80609114Y-72919283D01*
X80209076Y-73618378D01*
X80189132Y-73644473D01*
X80012178Y-73821428D01*
X79962819Y-73851676D01*
X79905103Y-73856218D01*
X79851615Y-73834063D01*
X79814015Y-73790040D01*
X79800500Y-73733745D01*
X79800500Y-68958224D01*
X79800499Y-68958212D01*
X79800499Y-68936568D01*
X79800499Y-68936567D01*
X79793652Y-68915498D01*
X79789111Y-68896578D01*
X79788937Y-68895477D01*
X79785646Y-68874696D01*
X79775584Y-68854949D01*
X79768141Y-68836979D01*
X79761296Y-68815910D01*
X79749735Y-68799999D01*
X79748276Y-68797990D01*
X79738104Y-68781392D01*
X79728050Y-68761658D01*
X79638342Y-68671950D01*
X79260909Y-68294516D01*
X79260908Y-68294515D01*
X79236819Y-68270426D01*
X79209939Y-68230198D01*
X79200500Y-68182745D01*
X79200500Y-61059954D01*
X79219166Y-60994527D01*
X79269544Y-60948797D01*
X79336468Y-60936533D01*
X79399788Y-60961427D01*
X79440442Y-61015983D01*
X79469280Y-61092023D01*
X79559015Y-61222028D01*
X79559016Y-61222029D01*
X79559017Y-61222030D01*
X79677260Y-61326783D01*
X79817135Y-61400196D01*
X79970515Y-61438000D01*
X80128484Y-61438000D01*
X80128485Y-61438000D01*
X80269352Y-61403279D01*
X80272983Y-61402681D01*
X80279564Y-61400890D01*
X80279568Y-61400890D01*
X81046025Y-61192349D01*
X81078580Y-61188000D01*
X88236008Y-61188000D01*
X88282682Y-61197119D01*
X88322488Y-61223135D01*
X88730704Y-61620410D01*
X88742692Y-61628220D01*
X88757220Y-61639291D01*
X88815587Y-61690999D01*
X88827762Y-61701785D01*
X88967633Y-61775196D01*
X89121015Y-61813000D01*
X89278985Y-61813000D01*
X89432365Y-61775196D01*
X89572240Y-61701783D01*
X89690483Y-61597030D01*
X89780220Y-61467023D01*
X89836237Y-61319318D01*
X89855278Y-61162500D01*
X89836237Y-61005682D01*
X89780220Y-60857977D01*
X89691968Y-60730121D01*
X89690484Y-60727971D01*
X89665926Y-60706215D01*
X89572240Y-60623217D01*
X89524173Y-60597989D01*
X89432364Y-60549803D01*
X89278985Y-60512000D01*
X89260252Y-60512000D01*
X89240427Y-60508690D01*
X89240196Y-60510179D01*
X89130890Y-60493199D01*
X89093793Y-60481237D01*
X89064741Y-60460162D01*
X89043599Y-60449389D01*
X89027014Y-60439226D01*
X89009090Y-60426204D01*
X88988020Y-60419358D01*
X88970044Y-60411912D01*
X88950302Y-60401853D01*
X88928418Y-60398386D01*
X88909507Y-60393846D01*
X88888435Y-60387000D01*
X88888433Y-60387000D01*
X88856519Y-60387000D01*
X88436622Y-60387000D01*
X88435334Y-60386993D01*
X88371832Y-60386333D01*
X88361848Y-60387000D01*
X81078583Y-60387000D01*
X81046028Y-60382650D01*
X80936947Y-60352971D01*
X80374726Y-60200000D01*
X80273015Y-60172326D01*
X80269367Y-60171723D01*
X80128485Y-60137000D01*
X79970515Y-60137000D01*
X79817135Y-60174803D01*
X79677261Y-60248216D01*
X79559015Y-60352971D01*
X79469280Y-60482976D01*
X79440442Y-60559017D01*
X79399788Y-60613573D01*
X79336468Y-60638467D01*
X79269544Y-60626203D01*
X79219166Y-60580473D01*
X79200500Y-60515046D01*
X79200500Y-59017255D01*
X79209939Y-58969802D01*
X79236819Y-58929574D01*
X80322924Y-57843468D01*
X80322924Y-57843467D01*
X80328050Y-57838342D01*
X80338106Y-57818603D01*
X80348274Y-57802011D01*
X80361296Y-57784090D01*
X80368141Y-57763020D01*
X80375584Y-57745050D01*
X80385646Y-57725304D01*
X80389113Y-57703408D01*
X80393652Y-57684501D01*
X80400499Y-57663433D01*
X80400499Y-57641788D01*
X80400500Y-57641776D01*
X80400500Y-54400000D01*
X82094721Y-54400000D01*
X82113763Y-54556818D01*
X82169780Y-54704523D01*
X82259517Y-54834530D01*
X82377760Y-54939283D01*
X82459796Y-54982339D01*
X82480099Y-54995683D01*
X82484463Y-54999210D01*
X82484465Y-54999211D01*
X83178772Y-55375385D01*
X83207383Y-55396730D01*
X84433906Y-56623253D01*
X84453850Y-56649348D01*
X84853886Y-57348439D01*
X84862203Y-57366054D01*
X84864552Y-57372249D01*
X84954288Y-57502255D01*
X84954289Y-57502256D01*
X84954290Y-57502257D01*
X85072533Y-57607010D01*
X85212408Y-57680423D01*
X85365788Y-57718227D01*
X85523757Y-57718227D01*
X85523758Y-57718227D01*
X85664625Y-57683506D01*
X85668256Y-57682908D01*
X85674837Y-57681117D01*
X85674841Y-57681117D01*
X86441298Y-57472576D01*
X86473853Y-57468227D01*
X86850472Y-57468227D01*
X86897925Y-57477666D01*
X86938153Y-57504546D01*
X90363181Y-60929573D01*
X90390061Y-60969801D01*
X90399500Y-61017254D01*
X90399500Y-73170918D01*
X90395150Y-73203473D01*
X90186248Y-73971254D01*
X90179041Y-74002894D01*
X90163763Y-74043182D01*
X90144721Y-74200000D01*
X90163763Y-74356818D01*
X90219780Y-74504523D01*
X90309515Y-74634528D01*
X90309516Y-74634529D01*
X90309517Y-74634530D01*
X90427760Y-74739283D01*
X90528736Y-74792280D01*
X90567635Y-74812696D01*
X90721015Y-74850500D01*
X90875500Y-74850500D01*
X90937500Y-74867113D01*
X90982887Y-74912500D01*
X90999500Y-74974500D01*
X90999500Y-83770918D01*
X90995150Y-83803473D01*
X90796637Y-84533070D01*
X90784612Y-84562101D01*
X90409076Y-85218378D01*
X90389132Y-85244473D01*
X88894516Y-86739091D01*
X88894512Y-86739095D01*
X88871949Y-86761657D01*
X88861892Y-86781396D01*
X88851731Y-86797979D01*
X88838702Y-86815913D01*
X88831854Y-86836987D01*
X88824412Y-86854954D01*
X88814353Y-86874697D01*
X88810886Y-86896582D01*
X88806347Y-86915491D01*
X88799500Y-86936567D01*
X88799500Y-92041352D01*
X88786987Y-92095635D01*
X88751973Y-92138963D01*
X88701526Y-92162590D01*
X88645826Y-92161749D01*
X88507607Y-92127682D01*
X88349637Y-92127682D01*
X88196257Y-92165485D01*
X88056380Y-92238900D01*
X87984223Y-92302825D01*
X87931672Y-92330406D01*
X87872322Y-92330406D01*
X87819771Y-92302825D01*
X87772241Y-92260718D01*
X87772240Y-92260717D01*
X87680398Y-92212514D01*
X87632364Y-92187303D01*
X87478985Y-92149500D01*
X87321015Y-92149500D01*
X87167635Y-92187303D01*
X87027761Y-92260716D01*
X86909515Y-92365471D01*
X86819780Y-92495476D01*
X86763763Y-92643181D01*
X86744721Y-92799999D01*
X86763762Y-92956817D01*
X86763763Y-92956818D01*
X86786216Y-93016024D01*
X86789947Y-93027525D01*
X86791057Y-93031620D01*
X86798507Y-93048810D01*
X86800673Y-93054144D01*
X86819780Y-93104524D01*
X86854887Y-93155385D01*
X86858351Y-93160689D01*
X87209636Y-93729738D01*
X87228122Y-93794874D01*
X87228122Y-121172621D01*
X87222570Y-121209308D01*
X87210861Y-121247113D01*
X86989534Y-121961667D01*
X86988950Y-121966690D01*
X86981726Y-121996313D01*
X86963763Y-122043682D01*
X86944721Y-122200500D01*
X86963763Y-122357318D01*
X87019780Y-122505023D01*
X87109515Y-122635028D01*
X87109516Y-122635029D01*
X87109517Y-122635030D01*
X87227760Y-122739783D01*
X87322618Y-122789569D01*
X87367635Y-122813196D01*
X87521015Y-122851000D01*
X87694042Y-122851000D01*
X87694042Y-122853563D01*
X87741099Y-122855455D01*
X87797887Y-122894647D01*
X87818719Y-122943535D01*
X87819500Y-122943240D01*
X87824838Y-122957317D01*
X87824839Y-122957318D01*
X87850705Y-123025520D01*
X87880856Y-123105023D01*
X87970591Y-123235028D01*
X87970592Y-123235029D01*
X87970593Y-123235030D01*
X88088836Y-123339783D01*
X88228711Y-123413196D01*
X88382091Y-123451000D01*
X88540061Y-123451000D01*
X88693441Y-123413196D01*
X88833316Y-123339783D01*
X88951559Y-123235030D01*
X89041296Y-123105023D01*
X89097313Y-122957318D01*
X89116354Y-122800500D01*
X89115024Y-122789552D01*
X89114272Y-122768491D01*
X89114438Y-122765138D01*
X89034664Y-121869026D01*
X89034347Y-121867898D01*
X89029721Y-121834345D01*
X89029721Y-98935744D01*
X89042564Y-98880789D01*
X89078432Y-98837217D01*
X89129896Y-98814054D01*
X89186296Y-98816099D01*
X89235947Y-98842928D01*
X89282698Y-98884345D01*
X89422573Y-98957758D01*
X89575953Y-98995562D01*
X89733923Y-98995562D01*
X89887303Y-98957758D01*
X90027178Y-98884345D01*
X90145421Y-98779592D01*
X90235158Y-98649585D01*
X90291175Y-98501880D01*
X90310216Y-98345062D01*
X90291175Y-98188244D01*
X90235158Y-98040539D01*
X90145421Y-97910532D01*
X90145419Y-97910529D01*
X90119849Y-97887876D01*
X90110408Y-97878565D01*
X90091284Y-97857570D01*
X89645223Y-97486689D01*
X89612236Y-97443999D01*
X89600500Y-97391342D01*
X89600500Y-93291648D01*
X89614014Y-93235355D01*
X89614268Y-93234857D01*
X89617734Y-93212974D01*
X89622274Y-93194057D01*
X89629122Y-93172986D01*
X89629122Y-93046120D01*
X89629122Y-92415292D01*
X89629122Y-92383378D01*
X89622276Y-92362308D01*
X89617734Y-92343388D01*
X89614268Y-92321508D01*
X89614268Y-92321507D01*
X89614013Y-92321008D01*
X89600500Y-92264716D01*
X89600500Y-87217255D01*
X89609939Y-87169802D01*
X89636819Y-87129574D01*
X89950483Y-86815910D01*
X90955533Y-85810858D01*
X90981625Y-85790918D01*
X91671044Y-85396418D01*
X91671044Y-85396417D01*
X91671049Y-85396415D01*
X91673406Y-85394429D01*
X91695662Y-85379473D01*
X91772240Y-85339283D01*
X91890483Y-85234530D01*
X91980220Y-85104523D01*
X92036237Y-84956818D01*
X92055278Y-84800000D01*
X92036237Y-84643182D01*
X92020958Y-84602894D01*
X92013758Y-84571282D01*
X91804850Y-83803473D01*
X91800500Y-83770918D01*
X91800500Y-74948626D01*
X91809939Y-74901173D01*
X91836816Y-74860947D01*
X91905484Y-74792280D01*
X91905484Y-74792279D01*
X91919713Y-74778051D01*
X91919717Y-74778045D01*
X91928050Y-74769713D01*
X91938109Y-74749969D01*
X91948267Y-74733392D01*
X91961296Y-74715460D01*
X91968143Y-74694384D01*
X91975584Y-74676420D01*
X91985646Y-74656675D01*
X91989112Y-74634784D01*
X91993652Y-74615875D01*
X92000500Y-74594804D01*
X92000500Y-74467938D01*
X92000500Y-74229081D01*
X92004850Y-74196526D01*
X92213769Y-73428676D01*
X92220959Y-73397100D01*
X92236237Y-73356818D01*
X92255278Y-73200000D01*
X92236237Y-73043182D01*
X92180220Y-72895477D01*
X92133690Y-72828067D01*
X92090484Y-72765471D01*
X92090483Y-72765470D01*
X91972240Y-72660717D01*
X91847608Y-72595304D01*
X91832364Y-72587303D01*
X91678985Y-72549500D01*
X91521015Y-72549500D01*
X91354174Y-72590621D01*
X91298474Y-72591462D01*
X91248026Y-72567834D01*
X91213013Y-72524507D01*
X91200500Y-72470224D01*
X91200500Y-65375000D01*
X97719721Y-65375000D01*
X97738763Y-65531818D01*
X97756378Y-65578267D01*
X97763657Y-65608367D01*
X97764147Y-65612729D01*
X97994108Y-66366831D01*
X97999500Y-66403000D01*
X97999500Y-77170918D01*
X97995150Y-77203473D01*
X97786248Y-77971254D01*
X97779041Y-78002894D01*
X97763763Y-78043182D01*
X97744721Y-78200000D01*
X97763763Y-78356818D01*
X97819780Y-78504523D01*
X97909515Y-78634528D01*
X97909516Y-78634529D01*
X97909517Y-78634530D01*
X98027760Y-78739283D01*
X98167635Y-78812696D01*
X98321015Y-78850500D01*
X98478985Y-78850500D01*
X98632365Y-78812696D01*
X98772240Y-78739283D01*
X98890483Y-78634530D01*
X98980220Y-78504523D01*
X99036237Y-78356818D01*
X99055278Y-78200000D01*
X99036237Y-78043182D01*
X99020958Y-78002894D01*
X99013758Y-77971282D01*
X98804850Y-77203473D01*
X98800500Y-77170918D01*
X98800500Y-68399999D01*
X106744721Y-68399999D01*
X106763763Y-68556818D01*
X106819780Y-68704523D01*
X106909515Y-68834528D01*
X106909516Y-68834529D01*
X106909517Y-68834530D01*
X107027760Y-68939283D01*
X107167635Y-69012696D01*
X107321015Y-69050500D01*
X107478985Y-69050500D01*
X107632365Y-69012696D01*
X107772240Y-68939283D01*
X107890483Y-68834530D01*
X107980220Y-68704523D01*
X107982572Y-68698320D01*
X107990888Y-68680707D01*
X108002327Y-68660717D01*
X108390920Y-67981620D01*
X108410858Y-67955533D01*
X109076026Y-67290365D01*
X109787819Y-66578575D01*
X109837182Y-66548325D01*
X109894898Y-66543783D01*
X109948385Y-66565938D01*
X109985985Y-66609961D01*
X109999500Y-66666256D01*
X109999500Y-83770918D01*
X109995150Y-83803473D01*
X109786248Y-84571254D01*
X109779041Y-84602894D01*
X109763763Y-84643182D01*
X109744721Y-84800000D01*
X109763763Y-84956818D01*
X109819780Y-85104523D01*
X109909515Y-85234528D01*
X109909516Y-85234529D01*
X109909517Y-85234530D01*
X110027760Y-85339283D01*
X110167635Y-85412696D01*
X110321015Y-85450500D01*
X110478985Y-85450500D01*
X110632366Y-85412696D01*
X110667874Y-85394060D01*
X110729245Y-85379913D01*
X110789650Y-85397739D01*
X110833506Y-85442940D01*
X110849500Y-85503856D01*
X110849500Y-93821446D01*
X110842105Y-93863628D01*
X110593978Y-94549526D01*
X110592187Y-94560861D01*
X110585650Y-94585468D01*
X110563763Y-94643179D01*
X110544721Y-94799999D01*
X110563763Y-94956818D01*
X110619780Y-95104523D01*
X110709515Y-95234528D01*
X110709516Y-95234529D01*
X110709517Y-95234530D01*
X110827760Y-95339283D01*
X110967635Y-95412696D01*
X111121015Y-95450500D01*
X111278985Y-95450500D01*
X111432365Y-95412696D01*
X111572240Y-95339283D01*
X111618273Y-95298501D01*
X111667925Y-95271672D01*
X111724324Y-95269627D01*
X111775789Y-95292790D01*
X111811657Y-95336361D01*
X111824500Y-95391317D01*
X111824500Y-105338101D01*
X111815061Y-105385554D01*
X111788181Y-105425782D01*
X111409742Y-105804219D01*
X111380542Y-105825881D01*
X110680752Y-106200159D01*
X110675974Y-106203983D01*
X110656124Y-106216963D01*
X110572760Y-106260716D01*
X110454516Y-106365471D01*
X110364780Y-106495476D01*
X110308763Y-106643181D01*
X110289721Y-106800000D01*
X110308763Y-106956818D01*
X110364780Y-107104523D01*
X110454515Y-107234528D01*
X110454516Y-107234529D01*
X110454517Y-107234530D01*
X110572760Y-107339283D01*
X110712635Y-107412696D01*
X110866015Y-107450500D01*
X111023985Y-107450500D01*
X111177365Y-107412696D01*
X111317240Y-107339283D01*
X111435483Y-107234530D01*
X111525220Y-107104523D01*
X111529655Y-107092827D01*
X111540038Y-107074641D01*
X111539449Y-107074326D01*
X111655729Y-106856916D01*
X111919116Y-106364456D01*
X111940772Y-106335264D01*
X112428892Y-105847144D01*
X112448743Y-105831024D01*
X112457836Y-105825084D01*
X112477280Y-105800101D01*
X112487453Y-105788584D01*
X112487520Y-105788518D01*
X112499619Y-105771570D01*
X112502641Y-105767515D01*
X112534809Y-105726189D01*
X112534810Y-105726185D01*
X112539666Y-105719947D01*
X112539753Y-105719778D01*
X112542008Y-105712200D01*
X112542010Y-105712199D01*
X112556951Y-105662009D01*
X112558479Y-105657238D01*
X112575500Y-105607660D01*
X112575500Y-105607656D01*
X112578060Y-105600199D01*
X112578093Y-105599969D01*
X112577767Y-105592090D01*
X112577768Y-105592088D01*
X112575605Y-105539806D01*
X112575500Y-105534684D01*
X112575500Y-90842511D01*
X112593133Y-90778776D01*
X112641019Y-90733168D01*
X113194835Y-90436964D01*
X113264246Y-90399840D01*
X113269019Y-90396019D01*
X113288868Y-90383040D01*
X113372240Y-90339283D01*
X113490483Y-90234530D01*
X113580220Y-90104523D01*
X113636237Y-89956818D01*
X113655278Y-89800000D01*
X113636237Y-89643182D01*
X113580220Y-89495477D01*
X113490483Y-89365470D01*
X113372240Y-89260717D01*
X113358994Y-89253765D01*
X113232364Y-89187303D01*
X113078985Y-89149500D01*
X112921015Y-89149500D01*
X112767635Y-89187303D01*
X112627761Y-89260716D01*
X112509515Y-89365471D01*
X112419778Y-89495479D01*
X112415342Y-89507175D01*
X112404961Y-89525362D01*
X112405548Y-89525676D01*
X112183843Y-89940200D01*
X112139268Y-89987460D01*
X112076915Y-90005695D01*
X112013900Y-89989902D01*
X111967518Y-89944415D01*
X111950500Y-89881719D01*
X111950500Y-67126586D01*
X111950553Y-67122962D01*
X111950570Y-67122350D01*
X111952484Y-67056931D01*
X111951261Y-67045944D01*
X111950500Y-67032227D01*
X111950500Y-66411541D01*
X111950572Y-66407307D01*
X111952763Y-66343173D01*
X111943033Y-66303250D01*
X111940664Y-66290786D01*
X111935070Y-66250080D01*
X111927921Y-66233621D01*
X111921180Y-66213575D01*
X111916933Y-66196148D01*
X111896797Y-66160336D01*
X111891149Y-66148964D01*
X111874780Y-66111280D01*
X111866972Y-66101682D01*
X111848630Y-66070956D01*
X111839827Y-66036277D01*
X111755217Y-65224017D01*
X111755216Y-65224015D01*
X111754743Y-65219470D01*
X111750500Y-65190116D01*
X111750500Y-54199999D01*
X120544721Y-54199999D01*
X120563763Y-54356818D01*
X120619780Y-54504523D01*
X120709515Y-54634528D01*
X120709516Y-54634529D01*
X120709517Y-54634530D01*
X120827760Y-54739283D01*
X120967635Y-54812696D01*
X121121015Y-54850500D01*
X121278985Y-54850500D01*
X121432365Y-54812696D01*
X121572240Y-54739283D01*
X121690483Y-54634530D01*
X121780220Y-54504523D01*
X121836237Y-54356818D01*
X121855278Y-54200000D01*
X121853436Y-54184839D01*
X121852611Y-54165472D01*
X121852783Y-54160648D01*
X121815926Y-53806819D01*
X121755217Y-53224017D01*
X121755216Y-53224014D01*
X121754743Y-53219471D01*
X121751928Y-53199999D01*
X127744721Y-53199999D01*
X127763763Y-53356818D01*
X127819780Y-53504523D01*
X127909516Y-53634529D01*
X127937104Y-53658970D01*
X127945612Y-53667269D01*
X127966238Y-53689413D01*
X128547065Y-54160649D01*
X128701105Y-54285625D01*
X128724831Y-54303356D01*
X131813181Y-57391705D01*
X131840061Y-57431933D01*
X131849500Y-57479386D01*
X131849500Y-104273525D01*
X131849447Y-104277158D01*
X131847515Y-104343068D01*
X131848739Y-104354063D01*
X131849500Y-104367783D01*
X131849500Y-104988478D01*
X131849428Y-104992711D01*
X131847237Y-105056826D01*
X131856963Y-105096733D01*
X131859334Y-105109207D01*
X131864930Y-105149922D01*
X131872079Y-105166380D01*
X131878819Y-105186421D01*
X131883067Y-105203853D01*
X131903206Y-105239672D01*
X131908852Y-105251039D01*
X131925219Y-105288719D01*
X131933025Y-105298313D01*
X131951367Y-105329038D01*
X131960171Y-105363722D01*
X132045259Y-106180555D01*
X132049500Y-106209882D01*
X132049500Y-118120613D01*
X132040061Y-118168066D01*
X132013181Y-118208294D01*
X129418894Y-120802579D01*
X129415852Y-120805519D01*
X129368956Y-120849318D01*
X129347605Y-120884427D01*
X129340466Y-120894916D01*
X129315638Y-120927658D01*
X129309054Y-120944354D01*
X129299654Y-120963280D01*
X129290329Y-120978616D01*
X129279242Y-121018181D01*
X129275197Y-121030207D01*
X129260123Y-121068434D01*
X129258288Y-121086285D01*
X129254342Y-121107048D01*
X129249500Y-121124333D01*
X129249500Y-121165418D01*
X129248850Y-121178099D01*
X129244647Y-121218972D01*
X129247697Y-121236656D01*
X129249500Y-121257725D01*
X129249500Y-122780200D01*
X129244423Y-122815320D01*
X129229607Y-122847561D01*
X129224500Y-122855455D01*
X128740621Y-123603266D01*
X128734184Y-123618307D01*
X128723295Y-123638396D01*
X128714033Y-123652258D01*
X128711672Y-123664128D01*
X128708998Y-123672762D01*
X128704809Y-123690305D01*
X128704539Y-123694484D01*
X128702417Y-123710656D01*
X128699500Y-123725325D01*
X128699500Y-123768442D01*
X128699242Y-123776441D01*
X128698523Y-123787549D01*
X128699500Y-123794601D01*
X128699500Y-125474675D01*
X128714033Y-125547738D01*
X128714033Y-125547739D01*
X128714034Y-125547740D01*
X128769399Y-125630601D01*
X128852260Y-125685966D01*
X128888793Y-125693233D01*
X128925325Y-125700500D01*
X128925326Y-125700500D01*
X130674674Y-125700500D01*
X130674675Y-125700500D01*
X130699029Y-125695655D01*
X130747740Y-125685966D01*
X130830601Y-125630601D01*
X130885966Y-125547740D01*
X130900500Y-125474674D01*
X130900500Y-123794588D01*
X130901476Y-123787533D01*
X130900759Y-123776446D01*
X130900500Y-123768437D01*
X130900500Y-123725327D01*
X130900500Y-123725325D01*
X130897576Y-123710628D01*
X130895452Y-123694446D01*
X130895183Y-123690281D01*
X130893371Y-123682696D01*
X130893368Y-123682691D01*
X130890974Y-123672668D01*
X130888321Y-123664099D01*
X130885966Y-123652260D01*
X130876705Y-123638400D01*
X130865807Y-123618294D01*
X130859374Y-123603261D01*
X130370393Y-122847564D01*
X130355577Y-122815321D01*
X130350500Y-122780201D01*
X130350500Y-121479387D01*
X130359939Y-121431934D01*
X130386819Y-121391706D01*
X130778525Y-121000000D01*
X148695152Y-121000000D01*
X148714525Y-121357310D01*
X148772419Y-121710451D01*
X148868149Y-122055241D01*
X149000601Y-122387670D01*
X149168218Y-122703829D01*
X149369031Y-123000004D01*
X149561394Y-123226471D01*
X149561395Y-123226471D01*
X149753175Y-123034691D01*
X149806356Y-123003268D01*
X149868099Y-123001402D01*
X149923081Y-123029555D01*
X149928879Y-123034691D01*
X149962076Y-123064101D01*
X149998236Y-123120025D01*
X150000248Y-123186591D01*
X149967532Y-123244598D01*
X149774630Y-123437500D01*
X149774630Y-123437501D01*
X149860485Y-123518828D01*
X150145363Y-123735386D01*
X150451984Y-123919873D01*
X150776746Y-124070124D01*
X151115859Y-124184385D01*
X151465335Y-124261310D01*
X151821078Y-124300000D01*
X152178922Y-124300000D01*
X152534664Y-124261310D01*
X152884140Y-124184385D01*
X153223253Y-124070124D01*
X153548015Y-123919873D01*
X153854636Y-123735386D01*
X154139514Y-123518828D01*
X154225368Y-123437502D01*
X154225368Y-123437500D01*
X154032467Y-123244599D01*
X153999751Y-123186593D01*
X154001762Y-123120028D01*
X154037918Y-123064105D01*
X154076919Y-123029554D01*
X154131897Y-123001402D01*
X154193641Y-123003268D01*
X154246823Y-123034691D01*
X154438603Y-123226471D01*
X154630968Y-123000004D01*
X154831781Y-122703829D01*
X154999398Y-122387670D01*
X155131850Y-122055241D01*
X155227580Y-121710451D01*
X155285474Y-121357310D01*
X155304847Y-121000000D01*
X155285474Y-120642689D01*
X155227580Y-120289548D01*
X155131850Y-119944758D01*
X154999398Y-119612329D01*
X154831781Y-119296170D01*
X154630968Y-118999995D01*
X154438604Y-118773527D01*
X154438603Y-118773527D01*
X154246823Y-118965307D01*
X154193642Y-118996730D01*
X154131899Y-118998596D01*
X154076917Y-118970443D01*
X154037922Y-118935898D01*
X154001762Y-118879973D01*
X153999750Y-118813406D01*
X154032466Y-118755399D01*
X154225368Y-118562497D01*
X154139514Y-118481171D01*
X153854636Y-118264613D01*
X153548015Y-118080126D01*
X153223253Y-117929875D01*
X152884140Y-117815614D01*
X152534664Y-117738689D01*
X152178922Y-117700000D01*
X151821078Y-117700000D01*
X151465335Y-117738689D01*
X151115859Y-117815614D01*
X150776746Y-117929875D01*
X150451984Y-118080126D01*
X150145368Y-118264610D01*
X149860482Y-118481175D01*
X149774629Y-118562497D01*
X149774629Y-118562498D01*
X149967532Y-118755400D01*
X150000248Y-118813405D01*
X149998237Y-118879971D01*
X149962079Y-118935896D01*
X149923085Y-118970442D01*
X149868102Y-118998597D01*
X149806358Y-118996731D01*
X149753176Y-118965308D01*
X149561395Y-118773526D01*
X149561394Y-118773527D01*
X149369030Y-118999995D01*
X149168218Y-119296170D01*
X149000601Y-119612329D01*
X148868149Y-119944758D01*
X148772419Y-120289548D01*
X148714525Y-120642689D01*
X148695152Y-121000000D01*
X130778525Y-121000000D01*
X130990657Y-120787868D01*
X132981145Y-118797378D01*
X132984129Y-118794494D01*
X133031044Y-118750680D01*
X133052398Y-118715562D01*
X133059532Y-118705082D01*
X133084361Y-118672342D01*
X133090945Y-118655643D01*
X133100344Y-118636719D01*
X133109672Y-118621382D01*
X133120760Y-118581805D01*
X133124800Y-118569792D01*
X133139876Y-118531564D01*
X133141711Y-118513711D01*
X133145658Y-118492944D01*
X133150500Y-118475665D01*
X133150500Y-118434582D01*
X133151150Y-118421901D01*
X133155352Y-118381027D01*
X133152303Y-118363344D01*
X133150500Y-118342275D01*
X133150500Y-108058033D01*
X146299500Y-108058033D01*
X146310114Y-108177417D01*
X146366091Y-108373050D01*
X146439735Y-108514034D01*
X146460302Y-108553407D01*
X146588891Y-108711109D01*
X146746593Y-108839698D01*
X146926951Y-108933909D01*
X147122582Y-108989886D01*
X147241963Y-109000500D01*
X152624869Y-109000499D01*
X152669527Y-109008820D01*
X152998226Y-109135715D01*
X153794664Y-109443182D01*
X154163542Y-109585588D01*
X154215178Y-109623142D01*
X154696842Y-110216821D01*
X154702597Y-110224505D01*
X154709515Y-110234528D01*
X154709517Y-110234530D01*
X154747167Y-110267884D01*
X154749389Y-110269903D01*
X154755391Y-110275493D01*
X154763956Y-110283471D01*
X154771285Y-110289251D01*
X154827760Y-110339283D01*
X154967635Y-110412696D01*
X155121015Y-110450500D01*
X155278985Y-110450500D01*
X155432365Y-110412696D01*
X155572240Y-110339283D01*
X155690483Y-110234530D01*
X155780220Y-110104523D01*
X155836237Y-109956818D01*
X155855278Y-109800000D01*
X155836237Y-109643182D01*
X155780220Y-109495477D01*
X155716315Y-109402894D01*
X155690482Y-109365468D01*
X155662891Y-109341025D01*
X155654377Y-109332721D01*
X155633760Y-109310585D01*
X155312574Y-109050000D01*
X155015416Y-108808910D01*
X154979830Y-108762069D01*
X154310785Y-107223555D01*
X154300499Y-107174106D01*
X154300499Y-101941966D01*
X154290545Y-101830000D01*
X154289886Y-101822582D01*
X154233909Y-101626951D01*
X154139698Y-101446593D01*
X154011109Y-101288891D01*
X153853407Y-101160302D01*
X153853406Y-101160301D01*
X153673050Y-101066091D01*
X153575233Y-101038102D01*
X153477418Y-101010114D01*
X153358037Y-100999500D01*
X153358033Y-100999500D01*
X147241966Y-100999500D01*
X147122582Y-101010114D01*
X146926949Y-101066091D01*
X146746593Y-101160301D01*
X146588891Y-101288891D01*
X146460301Y-101446593D01*
X146366091Y-101626949D01*
X146310114Y-101822582D01*
X146299500Y-101941966D01*
X146299500Y-108058033D01*
X133150500Y-108058033D01*
X133150500Y-106209884D01*
X133154743Y-106180528D01*
X133155216Y-106175985D01*
X133155217Y-106175983D01*
X133252783Y-105239350D01*
X133252611Y-105234524D01*
X133253436Y-105215160D01*
X133255278Y-105200000D01*
X133236237Y-105043182D01*
X133214348Y-104985466D01*
X133207810Y-104960850D01*
X133206020Y-104949523D01*
X132957895Y-104263629D01*
X132950500Y-104221447D01*
X132950500Y-57211522D01*
X132950572Y-57207289D01*
X132952762Y-57143174D01*
X132943035Y-57103262D01*
X132940665Y-57090794D01*
X132935070Y-57050080D01*
X132927920Y-57033620D01*
X132921180Y-57013578D01*
X132916933Y-56996148D01*
X132909397Y-56982745D01*
X132896796Y-56960333D01*
X132891148Y-56948963D01*
X132874780Y-56911280D01*
X132863458Y-56897364D01*
X132851554Y-56879874D01*
X132842764Y-56864239D01*
X132813718Y-56835194D01*
X132805209Y-56825766D01*
X132779277Y-56793891D01*
X132764612Y-56783539D01*
X132748441Y-56769917D01*
X129503356Y-53524831D01*
X129485625Y-53501105D01*
X128903164Y-52783187D01*
X128897408Y-52775503D01*
X128893473Y-52769802D01*
X128890483Y-52765470D01*
X128852823Y-52732106D01*
X128850592Y-52730079D01*
X128836040Y-52716525D01*
X128828704Y-52710739D01*
X128772240Y-52660717D01*
X128632366Y-52587303D01*
X128478985Y-52549500D01*
X128321015Y-52549500D01*
X128167635Y-52587303D01*
X128027761Y-52660716D01*
X127909515Y-52765471D01*
X127819780Y-52895476D01*
X127763763Y-53043181D01*
X127744721Y-53199999D01*
X121751928Y-53199999D01*
X121750500Y-53190116D01*
X121750500Y-52809884D01*
X121754743Y-52780528D01*
X121755216Y-52775985D01*
X121755217Y-52775983D01*
X121852783Y-51839350D01*
X121852611Y-51834524D01*
X121853437Y-51815158D01*
X121855278Y-51800000D01*
X121836237Y-51643182D01*
X121780220Y-51495477D01*
X121721157Y-51409909D01*
X121690484Y-51365471D01*
X121677240Y-51353738D01*
X121572240Y-51260717D01*
X121538830Y-51243182D01*
X121432364Y-51187303D01*
X121278985Y-51149500D01*
X121121015Y-51149500D01*
X120967635Y-51187303D01*
X120827761Y-51260716D01*
X120709515Y-51365471D01*
X120619780Y-51495476D01*
X120563763Y-51643181D01*
X120544721Y-51799999D01*
X120546562Y-51815158D01*
X120547388Y-51834504D01*
X120547216Y-51839348D01*
X120606647Y-52409884D01*
X120645259Y-52780555D01*
X120649500Y-52809882D01*
X120649500Y-53190118D01*
X120645259Y-53219444D01*
X120644783Y-53224016D01*
X120547217Y-54160648D01*
X120547216Y-54160653D01*
X120547388Y-54165495D01*
X120546562Y-54184840D01*
X120544721Y-54199999D01*
X111750500Y-54199999D01*
X111750500Y-52409884D01*
X111754743Y-52380528D01*
X111755216Y-52375985D01*
X111755217Y-52375983D01*
X111852783Y-51439350D01*
X111852611Y-51434524D01*
X111853436Y-51415160D01*
X111855278Y-51400000D01*
X111836237Y-51243182D01*
X111780220Y-51095477D01*
X111690483Y-50965470D01*
X111572240Y-50860717D01*
X111558994Y-50853765D01*
X111432364Y-50787303D01*
X111278985Y-50749500D01*
X111121015Y-50749500D01*
X110954174Y-50790621D01*
X110898474Y-50791462D01*
X110848026Y-50767834D01*
X110813013Y-50724507D01*
X110800500Y-50670224D01*
X110800500Y-49422944D01*
X110801200Y-49409785D01*
X110801438Y-49407559D01*
X110800599Y-49386698D01*
X110800500Y-49381723D01*
X110800500Y-48958224D01*
X110800499Y-48958212D01*
X110800499Y-48936568D01*
X110800499Y-48936567D01*
X110793652Y-48915498D01*
X110789111Y-48896578D01*
X110785646Y-48874696D01*
X110775584Y-48854949D01*
X110768141Y-48836979D01*
X110761296Y-48815910D01*
X110756331Y-48809077D01*
X110748276Y-48797990D01*
X110738104Y-48781392D01*
X110730626Y-48766715D01*
X110728050Y-48761658D01*
X110708872Y-48742480D01*
X110686915Y-48712723D01*
X110674710Y-48677816D01*
X110652857Y-48562092D01*
X110652855Y-48562088D01*
X110650864Y-48551541D01*
X110650966Y-48551521D01*
X110647842Y-48538761D01*
X110636237Y-48443182D01*
X110580220Y-48295477D01*
X110490483Y-48165470D01*
X110372240Y-48060717D01*
X110289081Y-48017071D01*
X110232364Y-47987303D01*
X110078985Y-47949500D01*
X109921015Y-47949500D01*
X109767635Y-47987303D01*
X109627761Y-48060716D01*
X109509515Y-48165471D01*
X109419780Y-48295476D01*
X109363763Y-48443181D01*
X109344721Y-48599999D01*
X109363763Y-48756818D01*
X109419780Y-48904523D01*
X109509516Y-49034530D01*
X109524289Y-49047617D01*
X109538993Y-49063099D01*
X109548821Y-49075417D01*
X109548825Y-49075422D01*
X109933821Y-49444976D01*
X109961369Y-49471419D01*
X109989570Y-49512254D01*
X109999500Y-49560876D01*
X109999500Y-51870101D01*
X109986987Y-51924384D01*
X109951973Y-51967711D01*
X109901526Y-51991339D01*
X109845826Y-51990498D01*
X109679485Y-51949500D01*
X109521515Y-51949500D01*
X109368135Y-51987303D01*
X109228261Y-52060716D01*
X109110015Y-52165471D01*
X109020280Y-52295476D01*
X108964263Y-52443181D01*
X108945221Y-52599999D01*
X108964263Y-52756819D01*
X108979540Y-52797104D01*
X108986748Y-52828744D01*
X109094296Y-53224017D01*
X109189739Y-53574804D01*
X109195650Y-53596527D01*
X109200000Y-53629082D01*
X109200000Y-65982245D01*
X109190561Y-66029698D01*
X109163681Y-66069926D01*
X107844475Y-67389131D01*
X107818380Y-67409075D01*
X107128948Y-67803584D01*
X107126582Y-67805577D01*
X107104335Y-67820525D01*
X107027762Y-67860715D01*
X107027759Y-67860717D01*
X107027760Y-67860717D01*
X106919286Y-67956816D01*
X106909516Y-67965471D01*
X106819780Y-68095476D01*
X106763763Y-68243181D01*
X106744721Y-68399999D01*
X98800500Y-68399999D01*
X98800500Y-66396012D01*
X98803995Y-66366778D01*
X98820904Y-66297080D01*
X98990494Y-65598020D01*
X98990494Y-65598018D01*
X98993084Y-65587343D01*
X98993544Y-65587454D01*
X98998010Y-65566693D01*
X99011237Y-65531818D01*
X99030278Y-65375000D01*
X99011237Y-65218182D01*
X98955220Y-65070477D01*
X98865483Y-64940470D01*
X98747240Y-64835717D01*
X98697982Y-64809864D01*
X98607364Y-64762303D01*
X98453985Y-64724500D01*
X98296015Y-64724500D01*
X98142635Y-64762303D01*
X98002761Y-64835716D01*
X97884515Y-64940471D01*
X97794780Y-65070476D01*
X97738763Y-65218181D01*
X97719721Y-65375000D01*
X91200500Y-65375000D01*
X91200500Y-60736567D01*
X91193653Y-60715494D01*
X91189112Y-60696580D01*
X91185646Y-60674696D01*
X91175588Y-60654958D01*
X91168142Y-60636984D01*
X91161296Y-60615910D01*
X91148275Y-60597989D01*
X91138104Y-60581392D01*
X91137636Y-60580473D01*
X91128050Y-60561658D01*
X91038342Y-60471950D01*
X90115892Y-59549500D01*
X87322417Y-56756023D01*
X87322402Y-56756010D01*
X87306069Y-56739677D01*
X87306068Y-56739676D01*
X87306066Y-56739674D01*
X87286326Y-56729616D01*
X87269741Y-56719453D01*
X87251817Y-56706431D01*
X87230747Y-56699585D01*
X87212771Y-56692139D01*
X87193029Y-56682080D01*
X87171145Y-56678613D01*
X87152234Y-56674073D01*
X87131162Y-56667227D01*
X87131160Y-56667227D01*
X87099246Y-56667227D01*
X86473856Y-56667227D01*
X86441302Y-56662877D01*
X86400151Y-56651680D01*
X86348823Y-56623351D01*
X86316247Y-56574607D01*
X86309704Y-56516346D01*
X86330656Y-56461593D01*
X86353625Y-56428318D01*
X86387236Y-56339692D01*
X95284414Y-56339692D01*
X95303456Y-56496510D01*
X95359473Y-56644215D01*
X95449208Y-56774220D01*
X95449209Y-56774221D01*
X95449210Y-56774222D01*
X95567453Y-56878975D01*
X95644030Y-56919166D01*
X95666275Y-56934113D01*
X95668642Y-56936107D01*
X96030507Y-57143174D01*
X96358068Y-57330612D01*
X96384163Y-57350556D01*
X96589133Y-57555526D01*
X96609077Y-57581621D01*
X97009113Y-58280712D01*
X97017430Y-58298327D01*
X97019779Y-58304522D01*
X97109515Y-58434528D01*
X97109516Y-58434529D01*
X97109517Y-58434530D01*
X97227760Y-58539283D01*
X97367635Y-58612696D01*
X97521015Y-58650500D01*
X97678985Y-58650500D01*
X97832365Y-58612696D01*
X97972240Y-58539283D01*
X98090483Y-58434530D01*
X98180220Y-58304523D01*
X98236237Y-58156818D01*
X98255278Y-58000000D01*
X98236237Y-57843182D01*
X98180220Y-57695477D01*
X98090483Y-57565470D01*
X97972240Y-57460717D01*
X97895665Y-57420527D01*
X97873413Y-57405575D01*
X97871048Y-57403583D01*
X97181621Y-57009077D01*
X97155526Y-56989133D01*
X96950556Y-56784163D01*
X96930612Y-56758068D01*
X96692508Y-56341963D01*
X96536108Y-56068642D01*
X96536107Y-56068641D01*
X96530582Y-56058985D01*
X96522265Y-56041371D01*
X96519913Y-56035169D01*
X96430176Y-55905162D01*
X96311933Y-55800409D01*
X96298687Y-55793457D01*
X96172057Y-55726995D01*
X96018678Y-55689192D01*
X95860708Y-55689192D01*
X95707328Y-55726995D01*
X95567454Y-55800408D01*
X95449208Y-55905163D01*
X95359473Y-56035168D01*
X95303456Y-56182873D01*
X95284414Y-56339692D01*
X86387236Y-56339692D01*
X86409642Y-56280613D01*
X86428683Y-56123795D01*
X86409642Y-55966977D01*
X86353625Y-55819272D01*
X86289931Y-55726995D01*
X86263889Y-55689266D01*
X86263888Y-55689265D01*
X86145645Y-55584512D01*
X86066672Y-55543063D01*
X86045294Y-55528839D01*
X86041992Y-55526109D01*
X85350392Y-55139859D01*
X85323173Y-55119280D01*
X84835864Y-54631971D01*
X84815920Y-54605876D01*
X84583668Y-54199999D01*
X84421415Y-53916450D01*
X84421414Y-53916449D01*
X84415889Y-53906793D01*
X84407572Y-53889179D01*
X84405220Y-53882977D01*
X84339181Y-53787303D01*
X84315484Y-53752971D01*
X84243741Y-53689413D01*
X84197240Y-53648217D01*
X84160782Y-53629082D01*
X84057364Y-53574803D01*
X83903985Y-53537000D01*
X83746015Y-53537000D01*
X83592635Y-53574803D01*
X83452761Y-53648216D01*
X83334514Y-53752972D01*
X83285874Y-53823440D01*
X83241450Y-53862796D01*
X83183824Y-53876999D01*
X83126198Y-53862795D01*
X83122241Y-53860718D01*
X83122240Y-53860717D01*
X83042844Y-53819046D01*
X82982364Y-53787303D01*
X82828985Y-53749500D01*
X82671015Y-53749500D01*
X82517635Y-53787303D01*
X82377761Y-53860716D01*
X82259515Y-53965471D01*
X82169780Y-54095476D01*
X82113763Y-54243181D01*
X82094721Y-54400000D01*
X80400500Y-54400000D01*
X80400500Y-52536567D01*
X80393653Y-52515494D01*
X80389112Y-52496580D01*
X80385646Y-52474696D01*
X80375588Y-52454958D01*
X80368140Y-52436976D01*
X80361296Y-52415910D01*
X80348271Y-52397982D01*
X80338106Y-52381394D01*
X80328049Y-52361657D01*
X80314168Y-52347776D01*
X80314166Y-52347773D01*
X79036819Y-51070426D01*
X79009939Y-51030198D01*
X79000500Y-50982745D01*
X79000500Y-47629081D01*
X79004850Y-47596526D01*
X79112738Y-47199999D01*
X84544721Y-47199999D01*
X84563763Y-47356819D01*
X84579040Y-47397104D01*
X84586248Y-47428744D01*
X84775175Y-48123114D01*
X84794737Y-48195011D01*
X84795150Y-48196527D01*
X84799500Y-48229082D01*
X84799500Y-48263435D01*
X84806346Y-48284507D01*
X84810886Y-48303418D01*
X84814353Y-48325302D01*
X84824412Y-48345044D01*
X84831858Y-48363020D01*
X84838704Y-48384090D01*
X84851726Y-48402014D01*
X84861889Y-48418599D01*
X84871947Y-48438339D01*
X84871949Y-48438341D01*
X84871950Y-48438342D01*
X84888283Y-48454675D01*
X84888296Y-48454690D01*
X85789133Y-49355527D01*
X85809077Y-49381622D01*
X86209113Y-50080712D01*
X86217430Y-50098327D01*
X86219779Y-50104522D01*
X86309515Y-50234528D01*
X86309516Y-50234529D01*
X86309517Y-50234530D01*
X86427760Y-50339283D01*
X86567635Y-50412696D01*
X86721015Y-50450500D01*
X86878985Y-50450500D01*
X87032365Y-50412696D01*
X87172240Y-50339283D01*
X87290483Y-50234530D01*
X87380220Y-50104523D01*
X87436237Y-49956818D01*
X87455278Y-49800000D01*
X87436237Y-49643182D01*
X87380220Y-49495477D01*
X87290483Y-49365470D01*
X87172240Y-49260717D01*
X87095665Y-49220527D01*
X87073413Y-49205575D01*
X87071048Y-49203583D01*
X86381621Y-48809077D01*
X86355526Y-48789133D01*
X85689507Y-48123114D01*
X85657352Y-48067296D01*
X85657538Y-48002878D01*
X85661776Y-47987304D01*
X85738715Y-47704523D01*
X85813769Y-47428675D01*
X85820299Y-47399999D01*
X95344721Y-47399999D01*
X95363763Y-47556818D01*
X95419780Y-47704523D01*
X95509515Y-47834528D01*
X95509516Y-47834529D01*
X95509517Y-47834530D01*
X95627760Y-47939283D01*
X95767635Y-48012696D01*
X95921015Y-48050500D01*
X96078984Y-48050500D01*
X96078985Y-48050500D01*
X96232365Y-48012696D01*
X96232366Y-48012695D01*
X96239094Y-48011037D01*
X96244527Y-48008810D01*
X96996776Y-47780829D01*
X97032741Y-47775500D01*
X97043601Y-47775500D01*
X97091054Y-47784939D01*
X97131281Y-47811818D01*
X97870983Y-48551521D01*
X98604220Y-49284758D01*
X98625882Y-49313958D01*
X99005547Y-50023821D01*
X99004960Y-50024134D01*
X99015343Y-50042326D01*
X99019778Y-50054021D01*
X99109515Y-50184028D01*
X99109516Y-50184029D01*
X99109517Y-50184030D01*
X99227760Y-50288783D01*
X99367635Y-50362196D01*
X99521015Y-50400000D01*
X99678985Y-50400000D01*
X99832365Y-50362196D01*
X99972240Y-50288783D01*
X100090483Y-50184030D01*
X100180220Y-50054023D01*
X100236237Y-49906318D01*
X100255278Y-49749500D01*
X100236237Y-49592682D01*
X100180220Y-49444977D01*
X100090483Y-49314970D01*
X99972240Y-49210217D01*
X99972239Y-49210216D01*
X99888873Y-49166461D01*
X99869030Y-49153487D01*
X99864245Y-49149658D01*
X99164457Y-48775382D01*
X99135257Y-48753720D01*
X97552649Y-47171111D01*
X97536522Y-47151253D01*
X97530583Y-47142162D01*
X97505610Y-47122725D01*
X97494093Y-47112554D01*
X97494019Y-47112480D01*
X97477094Y-47100397D01*
X97472980Y-47097330D01*
X97431689Y-47065191D01*
X97431686Y-47065190D01*
X97425463Y-47060346D01*
X97425261Y-47060242D01*
X97417700Y-47057990D01*
X97417699Y-47057990D01*
X97367536Y-47043055D01*
X97362674Y-47041497D01*
X97351280Y-47037586D01*
X97305702Y-47021939D01*
X97305469Y-47021906D01*
X97260410Y-47023769D01*
X97245306Y-47024394D01*
X97240184Y-47024500D01*
X97032744Y-47024500D01*
X96996779Y-47019170D01*
X96244515Y-46791185D01*
X96239082Y-46788959D01*
X96078985Y-46749500D01*
X95921015Y-46749500D01*
X95767635Y-46787303D01*
X95627761Y-46860716D01*
X95509515Y-46965471D01*
X95419780Y-47095476D01*
X95363763Y-47243181D01*
X95344721Y-47399999D01*
X85820299Y-47399999D01*
X85820959Y-47397100D01*
X85836237Y-47356818D01*
X85855278Y-47200000D01*
X85836237Y-47043182D01*
X85780220Y-46895477D01*
X85706696Y-46788959D01*
X85690484Y-46765471D01*
X85680717Y-46756818D01*
X85572240Y-46660717D01*
X85558994Y-46653765D01*
X85432364Y-46587303D01*
X85278985Y-46549500D01*
X85121015Y-46549500D01*
X84967635Y-46587303D01*
X84827761Y-46660716D01*
X84709515Y-46765471D01*
X84619780Y-46895476D01*
X84563763Y-47043181D01*
X84544721Y-47199999D01*
X79112738Y-47199999D01*
X79213769Y-46828676D01*
X79220959Y-46797100D01*
X79236237Y-46756818D01*
X79255278Y-46600000D01*
X79236237Y-46443182D01*
X79180220Y-46295477D01*
X79132589Y-46226471D01*
X79090484Y-46165471D01*
X79039189Y-46120028D01*
X78972240Y-46060717D01*
X78922652Y-46034691D01*
X78832364Y-45987303D01*
X78678985Y-45949500D01*
X78521015Y-45949500D01*
X78367635Y-45987303D01*
X78227761Y-46060716D01*
X78109515Y-46165471D01*
X78019780Y-46295476D01*
X77963763Y-46443181D01*
X77944721Y-46599999D01*
X77963763Y-46756819D01*
X77979040Y-46797104D01*
X77986248Y-46828744D01*
X78195150Y-47596527D01*
X78199500Y-47629082D01*
X78199500Y-51263435D01*
X78206346Y-51284507D01*
X78210886Y-51303418D01*
X78214353Y-51325302D01*
X78224412Y-51345044D01*
X78231858Y-51363020D01*
X78238704Y-51384090D01*
X78251726Y-51402014D01*
X78261889Y-51418599D01*
X78271947Y-51438339D01*
X78271949Y-51438341D01*
X78271950Y-51438342D01*
X78288283Y-51454675D01*
X78288296Y-51454690D01*
X79563181Y-52729574D01*
X79590061Y-52769802D01*
X79599500Y-52817255D01*
X79599500Y-52920224D01*
X79586987Y-52974507D01*
X79551974Y-53017834D01*
X79501526Y-53041462D01*
X79445826Y-53040621D01*
X79278985Y-52999500D01*
X79121015Y-52999500D01*
X78967635Y-53037303D01*
X78827761Y-53110716D01*
X78709515Y-53215471D01*
X78619780Y-53345476D01*
X78563763Y-53493181D01*
X78544721Y-53649999D01*
X78563763Y-53806819D01*
X78579040Y-53847104D01*
X78586248Y-53878744D01*
X78716325Y-54356818D01*
X78791189Y-54631971D01*
X78795150Y-54646527D01*
X78799500Y-54679082D01*
X78799500Y-56982745D01*
X78790061Y-57030198D01*
X78763181Y-57070426D01*
X78123114Y-57710491D01*
X78067296Y-57742646D01*
X78002878Y-57742460D01*
X77423515Y-57584826D01*
X77419867Y-57584223D01*
X77278985Y-57549500D01*
X77121015Y-57549500D01*
X76967635Y-57587303D01*
X76913636Y-57615645D01*
X76827760Y-57660717D01*
X76789288Y-57694800D01*
X76764029Y-57717177D01*
X76701693Y-57746754D01*
X76633199Y-57738437D01*
X76579753Y-57694800D01*
X76490484Y-57565471D01*
X76419127Y-57502255D01*
X76372240Y-57460717D01*
X76329609Y-57438342D01*
X76232364Y-57387303D01*
X76078985Y-57349500D01*
X75921015Y-57349500D01*
X75767635Y-57387303D01*
X75627761Y-57460716D01*
X75509515Y-57565471D01*
X75502050Y-57576288D01*
X75457626Y-57615645D01*
X75400000Y-57629848D01*
X75342374Y-57615645D01*
X75297950Y-57576288D01*
X75290484Y-57565471D01*
X75219127Y-57502255D01*
X75172240Y-57460717D01*
X75129609Y-57438342D01*
X75032364Y-57387303D01*
X74878985Y-57349500D01*
X74759001Y-57349500D01*
X74701376Y-57335297D01*
X74656952Y-57295942D01*
X74642192Y-57257026D01*
X74641576Y-57257260D01*
X74623424Y-57209397D01*
X74580220Y-57095477D01*
X74514904Y-57000850D01*
X74490484Y-56965471D01*
X74471850Y-56948963D01*
X74372240Y-56860717D01*
X74323611Y-56835194D01*
X74232364Y-56787303D01*
X74078985Y-56749500D01*
X73921015Y-56749500D01*
X73767635Y-56787303D01*
X73627761Y-56860716D01*
X73509515Y-56965471D01*
X73419780Y-57095476D01*
X73363763Y-57243181D01*
X73344721Y-57400002D01*
X62456560Y-57400002D01*
X62432364Y-57387303D01*
X62278985Y-57349500D01*
X62121015Y-57349500D01*
X61967635Y-57387303D01*
X61827761Y-57460716D01*
X61709515Y-57565471D01*
X61619780Y-57695476D01*
X61563763Y-57843181D01*
X61544721Y-57999999D01*
X61563763Y-58156818D01*
X61619780Y-58304525D01*
X61622431Y-58308365D01*
X61643078Y-58360889D01*
X61638309Y-58417124D01*
X61631855Y-58436985D01*
X61624412Y-58454954D01*
X61614353Y-58474697D01*
X61610886Y-58496582D01*
X61606347Y-58515491D01*
X61599500Y-58536567D01*
X61599500Y-67170918D01*
X61595150Y-67203473D01*
X61386248Y-67971254D01*
X61379041Y-68002894D01*
X61363763Y-68043182D01*
X61344721Y-68200000D01*
X60254393Y-68200000D01*
X60305484Y-68148909D01*
X60305484Y-68148908D01*
X60319713Y-68134680D01*
X60319717Y-68134674D01*
X60328050Y-68126342D01*
X60338108Y-68106600D01*
X60348267Y-68090021D01*
X60361297Y-68072089D01*
X60368144Y-68051011D01*
X60375591Y-68033037D01*
X60385645Y-68013306D01*
X60385645Y-68013305D01*
X60385646Y-68013304D01*
X60389112Y-67991416D01*
X60393651Y-67972510D01*
X60400500Y-67951433D01*
X60400500Y-67824567D01*
X60400500Y-59417255D01*
X60409939Y-59369802D01*
X60436819Y-59329574D01*
X61119713Y-58646681D01*
X61119717Y-58646673D01*
X61128050Y-58638342D01*
X61138109Y-58618598D01*
X61148267Y-58602021D01*
X61161296Y-58584089D01*
X61168143Y-58563013D01*
X61175584Y-58545049D01*
X61185646Y-58525304D01*
X61189112Y-58503413D01*
X61193652Y-58484504D01*
X61200500Y-58463433D01*
X61200500Y-58336567D01*
X61200500Y-45610376D01*
X61210430Y-45561754D01*
X61238631Y-45520919D01*
X61651174Y-45124922D01*
X61660999Y-45112604D01*
X61675709Y-45097117D01*
X61690483Y-45084030D01*
X61780220Y-44954023D01*
X61836237Y-44806318D01*
X61855278Y-44649500D01*
X61836237Y-44492682D01*
X61780220Y-44344977D01*
X61690483Y-44214970D01*
X61572240Y-44110217D01*
X61558994Y-44103265D01*
X61432364Y-44036803D01*
X61278985Y-43999000D01*
X61121015Y-43999000D01*
X60967635Y-44036803D01*
X60827761Y-44110216D01*
X60709515Y-44214971D01*
X60619779Y-44344976D01*
X60563763Y-44492680D01*
X60552156Y-44588264D01*
X60549032Y-44601030D01*
X60549133Y-44601050D01*
X60525288Y-44727313D01*
X60513083Y-44762223D01*
X60491126Y-44791981D01*
X60471949Y-44811158D01*
X60461892Y-44830896D01*
X60451731Y-44847479D01*
X60438702Y-44865413D01*
X60431854Y-44886487D01*
X60424412Y-44904454D01*
X60414353Y-44924197D01*
X60410886Y-44946082D01*
X60406347Y-44964991D01*
X60399500Y-44986067D01*
X60399500Y-45431223D01*
X60399400Y-45436200D01*
X60398562Y-45457056D01*
X60398800Y-45459285D01*
X60399500Y-45472444D01*
X60399500Y-58182745D01*
X60390061Y-58230198D01*
X60363181Y-58270426D01*
X59694512Y-58939095D01*
X59671949Y-58961657D01*
X59661892Y-58981396D01*
X59651732Y-58997976D01*
X59638704Y-59015910D01*
X59638702Y-59015913D01*
X59631854Y-59036987D01*
X59624412Y-59054954D01*
X59614353Y-59074697D01*
X59610886Y-59096582D01*
X59606347Y-59115491D01*
X59599500Y-59136567D01*
X59599500Y-67670744D01*
X59590061Y-67718197D01*
X59563181Y-67758426D01*
X59444472Y-67877133D01*
X59418377Y-67897076D01*
X58728948Y-68291584D01*
X58726582Y-68293577D01*
X58704335Y-68308525D01*
X58627762Y-68348715D01*
X58608848Y-68365471D01*
X58512870Y-68450500D01*
X58509516Y-68453471D01*
X58419780Y-68583476D01*
X58363763Y-68731181D01*
X58344721Y-68888000D01*
X56000500Y-68888000D01*
X56000500Y-67629081D01*
X56004850Y-67596526D01*
X56213769Y-66828676D01*
X56220959Y-66797100D01*
X56236237Y-66756818D01*
X56255278Y-66600000D01*
X56236237Y-66443182D01*
X56180220Y-66295477D01*
X56123687Y-66213575D01*
X56090484Y-66165471D01*
X56004314Y-66089132D01*
X55972240Y-66060717D01*
X55958994Y-66053765D01*
X55832364Y-65987303D01*
X55678985Y-65949500D01*
X55521015Y-65949500D01*
X55367635Y-65987303D01*
X55227761Y-66060716D01*
X55109515Y-66165471D01*
X55019780Y-66295476D01*
X54963763Y-66443181D01*
X54944721Y-66599999D01*
X54963763Y-66756819D01*
X54979040Y-66797104D01*
X54986248Y-66828744D01*
X55195150Y-67596527D01*
X55199500Y-67629082D01*
X55199500Y-70170918D01*
X55195150Y-70203473D01*
X54986248Y-70971254D01*
X54979041Y-71002894D01*
X54963763Y-71043182D01*
X54944721Y-71200000D01*
X51000500Y-71200000D01*
X51000500Y-70617255D01*
X51009939Y-70569802D01*
X51036819Y-70529574D01*
X51053847Y-70512545D01*
X51385754Y-70180638D01*
X51438333Y-70149392D01*
X51499457Y-70147083D01*
X51554248Y-70174274D01*
X51589374Y-70224350D01*
X51619779Y-70304522D01*
X51709515Y-70434528D01*
X51709516Y-70434529D01*
X51709517Y-70434530D01*
X51827760Y-70539283D01*
X51967635Y-70612696D01*
X52121015Y-70650500D01*
X52278985Y-70650500D01*
X52432365Y-70612696D01*
X52572240Y-70539283D01*
X52690483Y-70434530D01*
X52780220Y-70304523D01*
X52836237Y-70156818D01*
X52855278Y-70000000D01*
X52854985Y-69997594D01*
X52854534Y-69975533D01*
X52811362Y-69199999D01*
X52805720Y-69098652D01*
X52804202Y-69092584D01*
X52800500Y-69062507D01*
X52800500Y-64921828D01*
X52800499Y-64921816D01*
X52800499Y-64900172D01*
X52799854Y-64898187D01*
X52793652Y-64879102D01*
X52789111Y-64860182D01*
X52785646Y-64838300D01*
X52775584Y-64818553D01*
X52768141Y-64800583D01*
X52761296Y-64779514D01*
X52748791Y-64762304D01*
X52748276Y-64761594D01*
X52738104Y-64744996D01*
X52728050Y-64725262D01*
X52638342Y-64635554D01*
X52063693Y-64060905D01*
X51486819Y-63484030D01*
X51459939Y-63443802D01*
X51450500Y-63396349D01*
X51450500Y-63259371D01*
X51469686Y-63193114D01*
X51521306Y-63147360D01*
X51589387Y-63136268D01*
X51652859Y-63163268D01*
X51694784Y-63197453D01*
X51746593Y-63239698D01*
X51857247Y-63297499D01*
X51926951Y-63333909D01*
X52122582Y-63389886D01*
X52241963Y-63400500D01*
X58358036Y-63400499D01*
X58477418Y-63389886D01*
X58673049Y-63333909D01*
X58853407Y-63239698D01*
X59011109Y-63111109D01*
X59139698Y-62953407D01*
X59233909Y-62773049D01*
X59289886Y-62577418D01*
X59300500Y-62458037D01*
X59300499Y-56341964D01*
X59289886Y-56222582D01*
X59233909Y-56026951D01*
X59139698Y-55846593D01*
X59011109Y-55688891D01*
X58853407Y-55560302D01*
X58853406Y-55560301D01*
X58673050Y-55466091D01*
X58575233Y-55438102D01*
X58477418Y-55410114D01*
X58358037Y-55399500D01*
X58358033Y-55399500D01*
X56501089Y-55399500D01*
X56443824Y-55385485D01*
X56399504Y-55346609D01*
X56287531Y-55186648D01*
X55950044Y-54704523D01*
X55872915Y-54594338D01*
X55856236Y-54560508D01*
X55850500Y-54523229D01*
X55850500Y-44803736D01*
X55853281Y-44777622D01*
X56019543Y-44005852D01*
X56020933Y-44006151D01*
X56024865Y-43986801D01*
X56036237Y-43956818D01*
X56055278Y-43800000D01*
X56036237Y-43643182D01*
X55980220Y-43495477D01*
X55890483Y-43365470D01*
X55772240Y-43260717D01*
X55636197Y-43189315D01*
X55632364Y-43187303D01*
X55478985Y-43149500D01*
X55321015Y-43149500D01*
X55167635Y-43187303D01*
X55027761Y-43260716D01*
X54909515Y-43365471D01*
X54819780Y-43495476D01*
X54763763Y-43643181D01*
X54744344Y-43803104D01*
X54744500Y-43805672D01*
X54744500Y-43811671D01*
X54744500Y-44728409D01*
X54748903Y-44773115D01*
X54749500Y-44785260D01*
X54749500Y-54523228D01*
X54743763Y-54560507D01*
X54727085Y-54594337D01*
X54200493Y-55346609D01*
X54156172Y-55385485D01*
X54098908Y-55399500D01*
X52241966Y-55399500D01*
X52122582Y-55410114D01*
X51926949Y-55466091D01*
X51746593Y-55560301D01*
X51588891Y-55688891D01*
X51460301Y-55846593D01*
X51366091Y-56026949D01*
X51310114Y-56222582D01*
X51299500Y-56341967D01*
X51299500Y-60807574D01*
X51282238Y-60870685D01*
X51235258Y-60916225D01*
X51171639Y-60931514D01*
X51109096Y-60912295D01*
X51065041Y-60863920D01*
X51062009Y-60857977D01*
X51002050Y-60740434D01*
X51002049Y-60740433D01*
X50996789Y-60730121D01*
X50996798Y-60730116D01*
X50986120Y-60711035D01*
X50984292Y-60706215D01*
X50980220Y-60695477D01*
X50890483Y-60565470D01*
X50772240Y-60460717D01*
X50687692Y-60416342D01*
X50632364Y-60387303D01*
X50478985Y-60349500D01*
X50321015Y-60349500D01*
X50167635Y-60387303D01*
X50027761Y-60460716D01*
X49909515Y-60565471D01*
X49819780Y-60695476D01*
X49763763Y-60843181D01*
X49756110Y-60906207D01*
X49729458Y-60969199D01*
X49673463Y-61008477D01*
X49605160Y-61012091D01*
X49545333Y-60978941D01*
X49482617Y-60916225D01*
X49210864Y-60644471D01*
X49190920Y-60618376D01*
X48861781Y-60043182D01*
X48796415Y-59928950D01*
X48796414Y-59928949D01*
X48790889Y-59919293D01*
X48782572Y-59901679D01*
X48780220Y-59895477D01*
X48690483Y-59765470D01*
X48572240Y-59660717D01*
X48558994Y-59653765D01*
X48432364Y-59587303D01*
X48278985Y-59549500D01*
X48121015Y-59549500D01*
X47967635Y-59587303D01*
X47827761Y-59660716D01*
X47709515Y-59765471D01*
X47619780Y-59895476D01*
X47563763Y-60043181D01*
X47544721Y-60200000D01*
X47563763Y-60356818D01*
X47619780Y-60504523D01*
X47709515Y-60634528D01*
X47709516Y-60634529D01*
X47709517Y-60634530D01*
X47827760Y-60739283D01*
X47904335Y-60779473D01*
X47926577Y-60794418D01*
X47928945Y-60796412D01*
X47928949Y-60796414D01*
X47928950Y-60796415D01*
X48445546Y-61092023D01*
X48618376Y-61190920D01*
X48644471Y-61210864D01*
X49214040Y-61780433D01*
X49763181Y-62329573D01*
X49790061Y-62369801D01*
X49799500Y-62417254D01*
X49799500Y-63863435D01*
X49806346Y-63884507D01*
X49810886Y-63903418D01*
X49814353Y-63925302D01*
X49824412Y-63945044D01*
X49831858Y-63963020D01*
X49838704Y-63984090D01*
X49851726Y-64002014D01*
X49861889Y-64018599D01*
X49871947Y-64038339D01*
X49871949Y-64038341D01*
X49871950Y-64038342D01*
X49888283Y-64054675D01*
X49888296Y-64054690D01*
X51263181Y-65429573D01*
X51290061Y-65469801D01*
X51299500Y-65517254D01*
X51299500Y-67475126D01*
X51286657Y-67530082D01*
X51250789Y-67573653D01*
X51199324Y-67596816D01*
X51142925Y-67594771D01*
X51093274Y-67567942D01*
X50972241Y-67460718D01*
X50972240Y-67460717D01*
X50856555Y-67400000D01*
X50832364Y-67387303D01*
X50678985Y-67349500D01*
X50521015Y-67349500D01*
X50367635Y-67387303D01*
X50227761Y-67460716D01*
X50109515Y-67565471D01*
X50019780Y-67695476D01*
X49963763Y-67843181D01*
X49942907Y-68014947D01*
X49939042Y-68014477D01*
X49932740Y-68054626D01*
X49888701Y-68106016D01*
X49824238Y-68126628D01*
X49758553Y-68110321D01*
X49581623Y-68009078D01*
X49555530Y-67989137D01*
X49460909Y-67894516D01*
X49460908Y-67894515D01*
X49454683Y-67888290D01*
X49454675Y-67888283D01*
X49438342Y-67871950D01*
X49438341Y-67871949D01*
X49438339Y-67871947D01*
X49418599Y-67861889D01*
X49402014Y-67851726D01*
X49384090Y-67838704D01*
X49363020Y-67831858D01*
X49345044Y-67824412D01*
X49325302Y-67814353D01*
X49303418Y-67810886D01*
X49284507Y-67806346D01*
X49263435Y-67799500D01*
X49263433Y-67799500D01*
X49231519Y-67799500D01*
X45945667Y-67799500D01*
X45878915Y-67779999D01*
X45833158Y-67727631D01*
X45822788Y-67658866D01*
X45823416Y-67654231D01*
X45851398Y-67447519D01*
X45851348Y-67440796D01*
X45852248Y-67424944D01*
X45855278Y-67400000D01*
X45836237Y-67243182D01*
X45780220Y-67095477D01*
X45706950Y-66989326D01*
X45690484Y-66965471D01*
X45690483Y-66965470D01*
X45572240Y-66860717D01*
X45513842Y-66830067D01*
X45432364Y-66787303D01*
X45278985Y-66749500D01*
X45121015Y-66749500D01*
X44967635Y-66787303D01*
X44827761Y-66860716D01*
X44709515Y-66965471D01*
X44619780Y-67095476D01*
X44563763Y-67243181D01*
X44544721Y-67400000D01*
X44557413Y-67504523D01*
X44563763Y-67556818D01*
X44584885Y-67612514D01*
X44586153Y-67615856D01*
X44589920Y-67627489D01*
X44590968Y-67631369D01*
X44598595Y-67649022D01*
X44600707Y-67654231D01*
X44619780Y-67704524D01*
X44653665Y-67753616D01*
X44657209Y-67759049D01*
X44781099Y-67960323D01*
X44799500Y-68025322D01*
X44799500Y-68063435D01*
X44806346Y-68084507D01*
X44810886Y-68103418D01*
X44814353Y-68125302D01*
X44824412Y-68145044D01*
X44831858Y-68163020D01*
X44838704Y-68184090D01*
X44851726Y-68202014D01*
X44861889Y-68218599D01*
X44871947Y-68238339D01*
X44871949Y-68238341D01*
X44871950Y-68238342D01*
X44888283Y-68254675D01*
X44888296Y-68254690D01*
X45106631Y-68473024D01*
X45113619Y-68480619D01*
X45118018Y-68485819D01*
X45123237Y-68490381D01*
X45123241Y-68490383D01*
X45126075Y-68492861D01*
X45132147Y-68498540D01*
X45147770Y-68514163D01*
X45147775Y-68514167D01*
X45161658Y-68528050D01*
X45181400Y-68538109D01*
X45197987Y-68548274D01*
X45199674Y-68549500D01*
X45215911Y-68561296D01*
X45236987Y-68568144D01*
X45254945Y-68575582D01*
X45274696Y-68585646D01*
X45284525Y-68587202D01*
X45296577Y-68589112D01*
X45315497Y-68593654D01*
X45336567Y-68600500D01*
X45368481Y-68600500D01*
X45463433Y-68600500D01*
X48947971Y-68600500D01*
X49010178Y-68617233D01*
X49055596Y-68662915D01*
X49237464Y-68980744D01*
X49253668Y-69035810D01*
X49243336Y-69092274D01*
X49175691Y-69245993D01*
X49149877Y-69283728D01*
X49094517Y-69339090D01*
X49094512Y-69339095D01*
X49071949Y-69361657D01*
X49061892Y-69381396D01*
X49051731Y-69397979D01*
X49038702Y-69415913D01*
X49031854Y-69436987D01*
X49024412Y-69454954D01*
X49014353Y-69474697D01*
X49010886Y-69496582D01*
X49006347Y-69515491D01*
X48999500Y-69536567D01*
X48999500Y-86533746D01*
X48985985Y-86590041D01*
X48948385Y-86634064D01*
X48894898Y-86656219D01*
X48837182Y-86651677D01*
X48787819Y-86621427D01*
X47854690Y-85688296D01*
X47854675Y-85688283D01*
X47838342Y-85671950D01*
X47838341Y-85671949D01*
X47838339Y-85671947D01*
X47818599Y-85661889D01*
X47802014Y-85651726D01*
X47784090Y-85638704D01*
X47763020Y-85631858D01*
X47745044Y-85624412D01*
X47725302Y-85614353D01*
X47703418Y-85610886D01*
X47684507Y-85606346D01*
X47663435Y-85599500D01*
X47663433Y-85599500D01*
X47631519Y-85599500D01*
X45617254Y-85599500D01*
X45569801Y-85590061D01*
X45529573Y-85563181D01*
X44036819Y-84070426D01*
X44009939Y-84030198D01*
X44000500Y-83982745D01*
X44000500Y-73136568D01*
X43993653Y-73115495D01*
X43989112Y-73096585D01*
X43985646Y-73074696D01*
X43985644Y-73074692D01*
X43975588Y-73054955D01*
X43968142Y-73036978D01*
X43961297Y-73015910D01*
X43948271Y-72997982D01*
X43938107Y-72981397D01*
X43928050Y-72961658D01*
X43914168Y-72947776D01*
X43914166Y-72947773D01*
X43183893Y-72217500D01*
X45476023Y-72217500D01*
X45500681Y-72317546D01*
X45579680Y-72468067D01*
X45692403Y-72595304D01*
X45832304Y-72691871D01*
X45991248Y-72752150D01*
X46117661Y-72767500D01*
X46310000Y-72767500D01*
X46610000Y-72767500D01*
X46802339Y-72767500D01*
X46928751Y-72752150D01*
X47087695Y-72691871D01*
X47227596Y-72595304D01*
X47340319Y-72468067D01*
X47422238Y-72311981D01*
X47453934Y-72273293D01*
X47498336Y-72250273D01*
X47548221Y-72246667D01*
X47559762Y-72248186D01*
X47559764Y-72248187D01*
X47710000Y-72267966D01*
X47860236Y-72248187D01*
X48000233Y-72190198D01*
X48120451Y-72097951D01*
X48212698Y-71977733D01*
X48270687Y-71837736D01*
X48285500Y-71725220D01*
X48285500Y-71349780D01*
X48270687Y-71237264D01*
X48212698Y-71097267D01*
X48120451Y-70977049D01*
X48000233Y-70884802D01*
X48000231Y-70884801D01*
X47860235Y-70826812D01*
X47710000Y-70807033D01*
X47559764Y-70826812D01*
X47419768Y-70884801D01*
X47299549Y-70977049D01*
X47207301Y-71097268D01*
X47149313Y-71237264D01*
X47141015Y-71300293D01*
X47121696Y-71352217D01*
X47081691Y-71390545D01*
X47028988Y-71407626D01*
X46974106Y-71400049D01*
X46928753Y-71382849D01*
X46802339Y-71367500D01*
X46610000Y-71367500D01*
X46610000Y-72767500D01*
X46310000Y-72767500D01*
X46310000Y-72217500D01*
X45476023Y-72217500D01*
X43183893Y-72217500D01*
X43036819Y-72070426D01*
X43009939Y-72030198D01*
X43000500Y-71982745D01*
X43000500Y-71917499D01*
X45476022Y-71917499D01*
X45476023Y-71917500D01*
X46310000Y-71917500D01*
X46310000Y-71367500D01*
X46117661Y-71367500D01*
X45991248Y-71382849D01*
X45832304Y-71443128D01*
X45692403Y-71539695D01*
X45579680Y-71666932D01*
X45500681Y-71817453D01*
X45476022Y-71917499D01*
X43000500Y-71917499D01*
X43000500Y-69829081D01*
X43004850Y-69796526D01*
X43213769Y-69028676D01*
X43220959Y-68997100D01*
X43236237Y-68956818D01*
X43255278Y-68800000D01*
X43236237Y-68643182D01*
X43226864Y-68618469D01*
X43219711Y-68559554D01*
X43240757Y-68504060D01*
X43285181Y-68464704D01*
X43342807Y-68450500D01*
X43378485Y-68450500D01*
X43531865Y-68412696D01*
X43671740Y-68339283D01*
X43789983Y-68234530D01*
X43879720Y-68104523D01*
X43935737Y-67956818D01*
X43954778Y-67800000D01*
X43935737Y-67643182D01*
X43920458Y-67602894D01*
X43913258Y-67571282D01*
X43704350Y-66803473D01*
X43700000Y-66770918D01*
X43700000Y-63957500D01*
X45476023Y-63957500D01*
X45500681Y-64057546D01*
X45579680Y-64208067D01*
X45692403Y-64335304D01*
X45832304Y-64431871D01*
X45991248Y-64492150D01*
X46117661Y-64507500D01*
X46310000Y-64507500D01*
X46310000Y-63957500D01*
X45476023Y-63957500D01*
X43700000Y-63957500D01*
X43700000Y-63657499D01*
X45476022Y-63657499D01*
X45476023Y-63657500D01*
X46310000Y-63657500D01*
X46310000Y-63107500D01*
X46610000Y-63107500D01*
X46610000Y-64507500D01*
X46802339Y-64507500D01*
X46928751Y-64492150D01*
X47008457Y-64461922D01*
X47071085Y-64455276D01*
X47128901Y-64480253D01*
X47166989Y-64530411D01*
X47207300Y-64627730D01*
X47207301Y-64627731D01*
X47207302Y-64627733D01*
X47299549Y-64747951D01*
X47419767Y-64840198D01*
X47513711Y-64879111D01*
X47559764Y-64898187D01*
X47672279Y-64913000D01*
X47672280Y-64913000D01*
X47747720Y-64913000D01*
X47747721Y-64913000D01*
X47845158Y-64900172D01*
X47860236Y-64898187D01*
X48000233Y-64840198D01*
X48120451Y-64747951D01*
X48212698Y-64627733D01*
X48270687Y-64487736D01*
X48290466Y-64337500D01*
X48270687Y-64187264D01*
X48212698Y-64047267D01*
X48120451Y-63927049D01*
X48000233Y-63834802D01*
X47994770Y-63832539D01*
X47860235Y-63776812D01*
X47747721Y-63762000D01*
X47747720Y-63762000D01*
X47672280Y-63762000D01*
X47672279Y-63762000D01*
X47586124Y-63773342D01*
X47526747Y-63766637D01*
X47477400Y-63732941D01*
X47449542Y-63680078D01*
X47419318Y-63557453D01*
X47340319Y-63406932D01*
X47227596Y-63279695D01*
X47087695Y-63183128D01*
X46928751Y-63122849D01*
X46802339Y-63107500D01*
X46610000Y-63107500D01*
X46310000Y-63107500D01*
X46117661Y-63107500D01*
X45991248Y-63122849D01*
X45832304Y-63183128D01*
X45692403Y-63279695D01*
X45579680Y-63406932D01*
X45500681Y-63557453D01*
X45476022Y-63657499D01*
X43700000Y-63657499D01*
X43700000Y-62772944D01*
X43706790Y-62732473D01*
X43726418Y-62696434D01*
X43753110Y-62662391D01*
X44077322Y-62248889D01*
X44089485Y-62235974D01*
X44090479Y-62234532D01*
X44090483Y-62234530D01*
X44180220Y-62104523D01*
X44236237Y-61956818D01*
X44255278Y-61800000D01*
X44236237Y-61643182D01*
X44180220Y-61495477D01*
X44090483Y-61365470D01*
X43972240Y-61260717D01*
X43958994Y-61253765D01*
X43832364Y-61187303D01*
X43678985Y-61149500D01*
X43521015Y-61149500D01*
X43367635Y-61187303D01*
X43227761Y-61260716D01*
X43109515Y-61365471D01*
X43019780Y-61495476D01*
X42963763Y-61643181D01*
X42947097Y-61780433D01*
X42944317Y-61795300D01*
X42937675Y-61905183D01*
X42931817Y-61936064D01*
X42931342Y-61937524D01*
X42923913Y-61955452D01*
X42913853Y-61975196D01*
X42910386Y-61997082D01*
X42905847Y-62015991D01*
X42899000Y-62037067D01*
X42899000Y-62541344D01*
X42898774Y-62548825D01*
X42895215Y-62607710D01*
X42898646Y-62653031D01*
X42899000Y-62662391D01*
X42899000Y-66770918D01*
X42894650Y-66803473D01*
X42685748Y-67571254D01*
X42678541Y-67602894D01*
X42663263Y-67643182D01*
X42644221Y-67800000D01*
X42654942Y-67888290D01*
X42663263Y-67956818D01*
X42672635Y-67981530D01*
X42679789Y-68040446D01*
X42658743Y-68095940D01*
X42614319Y-68135296D01*
X42556693Y-68149500D01*
X42521015Y-68149500D01*
X42367635Y-68187303D01*
X42227761Y-68260716D01*
X42109515Y-68365471D01*
X42019780Y-68495476D01*
X41963763Y-68643181D01*
X41944721Y-68799999D01*
X41963763Y-68956819D01*
X41979040Y-68997104D01*
X41986248Y-69028744D01*
X42195150Y-69796527D01*
X42199500Y-69829082D01*
X42199500Y-72263435D01*
X42206346Y-72284507D01*
X42210886Y-72303418D01*
X42214353Y-72325302D01*
X42224412Y-72345044D01*
X42231858Y-72363020D01*
X42238704Y-72384090D01*
X42251726Y-72402014D01*
X42261889Y-72418599D01*
X42271947Y-72438339D01*
X42271949Y-72438341D01*
X42271950Y-72438342D01*
X42288283Y-72454675D01*
X42288296Y-72454690D01*
X43163181Y-73329574D01*
X43190061Y-73369802D01*
X43199500Y-73417255D01*
X43199500Y-84186536D01*
X43186657Y-84241492D01*
X43150788Y-84285064D01*
X43099324Y-84308226D01*
X43042924Y-84306181D01*
X42993274Y-84279351D01*
X42972240Y-84260717D01*
X42877418Y-84210950D01*
X42832364Y-84187303D01*
X42678985Y-84149500D01*
X42521015Y-84149500D01*
X42367635Y-84187303D01*
X42227761Y-84260716D01*
X42109515Y-84365471D01*
X42019780Y-84495476D01*
X41963763Y-84643181D01*
X41944721Y-84800000D01*
X38836034Y-84800000D01*
X38836034Y-72577500D01*
X39526023Y-72577500D01*
X39550681Y-72677546D01*
X39629680Y-72828067D01*
X39742403Y-72955304D01*
X39882304Y-73051871D01*
X40041248Y-73112150D01*
X40167661Y-73127500D01*
X40360000Y-73127500D01*
X40360000Y-72577500D01*
X40660000Y-72577500D01*
X40660000Y-73127500D01*
X40852339Y-73127500D01*
X40978751Y-73112150D01*
X41137695Y-73051871D01*
X41277596Y-72955304D01*
X41390319Y-72828067D01*
X41469318Y-72677546D01*
X41493977Y-72577500D01*
X40660000Y-72577500D01*
X40360000Y-72577500D01*
X39526023Y-72577500D01*
X38836034Y-72577500D01*
X38836034Y-72277499D01*
X39526022Y-72277499D01*
X39526023Y-72277500D01*
X40360000Y-72277500D01*
X40360000Y-71727500D01*
X40660000Y-71727500D01*
X40660000Y-72277500D01*
X41493977Y-72277500D01*
X41493977Y-72277499D01*
X41469318Y-72177453D01*
X41390319Y-72026932D01*
X41277596Y-71899695D01*
X41137695Y-71803128D01*
X40978751Y-71742849D01*
X40852339Y-71727500D01*
X40660000Y-71727500D01*
X40360000Y-71727500D01*
X40167661Y-71727500D01*
X40041248Y-71742849D01*
X39882304Y-71803128D01*
X39742403Y-71899695D01*
X39629680Y-72026932D01*
X39550681Y-72177453D01*
X39526022Y-72277499D01*
X38836034Y-72277499D01*
X38836034Y-63597500D01*
X39526023Y-63597500D01*
X39550681Y-63697546D01*
X39629680Y-63848067D01*
X39742403Y-63975304D01*
X39882304Y-64071871D01*
X40041248Y-64132150D01*
X40167661Y-64147500D01*
X40360000Y-64147500D01*
X40360000Y-63597500D01*
X40660000Y-63597500D01*
X40660000Y-64147500D01*
X40852339Y-64147500D01*
X40978751Y-64132150D01*
X41137695Y-64071871D01*
X41277596Y-63975304D01*
X41390319Y-63848067D01*
X41469318Y-63697546D01*
X41493977Y-63597500D01*
X40660000Y-63597500D01*
X40360000Y-63597500D01*
X39526023Y-63597500D01*
X38836034Y-63597500D01*
X38836034Y-63297499D01*
X39526022Y-63297499D01*
X39526023Y-63297500D01*
X40360000Y-63297500D01*
X40360000Y-62747500D01*
X40660000Y-62747500D01*
X40660000Y-63297500D01*
X41493977Y-63297500D01*
X41493977Y-63297499D01*
X41469318Y-63197453D01*
X41390319Y-63046932D01*
X41277596Y-62919695D01*
X41137695Y-62823128D01*
X40978751Y-62762849D01*
X40852339Y-62747500D01*
X40660000Y-62747500D01*
X40360000Y-62747500D01*
X40167661Y-62747500D01*
X40041248Y-62762849D01*
X39882304Y-62823128D01*
X39742403Y-62919695D01*
X39629680Y-63046932D01*
X39550681Y-63197453D01*
X39526022Y-63297499D01*
X38836034Y-63297499D01*
X38836034Y-44002706D01*
X38836093Y-43999999D01*
X40695152Y-43999999D01*
X40714525Y-44357310D01*
X40772419Y-44710451D01*
X40868149Y-45055241D01*
X41000601Y-45387670D01*
X41168218Y-45703829D01*
X41369031Y-46000004D01*
X41561394Y-46226471D01*
X41561395Y-46226471D01*
X41753175Y-46034691D01*
X41806356Y-46003268D01*
X41868099Y-46001402D01*
X41923081Y-46029555D01*
X41928879Y-46034691D01*
X41962076Y-46064101D01*
X41998236Y-46120025D01*
X42000248Y-46186591D01*
X41967532Y-46244598D01*
X41774630Y-46437500D01*
X41774630Y-46437501D01*
X41860485Y-46518828D01*
X42145363Y-46735386D01*
X42451984Y-46919873D01*
X42776746Y-47070124D01*
X43115859Y-47184385D01*
X43465335Y-47261310D01*
X43821078Y-47300000D01*
X44178922Y-47300000D01*
X44534664Y-47261310D01*
X44884140Y-47184385D01*
X45223253Y-47070124D01*
X45548015Y-46919873D01*
X45854636Y-46735386D01*
X46139514Y-46518828D01*
X46225368Y-46437502D01*
X46225368Y-46437500D01*
X46032467Y-46244599D01*
X45999751Y-46186593D01*
X46001762Y-46120028D01*
X46037918Y-46064105D01*
X46076919Y-46029554D01*
X46131897Y-46001402D01*
X46193641Y-46003268D01*
X46246823Y-46034691D01*
X46438603Y-46226471D01*
X46630968Y-46000004D01*
X46831781Y-45703829D01*
X46999398Y-45387670D01*
X47131850Y-45055241D01*
X47227580Y-44710451D01*
X47285474Y-44357310D01*
X47304847Y-43999999D01*
X47285474Y-43642689D01*
X47227580Y-43289548D01*
X47131850Y-42944758D01*
X46999398Y-42612329D01*
X46831781Y-42296170D01*
X46630968Y-41999995D01*
X46438604Y-41773527D01*
X46438603Y-41773527D01*
X46246823Y-41965307D01*
X46193642Y-41996730D01*
X46131899Y-41998596D01*
X46076917Y-41970443D01*
X46037922Y-41935898D01*
X46001762Y-41879973D01*
X45999750Y-41813406D01*
X46032466Y-41755399D01*
X46225368Y-41562497D01*
X46139514Y-41481171D01*
X45854636Y-41264613D01*
X45548015Y-41080126D01*
X45223253Y-40929875D01*
X44884140Y-40815614D01*
X44813204Y-40800000D01*
X69294785Y-40800000D01*
X69313602Y-41003083D01*
X69369417Y-41199248D01*
X69370476Y-41201374D01*
X69375441Y-41216469D01*
X69375953Y-41216273D01*
X69380252Y-41227474D01*
X69380253Y-41227475D01*
X69910921Y-42609882D01*
X69941264Y-42688925D01*
X69949500Y-42733364D01*
X69949500Y-47567738D01*
X69948720Y-47581622D01*
X69944729Y-47617034D01*
X69955356Y-47673194D01*
X69956133Y-47677766D01*
X69965550Y-47740248D01*
X69967163Y-47745148D01*
X69996687Y-47801010D01*
X69998777Y-47805150D01*
X70026184Y-47862060D01*
X70029183Y-47866287D01*
X70073846Y-47910950D01*
X70077063Y-47914289D01*
X70120043Y-47960611D01*
X70134930Y-47972034D01*
X70357908Y-48195011D01*
X70374064Y-48214914D01*
X70625421Y-48600000D01*
X70791836Y-48854953D01*
X70806318Y-48877139D01*
X70818422Y-48900944D01*
X70819778Y-48904521D01*
X70909515Y-49034528D01*
X70909516Y-49034529D01*
X70909517Y-49034530D01*
X71027760Y-49139283D01*
X71167635Y-49212696D01*
X71321015Y-49250500D01*
X71478985Y-49250500D01*
X71632365Y-49212696D01*
X71772240Y-49139283D01*
X71890483Y-49034530D01*
X71980220Y-48904523D01*
X72036237Y-48756818D01*
X72055278Y-48600000D01*
X72036237Y-48443182D01*
X71980220Y-48295477D01*
X71890483Y-48165470D01*
X71772240Y-48060717D01*
X71772239Y-48060716D01*
X71708036Y-48027019D01*
X71693741Y-48016873D01*
X71693613Y-48017071D01*
X71014913Y-47574063D01*
X70995010Y-47557907D01*
X70886819Y-47449716D01*
X70859939Y-47409488D01*
X70850500Y-47362035D01*
X70850500Y-42733364D01*
X70858736Y-42688926D01*
X71424049Y-41216266D01*
X71424563Y-41216463D01*
X71429525Y-41201371D01*
X71430582Y-41199250D01*
X71486397Y-41003083D01*
X71491316Y-40950000D01*
X71790001Y-40950000D01*
X71790001Y-41694795D01*
X71792909Y-41719873D01*
X71838213Y-41822479D01*
X71917519Y-41901785D01*
X72020125Y-41947090D01*
X72045208Y-41950000D01*
X72790000Y-41950000D01*
X72790000Y-40950000D01*
X73090000Y-40950000D01*
X73090000Y-41949999D01*
X73834795Y-41949999D01*
X73859873Y-41947090D01*
X73962479Y-41901786D01*
X74041785Y-41822480D01*
X74087090Y-41719874D01*
X74090000Y-41694792D01*
X74090000Y-41599999D01*
X140944721Y-41599999D01*
X140946562Y-41615158D01*
X140947388Y-41634504D01*
X140947216Y-41639348D01*
X140995668Y-42104487D01*
X141045259Y-42580555D01*
X141049500Y-42609882D01*
X141049500Y-73488478D01*
X141049428Y-73492711D01*
X141047237Y-73556826D01*
X141056963Y-73596733D01*
X141059334Y-73609207D01*
X141064930Y-73649922D01*
X141072079Y-73666380D01*
X141078819Y-73686421D01*
X141083067Y-73703853D01*
X141103206Y-73739672D01*
X141108852Y-73751039D01*
X141125220Y-73788720D01*
X141131483Y-73796418D01*
X141136542Y-73802637D01*
X141148437Y-73820116D01*
X141157232Y-73835757D01*
X141186285Y-73864810D01*
X141194793Y-73874237D01*
X141220721Y-73906107D01*
X141235378Y-73916453D01*
X141251552Y-73930077D01*
X145611373Y-78289898D01*
X145638259Y-78330141D01*
X146137796Y-79536567D01*
X146290067Y-79904313D01*
X146299500Y-79951751D01*
X146299500Y-85258033D01*
X146306724Y-85339283D01*
X146310114Y-85377418D01*
X146314982Y-85394431D01*
X146366091Y-85573050D01*
X146460301Y-85753406D01*
X146460302Y-85753407D01*
X146588891Y-85911109D01*
X146746593Y-86039698D01*
X146926951Y-86133909D01*
X147122582Y-86189886D01*
X147241963Y-86200500D01*
X153358036Y-86200499D01*
X153477418Y-86189886D01*
X153673049Y-86133909D01*
X153853407Y-86039698D01*
X154011109Y-85911109D01*
X154139698Y-85753407D01*
X154233909Y-85573049D01*
X154289886Y-85377418D01*
X154300500Y-85258037D01*
X154300499Y-79141964D01*
X154289886Y-79022582D01*
X154233909Y-78826951D01*
X154139698Y-78646593D01*
X154011109Y-78488891D01*
X153853407Y-78360302D01*
X153853406Y-78360301D01*
X153673050Y-78266091D01*
X153575233Y-78238102D01*
X153477418Y-78210114D01*
X153358037Y-78199500D01*
X153358033Y-78199500D01*
X148051753Y-78199500D01*
X148004315Y-78190067D01*
X147891081Y-78143181D01*
X147475863Y-77971254D01*
X146430140Y-77538258D01*
X146389897Y-77511372D01*
X142186819Y-73308294D01*
X142159939Y-73268066D01*
X142150500Y-73220613D01*
X142150500Y-62458033D01*
X146299500Y-62458033D01*
X146310114Y-62577417D01*
X146366091Y-62773050D01*
X146460301Y-62953406D01*
X146460302Y-62953407D01*
X146588891Y-63111109D01*
X146694784Y-63197453D01*
X146746593Y-63239698D01*
X146857247Y-63297499D01*
X146926951Y-63333909D01*
X147122582Y-63389886D01*
X147241963Y-63400500D01*
X152783978Y-63400499D01*
X152822600Y-63406667D01*
X154121874Y-63832539D01*
X154153571Y-63848238D01*
X154179544Y-63872245D01*
X154238608Y-63945044D01*
X154296842Y-64016821D01*
X154302597Y-64024505D01*
X154309515Y-64034528D01*
X154309517Y-64034530D01*
X154347167Y-64067884D01*
X154349389Y-64069903D01*
X154362500Y-64082115D01*
X154363956Y-64083471D01*
X154371285Y-64089251D01*
X154427760Y-64139283D01*
X154567635Y-64212696D01*
X154721015Y-64250500D01*
X154878985Y-64250500D01*
X155032365Y-64212696D01*
X155172240Y-64139283D01*
X155290483Y-64034530D01*
X155380220Y-63904523D01*
X155436237Y-63756818D01*
X155455278Y-63600000D01*
X155454974Y-63597500D01*
X155449228Y-63550171D01*
X155436237Y-63443182D01*
X155380220Y-63295477D01*
X155309564Y-63193114D01*
X155290482Y-63165468D01*
X155262891Y-63141025D01*
X155254377Y-63132721D01*
X155245182Y-63122849D01*
X155233761Y-63110586D01*
X155229957Y-63107500D01*
X155018655Y-62936066D01*
X154984843Y-62893120D01*
X154312560Y-61482462D01*
X154300499Y-61429116D01*
X154300499Y-56341966D01*
X154300297Y-56339692D01*
X154289886Y-56222582D01*
X154233909Y-56026951D01*
X154139698Y-55846593D01*
X154011109Y-55688891D01*
X153853407Y-55560302D01*
X153853406Y-55560301D01*
X153673050Y-55466091D01*
X153575233Y-55438102D01*
X153477418Y-55410114D01*
X153358037Y-55399500D01*
X153358033Y-55399500D01*
X147241966Y-55399500D01*
X147122582Y-55410114D01*
X146926949Y-55466091D01*
X146746593Y-55560301D01*
X146588891Y-55688891D01*
X146460301Y-55846593D01*
X146366091Y-56026949D01*
X146310114Y-56222582D01*
X146299500Y-56341966D01*
X146299500Y-62458033D01*
X142150500Y-62458033D01*
X142150500Y-43999999D01*
X148695152Y-43999999D01*
X148714525Y-44357310D01*
X148772419Y-44710451D01*
X148868149Y-45055241D01*
X149000601Y-45387670D01*
X149168218Y-45703829D01*
X149369031Y-46000004D01*
X149561394Y-46226471D01*
X149561395Y-46226471D01*
X149753175Y-46034691D01*
X149806356Y-46003268D01*
X149868099Y-46001402D01*
X149923081Y-46029555D01*
X149928879Y-46034691D01*
X149962076Y-46064101D01*
X149998236Y-46120025D01*
X150000248Y-46186591D01*
X149967532Y-46244598D01*
X149774630Y-46437500D01*
X149774630Y-46437501D01*
X149860485Y-46518828D01*
X150145363Y-46735386D01*
X150451984Y-46919873D01*
X150776746Y-47070124D01*
X151115859Y-47184385D01*
X151465335Y-47261310D01*
X151821078Y-47300000D01*
X152178922Y-47300000D01*
X152534664Y-47261310D01*
X152884140Y-47184385D01*
X153223253Y-47070124D01*
X153548015Y-46919873D01*
X153854636Y-46735386D01*
X154139514Y-46518828D01*
X154225368Y-46437502D01*
X154225368Y-46437500D01*
X154032467Y-46244599D01*
X153999751Y-46186593D01*
X154001762Y-46120028D01*
X154037918Y-46064105D01*
X154076919Y-46029554D01*
X154131897Y-46001402D01*
X154193641Y-46003268D01*
X154246823Y-46034691D01*
X154438603Y-46226471D01*
X154630968Y-46000004D01*
X154831781Y-45703829D01*
X154999398Y-45387670D01*
X155131850Y-45055241D01*
X155227580Y-44710451D01*
X155285474Y-44357310D01*
X155304847Y-43999999D01*
X155285474Y-43642689D01*
X155227580Y-43289548D01*
X155131850Y-42944758D01*
X154999398Y-42612329D01*
X154831781Y-42296170D01*
X154630968Y-41999995D01*
X154438604Y-41773527D01*
X154438603Y-41773527D01*
X154246823Y-41965307D01*
X154193642Y-41996730D01*
X154131899Y-41998596D01*
X154076917Y-41970443D01*
X154037922Y-41935898D01*
X154001762Y-41879973D01*
X153999750Y-41813406D01*
X154032466Y-41755399D01*
X154225368Y-41562497D01*
X154139514Y-41481171D01*
X153854636Y-41264613D01*
X153548015Y-41080126D01*
X153223253Y-40929875D01*
X152884140Y-40815614D01*
X152534664Y-40738689D01*
X152178922Y-40700000D01*
X151821078Y-40700000D01*
X151465335Y-40738689D01*
X151115859Y-40815614D01*
X150776746Y-40929875D01*
X150451984Y-41080126D01*
X150145368Y-41264610D01*
X149860482Y-41481175D01*
X149774629Y-41562497D01*
X149774629Y-41562498D01*
X149967532Y-41755400D01*
X150000248Y-41813405D01*
X149998237Y-41879971D01*
X149962079Y-41935896D01*
X149923085Y-41970442D01*
X149868102Y-41998597D01*
X149806358Y-41996731D01*
X149753176Y-41965308D01*
X149561395Y-41773526D01*
X149561394Y-41773527D01*
X149369030Y-41999995D01*
X149168218Y-42296170D01*
X149000601Y-42612329D01*
X148868149Y-42944758D01*
X148772419Y-43289548D01*
X148714525Y-43642689D01*
X148695152Y-43999999D01*
X142150500Y-43999999D01*
X142150500Y-42609884D01*
X142154743Y-42580528D01*
X142155216Y-42575985D01*
X142155217Y-42575983D01*
X142252783Y-41639350D01*
X142252611Y-41634524D01*
X142253437Y-41615158D01*
X142255278Y-41600000D01*
X142236237Y-41443182D01*
X142180220Y-41295477D01*
X142113798Y-41199248D01*
X142090484Y-41165471D01*
X142090483Y-41165470D01*
X141972240Y-41060717D01*
X141958994Y-41053765D01*
X141832364Y-40987303D01*
X141678985Y-40949500D01*
X141521015Y-40949500D01*
X141367635Y-40987303D01*
X141227761Y-41060716D01*
X141109515Y-41165471D01*
X141019780Y-41295476D01*
X140963763Y-41443181D01*
X140944721Y-41599999D01*
X74090000Y-41599999D01*
X74090000Y-40950000D01*
X73090000Y-40950000D01*
X72790000Y-40950000D01*
X71790001Y-40950000D01*
X71491316Y-40950000D01*
X71505215Y-40800000D01*
X71491316Y-40650000D01*
X71790000Y-40650000D01*
X72790000Y-40650000D01*
X72790000Y-39650001D01*
X72045205Y-39650001D01*
X72020126Y-39652909D01*
X71917520Y-39698213D01*
X71838214Y-39777519D01*
X71792909Y-39880125D01*
X71790000Y-39905208D01*
X71790000Y-40650000D01*
X71491316Y-40650000D01*
X71486397Y-40596917D01*
X71430582Y-40400750D01*
X71428555Y-40396680D01*
X71339675Y-40218181D01*
X71216763Y-40055419D01*
X71066041Y-39918018D01*
X70892638Y-39810652D01*
X70702457Y-39736976D01*
X70635629Y-39724484D01*
X70501976Y-39699500D01*
X70298024Y-39699500D01*
X70197783Y-39718238D01*
X70097542Y-39736976D01*
X69907361Y-39810652D01*
X69733958Y-39918018D01*
X69583236Y-40055419D01*
X69460324Y-40218181D01*
X69369418Y-40400748D01*
X69313602Y-40596916D01*
X69294785Y-40800000D01*
X44813204Y-40800000D01*
X44534664Y-40738689D01*
X44178922Y-40700000D01*
X43821078Y-40700000D01*
X43465335Y-40738689D01*
X43115859Y-40815614D01*
X42776746Y-40929875D01*
X42451984Y-41080126D01*
X42145368Y-41264610D01*
X41860482Y-41481175D01*
X41774629Y-41562497D01*
X41774629Y-41562498D01*
X41967532Y-41755400D01*
X42000248Y-41813405D01*
X41998237Y-41879971D01*
X41962079Y-41935896D01*
X41923085Y-41970442D01*
X41868102Y-41998597D01*
X41806358Y-41996731D01*
X41753176Y-41965308D01*
X41561395Y-41773526D01*
X41561394Y-41773527D01*
X41369030Y-41999995D01*
X41168218Y-42296170D01*
X41000601Y-42612329D01*
X40868149Y-42944758D01*
X40772419Y-43289548D01*
X40714525Y-43642689D01*
X40695152Y-43999999D01*
X38836093Y-43999999D01*
X38836152Y-43997297D01*
X38837919Y-43956816D01*
X38853681Y-43595795D01*
X38854621Y-43585064D01*
X38906723Y-43189303D01*
X38908597Y-43178673D01*
X38994998Y-42788946D01*
X38997789Y-42778531D01*
X39117828Y-42397815D01*
X39121512Y-42387694D01*
X39274276Y-42018889D01*
X39278834Y-42009115D01*
X39463151Y-41655046D01*
X39468546Y-41645701D01*
X39683029Y-41309030D01*
X39689219Y-41300190D01*
X39932221Y-40983504D01*
X39939159Y-40975235D01*
X40208838Y-40680933D01*
X40216453Y-40673317D01*
X40510781Y-40403616D01*
X40519037Y-40396689D01*
X40835723Y-40153687D01*
X40844563Y-40147497D01*
X41181234Y-39933014D01*
X41190579Y-39927619D01*
X41544649Y-39743302D01*
X41554423Y-39738744D01*
X41768670Y-39650000D01*
X73090000Y-39650000D01*
X73090000Y-40650000D01*
X74089999Y-40650000D01*
X74089999Y-39905205D01*
X74087090Y-39880126D01*
X74041786Y-39777520D01*
X73962480Y-39698214D01*
X73859874Y-39652909D01*
X73834792Y-39650000D01*
X73090000Y-39650000D01*
X41768670Y-39650000D01*
X41923225Y-39585981D01*
X41933357Y-39582294D01*
X42314055Y-39462261D01*
X42324484Y-39459466D01*
X42714206Y-39373066D01*
X42724836Y-39371193D01*
X43120598Y-39319090D01*
X43131326Y-39318152D01*
X43532931Y-39300617D01*
X43538323Y-39300500D01*
X43583128Y-39300500D01*
X152952405Y-39300500D01*
X152997294Y-39300500D01*
X153002702Y-39300617D01*
G37*
G04 #@! TD.AperFunction*
G04 #@! TA.AperFunction,Conductor*
G36*
X112640226Y-89650950D02*
G01*
X112996196Y-89797436D01*
X113000016Y-89799983D01*
X113002563Y-89803804D01*
X113149048Y-90159771D01*
X113149240Y-90168176D01*
X113143746Y-90174540D01*
X112417219Y-90563117D01*
X112409986Y-90564374D01*
X112403428Y-90561073D01*
X112238926Y-90396571D01*
X112235625Y-90390013D01*
X112236881Y-90382781D01*
X112625460Y-89656251D01*
X112631823Y-89650759D01*
X112640226Y-89650950D01*
G37*
G04 #@! TD.AperFunction*
G04 #@! TA.AperFunction,Conductor*
G36*
X111541571Y-106038926D02*
G01*
X111706073Y-106203428D01*
X111709374Y-106209986D01*
X111708117Y-106217219D01*
X111319540Y-106943746D01*
X111313176Y-106949240D01*
X111304771Y-106949048D01*
X110948804Y-106802563D01*
X110944983Y-106800016D01*
X110942436Y-106796195D01*
X110795950Y-106440226D01*
X110795759Y-106431823D01*
X110801251Y-106425460D01*
X111527781Y-106036881D01*
X111535013Y-106035625D01*
X111541571Y-106038926D01*
G37*
G04 #@! TD.AperFunction*
G04 #@! TA.AperFunction,Conductor*
G36*
X50774452Y-60856534D02*
G01*
X51191319Y-61673745D01*
X51192342Y-61681491D01*
X51188261Y-61688153D01*
X51180897Y-61690762D01*
X50902722Y-61690762D01*
X50897558Y-61689561D01*
X50881150Y-61681491D01*
X50836925Y-61659739D01*
X50256761Y-61374388D01*
X50250979Y-61368021D01*
X50251110Y-61359423D01*
X50398142Y-61003497D01*
X50400687Y-60999687D01*
X50404499Y-60997148D01*
X50759578Y-60851030D01*
X50768090Y-60850878D01*
X50774452Y-60856534D01*
G37*
G04 #@! TD.AperFunction*
G04 #@! TA.AperFunction,Conductor*
G36*
X52546973Y-69105003D02*
G01*
X52550615Y-69112853D01*
X52599314Y-69987680D01*
X52597979Y-69993792D01*
X52593686Y-69998342D01*
X52587661Y-70000030D01*
X52202355Y-70000994D01*
X52197824Y-70000093D01*
X52072167Y-69947704D01*
X51842600Y-69851993D01*
X51837532Y-69847925D01*
X51835417Y-69841779D01*
X51836906Y-69835457D01*
X52246644Y-69107762D01*
X52250934Y-69103402D01*
X52256839Y-69101803D01*
X52538933Y-69101803D01*
X52546973Y-69105003D01*
G37*
G04 #@! TD.AperFunction*
G04 #@! TA.AperFunction,Conductor*
G36*
X75174151Y-57857379D02*
G01*
X75542777Y-58695060D01*
X75543412Y-58702636D01*
X75539258Y-58709003D01*
X75532068Y-58711473D01*
X75253087Y-58711473D01*
X75247316Y-58709951D01*
X74655914Y-58374647D01*
X74650623Y-58368278D01*
X74650870Y-58360004D01*
X74798142Y-58003497D01*
X74800687Y-57999687D01*
X74804499Y-57997148D01*
X75158993Y-57851271D01*
X75167814Y-57851239D01*
X75174151Y-57857379D01*
G37*
G04 #@! TD.AperFunction*
G04 #@! TA.AperFunction,Conductor*
G36*
X75548163Y-68042404D02*
G01*
X75552348Y-68048628D01*
X75766853Y-68837010D01*
X75766072Y-68845224D01*
X75760065Y-68850881D01*
X75404502Y-68999123D01*
X75400000Y-69000024D01*
X75395498Y-68999123D01*
X75039934Y-68850881D01*
X75033927Y-68845224D01*
X75033146Y-68837010D01*
X75247652Y-68048628D01*
X75251837Y-68042404D01*
X75258942Y-68040000D01*
X75541058Y-68040000D01*
X75548163Y-68042404D01*
G37*
G04 #@! TD.AperFunction*
G04 #@! TA.AperFunction,Conductor*
G36*
X76390328Y-57999975D02*
G01*
X76397774Y-58002676D01*
X76401794Y-58009504D01*
X76547381Y-58780444D01*
X76546664Y-58787162D01*
X76542353Y-58792364D01*
X76535884Y-58794315D01*
X76254707Y-58794315D01*
X76246605Y-58791056D01*
X75725757Y-58291098D01*
X75722602Y-58285846D01*
X75722534Y-58279719D01*
X75725569Y-58274400D01*
X75996561Y-58002450D01*
X76000373Y-57999901D01*
X76004874Y-57999012D01*
X76390328Y-57999975D01*
G37*
G04 #@! TD.AperFunction*
G04 #@! TA.AperFunction,Conductor*
G36*
X76548163Y-67842404D02*
G01*
X76552348Y-67848628D01*
X76766853Y-68637010D01*
X76766072Y-68645224D01*
X76760065Y-68650881D01*
X76404502Y-68799123D01*
X76400000Y-68800024D01*
X76395498Y-68799123D01*
X76039934Y-68650881D01*
X76033927Y-68645224D01*
X76033146Y-68637010D01*
X76247652Y-67848628D01*
X76251837Y-67842404D01*
X76258942Y-67840000D01*
X76541058Y-67840000D01*
X76548163Y-67842404D01*
G37*
G04 #@! TD.AperFunction*
G04 #@! TA.AperFunction,Conductor*
G36*
X74002171Y-57399905D02*
G01*
X74347566Y-57543906D01*
X74358852Y-57548612D01*
X74365149Y-57554908D01*
X74365191Y-57563812D01*
X74171597Y-58040622D01*
X74054003Y-58330252D01*
X74052964Y-58332810D01*
X74048657Y-58338114D01*
X74042123Y-58340109D01*
X73759981Y-58340109D01*
X73752388Y-58337310D01*
X73748427Y-58330252D01*
X73624716Y-57554908D01*
X73602155Y-57413507D01*
X73603013Y-57406923D01*
X73607317Y-57401866D01*
X73613677Y-57399965D01*
X73997648Y-57399005D01*
X74002171Y-57399905D01*
G37*
G04 #@! TD.AperFunction*
G04 #@! TA.AperFunction,Conductor*
G36*
X74946973Y-66305003D02*
G01*
X74950615Y-66312853D01*
X74999314Y-67187680D01*
X74997979Y-67193792D01*
X74993686Y-67198342D01*
X74987661Y-67200030D01*
X74602355Y-67200994D01*
X74597824Y-67200093D01*
X74472167Y-67147704D01*
X74242600Y-67051993D01*
X74237532Y-67047925D01*
X74235417Y-67041779D01*
X74236906Y-67035457D01*
X74646644Y-66307762D01*
X74650934Y-66303402D01*
X74656839Y-66301803D01*
X74938933Y-66301803D01*
X74946973Y-66305003D01*
G37*
G04 #@! TD.AperFunction*
G04 #@! TA.AperFunction,Conductor*
G36*
X43599626Y-61799901D02*
G01*
X43603441Y-61802453D01*
X43875536Y-62075511D01*
X43878927Y-62083076D01*
X43876455Y-62090989D01*
X43453013Y-62631049D01*
X43448926Y-62634350D01*
X43443806Y-62635530D01*
X43161929Y-62635530D01*
X43155876Y-62633843D01*
X43151569Y-62629268D01*
X43150250Y-62623124D01*
X43199337Y-61810966D01*
X43202986Y-61803163D01*
X43210985Y-61799972D01*
X43595124Y-61799012D01*
X43599626Y-61799901D01*
G37*
G04 #@! TD.AperFunction*
G04 #@! TA.AperFunction,Conductor*
G36*
X43447663Y-66842404D02*
G01*
X43451848Y-66848628D01*
X43666353Y-67637010D01*
X43665572Y-67645224D01*
X43659565Y-67650881D01*
X43304002Y-67799123D01*
X43299500Y-67800024D01*
X43294998Y-67799123D01*
X42939434Y-67650881D01*
X42933427Y-67645224D01*
X42932646Y-67637010D01*
X43147152Y-66848628D01*
X43151337Y-66842404D01*
X43158442Y-66840000D01*
X43440558Y-66840000D01*
X43447663Y-66842404D01*
G37*
G04 #@! TD.AperFunction*
G04 #@! TA.AperFunction,Conductor*
G36*
X59579079Y-68109435D02*
G01*
X59778564Y-68308920D01*
X59781888Y-68315643D01*
X59780446Y-68323004D01*
X59374655Y-69032153D01*
X59368295Y-69037409D01*
X59360048Y-69037162D01*
X59003804Y-68890563D01*
X58999983Y-68888016D01*
X58997436Y-68884195D01*
X58850836Y-68527949D01*
X58850590Y-68519704D01*
X58855845Y-68513344D01*
X59564995Y-68107552D01*
X59572356Y-68106111D01*
X59579079Y-68109435D01*
G37*
G04 #@! TD.AperFunction*
G04 #@! TA.AperFunction,Conductor*
G36*
X61199626Y-44649401D02*
G01*
X61203441Y-44651953D01*
X61474428Y-44923898D01*
X61477465Y-44929219D01*
X61477397Y-44935346D01*
X61474242Y-44940598D01*
X60953395Y-45440556D01*
X60945293Y-45443815D01*
X60664116Y-45443815D01*
X60657647Y-45441864D01*
X60653336Y-45436662D01*
X60652619Y-45429944D01*
X60798205Y-44659004D01*
X60802225Y-44652176D01*
X60809670Y-44649475D01*
X61195124Y-44648512D01*
X61199626Y-44649401D01*
G37*
G04 #@! TD.AperFunction*
G04 #@! TA.AperFunction,Conductor*
G36*
X62276549Y-58002856D02*
G01*
X62280469Y-58010030D01*
X62278736Y-58018019D01*
X62272196Y-58022923D01*
X61899483Y-58132733D01*
X61891423Y-58132201D01*
X61885629Y-58126575D01*
X61884861Y-58118535D01*
X61889485Y-58111912D01*
X62046986Y-58002102D01*
X62053677Y-58000000D01*
X62268889Y-58000000D01*
X62276549Y-58002856D01*
G37*
G04 #@! TD.AperFunction*
G04 #@! TA.AperFunction,Conductor*
G36*
X62148163Y-67242404D02*
G01*
X62152348Y-67248628D01*
X62366853Y-68037010D01*
X62366072Y-68045224D01*
X62360065Y-68050881D01*
X62004502Y-68199123D01*
X62000000Y-68200024D01*
X61995498Y-68199123D01*
X61639934Y-68050881D01*
X61633927Y-68045224D01*
X61633146Y-68037010D01*
X61847652Y-67248628D01*
X61851837Y-67242404D01*
X61858942Y-67240000D01*
X62141058Y-67240000D01*
X62148163Y-67242404D01*
G37*
G04 #@! TD.AperFunction*
G04 #@! TA.AperFunction,Conductor*
G36*
X55604497Y-66600875D02*
G01*
X55874946Y-66713630D01*
X55960065Y-66749118D01*
X55966072Y-66754775D01*
X55966853Y-66762989D01*
X55752348Y-67551372D01*
X55748163Y-67557596D01*
X55741058Y-67560000D01*
X55458942Y-67560000D01*
X55451837Y-67557596D01*
X55447652Y-67551372D01*
X55233146Y-66762989D01*
X55233927Y-66754775D01*
X55239934Y-66749118D01*
X55595502Y-66600875D01*
X55600000Y-66599975D01*
X55604497Y-66600875D01*
G37*
G04 #@! TD.AperFunction*
G04 #@! TA.AperFunction,Conductor*
G36*
X55748163Y-70242404D02*
G01*
X55752348Y-70248628D01*
X55966853Y-71037010D01*
X55966072Y-71045224D01*
X55960065Y-71050881D01*
X55604502Y-71199123D01*
X55600000Y-71200024D01*
X55595498Y-71199123D01*
X55239934Y-71050881D01*
X55233927Y-71045224D01*
X55233146Y-71037010D01*
X55447652Y-70248628D01*
X55451837Y-70242404D01*
X55458942Y-70240000D01*
X55741058Y-70240000D01*
X55748163Y-70242404D01*
G37*
G04 #@! TD.AperFunction*
G04 #@! TA.AperFunction,Conductor*
G36*
X50752684Y-76290049D02*
G01*
X51344085Y-76625352D01*
X51349376Y-76631721D01*
X51349128Y-76639997D01*
X51201858Y-76996500D01*
X51199312Y-77000312D01*
X51195496Y-77002853D01*
X50841009Y-77148727D01*
X50832185Y-77148760D01*
X50825848Y-77142620D01*
X50457223Y-76304940D01*
X50456588Y-76297364D01*
X50460742Y-76290997D01*
X50467932Y-76288527D01*
X50746913Y-76288527D01*
X50752684Y-76290049D01*
G37*
G04 #@! TD.AperFunction*
G04 #@! TA.AperFunction,Conductor*
G36*
X48574655Y-60055846D02*
G01*
X48980446Y-60764995D01*
X48981888Y-60772356D01*
X48978564Y-60779079D01*
X48779079Y-60978564D01*
X48772356Y-60981888D01*
X48764995Y-60980446D01*
X48055846Y-60574655D01*
X48050590Y-60568295D01*
X48050836Y-60560050D01*
X48197437Y-60203801D01*
X48199983Y-60199983D01*
X48203801Y-60197437D01*
X48560050Y-60050836D01*
X48568295Y-60050590D01*
X48574655Y-60055846D01*
G37*
G04 #@! TD.AperFunction*
G04 #@! TA.AperFunction,Conductor*
G36*
X50847663Y-81842404D02*
G01*
X50851848Y-81848628D01*
X51066353Y-82637010D01*
X51065572Y-82645224D01*
X51059565Y-82650881D01*
X50704002Y-82799123D01*
X50699500Y-82800024D01*
X50694998Y-82799123D01*
X50339434Y-82650881D01*
X50333427Y-82645224D01*
X50332646Y-82637010D01*
X50547152Y-81848628D01*
X50551337Y-81842404D01*
X50558442Y-81840000D01*
X50840558Y-81840000D01*
X50847663Y-81842404D01*
G37*
G04 #@! TD.AperFunction*
G04 #@! TA.AperFunction,Conductor*
G36*
X50842282Y-76851796D02*
G01*
X51197823Y-76998104D01*
X51201659Y-77000665D01*
X51473286Y-77273253D01*
X51476437Y-77279055D01*
X51475946Y-77285639D01*
X51471969Y-77290909D01*
X50852604Y-77750384D01*
X50845633Y-77752687D01*
X50565379Y-77752687D01*
X50558544Y-77750483D01*
X50554284Y-77744702D01*
X50554204Y-77737521D01*
X50692734Y-77290909D01*
X50826656Y-76859149D01*
X50830147Y-76853794D01*
X50835931Y-76851072D01*
X50842282Y-76851796D01*
G37*
G04 #@! TD.AperFunction*
G04 #@! TA.AperFunction,Conductor*
G36*
X51235004Y-90619553D02*
G01*
X51944153Y-91025344D01*
X51949409Y-91031704D01*
X51949162Y-91039951D01*
X51802563Y-91396195D01*
X51800016Y-91400016D01*
X51796195Y-91402563D01*
X51439951Y-91549162D01*
X51431704Y-91549409D01*
X51425344Y-91544153D01*
X51019553Y-90835004D01*
X51018111Y-90827643D01*
X51021434Y-90820921D01*
X51220921Y-90621434D01*
X51227643Y-90618111D01*
X51235004Y-90619553D01*
G37*
G04 #@! TD.AperFunction*
G04 #@! TA.AperFunction,Conductor*
G36*
X49641006Y-68851271D02*
G01*
X49995498Y-68997147D01*
X49999312Y-68999687D01*
X50001858Y-69003499D01*
X50149128Y-69360002D01*
X50149376Y-69368278D01*
X50144085Y-69374647D01*
X49552684Y-69709951D01*
X49546913Y-69711473D01*
X49267932Y-69711473D01*
X49260742Y-69709003D01*
X49256588Y-69702636D01*
X49257223Y-69695060D01*
X49407465Y-69353641D01*
X49625848Y-68857378D01*
X49632185Y-68851239D01*
X49641006Y-68851271D01*
G37*
G04 #@! TD.AperFunction*
G04 #@! TA.AperFunction,Conductor*
G36*
X50986321Y-67999965D02*
G01*
X50992682Y-68001866D01*
X50996986Y-68006923D01*
X50997844Y-68013508D01*
X50893482Y-68667588D01*
X50851770Y-68929020D01*
X50851573Y-68930252D01*
X50847612Y-68937310D01*
X50840019Y-68940109D01*
X50557876Y-68940109D01*
X50551342Y-68938115D01*
X50547037Y-68932813D01*
X50546662Y-68931888D01*
X50545906Y-68929028D01*
X50536330Y-68856291D01*
X50480861Y-68722375D01*
X50440906Y-68670305D01*
X50439353Y-68667594D01*
X50234808Y-68163811D01*
X50234850Y-68154908D01*
X50241146Y-68148612D01*
X50597829Y-67999904D01*
X50602350Y-67999005D01*
X50986321Y-67999965D01*
G37*
G04 #@! TD.AperFunction*
G04 #@! TA.AperFunction,Conductor*
G36*
X52748163Y-91242404D02*
G01*
X52752348Y-91248628D01*
X52966853Y-92037010D01*
X52966072Y-92045224D01*
X52960065Y-92050881D01*
X52604502Y-92199123D01*
X52600000Y-92200024D01*
X52595498Y-92199123D01*
X52239934Y-92050881D01*
X52233927Y-92045224D01*
X52233146Y-92037010D01*
X52447652Y-91248628D01*
X52451837Y-91242404D01*
X52458942Y-91240000D01*
X52741058Y-91240000D01*
X52748163Y-91242404D01*
G37*
G04 #@! TD.AperFunction*
G04 #@! TA.AperFunction,Conductor*
G36*
X146281917Y-77753422D02*
G01*
X147300446Y-78175158D01*
X147960744Y-78448563D01*
X147966199Y-78453187D01*
X150274079Y-82157962D01*
X150275772Y-82165481D01*
X150272421Y-82172421D01*
X150265481Y-82175772D01*
X150257962Y-82174079D01*
X146553187Y-79866199D01*
X146548563Y-79860744D01*
X145853422Y-78181917D01*
X145852757Y-78175158D01*
X145855957Y-78169170D01*
X146269170Y-77755957D01*
X146275158Y-77752757D01*
X146281917Y-77753422D01*
G37*
G04 #@! TD.AperFunction*
G04 #@! TA.AperFunction,Conductor*
G36*
X141987052Y-41599967D02*
G01*
X141993235Y-41601753D01*
X141997538Y-41606540D01*
X141998658Y-41612879D01*
X141901092Y-42549512D01*
X141897288Y-42556991D01*
X141889455Y-42560000D01*
X141310545Y-42560000D01*
X141302712Y-42556991D01*
X141298908Y-42549512D01*
X141252994Y-42108743D01*
X141201341Y-41612876D01*
X141202461Y-41606540D01*
X141206764Y-41601753D01*
X141212946Y-41599967D01*
X141600000Y-41599000D01*
X141987052Y-41599967D01*
G37*
G04 #@! TD.AperFunction*
G04 #@! TA.AperFunction,Conductor*
G36*
X154741497Y-108915689D02*
G01*
X155472786Y-109508998D01*
X155476477Y-109514272D01*
X155476819Y-109520700D01*
X155473709Y-109526336D01*
X155200749Y-109800665D01*
X155200707Y-109800707D01*
X154926336Y-110073709D01*
X154920700Y-110076819D01*
X154914272Y-110076477D01*
X154908998Y-110072786D01*
X154315689Y-109341497D01*
X154313091Y-109333519D01*
X154316501Y-109325854D01*
X154725854Y-108916501D01*
X154733519Y-108913091D01*
X154741497Y-108915689D01*
G37*
G04 #@! TD.AperFunction*
G04 #@! TA.AperFunction,Conductor*
G36*
X150342405Y-105025330D02*
G01*
X154046808Y-107262618D01*
X154051487Y-107267966D01*
X154786444Y-108958052D01*
X154787210Y-108964900D01*
X154783988Y-108970991D01*
X154370742Y-109384237D01*
X154364891Y-109387411D01*
X154358255Y-109386879D01*
X152712095Y-108751375D01*
X152706465Y-108746783D01*
X150326513Y-105041669D01*
X150324716Y-105034174D01*
X150327970Y-105027188D01*
X150334864Y-105023742D01*
X150342405Y-105025330D01*
G37*
G04 #@! TD.AperFunction*
G04 #@! TA.AperFunction,Conductor*
G36*
X154341497Y-62715689D02*
G01*
X155072786Y-63308998D01*
X155076477Y-63314272D01*
X155076819Y-63320700D01*
X155073709Y-63326336D01*
X154800749Y-63600665D01*
X154800707Y-63600707D01*
X154526336Y-63873709D01*
X154520700Y-63876819D01*
X154514272Y-63876477D01*
X154508998Y-63872786D01*
X153915689Y-63141497D01*
X153913091Y-63133519D01*
X153916501Y-63125854D01*
X154325854Y-62716501D01*
X154333519Y-62713091D01*
X154341497Y-62715689D01*
G37*
G04 #@! TD.AperFunction*
G04 #@! TA.AperFunction,Conductor*
G36*
X150343148Y-59424152D02*
G01*
X154046793Y-61523598D01*
X154051585Y-61528742D01*
X154866174Y-63238005D01*
X154867143Y-63245022D01*
X154863885Y-63251312D01*
X154450551Y-63664646D01*
X154444995Y-63667753D01*
X154438634Y-63667491D01*
X152863623Y-63151238D01*
X152857605Y-63146718D01*
X150327717Y-59440928D01*
X150325711Y-59433485D01*
X150328769Y-59426410D01*
X150335566Y-59422772D01*
X150343148Y-59424152D01*
G37*
G04 #@! TD.AperFunction*
G04 #@! TA.AperFunction,Conductor*
G36*
X109604997Y-52600875D02*
G01*
X109875446Y-52713630D01*
X109960565Y-52749118D01*
X109966572Y-52754775D01*
X109967353Y-52762989D01*
X109752848Y-53551372D01*
X109748663Y-53557596D01*
X109741558Y-53560000D01*
X109459442Y-53560000D01*
X109452337Y-53557596D01*
X109448152Y-53551372D01*
X109233646Y-52762989D01*
X109234427Y-52754775D01*
X109240434Y-52749118D01*
X109596002Y-52600875D01*
X109600500Y-52599975D01*
X109604997Y-52600875D01*
G37*
G04 #@! TD.AperFunction*
G04 #@! TA.AperFunction,Conductor*
G36*
X107979079Y-67621435D02*
G01*
X108178564Y-67820920D01*
X108181888Y-67827643D01*
X108180446Y-67835004D01*
X107774655Y-68544153D01*
X107768295Y-68549409D01*
X107760048Y-68549162D01*
X107403804Y-68402563D01*
X107399983Y-68400016D01*
X107397436Y-68396195D01*
X107250836Y-68039949D01*
X107250590Y-68031704D01*
X107255845Y-68025344D01*
X107964995Y-67619552D01*
X107972356Y-67618111D01*
X107979079Y-67621435D01*
G37*
G04 #@! TD.AperFunction*
G04 #@! TA.AperFunction,Conductor*
G36*
X124187052Y-104999967D02*
G01*
X124193235Y-105001753D01*
X124197538Y-105006540D01*
X124198658Y-105012879D01*
X124101092Y-105949512D01*
X124097288Y-105956991D01*
X124089455Y-105960000D01*
X123510545Y-105960000D01*
X123502712Y-105956991D01*
X123498908Y-105949512D01*
X123452994Y-105508743D01*
X123401341Y-105012876D01*
X123402461Y-105006540D01*
X123406764Y-105001753D01*
X123412946Y-104999967D01*
X123800000Y-104999000D01*
X124187052Y-104999967D01*
G37*
G04 #@! TD.AperFunction*
G04 #@! TA.AperFunction,Conductor*
G36*
X124097288Y-123643009D02*
G01*
X124101092Y-123650488D01*
X124198658Y-124587120D01*
X124197538Y-124593459D01*
X124193235Y-124598246D01*
X124187050Y-124600032D01*
X123800029Y-124600999D01*
X123799971Y-124600999D01*
X123412949Y-124600032D01*
X123406764Y-124598246D01*
X123402461Y-124593459D01*
X123401341Y-124587122D01*
X123498908Y-123650488D01*
X123502712Y-123643009D01*
X123510545Y-123640000D01*
X124089455Y-123640000D01*
X124097288Y-123643009D01*
G37*
G04 #@! TD.AperFunction*
G04 #@! TA.AperFunction,Conductor*
G36*
X130099226Y-122901422D02*
G01*
X130103458Y-122905344D01*
X130644864Y-123742063D01*
X130646676Y-123749648D01*
X130643319Y-123756687D01*
X129808278Y-124592712D01*
X129803030Y-124595745D01*
X129796970Y-124595745D01*
X129791722Y-124592712D01*
X128956680Y-123756687D01*
X128953323Y-123749648D01*
X128955134Y-123742064D01*
X129496542Y-122905343D01*
X129500774Y-122901422D01*
X129506365Y-122900000D01*
X130093635Y-122900000D01*
X130099226Y-122901422D01*
G37*
G04 #@! TD.AperFunction*
G04 #@! TA.AperFunction,Conductor*
G36*
X132987052Y-105199967D02*
G01*
X132993235Y-105201753D01*
X132997538Y-105206540D01*
X132998658Y-105212879D01*
X132901092Y-106149512D01*
X132897288Y-106156991D01*
X132889455Y-106160000D01*
X132310545Y-106160000D01*
X132302712Y-106156991D01*
X132298908Y-106149512D01*
X132252994Y-105708743D01*
X132201341Y-105212876D01*
X132202461Y-105206540D01*
X132206764Y-105201753D01*
X132212946Y-105199967D01*
X132600000Y-105199000D01*
X132987052Y-105199967D01*
G37*
G04 #@! TD.AperFunction*
G04 #@! TA.AperFunction,Conductor*
G36*
X91039949Y-84650836D02*
G01*
X91396196Y-84797436D01*
X91400016Y-84799983D01*
X91402563Y-84803804D01*
X91549162Y-85160048D01*
X91549409Y-85168295D01*
X91544153Y-85174655D01*
X90835004Y-85580446D01*
X90827643Y-85581888D01*
X90820920Y-85578564D01*
X90621435Y-85379079D01*
X90618111Y-85372356D01*
X90619553Y-85364995D01*
X90942866Y-84799983D01*
X91025344Y-84655845D01*
X91031704Y-84650590D01*
X91039949Y-84650836D01*
G37*
G04 #@! TD.AperFunction*
G04 #@! TA.AperFunction,Conductor*
G36*
X89353252Y-97576207D02*
G01*
X89927935Y-98054033D01*
X89931548Y-98059309D01*
X89931847Y-98065697D01*
X89928743Y-98071288D01*
X89656597Y-98344396D01*
X89652761Y-98346957D01*
X89297850Y-98493005D01*
X89291300Y-98493695D01*
X89285415Y-98490739D01*
X89282060Y-98485071D01*
X89174413Y-98062219D01*
X89053713Y-97588088D01*
X89054090Y-97581110D01*
X89058380Y-97575591D01*
X89065051Y-97573503D01*
X89345772Y-97573503D01*
X89353252Y-97576207D01*
G37*
G04 #@! TD.AperFunction*
G04 #@! TA.AperFunction,Conductor*
G36*
X88776414Y-121884087D02*
G01*
X88780170Y-121891682D01*
X88859944Y-122787794D01*
X88858755Y-122794063D01*
X88854454Y-122798776D01*
X88848319Y-122800531D01*
X88463431Y-122801494D01*
X88458900Y-122800593D01*
X88103145Y-122652272D01*
X88098178Y-122648345D01*
X88095984Y-122642405D01*
X88097207Y-122636192D01*
X88475974Y-121887438D01*
X88480286Y-121882752D01*
X88486414Y-121881019D01*
X88768516Y-121881019D01*
X88776414Y-121884087D01*
G37*
G04 #@! TD.AperFunction*
G04 #@! TA.AperFunction,Conductor*
G36*
X88433119Y-92779057D02*
G01*
X88703568Y-92891812D01*
X88788687Y-92927300D01*
X88794694Y-92932957D01*
X88795475Y-92941171D01*
X88580970Y-93729554D01*
X88576785Y-93735778D01*
X88569680Y-93738182D01*
X88287564Y-93738182D01*
X88280459Y-93735778D01*
X88276274Y-93729554D01*
X88061768Y-92941171D01*
X88062549Y-92932957D01*
X88068556Y-92927300D01*
X88424124Y-92779057D01*
X88428622Y-92778157D01*
X88433119Y-92779057D01*
G37*
G04 #@! TD.AperFunction*
G04 #@! TA.AperFunction,Conductor*
G36*
X87788041Y-92799970D02*
G01*
X87793961Y-92801595D01*
X87798243Y-92805994D01*
X87799709Y-92811954D01*
X87778900Y-93667656D01*
X87775375Y-93675745D01*
X87767203Y-93679072D01*
X87485149Y-93679072D01*
X87479449Y-93677590D01*
X87475193Y-93673518D01*
X87037649Y-92964738D01*
X87035909Y-92958323D01*
X87037946Y-92951993D01*
X87043102Y-92947796D01*
X87397829Y-92799904D01*
X87402350Y-92799005D01*
X87788041Y-92799970D01*
G37*
G04 #@! TD.AperFunction*
G04 #@! TA.AperFunction,Conductor*
G36*
X87776634Y-121248711D02*
G01*
X87780763Y-121255180D01*
X87967245Y-122037745D01*
X87966290Y-122045765D01*
X87960366Y-122051256D01*
X87604502Y-122199623D01*
X87600000Y-122200524D01*
X87595498Y-122199623D01*
X87240270Y-122051522D01*
X87234175Y-122045682D01*
X87233596Y-122037263D01*
X87476070Y-121254430D01*
X87480304Y-121248475D01*
X87487246Y-121246193D01*
X87769383Y-121246193D01*
X87776634Y-121248711D01*
G37*
G04 #@! TD.AperFunction*
G04 #@! TA.AperFunction,Conductor*
G36*
X91604497Y-73200875D02*
G01*
X91874946Y-73313630D01*
X91960065Y-73349118D01*
X91966072Y-73354775D01*
X91966853Y-73362989D01*
X91752348Y-74151372D01*
X91748163Y-74157596D01*
X91741058Y-74160000D01*
X91458942Y-74160000D01*
X91451837Y-74157596D01*
X91447652Y-74151372D01*
X91233146Y-73362989D01*
X91233927Y-73354775D01*
X91239934Y-73349118D01*
X91595502Y-73200875D01*
X91600000Y-73199975D01*
X91604497Y-73200875D01*
G37*
G04 #@! TD.AperFunction*
G04 #@! TA.AperFunction,Conductor*
G36*
X91548163Y-83842404D02*
G01*
X91552348Y-83848628D01*
X91766853Y-84637010D01*
X91766072Y-84645224D01*
X91760065Y-84650881D01*
X91404501Y-84799123D01*
X91399999Y-84800024D01*
X91395498Y-84799123D01*
X91288245Y-84754407D01*
X91039934Y-84650881D01*
X91033927Y-84645224D01*
X91033146Y-84637010D01*
X91247652Y-83848628D01*
X91251837Y-83842404D01*
X91258942Y-83840000D01*
X91541058Y-83840000D01*
X91548163Y-83842404D01*
G37*
G04 #@! TD.AperFunction*
G04 #@! TA.AperFunction,Conductor*
G36*
X80839949Y-73050836D02*
G01*
X81196196Y-73197436D01*
X81200016Y-73199983D01*
X81202563Y-73203804D01*
X81349162Y-73560048D01*
X81349409Y-73568295D01*
X81344153Y-73574655D01*
X80635004Y-73980446D01*
X80627643Y-73981888D01*
X80620920Y-73978564D01*
X80421435Y-73779079D01*
X80418111Y-73772356D01*
X80419553Y-73764995D01*
X80742866Y-73199983D01*
X80825344Y-73055845D01*
X80831704Y-73050590D01*
X80839949Y-73050836D01*
G37*
G04 #@! TD.AperFunction*
G04 #@! TA.AperFunction,Conductor*
G36*
X79348163Y-108642404D02*
G01*
X79352348Y-108648628D01*
X79566853Y-109437010D01*
X79566072Y-109445224D01*
X79560065Y-109450881D01*
X79204502Y-109599123D01*
X79200000Y-109600024D01*
X79195498Y-109599123D01*
X78839934Y-109450881D01*
X78833927Y-109445224D01*
X78833146Y-109437010D01*
X79047652Y-108648628D01*
X79051837Y-108642404D01*
X79058942Y-108640000D01*
X79341058Y-108640000D01*
X79348163Y-108642404D01*
G37*
G04 #@! TD.AperFunction*
G04 #@! TA.AperFunction,Conductor*
G36*
X69348163Y-95242404D02*
G01*
X69352348Y-95248628D01*
X69566853Y-96037010D01*
X69566072Y-96045224D01*
X69560065Y-96050881D01*
X69204502Y-96199123D01*
X69200000Y-96200024D01*
X69195498Y-96199123D01*
X68839934Y-96050881D01*
X68833927Y-96045224D01*
X68833146Y-96037010D01*
X69047652Y-95248628D01*
X69051837Y-95242404D01*
X69058942Y-95240000D01*
X69341058Y-95240000D01*
X69348163Y-95242404D01*
G37*
G04 #@! TD.AperFunction*
G04 #@! TA.AperFunction,Conductor*
G36*
X69204497Y-90759964D02*
G01*
X69474946Y-90872719D01*
X69560065Y-90908207D01*
X69566072Y-90913864D01*
X69566853Y-90922078D01*
X69352348Y-91710461D01*
X69348163Y-91716685D01*
X69341058Y-91719089D01*
X69058942Y-91719089D01*
X69051837Y-91716685D01*
X69047652Y-91710461D01*
X68833146Y-90922078D01*
X68833927Y-90913864D01*
X68839934Y-90908207D01*
X69195502Y-90759964D01*
X69200000Y-90759064D01*
X69204497Y-90759964D01*
G37*
G04 #@! TD.AperFunction*
G04 #@! TA.AperFunction,Conductor*
G36*
X50150602Y-90528549D02*
G01*
X50156259Y-90534556D01*
X50304501Y-90890120D01*
X50305402Y-90894622D01*
X50304501Y-90899124D01*
X50156259Y-91254687D01*
X50150602Y-91260694D01*
X50142388Y-91261475D01*
X49655074Y-91128885D01*
X49354004Y-91046969D01*
X49347782Y-91042785D01*
X49345378Y-91035680D01*
X49345378Y-90753564D01*
X49347782Y-90746459D01*
X49354004Y-90742274D01*
X50142388Y-90527768D01*
X50150602Y-90528549D01*
G37*
G04 #@! TD.AperFunction*
G04 #@! TA.AperFunction,Conductor*
G36*
X42974655Y-84655846D02*
G01*
X43380446Y-85364995D01*
X43381888Y-85372356D01*
X43378564Y-85379079D01*
X43179079Y-85578564D01*
X43172356Y-85581888D01*
X43164995Y-85580446D01*
X42455846Y-85174655D01*
X42450590Y-85168295D01*
X42450836Y-85160050D01*
X42597437Y-84803801D01*
X42599983Y-84799983D01*
X42603801Y-84797437D01*
X42960050Y-84650836D01*
X42968295Y-84650590D01*
X42974655Y-84655846D01*
G37*
G04 #@! TD.AperFunction*
G04 #@! TA.AperFunction,Conductor*
G36*
X48948163Y-88842404D02*
G01*
X48952348Y-88848628D01*
X49166853Y-89637010D01*
X49166072Y-89645224D01*
X49160065Y-89650881D01*
X48804502Y-89799123D01*
X48800000Y-89800024D01*
X48795498Y-89799123D01*
X48439934Y-89650881D01*
X48433927Y-89645224D01*
X48433146Y-89637010D01*
X48647652Y-88848628D01*
X48651837Y-88842404D01*
X48658942Y-88840000D01*
X48941058Y-88840000D01*
X48948163Y-88842404D01*
G37*
G04 #@! TD.AperFunction*
G04 #@! TA.AperFunction,Conductor*
G36*
X42604497Y-68800875D02*
G01*
X42874946Y-68913630D01*
X42960065Y-68949118D01*
X42966072Y-68954775D01*
X42966853Y-68962989D01*
X42752348Y-69751372D01*
X42748163Y-69757596D01*
X42741058Y-69760000D01*
X42458942Y-69760000D01*
X42451837Y-69757596D01*
X42447652Y-69751372D01*
X42233146Y-68962989D01*
X42233927Y-68954775D01*
X42239934Y-68949118D01*
X42595502Y-68800875D01*
X42600000Y-68799975D01*
X42604497Y-68800875D01*
G37*
G04 #@! TD.AperFunction*
G04 #@! TA.AperFunction,Conductor*
G36*
X45586635Y-67399976D02*
G01*
X45592923Y-67401823D01*
X45597232Y-67406763D01*
X45598207Y-67413245D01*
X45506594Y-68090020D01*
X45503273Y-68096724D01*
X45304406Y-68295591D01*
X45298273Y-68298821D01*
X45291388Y-68298013D01*
X45286169Y-68293451D01*
X44837626Y-67564734D01*
X44835893Y-67558319D01*
X44837933Y-67551995D01*
X44843085Y-67547804D01*
X45197123Y-67400197D01*
X45201643Y-67399297D01*
X45586635Y-67399976D01*
G37*
G04 #@! TD.AperFunction*
G04 #@! TA.AperFunction,Conductor*
G36*
X49435004Y-68219553D02*
G01*
X50144153Y-68625344D01*
X50149409Y-68631704D01*
X50149162Y-68639951D01*
X50002563Y-68996195D01*
X50000016Y-69000016D01*
X49996195Y-69002563D01*
X49639951Y-69149162D01*
X49631704Y-69149409D01*
X49625344Y-69144153D01*
X49219553Y-68435004D01*
X49218111Y-68427643D01*
X49221434Y-68420921D01*
X49420921Y-68221434D01*
X49427643Y-68218111D01*
X49435004Y-68219553D01*
G37*
G04 #@! TD.AperFunction*
G04 #@! TA.AperFunction,Conductor*
G36*
X69904997Y-92158964D02*
G01*
X70260554Y-92307202D01*
X70266564Y-92312865D01*
X70267338Y-92321086D01*
X70051855Y-93109275D01*
X70047668Y-93115490D01*
X70040569Y-93117890D01*
X69758452Y-93117890D01*
X69751342Y-93115482D01*
X69747159Y-93109249D01*
X69533632Y-92321069D01*
X69534419Y-92312862D01*
X69540421Y-92307212D01*
X69896002Y-92158964D01*
X69900500Y-92158064D01*
X69904997Y-92158964D01*
G37*
G04 #@! TD.AperFunction*
G04 #@! TA.AperFunction,Conductor*
G36*
X70047662Y-97042404D02*
G01*
X70051847Y-97048628D01*
X70062081Y-97086240D01*
X70062391Y-97090839D01*
X70044750Y-97224836D01*
X70063670Y-97368547D01*
X70119138Y-97502461D01*
X70204794Y-97614091D01*
X70206802Y-97618141D01*
X70266353Y-97837010D01*
X70265572Y-97845224D01*
X70259565Y-97850881D01*
X69904002Y-97999123D01*
X69899500Y-98000024D01*
X69894998Y-97999123D01*
X69539434Y-97850881D01*
X69533427Y-97845224D01*
X69532646Y-97837010D01*
X69593299Y-97614091D01*
X69747152Y-97048626D01*
X69751337Y-97042404D01*
X69758442Y-97040000D01*
X70040557Y-97040000D01*
X70047662Y-97042404D01*
G37*
G04 #@! TD.AperFunction*
G04 #@! TA.AperFunction,Conductor*
G36*
X70604497Y-91200875D02*
G01*
X70874946Y-91313630D01*
X70960065Y-91349118D01*
X70966072Y-91354775D01*
X70966853Y-91362989D01*
X70830738Y-91863262D01*
X70789622Y-92014378D01*
X70752348Y-92151372D01*
X70748163Y-92157596D01*
X70741058Y-92160000D01*
X70466262Y-92160000D01*
X70458548Y-92157097D01*
X70454662Y-92149827D01*
X70436830Y-92014380D01*
X70424262Y-91984039D01*
X70381362Y-91880465D01*
X70371270Y-91867313D01*
X70369262Y-91863262D01*
X70233146Y-91362989D01*
X70233927Y-91354775D01*
X70239934Y-91349118D01*
X70595502Y-91200875D01*
X70600000Y-91199975D01*
X70604497Y-91200875D01*
G37*
G04 #@! TD.AperFunction*
G04 #@! TA.AperFunction,Conductor*
G36*
X70748163Y-96267241D02*
G01*
X70752348Y-96273465D01*
X70966853Y-97061847D01*
X70966072Y-97070061D01*
X70960065Y-97075718D01*
X70604502Y-97223960D01*
X70600000Y-97224861D01*
X70595498Y-97223960D01*
X70239934Y-97075718D01*
X70233927Y-97070061D01*
X70233146Y-97061847D01*
X70447652Y-96273465D01*
X70451837Y-96267241D01*
X70458942Y-96264837D01*
X70741058Y-96264837D01*
X70748163Y-96267241D01*
G37*
G04 #@! TD.AperFunction*
G04 #@! TA.AperFunction,Conductor*
G36*
X55402171Y-43799905D02*
G01*
X55760565Y-43949326D01*
X55766431Y-43954703D01*
X55767501Y-43962589D01*
X55601990Y-44730873D01*
X55597903Y-44737512D01*
X55590552Y-44740109D01*
X55011700Y-44740109D01*
X55003427Y-44736682D01*
X55000000Y-44728409D01*
X55000000Y-43811671D01*
X55003417Y-43803408D01*
X55011671Y-43799971D01*
X55075849Y-43799810D01*
X55397648Y-43799005D01*
X55402171Y-43799905D01*
G37*
G04 #@! TD.AperFunction*
G04 #@! TA.AperFunction,Conductor*
G36*
X55599311Y-54651322D02*
G01*
X55603493Y-54654990D01*
X56296877Y-55645538D01*
X56298813Y-55650210D01*
X56298597Y-55655262D01*
X55311305Y-59358594D01*
X55307128Y-59364858D01*
X55300000Y-59367280D01*
X55292872Y-59364858D01*
X55288695Y-59358594D01*
X55057927Y-58492987D01*
X54301401Y-55655258D01*
X54301186Y-55650210D01*
X54303119Y-55645542D01*
X54996507Y-54654989D01*
X55000689Y-54651322D01*
X55006092Y-54650000D01*
X55593908Y-54650000D01*
X55599311Y-54651322D01*
G37*
G04 #@! TD.AperFunction*
G04 #@! TA.AperFunction,Conductor*
G36*
X55342036Y-82225919D02*
G01*
X55355839Y-82234518D01*
X59046812Y-84533800D01*
X59051436Y-84539255D01*
X59746577Y-86218082D01*
X59747242Y-86224841D01*
X59744040Y-86230831D01*
X59330831Y-86644040D01*
X59324841Y-86647242D01*
X59318082Y-86646577D01*
X57639255Y-85951436D01*
X57633800Y-85946812D01*
X55325920Y-82242037D01*
X55324227Y-82234518D01*
X55327578Y-82227578D01*
X55334518Y-82224227D01*
X55342036Y-82225919D01*
G37*
G04 #@! TD.AperFunction*
G04 #@! TA.AperFunction,Conductor*
G36*
X72297288Y-123643009D02*
G01*
X72301092Y-123650488D01*
X72398658Y-124587120D01*
X72397538Y-124593459D01*
X72393235Y-124598246D01*
X72387050Y-124600032D01*
X72000029Y-124600999D01*
X71999971Y-124600999D01*
X71612949Y-124600032D01*
X71606764Y-124598246D01*
X71602461Y-124593459D01*
X71601341Y-124587122D01*
X71698908Y-123650488D01*
X71702712Y-123643009D01*
X71710545Y-123640000D01*
X72289455Y-123640000D01*
X72297288Y-123643009D01*
G37*
G04 #@! TD.AperFunction*
G04 #@! TA.AperFunction,Conductor*
G36*
X86396146Y-56915379D02*
G01*
X86402369Y-56919564D01*
X86404773Y-56926669D01*
X86404773Y-57208785D01*
X86402369Y-57215890D01*
X86396146Y-57220074D01*
X86150702Y-57286855D01*
X85607762Y-57434580D01*
X85599548Y-57433799D01*
X85593891Y-57427792D01*
X85541067Y-57301093D01*
X85445648Y-57072225D01*
X85444748Y-57067726D01*
X85445647Y-57063230D01*
X85593891Y-56707660D01*
X85599548Y-56701654D01*
X85607762Y-56700873D01*
X86396146Y-56915379D01*
G37*
G04 #@! TD.AperFunction*
G04 #@! TA.AperFunction,Conductor*
G36*
X90948163Y-73242404D02*
G01*
X90952348Y-73248628D01*
X91166853Y-74037010D01*
X91166072Y-74045224D01*
X91160065Y-74050881D01*
X90804502Y-74199123D01*
X90800000Y-74200024D01*
X90795498Y-74199123D01*
X90439934Y-74050881D01*
X90433927Y-74045224D01*
X90433146Y-74037010D01*
X90647652Y-73248628D01*
X90651837Y-73242404D01*
X90658942Y-73240000D01*
X90941058Y-73240000D01*
X90948163Y-73242404D01*
G37*
G04 #@! TD.AperFunction*
G04 #@! TA.AperFunction,Conductor*
G36*
X83124731Y-54255551D02*
G01*
X83541015Y-54948708D01*
X83542598Y-54956159D01*
X83539258Y-54963005D01*
X83339761Y-55162502D01*
X83333172Y-55165807D01*
X83325914Y-55164516D01*
X82606176Y-54774563D01*
X82600727Y-54768199D01*
X82600930Y-54759824D01*
X82747437Y-54403801D01*
X82749983Y-54399983D01*
X82753801Y-54397437D01*
X83110249Y-54250754D01*
X83118379Y-54250468D01*
X83124731Y-54255551D01*
G37*
G04 #@! TD.AperFunction*
G04 #@! TA.AperFunction,Conductor*
G36*
X84879777Y-56287280D02*
G01*
X85588926Y-56693071D01*
X85594182Y-56699431D01*
X85593935Y-56707678D01*
X85447336Y-57063922D01*
X85444789Y-57067743D01*
X85440968Y-57070290D01*
X85084724Y-57216889D01*
X85076477Y-57217136D01*
X85070117Y-57211880D01*
X84664326Y-56502731D01*
X84662884Y-56495370D01*
X84666207Y-56488648D01*
X84865694Y-56289161D01*
X84872416Y-56285838D01*
X84879777Y-56287280D01*
G37*
G04 #@! TD.AperFunction*
G04 #@! TA.AperFunction,Conductor*
G36*
X111693145Y-93903594D02*
G01*
X111697462Y-93908417D01*
X111698553Y-93914798D01*
X111601155Y-94789621D01*
X111597340Y-94797035D01*
X111589556Y-94800026D01*
X111202355Y-94800994D01*
X111197824Y-94800093D01*
X111059856Y-94742571D01*
X110840741Y-94651218D01*
X110834533Y-94645129D01*
X110834241Y-94636441D01*
X111097207Y-93909522D01*
X111101489Y-93903925D01*
X111108209Y-93901803D01*
X111686925Y-93901803D01*
X111693145Y-93903594D01*
G37*
G04 #@! TD.AperFunction*
G04 #@! TA.AperFunction,Conductor*
G36*
X111589558Y-66199973D02*
G01*
X111597340Y-66202964D01*
X111601155Y-66210378D01*
X111698553Y-67085202D01*
X111697462Y-67091583D01*
X111693145Y-67096406D01*
X111686925Y-67098197D01*
X111108209Y-67098197D01*
X111101489Y-67096075D01*
X111097207Y-67090477D01*
X111095299Y-67085202D01*
X110834241Y-66363558D01*
X110834533Y-66354870D01*
X110840739Y-66348782D01*
X111197829Y-66199904D01*
X111202350Y-66199005D01*
X111589558Y-66199973D01*
G37*
G04 #@! TD.AperFunction*
G04 #@! TA.AperFunction,Conductor*
G36*
X111497288Y-65243009D02*
G01*
X111501092Y-65250488D01*
X111598658Y-66187120D01*
X111597538Y-66193459D01*
X111593235Y-66198246D01*
X111587050Y-66200032D01*
X111200029Y-66200999D01*
X111199971Y-66200999D01*
X110812949Y-66200032D01*
X110806764Y-66198246D01*
X110802461Y-66193459D01*
X110801341Y-66187122D01*
X110898908Y-65250488D01*
X110902712Y-65243009D01*
X110910545Y-65240000D01*
X111489455Y-65240000D01*
X111497288Y-65243009D01*
G37*
G04 #@! TD.AperFunction*
G04 #@! TA.AperFunction,Conductor*
G36*
X111587052Y-51399967D02*
G01*
X111593235Y-51401753D01*
X111597538Y-51406540D01*
X111598658Y-51412879D01*
X111501092Y-52349512D01*
X111497288Y-52356991D01*
X111489455Y-52360000D01*
X110910545Y-52360000D01*
X110902712Y-52356991D01*
X110898908Y-52349512D01*
X110852994Y-51908743D01*
X110801341Y-51412876D01*
X110802461Y-51406540D01*
X110806764Y-51401753D01*
X110812946Y-51399967D01*
X111200000Y-51399000D01*
X111587052Y-51399967D01*
G37*
G04 #@! TD.AperFunction*
G04 #@! TA.AperFunction,Conductor*
G36*
X84199655Y-54043346D02*
G01*
X84605446Y-54752495D01*
X84606888Y-54759856D01*
X84603564Y-54766579D01*
X84404079Y-54966064D01*
X84397356Y-54969388D01*
X84389995Y-54967946D01*
X83680846Y-54562155D01*
X83675590Y-54555795D01*
X83675836Y-54547550D01*
X83822437Y-54191301D01*
X83824983Y-54187483D01*
X83828801Y-54184937D01*
X84185050Y-54038336D01*
X84193295Y-54038090D01*
X84199655Y-54043346D01*
G37*
G04 #@! TD.AperFunction*
G04 #@! TA.AperFunction,Conductor*
G36*
X85203520Y-55350479D02*
G01*
X85917411Y-55749179D01*
X85922754Y-55755542D01*
X85922526Y-55763846D01*
X85775968Y-56119990D01*
X85773421Y-56123811D01*
X85769600Y-56126358D01*
X85413266Y-56272994D01*
X85405071Y-56273259D01*
X85398714Y-56268080D01*
X84988222Y-55566090D01*
X84986719Y-55558691D01*
X84990049Y-55551914D01*
X85189543Y-55352420D01*
X85196205Y-55349105D01*
X85203520Y-55350479D01*
G37*
G04 #@! TD.AperFunction*
G04 #@! TA.AperFunction,Conductor*
G36*
X79204498Y-53650875D02*
G01*
X79433366Y-53746294D01*
X79560065Y-53799118D01*
X79566072Y-53804775D01*
X79566853Y-53812989D01*
X79352348Y-54601372D01*
X79348163Y-54607596D01*
X79341058Y-54610000D01*
X79058942Y-54610000D01*
X79051837Y-54607596D01*
X79047652Y-54601372D01*
X78833146Y-53812989D01*
X78833927Y-53804775D01*
X78839934Y-53799118D01*
X79195503Y-53650874D01*
X79199999Y-53649975D01*
X79204498Y-53650875D01*
G37*
G04 #@! TD.AperFunction*
G04 #@! TA.AperFunction,Conductor*
G36*
X78151373Y-58047652D02*
G01*
X78157596Y-58051837D01*
X78160000Y-58058942D01*
X78160000Y-58341058D01*
X78157596Y-58348163D01*
X78151373Y-58352347D01*
X77905929Y-58419128D01*
X77362989Y-58566853D01*
X77354775Y-58566072D01*
X77349118Y-58560065D01*
X77313630Y-58474946D01*
X77200875Y-58204497D01*
X77199975Y-58200000D01*
X77200875Y-58195502D01*
X77349118Y-57839933D01*
X77354775Y-57833927D01*
X77362989Y-57833146D01*
X78151373Y-58047652D01*
G37*
G04 #@! TD.AperFunction*
G04 #@! TA.AperFunction,Conductor*
G36*
X128685727Y-52923522D02*
G01*
X128691001Y-52927213D01*
X129284310Y-53658502D01*
X129286908Y-53666480D01*
X129283497Y-53674146D01*
X128874146Y-54083497D01*
X128866480Y-54086908D01*
X128858502Y-54084310D01*
X128127213Y-53491001D01*
X128123522Y-53485727D01*
X128123180Y-53479299D01*
X128126288Y-53473665D01*
X128399293Y-53199293D01*
X128673665Y-52926288D01*
X128679299Y-52923180D01*
X128685727Y-52923522D01*
G37*
G04 #@! TD.AperFunction*
G04 #@! TA.AperFunction,Conductor*
G36*
X110548163Y-83842404D02*
G01*
X110552348Y-83848628D01*
X110766853Y-84637010D01*
X110766072Y-84645224D01*
X110760065Y-84650881D01*
X110404501Y-84799123D01*
X110399999Y-84800024D01*
X110395498Y-84799123D01*
X110288245Y-84754407D01*
X110039934Y-84650881D01*
X110033927Y-84645224D01*
X110033146Y-84637010D01*
X110247652Y-83848628D01*
X110251837Y-83842404D01*
X110258942Y-83840000D01*
X110541058Y-83840000D01*
X110548163Y-83842404D01*
G37*
G04 #@! TD.AperFunction*
G04 #@! TA.AperFunction,Conductor*
G36*
X110390328Y-48599975D02*
G01*
X110397774Y-48602676D01*
X110401794Y-48609504D01*
X110547381Y-49380444D01*
X110546664Y-49387162D01*
X110542353Y-49392364D01*
X110535884Y-49394315D01*
X110254707Y-49394315D01*
X110246605Y-49391056D01*
X109725757Y-48891098D01*
X109722602Y-48885846D01*
X109722534Y-48879719D01*
X109725569Y-48874400D01*
X109996561Y-48602450D01*
X110000373Y-48599901D01*
X110004874Y-48599012D01*
X110390328Y-48599975D01*
G37*
G04 #@! TD.AperFunction*
G04 #@! TA.AperFunction,Conductor*
G36*
X85204498Y-47200875D02*
G01*
X85433366Y-47296294D01*
X85560065Y-47349118D01*
X85566072Y-47354775D01*
X85566853Y-47362989D01*
X85352348Y-48151372D01*
X85348163Y-48157596D01*
X85341058Y-48160000D01*
X85058942Y-48160000D01*
X85051837Y-48157596D01*
X85047652Y-48151372D01*
X84833146Y-47362989D01*
X84833927Y-47354775D01*
X84839934Y-47349118D01*
X85195503Y-47200874D01*
X85199999Y-47199975D01*
X85204498Y-47200875D01*
G37*
G04 #@! TD.AperFunction*
G04 #@! TA.AperFunction,Conductor*
G36*
X132698511Y-104303925D02*
G01*
X132702793Y-104309523D01*
X132965758Y-105036439D01*
X132965466Y-105045129D01*
X132959258Y-105051218D01*
X132602175Y-105200093D01*
X132597644Y-105200994D01*
X132210443Y-105200026D01*
X132202659Y-105197035D01*
X132198844Y-105189621D01*
X132182957Y-105046927D01*
X132101446Y-104314798D01*
X132102538Y-104308417D01*
X132106855Y-104303594D01*
X132113075Y-104301803D01*
X132691791Y-104301803D01*
X132698511Y-104303925D01*
G37*
G04 #@! TD.AperFunction*
G04 #@! TA.AperFunction,Conductor*
G36*
X86235004Y-49019553D02*
G01*
X86944153Y-49425344D01*
X86949409Y-49431704D01*
X86949162Y-49439951D01*
X86802563Y-49796195D01*
X86800016Y-49800016D01*
X86796195Y-49802563D01*
X86439951Y-49949162D01*
X86431704Y-49949409D01*
X86425344Y-49944153D01*
X86019553Y-49235004D01*
X86018111Y-49227643D01*
X86021434Y-49220921D01*
X86220921Y-49021434D01*
X86227643Y-49018111D01*
X86235004Y-49019553D01*
G37*
G04 #@! TD.AperFunction*
G04 #@! TA.AperFunction,Conductor*
G36*
X96951694Y-47272482D02*
G01*
X96957697Y-47276708D01*
X96960000Y-47283679D01*
X96960000Y-47516321D01*
X96957697Y-47523292D01*
X96951694Y-47527517D01*
X96642729Y-47621153D01*
X96163194Y-47766484D01*
X96154809Y-47765869D01*
X96149003Y-47759790D01*
X96000875Y-47404498D01*
X95999975Y-47399999D01*
X96000874Y-47395503D01*
X96149003Y-47040208D01*
X96154809Y-47034130D01*
X96163193Y-47033515D01*
X96951694Y-47272482D01*
G37*
G04 #@! TD.AperFunction*
G04 #@! TA.AperFunction,Conductor*
G36*
X99017218Y-48986381D02*
G01*
X99743746Y-49374959D01*
X99749240Y-49381323D01*
X99749048Y-49389728D01*
X99602563Y-49745695D01*
X99600016Y-49749516D01*
X99596195Y-49752063D01*
X99240228Y-49898548D01*
X99231823Y-49898740D01*
X99225459Y-49893246D01*
X98836881Y-49166718D01*
X98835625Y-49159486D01*
X98838924Y-49152930D01*
X99003430Y-48988424D01*
X99009986Y-48985125D01*
X99017218Y-48986381D01*
G37*
G04 #@! TD.AperFunction*
G04 #@! TA.AperFunction,Conductor*
G36*
X121497288Y-53243009D02*
G01*
X121501092Y-53250488D01*
X121598658Y-54187120D01*
X121597538Y-54193459D01*
X121593235Y-54198246D01*
X121587050Y-54200032D01*
X121200029Y-54200999D01*
X121199971Y-54200999D01*
X120812949Y-54200032D01*
X120806764Y-54198246D01*
X120802461Y-54193459D01*
X120801341Y-54187122D01*
X120898908Y-53250488D01*
X120902712Y-53243009D01*
X120910545Y-53240000D01*
X121489455Y-53240000D01*
X121497288Y-53243009D01*
G37*
G04 #@! TD.AperFunction*
G04 #@! TA.AperFunction,Conductor*
G36*
X121587052Y-51799967D02*
G01*
X121593235Y-51801753D01*
X121597538Y-51806540D01*
X121598658Y-51812879D01*
X121501092Y-52749512D01*
X121497288Y-52756991D01*
X121489455Y-52760000D01*
X120910545Y-52760000D01*
X120902712Y-52756991D01*
X120898908Y-52749512D01*
X120852994Y-52308743D01*
X120801341Y-51812876D01*
X120802461Y-51806540D01*
X120806764Y-51801753D01*
X120812946Y-51799967D01*
X121200000Y-51799000D01*
X121587052Y-51799967D01*
G37*
G04 #@! TD.AperFunction*
G04 #@! TA.AperFunction,Conductor*
G36*
X70870549Y-47784945D02*
G01*
X70872887Y-47786471D01*
X71544962Y-48225154D01*
X71549741Y-48231483D01*
X71549387Y-48239404D01*
X71402563Y-48596195D01*
X71400016Y-48600016D01*
X71396195Y-48602563D01*
X71039404Y-48749387D01*
X71031483Y-48749741D01*
X71025154Y-48744962D01*
X70866325Y-48501631D01*
X70584945Y-48070549D01*
X70583107Y-48062947D01*
X70586470Y-48055884D01*
X70855884Y-47786470D01*
X70862947Y-47783107D01*
X70870549Y-47784945D01*
G37*
G04 #@! TD.AperFunction*
G04 #@! TA.AperFunction,Conductor*
G36*
X70404488Y-40800865D02*
G01*
X71174783Y-41120912D01*
X71181046Y-41127104D01*
X71181217Y-41135910D01*
X70602882Y-42642493D01*
X70598586Y-42647942D01*
X70591959Y-42650000D01*
X70208041Y-42650000D01*
X70201414Y-42647942D01*
X70197118Y-42642493D01*
X69618782Y-41135910D01*
X69618953Y-41127104D01*
X69625215Y-41120912D01*
X70395512Y-40800864D01*
X70399999Y-40799970D01*
X70404488Y-40800865D01*
G37*
G04 #@! TD.AperFunction*
G04 #@! TA.AperFunction,Conductor*
G36*
X78349066Y-105903402D02*
G01*
X78353356Y-105907763D01*
X78763092Y-106635454D01*
X78764582Y-106641779D01*
X78762467Y-106647925D01*
X78757399Y-106651993D01*
X78402175Y-106800093D01*
X78397644Y-106800994D01*
X78012338Y-106800030D01*
X78006313Y-106798342D01*
X78002020Y-106793792D01*
X78000685Y-106787682D01*
X78049384Y-105912853D01*
X78053027Y-105905003D01*
X78061067Y-105901803D01*
X78343161Y-105901803D01*
X78349066Y-105903402D01*
G37*
G04 #@! TD.AperFunction*
G04 #@! TA.AperFunction,Conductor*
G36*
X78204497Y-69200875D02*
G01*
X78474946Y-69313630D01*
X78560065Y-69349118D01*
X78566072Y-69354775D01*
X78566853Y-69362989D01*
X78352348Y-70151372D01*
X78348163Y-70157596D01*
X78341058Y-70160000D01*
X78058942Y-70160000D01*
X78051837Y-70157596D01*
X78047652Y-70151372D01*
X77833146Y-69362989D01*
X77833927Y-69354775D01*
X77839934Y-69349118D01*
X78195502Y-69200875D01*
X78200000Y-69199975D01*
X78204497Y-69200875D01*
G37*
G04 #@! TD.AperFunction*
G04 #@! TA.AperFunction,Conductor*
G36*
X82409972Y-78620859D02*
G01*
X82766219Y-78767459D01*
X82770039Y-78770006D01*
X82772586Y-78773827D01*
X82919185Y-79130071D01*
X82919432Y-79138318D01*
X82914176Y-79144678D01*
X82205027Y-79550469D01*
X82197666Y-79551911D01*
X82190943Y-79548587D01*
X81991458Y-79349102D01*
X81988134Y-79342379D01*
X81989576Y-79335018D01*
X82312889Y-78770006D01*
X82395367Y-78625868D01*
X82401727Y-78620613D01*
X82409972Y-78620859D01*
G37*
G04 #@! TD.AperFunction*
G04 #@! TA.AperFunction,Conductor*
G36*
X98379497Y-65375875D02*
G01*
X98735328Y-65524227D01*
X98741263Y-65529739D01*
X98742196Y-65537784D01*
X98552169Y-66321085D01*
X98548031Y-66327524D01*
X98540799Y-66330027D01*
X98258664Y-66330027D01*
X98251701Y-66327730D01*
X98247473Y-66321740D01*
X98008538Y-65538207D01*
X98009143Y-65529812D01*
X98015225Y-65523996D01*
X98370502Y-65375875D01*
X98375000Y-65374975D01*
X98379497Y-65375875D01*
G37*
G04 #@! TD.AperFunction*
G04 #@! TA.AperFunction,Conductor*
G36*
X98548163Y-77242404D02*
G01*
X98552348Y-77248628D01*
X98766853Y-78037010D01*
X98766072Y-78045224D01*
X98760065Y-78050881D01*
X98404502Y-78199123D01*
X98400000Y-78200024D01*
X98395498Y-78199123D01*
X98039934Y-78050881D01*
X98033927Y-78045224D01*
X98033146Y-78037010D01*
X98247652Y-77248628D01*
X98251837Y-77242404D01*
X98258942Y-77240000D01*
X98541058Y-77240000D01*
X98548163Y-77242404D01*
G37*
G04 #@! TD.AperFunction*
G04 #@! TA.AperFunction,Conductor*
G36*
X80148163Y-111242404D02*
G01*
X80152348Y-111248628D01*
X80366853Y-112037010D01*
X80366072Y-112045224D01*
X80360065Y-112050881D01*
X80004502Y-112199123D01*
X80000000Y-112200024D01*
X79995498Y-112199123D01*
X79639934Y-112050881D01*
X79633927Y-112045224D01*
X79633146Y-112037010D01*
X79847652Y-111248628D01*
X79851837Y-111242404D01*
X79858942Y-111240000D01*
X80141058Y-111240000D01*
X80148163Y-111242404D01*
G37*
G04 #@! TD.AperFunction*
G04 #@! TA.AperFunction,Conductor*
G36*
X80948163Y-114042404D02*
G01*
X80952348Y-114048628D01*
X81166853Y-114837010D01*
X81166072Y-114845224D01*
X81160065Y-114850881D01*
X80804502Y-114999123D01*
X80800000Y-115000024D01*
X80795498Y-114999123D01*
X80439934Y-114850881D01*
X80433927Y-114845224D01*
X80433146Y-114837010D01*
X80647652Y-114048628D01*
X80651837Y-114042404D01*
X80658942Y-114040000D01*
X80941058Y-114040000D01*
X80948163Y-114042404D01*
G37*
G04 #@! TD.AperFunction*
G04 #@! TA.AperFunction,Conductor*
G36*
X84839949Y-77250836D02*
G01*
X85196196Y-77397436D01*
X85200016Y-77399983D01*
X85202563Y-77403804D01*
X85349162Y-77760048D01*
X85349409Y-77768295D01*
X85344153Y-77774655D01*
X84635004Y-78180446D01*
X84627643Y-78181888D01*
X84620920Y-78178564D01*
X84421435Y-77979079D01*
X84418111Y-77972356D01*
X84419553Y-77964995D01*
X84742866Y-77399983D01*
X84825344Y-77255845D01*
X84831704Y-77250590D01*
X84839949Y-77250836D01*
G37*
G04 #@! TD.AperFunction*
G04 #@! TA.AperFunction,Conductor*
G36*
X88955090Y-60724455D02*
G01*
X89190120Y-60760965D01*
X89197200Y-60764903D01*
X89200024Y-60772497D01*
X89200987Y-61157624D01*
X89200098Y-61162126D01*
X89197546Y-61165941D01*
X88925318Y-61437210D01*
X88917128Y-61440622D01*
X88908900Y-61437307D01*
X88398869Y-60940945D01*
X88396250Y-60937111D01*
X88395329Y-60932560D01*
X88395329Y-60651158D01*
X88397210Y-60644795D01*
X88402249Y-60640479D01*
X88408825Y-60639597D01*
X88955090Y-60724455D01*
G37*
G04 #@! TD.AperFunction*
G04 #@! TA.AperFunction,Conductor*
G36*
X81000873Y-60635152D02*
G01*
X81007096Y-60639337D01*
X81009500Y-60646442D01*
X81009500Y-60928558D01*
X81007096Y-60935663D01*
X81000873Y-60939847D01*
X80755429Y-61006628D01*
X80212489Y-61154353D01*
X80204275Y-61153572D01*
X80198618Y-61147565D01*
X80163130Y-61062446D01*
X80050375Y-60791997D01*
X80049475Y-60787500D01*
X80050375Y-60783002D01*
X80198618Y-60427433D01*
X80204275Y-60421427D01*
X80212489Y-60420646D01*
X81000873Y-60635152D01*
G37*
G04 #@! TD.AperFunction*
G04 #@! TA.AperFunction,Conductor*
G36*
X77686321Y-78299965D02*
G01*
X77692682Y-78301866D01*
X77696986Y-78306923D01*
X77697844Y-78313508D01*
X77551573Y-79230252D01*
X77547612Y-79237310D01*
X77540019Y-79240109D01*
X77257877Y-79240109D01*
X77251343Y-79238114D01*
X77247036Y-79232810D01*
X77245997Y-79230252D01*
X76934808Y-78463811D01*
X76934850Y-78454908D01*
X76941146Y-78448612D01*
X77297829Y-78299904D01*
X77302350Y-78299005D01*
X77686321Y-78299965D01*
G37*
G04 #@! TD.AperFunction*
G04 #@! TA.AperFunction,Conductor*
G36*
X79548163Y-77242404D02*
G01*
X79552348Y-77248628D01*
X79766853Y-78037010D01*
X79766072Y-78045224D01*
X79760065Y-78050881D01*
X79404502Y-78199123D01*
X79400000Y-78200024D01*
X79395498Y-78199123D01*
X79039934Y-78050881D01*
X79033927Y-78045224D01*
X79033146Y-78037010D01*
X79247652Y-77248628D01*
X79251837Y-77242404D01*
X79258942Y-77240000D01*
X79541058Y-77240000D01*
X79548163Y-77242404D01*
G37*
G04 #@! TD.AperFunction*
G04 #@! TA.AperFunction,Conductor*
G36*
X78604497Y-46600875D02*
G01*
X78874946Y-46713630D01*
X78960065Y-46749118D01*
X78966072Y-46754775D01*
X78966853Y-46762989D01*
X78752348Y-47551372D01*
X78748163Y-47557596D01*
X78741058Y-47560000D01*
X78458942Y-47560000D01*
X78451837Y-47557596D01*
X78447652Y-47551372D01*
X78233146Y-46762989D01*
X78233927Y-46754775D01*
X78239934Y-46749118D01*
X78595502Y-46600875D01*
X78600000Y-46599975D01*
X78604497Y-46600875D01*
G37*
G04 #@! TD.AperFunction*
G04 #@! TA.AperFunction,Conductor*
G36*
X77179079Y-92421435D02*
G01*
X77378564Y-92620920D01*
X77381888Y-92627643D01*
X77380446Y-92635004D01*
X76974655Y-93344153D01*
X76968295Y-93349409D01*
X76960048Y-93349162D01*
X76603804Y-93202563D01*
X76599983Y-93200016D01*
X76597436Y-93196195D01*
X76450836Y-92839949D01*
X76450590Y-92831704D01*
X76455845Y-92825344D01*
X77164995Y-92419552D01*
X77172356Y-92418111D01*
X77179079Y-92421435D01*
G37*
G04 #@! TD.AperFunction*
G04 #@! TA.AperFunction,Conductor*
G36*
X97035004Y-57219553D02*
G01*
X97744153Y-57625344D01*
X97749409Y-57631704D01*
X97749162Y-57639951D01*
X97602563Y-57996195D01*
X97600016Y-58000016D01*
X97596195Y-58002563D01*
X97239951Y-58149162D01*
X97231704Y-58149409D01*
X97225344Y-58144153D01*
X96819553Y-57435004D01*
X96818111Y-57427643D01*
X96821434Y-57420921D01*
X97020921Y-57221434D01*
X97027643Y-57218111D01*
X97035004Y-57219553D01*
G37*
G04 #@! TD.AperFunction*
G04 #@! TA.AperFunction,Conductor*
G36*
X96314348Y-56195538D02*
G01*
X96720138Y-56904687D01*
X96721580Y-56912048D01*
X96718256Y-56918771D01*
X96518771Y-57118256D01*
X96512048Y-57121580D01*
X96504687Y-57120138D01*
X95977998Y-56818755D01*
X95795538Y-56714347D01*
X95790283Y-56707988D01*
X95790529Y-56699742D01*
X95937130Y-56343493D01*
X95939676Y-56339675D01*
X95943494Y-56337129D01*
X96299743Y-56190528D01*
X96307988Y-56190282D01*
X96314348Y-56195538D01*
G37*
G04 #@! TD.AperFunction*
M02*
