G04 #@! TF.GenerationSoftware,KiCad,Pcbnew,7.0.1*
G04 #@! TF.CreationDate,2023-10-22T20:19:39-04:00*
G04 #@! TF.ProjectId,battery_charging_devboard,62617474-6572-4795-9f63-68617267696e,rev?*
G04 #@! TF.SameCoordinates,Original*
G04 #@! TF.FileFunction,Paste,Top*
G04 #@! TF.FilePolarity,Positive*
%FSLAX46Y46*%
G04 Gerber Fmt 4.6, Leading zero omitted, Abs format (unit mm)*
G04 Created by KiCad (PCBNEW 7.0.1) date 2023-10-22 20:19:39*
%MOMM*%
%LPD*%
G01*
G04 APERTURE LIST*
G04 Aperture macros list*
%AMRoundRect*
0 Rectangle with rounded corners*
0 $1 Rounding radius*
0 $2 $3 $4 $5 $6 $7 $8 $9 X,Y pos of 4 corners*
0 Add a 4 corners polygon primitive as box body*
4,1,4,$2,$3,$4,$5,$6,$7,$8,$9,$2,$3,0*
0 Add four circle primitives for the rounded corners*
1,1,$1+$1,$2,$3*
1,1,$1+$1,$4,$5*
1,1,$1+$1,$6,$7*
1,1,$1+$1,$8,$9*
0 Add four rect primitives between the rounded corners*
20,1,$1+$1,$2,$3,$4,$5,0*
20,1,$1+$1,$4,$5,$6,$7,0*
20,1,$1+$1,$6,$7,$8,$9,0*
20,1,$1+$1,$8,$9,$2,$3,0*%
G04 Aperture macros list end*
%ADD10RoundRect,0.250000X-0.650000X0.412500X-0.650000X-0.412500X0.650000X-0.412500X0.650000X0.412500X0*%
%ADD11RoundRect,0.250000X0.450000X-0.350000X0.450000X0.350000X-0.450000X0.350000X-0.450000X-0.350000X0*%
%ADD12R,0.500000X0.470000*%
%ADD13R,0.550000X0.470000*%
%ADD14R,1.850000X2.700000*%
%ADD15RoundRect,0.250000X-0.337500X-0.475000X0.337500X-0.475000X0.337500X0.475000X-0.337500X0.475000X0*%
%ADD16RoundRect,0.250000X-0.350000X-0.450000X0.350000X-0.450000X0.350000X0.450000X-0.350000X0.450000X0*%
%ADD17RoundRect,0.250000X0.475000X-0.337500X0.475000X0.337500X-0.475000X0.337500X-0.475000X-0.337500X0*%
%ADD18RoundRect,0.250000X-0.412500X-0.650000X0.412500X-0.650000X0.412500X0.650000X-0.412500X0.650000X0*%
%ADD19RoundRect,0.250000X0.350000X0.450000X-0.350000X0.450000X-0.350000X-0.450000X0.350000X-0.450000X0*%
%ADD20RoundRect,0.250000X-0.250000X-0.250000X0.250000X-0.250000X0.250000X0.250000X-0.250000X0.250000X0*%
%ADD21RoundRect,0.250000X-0.325000X-0.450000X0.325000X-0.450000X0.325000X0.450000X-0.325000X0.450000X0*%
%ADD22RoundRect,0.250000X-0.475000X0.337500X-0.475000X-0.337500X0.475000X-0.337500X0.475000X0.337500X0*%
%ADD23RoundRect,0.250000X0.337500X0.475000X-0.337500X0.475000X-0.337500X-0.475000X0.337500X-0.475000X0*%
%ADD24RoundRect,0.250000X-0.450000X0.350000X-0.450000X-0.350000X0.450000X-0.350000X0.450000X0.350000X0*%
%ADD25RoundRect,0.150000X-0.150000X0.587500X-0.150000X-0.587500X0.150000X-0.587500X0.150000X0.587500X0*%
%ADD26RoundRect,0.150000X-0.725000X-0.150000X0.725000X-0.150000X0.725000X0.150000X-0.725000X0.150000X0*%
%ADD27RoundRect,0.250000X-0.625000X0.400000X-0.625000X-0.400000X0.625000X-0.400000X0.625000X0.400000X0*%
%ADD28RoundRect,0.242500X-0.242500X-0.242500X0.242500X-0.242500X0.242500X0.242500X-0.242500X0.242500X0*%
%ADD29RoundRect,0.062500X-0.425000X-0.062500X0.425000X-0.062500X0.425000X0.062500X-0.425000X0.062500X0*%
%ADD30RoundRect,0.062500X-0.062500X-0.425000X0.062500X-0.425000X0.062500X0.425000X-0.062500X0.425000X0*%
%ADD31RoundRect,0.250000X1.500000X1.000000X-1.500000X1.000000X-1.500000X-1.000000X1.500000X-1.000000X0*%
%ADD32R,2.510000X1.000000*%
%ADD33RoundRect,0.250000X0.625000X-0.400000X0.625000X0.400000X-0.625000X0.400000X-0.625000X-0.400000X0*%
%ADD34RoundRect,0.225000X-0.225000X-0.375000X0.225000X-0.375000X0.225000X0.375000X-0.225000X0.375000X0*%
%ADD35R,0.700000X0.300000*%
%ADD36R,2.850000X6.600000*%
%ADD37R,0.650000X1.050000*%
%ADD38RoundRect,0.150000X-0.587500X-0.150000X0.587500X-0.150000X0.587500X0.150000X-0.587500X0.150000X0*%
%ADD39RoundRect,0.100000X0.637500X0.100000X-0.637500X0.100000X-0.637500X-0.100000X0.637500X-0.100000X0*%
%ADD40R,1.500000X0.400000*%
%ADD41RoundRect,0.150000X0.725000X0.150000X-0.725000X0.150000X-0.725000X-0.150000X0.725000X-0.150000X0*%
%ADD42RoundRect,0.250000X-0.285000X-0.285000X0.285000X-0.285000X0.285000X0.285000X-0.285000X0.285000X0*%
%ADD43RoundRect,0.075000X-0.350000X-0.075000X0.350000X-0.075000X0.350000X0.075000X-0.350000X0.075000X0*%
%ADD44RoundRect,0.075000X-0.075000X-0.350000X0.075000X-0.350000X0.075000X0.350000X-0.075000X0.350000X0*%
%ADD45RoundRect,0.150000X-0.825000X-0.150000X0.825000X-0.150000X0.825000X0.150000X-0.825000X0.150000X0*%
%ADD46RoundRect,0.250000X0.250000X-0.250000X0.250000X0.250000X-0.250000X0.250000X-0.250000X-0.250000X0*%
%ADD47R,3.150000X1.000000*%
%ADD48RoundRect,0.250000X-0.250000X0.250000X-0.250000X-0.250000X0.250000X-0.250000X0.250000X0.250000X0*%
%ADD49R,4.860000X3.360000*%
%ADD50R,1.400000X1.390000*%
G04 APERTURE END LIST*
D10*
X145800000Y-57237500D03*
X145800000Y-60362500D03*
D11*
X93775000Y-74158947D03*
X93775000Y-72158947D03*
D12*
X83780000Y-52687500D03*
X83780000Y-52037500D03*
X83780000Y-51387500D03*
X83780000Y-50737500D03*
D13*
X80880000Y-52687500D03*
X80880000Y-52037500D03*
D14*
X82075000Y-51712500D03*
D13*
X80880000Y-51387500D03*
X80880000Y-50737500D03*
D15*
X107422500Y-87515000D03*
X109497500Y-87515000D03*
D16*
X58700000Y-64337500D03*
X60700000Y-64337500D03*
D17*
X60300000Y-62025000D03*
X60300000Y-59950000D03*
D16*
X62600000Y-64337500D03*
X64600000Y-64337500D03*
D18*
X122837500Y-47725000D03*
X125962500Y-47725000D03*
D12*
X122895000Y-55527500D03*
X122895000Y-56177500D03*
X122895000Y-56827500D03*
X122895000Y-57477500D03*
D13*
X125795000Y-55527500D03*
X125795000Y-56177500D03*
D14*
X124600000Y-56502500D03*
D13*
X125795000Y-56827500D03*
X125795000Y-57477500D03*
D15*
X100057500Y-98920000D03*
X102132500Y-98920000D03*
D19*
X78350000Y-76037500D03*
X76350000Y-76037500D03*
D17*
X60250000Y-52062500D03*
X60250000Y-49987500D03*
D16*
X62500000Y-71237500D03*
X64500000Y-71237500D03*
D20*
X107350000Y-89800000D03*
X109850000Y-89800000D03*
D21*
X57220000Y-101780000D03*
X59270000Y-101780000D03*
X57175000Y-85800000D03*
X59225000Y-85800000D03*
D12*
X113900000Y-50750000D03*
X113900000Y-51400000D03*
X113900000Y-52050000D03*
X113900000Y-52700000D03*
D13*
X116800000Y-50750000D03*
X116800000Y-51400000D03*
D14*
X115605000Y-51725000D03*
D13*
X116800000Y-52050000D03*
X116800000Y-52700000D03*
D22*
X108000000Y-50962500D03*
X108000000Y-53037500D03*
D16*
X74000000Y-118000000D03*
X76000000Y-118000000D03*
D23*
X91367500Y-87515000D03*
X89292500Y-87515000D03*
D19*
X102095000Y-96790000D03*
X100095000Y-96790000D03*
D16*
X61600000Y-88400000D03*
X63600000Y-88400000D03*
D24*
X98400000Y-51000000D03*
X98400000Y-53000000D03*
D25*
X74200000Y-78100000D03*
X72300000Y-78100000D03*
X73250000Y-79975000D03*
D17*
X62450000Y-62025000D03*
X62450000Y-59950000D03*
D15*
X89597500Y-96590000D03*
X91672500Y-96590000D03*
D12*
X122895000Y-50825000D03*
X122895000Y-51475000D03*
X122895000Y-52125000D03*
X122895000Y-52775000D03*
D13*
X125795000Y-50825000D03*
X125795000Y-51475000D03*
D14*
X124600000Y-51800000D03*
D13*
X125795000Y-52125000D03*
X125795000Y-52775000D03*
D26*
X50325000Y-54082500D03*
X50325000Y-55352500D03*
X50325000Y-56622500D03*
X50325000Y-57892500D03*
X55475000Y-57892500D03*
X55475000Y-56622500D03*
X55475000Y-55352500D03*
X55475000Y-54082500D03*
D16*
X72200000Y-96000000D03*
X74200000Y-96000000D03*
D11*
X46700000Y-54000000D03*
X46700000Y-52000000D03*
D21*
X57290000Y-104350000D03*
X59340000Y-104350000D03*
D27*
X91200000Y-50450000D03*
X91200000Y-53550000D03*
D19*
X83200000Y-71287500D03*
X81200000Y-71287500D03*
D28*
X94325000Y-60858947D03*
X94325000Y-62058947D03*
X95525000Y-60858947D03*
X95525000Y-62058947D03*
D29*
X93037500Y-60458947D03*
X93037500Y-60958947D03*
X93037500Y-61458947D03*
X93037500Y-61958947D03*
X93037500Y-62458947D03*
D30*
X93925000Y-63346447D03*
X94425000Y-63346447D03*
X94925000Y-63346447D03*
X95425000Y-63346447D03*
X95925000Y-63346447D03*
D29*
X96812500Y-62458947D03*
X96812500Y-61958947D03*
X96812500Y-61458947D03*
X96812500Y-60958947D03*
X96812500Y-60458947D03*
D30*
X95925000Y-59571447D03*
X95425000Y-59571447D03*
X94925000Y-59571447D03*
X94425000Y-59571447D03*
X93925000Y-59571447D03*
D21*
X57310000Y-109580000D03*
X59360000Y-109580000D03*
D24*
X100625000Y-72208947D03*
X100625000Y-74208947D03*
D19*
X63495000Y-104330000D03*
X61495000Y-104330000D03*
D16*
X85275000Y-64008947D03*
X87275000Y-64008947D03*
D22*
X93600000Y-50962500D03*
X93600000Y-53037500D03*
D11*
X100625000Y-70158947D03*
X100625000Y-68158947D03*
D21*
X57290000Y-106980000D03*
X59340000Y-106980000D03*
D19*
X63565000Y-109650000D03*
X61565000Y-109650000D03*
D31*
X132850000Y-110000000D03*
X126350000Y-110000000D03*
D19*
X63555000Y-106990000D03*
X61555000Y-106990000D03*
D24*
X46700000Y-56087500D03*
X46700000Y-58087500D03*
D10*
X143025000Y-57237500D03*
X143025000Y-60362500D03*
D32*
X110945000Y-109330000D03*
X114255000Y-111870000D03*
D16*
X72300000Y-76037500D03*
X74300000Y-76037500D03*
X85275000Y-61808947D03*
X87275000Y-61808947D03*
D17*
X96000000Y-53037500D03*
X96000000Y-50962500D03*
D16*
X81325000Y-61862500D03*
X83325000Y-61862500D03*
D24*
X98375000Y-72208947D03*
X98375000Y-74208947D03*
D17*
X68300000Y-65475000D03*
X68300000Y-63400000D03*
X77200000Y-61837500D03*
X77200000Y-59762500D03*
D19*
X105250000Y-66237500D03*
X103250000Y-66237500D03*
D17*
X42450000Y-58137500D03*
X42450000Y-56062500D03*
D11*
X60250000Y-48237500D03*
X60250000Y-46237500D03*
D17*
X64600000Y-62037500D03*
X64600000Y-59962500D03*
D16*
X58600000Y-73437500D03*
X60600000Y-73437500D03*
D11*
X44600000Y-58087500D03*
X44600000Y-56087500D03*
D33*
X140200000Y-60262500D03*
X140200000Y-57162500D03*
D19*
X79150000Y-71287500D03*
X77150000Y-71287500D03*
D18*
X122837500Y-45200000D03*
X125962500Y-45200000D03*
D19*
X98125000Y-96780000D03*
X96125000Y-96780000D03*
D15*
X81325000Y-59687500D03*
X83400000Y-59687500D03*
D23*
X105337500Y-64008947D03*
X103262500Y-64008947D03*
D34*
X99535000Y-101590000D03*
X102835000Y-101590000D03*
D35*
X48370000Y-65187500D03*
X48370000Y-65687500D03*
X48370000Y-66187500D03*
X48370000Y-66687500D03*
X48370000Y-67187500D03*
X48370000Y-67687500D03*
X48370000Y-68187500D03*
X48370000Y-68687500D03*
X48370000Y-69187500D03*
X48370000Y-69687500D03*
X48370000Y-70187500D03*
X48370000Y-70687500D03*
X46670000Y-70437500D03*
X46670000Y-69937500D03*
X46670000Y-69437500D03*
X46670000Y-68937500D03*
X46670000Y-68437500D03*
X46670000Y-67937500D03*
X46670000Y-67437500D03*
X46670000Y-66937500D03*
X46670000Y-66437500D03*
X46670000Y-65937500D03*
X46670000Y-65437500D03*
X46670000Y-64937500D03*
D19*
X87362500Y-59637500D03*
X85362500Y-59637500D03*
D17*
X96075000Y-74233947D03*
X96075000Y-72158947D03*
D36*
X130575000Y-58800000D03*
X136225000Y-58800000D03*
D18*
X122875000Y-60700000D03*
X126000000Y-60700000D03*
D37*
X44675000Y-78925000D03*
X44675000Y-83075000D03*
X42525000Y-78925000D03*
X42525000Y-83075000D03*
D16*
X61575000Y-85800000D03*
X63575000Y-85800000D03*
D12*
X83825000Y-57497500D03*
X83825000Y-56847500D03*
X83825000Y-56197500D03*
X83825000Y-55547500D03*
D13*
X80925000Y-57497500D03*
X80925000Y-56847500D03*
D14*
X82120000Y-56522500D03*
D13*
X80925000Y-56197500D03*
X80925000Y-55547500D03*
D23*
X105337500Y-61858947D03*
X103262500Y-61858947D03*
D38*
X86662500Y-45650000D03*
X86662500Y-47550000D03*
X88537500Y-46600000D03*
D11*
X62250000Y-51987500D03*
X62250000Y-49987500D03*
D39*
X85092500Y-99215000D03*
X85092500Y-98565000D03*
X85092500Y-97915000D03*
X85092500Y-97265000D03*
X85092500Y-96615000D03*
X85092500Y-95965000D03*
X85092500Y-95315000D03*
X85092500Y-94665000D03*
X85092500Y-94015000D03*
X85092500Y-93365000D03*
X79367500Y-93365000D03*
X79367500Y-94015000D03*
X79367500Y-94665000D03*
X79367500Y-95315000D03*
X79367500Y-95965000D03*
X79367500Y-96615000D03*
X79367500Y-97265000D03*
X79367500Y-97915000D03*
X79367500Y-98565000D03*
X79367500Y-99215000D03*
D19*
X63505000Y-101770000D03*
X61505000Y-101770000D03*
D40*
X80870000Y-45950000D03*
X80870000Y-46600000D03*
X80870000Y-47250000D03*
X83530000Y-47250000D03*
X83530000Y-46600000D03*
X83530000Y-45950000D03*
D41*
X55475000Y-51092500D03*
X55475000Y-49822500D03*
X55475000Y-48552500D03*
X55475000Y-47282500D03*
X50325000Y-47282500D03*
X50325000Y-48552500D03*
X50325000Y-49822500D03*
X50325000Y-51092500D03*
D18*
X122875000Y-63300000D03*
X126000000Y-63300000D03*
D42*
X70140000Y-68677500D03*
X70140000Y-69997500D03*
X71460000Y-68677500D03*
X71460000Y-69997500D03*
D43*
X68850000Y-68087500D03*
X68850000Y-68587500D03*
X68850000Y-69087500D03*
X68850000Y-69587500D03*
X68850000Y-70087500D03*
X68850000Y-70587500D03*
D44*
X69550000Y-71287500D03*
X70050000Y-71287500D03*
X70550000Y-71287500D03*
X71050000Y-71287500D03*
X71550000Y-71287500D03*
X72050000Y-71287500D03*
D43*
X72750000Y-70587500D03*
X72750000Y-70087500D03*
X72750000Y-69587500D03*
X72750000Y-69087500D03*
X72750000Y-68587500D03*
X72750000Y-68087500D03*
D44*
X72050000Y-67387500D03*
X71550000Y-67387500D03*
X71050000Y-67387500D03*
X70550000Y-67387500D03*
X70050000Y-67387500D03*
X69550000Y-67387500D03*
D23*
X109387500Y-66237500D03*
X107312500Y-66237500D03*
D24*
X96075000Y-68146447D03*
X96075000Y-70146447D03*
D45*
X96880000Y-87485000D03*
X96880000Y-88755000D03*
X96880000Y-90025000D03*
X96880000Y-91295000D03*
X101830000Y-91295000D03*
X101830000Y-90025000D03*
X101830000Y-88755000D03*
X101830000Y-87485000D03*
D46*
X62250000Y-48237500D03*
X62250000Y-45737500D03*
D16*
X68300000Y-76037500D03*
X70300000Y-76037500D03*
D11*
X93775000Y-70158947D03*
X93775000Y-68158947D03*
D47*
X84400000Y-107800000D03*
X89450000Y-107800000D03*
X84400000Y-110340000D03*
X89450000Y-110340000D03*
X84400000Y-112880000D03*
X89450000Y-112880000D03*
X84400000Y-115420000D03*
X89450000Y-115420000D03*
X84400000Y-117960000D03*
X89450000Y-117960000D03*
X84400000Y-120500000D03*
X89450000Y-120500000D03*
D16*
X58600000Y-71237500D03*
X60600000Y-71237500D03*
D48*
X105600000Y-50750000D03*
X105600000Y-53250000D03*
D11*
X98375000Y-70158947D03*
X98375000Y-68158947D03*
D22*
X88600000Y-50962500D03*
X88600000Y-53037500D03*
D16*
X62600000Y-66537500D03*
X64600000Y-66537500D03*
D19*
X109350000Y-61833947D03*
X107350000Y-61833947D03*
D22*
X100800000Y-50962500D03*
X100800000Y-53037500D03*
X103200000Y-50962500D03*
X103200000Y-53037500D03*
D17*
X44600000Y-54037500D03*
X44600000Y-51962500D03*
D16*
X58700000Y-66537500D03*
X60700000Y-66537500D03*
D49*
X69680000Y-51600000D03*
D50*
X73662000Y-50680000D03*
X73662000Y-52520000D03*
D17*
X77200000Y-55037500D03*
X77200000Y-52962500D03*
D21*
X57175000Y-88400000D03*
X59225000Y-88400000D03*
D16*
X96135000Y-98920000D03*
X98135000Y-98920000D03*
X62500000Y-73437500D03*
X64500000Y-73437500D03*
D19*
X109350000Y-64008947D03*
X107350000Y-64008947D03*
M02*
