%TF.GenerationSoftware,KiCad,Pcbnew,7.0.1*%
%TF.CreationDate,2023-10-22T20:19:52-04:00*%
%TF.ProjectId,battery_charging_devboard,62617474-6572-4795-9f63-68617267696e,rev?*%
%TF.SameCoordinates,Original*%
%TF.FileFunction,Drillmap*%
%TF.FilePolarity,Positive*%
%FSLAX45Y45*%
G04 Gerber Fmt 4.5, Leading zero omitted, Abs format (unit mm)*
G04 Created by KiCad (PCBNEW 7.0.1) date 2023-10-22 20:19:52*
%MOMM*%
%LPD*%
G01*
G04 APERTURE LIST*
%ADD10C,0.100000*%
%ADD11C,0.200000*%
%ADD12C,0.040000*%
%ADD13C,0.050000*%
%ADD14C,0.060000*%
%ADD15C,0.300000*%
G04 APERTURE END LIST*
D10*
X3853553Y-12146447D02*
X3853553Y-4400000D01*
X15800000Y-4400000D02*
G75*
G03*
X15300000Y-3900000I-500000J0D01*
G01*
X3853553Y-12146447D02*
G75*
G03*
X4353553Y-12646447I500000J0D01*
G01*
X15300000Y-12646447D02*
X4353553Y-12646447D01*
X15800000Y-12146447D02*
X15800000Y-4400000D01*
X4353553Y-3900000D02*
X15300000Y-3900000D01*
X4353553Y-3900000D02*
G75*
G03*
X3853553Y-4400000I0J-500000D01*
G01*
X15300000Y-12646450D02*
G75*
G03*
X15800000Y-12146447I0J500000D01*
G01*
D11*
D12*
X4230000Y-4980000D02*
X4270000Y-5020000D01*
X4270000Y-4980000D02*
X4230000Y-5020000D01*
X4230000Y-5380000D02*
X4270000Y-5420000D01*
X4270000Y-5380000D02*
X4230000Y-5420000D01*
X4230000Y-7480000D02*
X4270000Y-7520000D01*
X4270000Y-7480000D02*
X4230000Y-7520000D01*
X4230000Y-7730000D02*
X4270000Y-7770000D01*
X4270000Y-7730000D02*
X4230000Y-7770000D01*
X4230000Y-8730000D02*
X4270000Y-8770000D01*
X4270000Y-8730000D02*
X4230000Y-8770000D01*
X4230000Y-8980000D02*
X4270000Y-9020000D01*
X4270000Y-8980000D02*
X4230000Y-9020000D01*
X4230000Y-9230000D02*
X4270000Y-9270000D01*
X4270000Y-9230000D02*
X4230000Y-9270000D01*
X4230000Y-9480000D02*
X4270000Y-9520000D01*
X4270000Y-9480000D02*
X4230000Y-9520000D01*
X4230000Y-9730000D02*
X4270000Y-9770000D01*
X4270000Y-9730000D02*
X4230000Y-9770000D01*
X4230000Y-9980000D02*
X4270000Y-10020000D01*
X4270000Y-9980000D02*
X4230000Y-10020000D01*
X4230000Y-10230000D02*
X4270000Y-10270000D01*
X4270000Y-10230000D02*
X4230000Y-10270000D01*
X4230000Y-10480000D02*
X4270000Y-10520000D01*
X4270000Y-10480000D02*
X4230000Y-10520000D01*
X4230000Y-10730000D02*
X4270000Y-10770000D01*
X4270000Y-10730000D02*
X4230000Y-10770000D01*
X4230000Y-10980000D02*
X4270000Y-11020000D01*
X4270000Y-10980000D02*
X4230000Y-11020000D01*
X4230000Y-11230000D02*
X4270000Y-11270000D01*
X4270000Y-11230000D02*
X4230000Y-11270000D01*
X4230000Y-11480000D02*
X4270000Y-11520000D01*
X4270000Y-11480000D02*
X4230000Y-11520000D01*
X4240000Y-6860000D02*
X4280000Y-6900000D01*
X4280000Y-6860000D02*
X4240000Y-6900000D01*
X4240000Y-8460000D02*
X4280000Y-8500000D01*
X4280000Y-8460000D02*
X4240000Y-8500000D01*
X4309950Y-6760000D02*
X4349950Y-6800000D01*
X4349950Y-6760000D02*
X4309950Y-6800000D01*
X4340000Y-6160000D02*
X4380000Y-6200000D01*
X4380000Y-6160000D02*
X4340000Y-6200000D01*
X4480000Y-7480000D02*
X4520000Y-7520000D01*
X4520000Y-7480000D02*
X4480000Y-7520000D01*
X4480000Y-7730000D02*
X4520000Y-7770000D01*
X4520000Y-7730000D02*
X4480000Y-7770000D01*
X4500000Y-6720000D02*
X4540000Y-6760000D01*
X4540000Y-6720000D02*
X4500000Y-6760000D01*
X4730000Y-7480000D02*
X4770000Y-7520000D01*
X4770000Y-7480000D02*
X4730000Y-7520000D01*
X4730000Y-7730000D02*
X4770000Y-7770000D01*
X4770000Y-7730000D02*
X4730000Y-7770000D01*
X4730000Y-7980000D02*
X4770000Y-8020000D01*
X4770000Y-7980000D02*
X4730000Y-8020000D01*
X4730000Y-8230000D02*
X4770000Y-8270000D01*
X4770000Y-8230000D02*
X4730000Y-8270000D01*
X4800000Y-6000000D02*
X4840000Y-6040000D01*
X4840000Y-6000000D02*
X4800000Y-6040000D01*
X4860000Y-8960000D02*
X4900000Y-9000000D01*
X4900000Y-8960000D02*
X4860000Y-9000000D01*
X4980000Y-4230000D02*
X5020000Y-4270000D01*
X5020000Y-4230000D02*
X4980000Y-4270000D01*
X4980000Y-5230000D02*
X5020000Y-5270000D01*
X5020000Y-5230000D02*
X4980000Y-5270000D01*
X4980000Y-6880000D02*
X5020000Y-6920000D01*
X5020000Y-6880000D02*
X4980000Y-6920000D01*
X4980000Y-12230000D02*
X5020000Y-12270000D01*
X5020000Y-12230000D02*
X4980000Y-12270000D01*
X5010538Y-9069462D02*
X5050538Y-9109462D01*
X5050538Y-9069462D02*
X5010538Y-9109462D01*
X5020000Y-6080000D02*
X5060000Y-6120000D01*
X5060000Y-6080000D02*
X5020000Y-6120000D01*
X5040000Y-6780000D02*
X5080000Y-6820000D01*
X5080000Y-6780000D02*
X5040000Y-6820000D01*
X5049950Y-8260000D02*
X5089950Y-8300000D01*
X5089950Y-8260000D02*
X5049950Y-8300000D01*
X5100000Y-7680000D02*
X5140000Y-7720000D01*
X5140000Y-7680000D02*
X5100000Y-7720000D01*
X5160000Y-9120000D02*
X5200000Y-9160000D01*
X5200000Y-9120000D02*
X5160000Y-9160000D01*
X5200000Y-6980000D02*
X5240000Y-7020000D01*
X5240000Y-6980000D02*
X5200000Y-7020000D01*
X5230000Y-4230000D02*
X5270000Y-4270000D01*
X5270000Y-4230000D02*
X5230000Y-4270000D01*
X5230000Y-12230000D02*
X5270000Y-12270000D01*
X5270000Y-12230000D02*
X5230000Y-12270000D01*
X5240000Y-9200000D02*
X5280000Y-9240000D01*
X5280000Y-9200000D02*
X5240000Y-9240000D01*
X5480000Y-4230000D02*
X5520000Y-4270000D01*
X5520000Y-4230000D02*
X5480000Y-4270000D01*
X5480000Y-9980000D02*
X5520000Y-10020000D01*
X5520000Y-9980000D02*
X5480000Y-10020000D01*
X5480000Y-11480000D02*
X5520000Y-11520000D01*
X5520000Y-11480000D02*
X5480000Y-11520000D01*
X5480000Y-11730000D02*
X5520000Y-11770000D01*
X5520000Y-11730000D02*
X5480000Y-11770000D01*
X5540000Y-6640000D02*
X5580000Y-6680000D01*
X5580000Y-6640000D02*
X5540000Y-6680000D01*
X5540000Y-7100000D02*
X5580000Y-7140000D01*
X5580000Y-7100000D02*
X5540000Y-7140000D01*
X5730000Y-4230000D02*
X5770000Y-4270000D01*
X5770000Y-4230000D02*
X5730000Y-4270000D01*
X5730000Y-9980000D02*
X5770000Y-10020000D01*
X5770000Y-9980000D02*
X5730000Y-10020000D01*
X5730000Y-11480000D02*
X5770000Y-11520000D01*
X5770000Y-11480000D02*
X5730000Y-11520000D01*
X5730000Y-11730000D02*
X5770000Y-11770000D01*
X5770000Y-11730000D02*
X5730000Y-11770000D01*
X5880000Y-6868800D02*
X5920000Y-6908800D01*
X5920000Y-6868800D02*
X5880000Y-6908800D01*
X5980000Y-4230000D02*
X6020000Y-4270000D01*
X6020000Y-4230000D02*
X5980000Y-4270000D01*
X5980000Y-5730000D02*
X6020000Y-5770000D01*
X6020000Y-5730000D02*
X5980000Y-5770000D01*
X5980000Y-9980000D02*
X6020000Y-10020000D01*
X6020000Y-9980000D02*
X5980000Y-10020000D01*
X6100000Y-4444950D02*
X6140000Y-4484950D01*
X6140000Y-4444950D02*
X6100000Y-4484950D01*
X6180000Y-6800000D02*
X6220000Y-6840000D01*
X6220000Y-6800000D02*
X6180000Y-6840000D01*
X6200000Y-5780000D02*
X6240000Y-5820000D01*
X6240000Y-5780000D02*
X6200000Y-5820000D01*
X6230000Y-4230000D02*
X6270000Y-4270000D01*
X6270000Y-4230000D02*
X6230000Y-4270000D01*
X6230000Y-7980000D02*
X6270000Y-8020000D01*
X6270000Y-7980000D02*
X6230000Y-8020000D01*
X6230000Y-9980000D02*
X6270000Y-10020000D01*
X6270000Y-9980000D02*
X6230000Y-10020000D01*
X6480000Y-4230000D02*
X6520000Y-4270000D01*
X6520000Y-4230000D02*
X6480000Y-4270000D01*
X6480000Y-4480000D02*
X6520000Y-4520000D01*
X6520000Y-4480000D02*
X6480000Y-4520000D01*
X6480000Y-4730000D02*
X6520000Y-4770000D01*
X6520000Y-4730000D02*
X6480000Y-4770000D01*
X6480000Y-4980000D02*
X6520000Y-5020000D01*
X6520000Y-4980000D02*
X6480000Y-5020000D01*
X6480000Y-5230000D02*
X6520000Y-5270000D01*
X6520000Y-5230000D02*
X6480000Y-5270000D01*
X6480000Y-5480000D02*
X6520000Y-5520000D01*
X6520000Y-5480000D02*
X6480000Y-5520000D01*
X6480000Y-7980000D02*
X6520000Y-8020000D01*
X6520000Y-7980000D02*
X6480000Y-8020000D01*
X6480000Y-8230000D02*
X6520000Y-8270000D01*
X6520000Y-8230000D02*
X6480000Y-8270000D01*
X6580000Y-6520000D02*
X6620000Y-6560000D01*
X6620000Y-6520000D02*
X6580000Y-6560000D01*
X6620000Y-7020000D02*
X6660000Y-7060000D01*
X6660000Y-7020000D02*
X6620000Y-7060000D01*
X6640000Y-6280000D02*
X6680000Y-6320000D01*
X6680000Y-6280000D02*
X6640000Y-6320000D01*
X6660000Y-7240000D02*
X6700000Y-7280000D01*
X6700000Y-7240000D02*
X6660000Y-7280000D01*
X6730000Y-4230000D02*
X6770000Y-4270000D01*
X6770000Y-4230000D02*
X6730000Y-4270000D01*
X6730000Y-5980000D02*
X6770000Y-6020000D01*
X6770000Y-5980000D02*
X6730000Y-6020000D01*
X6730000Y-7980000D02*
X6770000Y-8020000D01*
X6770000Y-7980000D02*
X6730000Y-8020000D01*
X6730000Y-8230000D02*
X6770000Y-8270000D01*
X6770000Y-8230000D02*
X6730000Y-8270000D01*
X6730000Y-8480000D02*
X6770000Y-8520000D01*
X6770000Y-8480000D02*
X6730000Y-8520000D01*
X6730000Y-11980000D02*
X6770000Y-12020000D01*
X6770000Y-11980000D02*
X6730000Y-12020000D01*
X6900000Y-9055909D02*
X6940000Y-9095909D01*
X6940000Y-9055909D02*
X6900000Y-9095909D01*
X6900000Y-9600000D02*
X6940000Y-9640000D01*
X6940000Y-9600000D02*
X6900000Y-9640000D01*
X6969950Y-9780000D02*
X7009950Y-9820000D01*
X7009950Y-9780000D02*
X6969950Y-9820000D01*
X6970050Y-9195809D02*
X7010050Y-9235809D01*
X7010050Y-9195809D02*
X6970050Y-9235809D01*
X6980000Y-5980000D02*
X7020000Y-6020000D01*
X7020000Y-5980000D02*
X6980000Y-6020000D01*
X6980000Y-7980000D02*
X7020000Y-8020000D01*
X7020000Y-7980000D02*
X6980000Y-8020000D01*
X6980000Y-8230000D02*
X7020000Y-8270000D01*
X7020000Y-8230000D02*
X6980000Y-8270000D01*
X6980000Y-8480000D02*
X7020000Y-8520000D01*
X7020000Y-8480000D02*
X6980000Y-8520000D01*
X6980000Y-11480000D02*
X7020000Y-11520000D01*
X7020000Y-11480000D02*
X6980000Y-11520000D01*
X6980000Y-11730000D02*
X7020000Y-11770000D01*
X7020000Y-11730000D02*
X6980000Y-11770000D01*
X6980000Y-11980000D02*
X7020000Y-12020000D01*
X7020000Y-11980000D02*
X6980000Y-12020000D01*
X7040000Y-9100000D02*
X7080000Y-9140000D01*
X7080000Y-9100000D02*
X7040000Y-9140000D01*
X7040000Y-9702484D02*
X7080000Y-9742484D01*
X7080000Y-9702484D02*
X7040000Y-9742484D01*
X7080000Y-5460000D02*
X7120000Y-5500000D01*
X7120000Y-5460000D02*
X7080000Y-5500000D01*
X7120000Y-4840000D02*
X7160000Y-4880000D01*
X7160000Y-4840000D02*
X7120000Y-4880000D01*
X7230000Y-5980000D02*
X7270000Y-6020000D01*
X7270000Y-5980000D02*
X7230000Y-6020000D01*
X7230000Y-6230000D02*
X7270000Y-6270000D01*
X7270000Y-6230000D02*
X7230000Y-6270000D01*
X7230000Y-6480000D02*
X7270000Y-6520000D01*
X7270000Y-6480000D02*
X7230000Y-6520000D01*
X7330000Y-5460000D02*
X7370000Y-5500000D01*
X7370000Y-5460000D02*
X7330000Y-5500000D01*
X7340000Y-4740000D02*
X7380000Y-4780000D01*
X7380000Y-4740000D02*
X7340000Y-4780000D01*
X7380000Y-5720000D02*
X7420000Y-5760000D01*
X7420000Y-5720000D02*
X7380000Y-5760000D01*
X7440000Y-6700000D02*
X7480000Y-6740000D01*
X7480000Y-6700000D02*
X7440000Y-6740000D01*
X7460000Y-5780000D02*
X7500000Y-5820000D01*
X7500000Y-5780000D02*
X7460000Y-5820000D01*
X7480000Y-8230000D02*
X7520000Y-8270000D01*
X7520000Y-8230000D02*
X7480000Y-8270000D01*
X7480000Y-8480000D02*
X7520000Y-8520000D01*
X7520000Y-8480000D02*
X7480000Y-8520000D01*
X7480000Y-10230000D02*
X7520000Y-10270000D01*
X7520000Y-10230000D02*
X7480000Y-10270000D01*
X7480000Y-10480000D02*
X7520000Y-10520000D01*
X7520000Y-10480000D02*
X7480000Y-10520000D01*
X7480000Y-10730000D02*
X7520000Y-10770000D01*
X7520000Y-10730000D02*
X7480000Y-10770000D01*
X7480000Y-10980000D02*
X7520000Y-11020000D01*
X7520000Y-10980000D02*
X7480000Y-11020000D01*
X7480000Y-11230000D02*
X7520000Y-11270000D01*
X7520000Y-11230000D02*
X7480000Y-11270000D01*
X7480000Y-11480000D02*
X7520000Y-11520000D01*
X7520000Y-11480000D02*
X7480000Y-11520000D01*
X7520000Y-6880000D02*
X7560000Y-6920000D01*
X7560000Y-6880000D02*
X7520000Y-6920000D01*
X7580000Y-5780000D02*
X7620000Y-5820000D01*
X7620000Y-5780000D02*
X7580000Y-5820000D01*
X7590000Y-4740000D02*
X7630000Y-4780000D01*
X7630000Y-4740000D02*
X7590000Y-4780000D01*
X7620000Y-6860000D02*
X7660000Y-6900000D01*
X7660000Y-6860000D02*
X7620000Y-6900000D01*
X7640000Y-9300000D02*
X7680000Y-9340000D01*
X7680000Y-9300000D02*
X7640000Y-9340000D01*
X7700000Y-5800000D02*
X7740000Y-5840000D01*
X7740000Y-5800000D02*
X7700000Y-5840000D01*
X7710000Y-7810000D02*
X7750000Y-7850000D01*
X7750000Y-7810000D02*
X7710000Y-7850000D01*
X7730000Y-6480000D02*
X7770000Y-6520000D01*
X7770000Y-6480000D02*
X7730000Y-6520000D01*
X7730000Y-10980000D02*
X7770000Y-11020000D01*
X7770000Y-10980000D02*
X7730000Y-11020000D01*
X7730000Y-11230000D02*
X7770000Y-11270000D01*
X7770000Y-11230000D02*
X7730000Y-11270000D01*
X7730000Y-11480000D02*
X7770000Y-11520000D01*
X7770000Y-11480000D02*
X7730000Y-11520000D01*
X7800000Y-6900000D02*
X7840000Y-6940000D01*
X7840000Y-6900000D02*
X7800000Y-6940000D01*
X7820000Y-10660000D02*
X7860000Y-10700000D01*
X7860000Y-10660000D02*
X7820000Y-10700000D01*
X7840000Y-4640000D02*
X7880000Y-4680000D01*
X7880000Y-4640000D02*
X7840000Y-4680000D01*
X7900000Y-5345000D02*
X7940000Y-5385000D01*
X7940000Y-5345000D02*
X7900000Y-5385000D01*
X7900000Y-10940000D02*
X7940000Y-10980000D01*
X7940000Y-10940000D02*
X7900000Y-10980000D01*
X7920000Y-7800000D02*
X7960000Y-7840000D01*
X7960000Y-7800000D02*
X7920000Y-7840000D01*
X7960000Y-5940000D02*
X8000000Y-5980000D01*
X8000000Y-5940000D02*
X7960000Y-5980000D01*
X7980000Y-4230000D02*
X8020000Y-4270000D01*
X8020000Y-4230000D02*
X7980000Y-4270000D01*
X7980000Y-4420000D02*
X8020000Y-4460000D01*
X8020000Y-4420000D02*
X7980000Y-4460000D01*
X7980000Y-6730000D02*
X8020000Y-6770000D01*
X8020000Y-6730000D02*
X7980000Y-6770000D01*
X7980000Y-11200000D02*
X8020000Y-11240000D01*
X8020000Y-11200000D02*
X7980000Y-11240000D01*
X7984950Y-6058750D02*
X8024950Y-6098750D01*
X8024950Y-6058750D02*
X7984950Y-6098750D01*
X8060000Y-11480000D02*
X8100000Y-11520000D01*
X8100000Y-11480000D02*
X8060000Y-11520000D01*
X8100000Y-7300000D02*
X8140000Y-7340000D01*
X8140000Y-7300000D02*
X8100000Y-7340000D01*
X8160000Y-9540000D02*
X8200000Y-9580000D01*
X8200000Y-9540000D02*
X8160000Y-9580000D01*
X8230000Y-4230000D02*
X8270000Y-4270000D01*
X8270000Y-4230000D02*
X8230000Y-4270000D01*
X8230000Y-4420000D02*
X8270000Y-4460000D01*
X8270000Y-4420000D02*
X8230000Y-4460000D01*
X8230000Y-6730000D02*
X8270000Y-6770000D01*
X8270000Y-6730000D02*
X8230000Y-6770000D01*
X8255000Y-5420000D02*
X8295000Y-5460000D01*
X8295000Y-5420000D02*
X8255000Y-5460000D01*
X8257002Y-7857002D02*
X8297002Y-7897002D01*
X8297002Y-7857002D02*
X8257002Y-7897002D01*
X8260000Y-9360000D02*
X8300000Y-9400000D01*
X8300000Y-9360000D02*
X8260000Y-9400000D01*
X8362500Y-5398750D02*
X8402500Y-5438750D01*
X8402500Y-5398750D02*
X8362500Y-5438750D01*
X8480000Y-4230000D02*
X8520000Y-4270000D01*
X8520000Y-4230000D02*
X8480000Y-4270000D01*
X8480000Y-7230000D02*
X8520000Y-7270000D01*
X8520000Y-7230000D02*
X8480000Y-7270000D01*
X8480000Y-7480000D02*
X8520000Y-7520000D01*
X8520000Y-7480000D02*
X8480000Y-7520000D01*
X8480000Y-7980000D02*
X8520000Y-8020000D01*
X8520000Y-7980000D02*
X8480000Y-8020000D01*
X8480000Y-8230000D02*
X8520000Y-8270000D01*
X8520000Y-8230000D02*
X8480000Y-8270000D01*
X8480000Y-8730000D02*
X8520000Y-8770000D01*
X8520000Y-8730000D02*
X8480000Y-8770000D01*
X8500000Y-4700000D02*
X8540000Y-4740000D01*
X8540000Y-4700000D02*
X8500000Y-4740000D01*
X8500000Y-7720000D02*
X8540000Y-7760000D01*
X8540000Y-7720000D02*
X8500000Y-7760000D01*
X8524477Y-5686773D02*
X8564477Y-5726773D01*
X8564477Y-5686773D02*
X8524477Y-5726773D01*
X8557341Y-5592380D02*
X8597341Y-5632379D01*
X8597341Y-5592380D02*
X8557341Y-5632379D01*
X8660000Y-4960000D02*
X8700000Y-5000000D01*
X8700000Y-4960000D02*
X8660000Y-5000000D01*
X8720000Y-9260000D02*
X8760000Y-9300000D01*
X8760000Y-9260000D02*
X8720000Y-9300000D01*
X8730000Y-4230000D02*
X8770000Y-4270000D01*
X8770000Y-4230000D02*
X8730000Y-4270000D01*
X8730000Y-6730000D02*
X8770000Y-6770000D01*
X8770000Y-6730000D02*
X8730000Y-6770000D01*
X8730000Y-6980000D02*
X8770000Y-7020000D01*
X8770000Y-6980000D02*
X8730000Y-7020000D01*
X8730000Y-7230000D02*
X8770000Y-7270000D01*
X8770000Y-7230000D02*
X8730000Y-7270000D01*
X8730000Y-7480000D02*
X8770000Y-7520000D01*
X8770000Y-7480000D02*
X8730000Y-7520000D01*
X8730000Y-7980000D02*
X8770000Y-8020000D01*
X8770000Y-7980000D02*
X8730000Y-8020000D01*
X8730000Y-8230000D02*
X8770000Y-8270000D01*
X8770000Y-8230000D02*
X8730000Y-8270000D01*
X8740000Y-12200050D02*
X8780000Y-12240050D01*
X8780000Y-12200050D02*
X8740000Y-12240050D01*
X8822862Y-9257818D02*
X8862862Y-9297818D01*
X8862862Y-9257818D02*
X8822862Y-9297818D01*
X8826108Y-12260050D02*
X8866108Y-12300050D01*
X8866108Y-12260050D02*
X8826108Y-12300050D01*
X8900000Y-6096250D02*
X8940000Y-6136250D01*
X8940000Y-6096250D02*
X8900000Y-6136250D01*
X8945494Y-9814506D02*
X8985494Y-9854506D01*
X8985494Y-9814506D02*
X8945494Y-9854506D01*
X8980000Y-4230000D02*
X9020000Y-4270000D01*
X9020000Y-4230000D02*
X8980000Y-4270000D01*
X8980000Y-7980000D02*
X9020000Y-8020000D01*
X9020000Y-7980000D02*
X8980000Y-8020000D01*
X8980000Y-8230000D02*
X9020000Y-8270000D01*
X9020000Y-8230000D02*
X8980000Y-8270000D01*
X9000000Y-5520000D02*
X9040000Y-5560000D01*
X9040000Y-5520000D02*
X9000000Y-5560000D01*
X9000000Y-5680000D02*
X9040000Y-5720000D01*
X9040000Y-5680000D02*
X9000000Y-5720000D01*
X9060000Y-7400000D02*
X9100000Y-7440000D01*
X9100000Y-7400000D02*
X9060000Y-7440000D01*
X9120000Y-8460000D02*
X9160000Y-8500000D01*
X9160000Y-8460000D02*
X9120000Y-8500000D01*
X9140000Y-7300000D02*
X9180000Y-7340000D01*
X9180000Y-7300000D02*
X9140000Y-7340000D01*
X9180000Y-5520000D02*
X9220000Y-5560000D01*
X9220000Y-5520000D02*
X9180000Y-5560000D01*
X9180000Y-5680000D02*
X9220000Y-5720000D01*
X9220000Y-5680000D02*
X9180000Y-5720000D01*
X9230000Y-4230000D02*
X9270000Y-4270000D01*
X9270000Y-4230000D02*
X9230000Y-4270000D01*
X9230000Y-7980000D02*
X9270000Y-8020000D01*
X9270000Y-7980000D02*
X9230000Y-8020000D01*
X9230000Y-8230000D02*
X9270000Y-8270000D01*
X9270000Y-8230000D02*
X9230000Y-8270000D01*
X9360000Y-6580000D02*
X9400000Y-6620000D01*
X9400000Y-6580000D02*
X9360000Y-6620000D01*
X9480000Y-4230000D02*
X9520000Y-4270000D01*
X9520000Y-4230000D02*
X9480000Y-4270000D01*
X9480000Y-7980000D02*
X9520000Y-8020000D01*
X9520000Y-7980000D02*
X9480000Y-8020000D01*
X9480000Y-8230000D02*
X9520000Y-8270000D01*
X9520000Y-8230000D02*
X9480000Y-8270000D01*
X9480000Y-12230000D02*
X9520000Y-12270000D01*
X9520000Y-12230000D02*
X9480000Y-12270000D01*
X9573969Y-5613969D02*
X9613969Y-5653969D01*
X9613969Y-5613969D02*
X9573969Y-5653969D01*
X9580000Y-4720000D02*
X9620000Y-4760000D01*
X9620000Y-4720000D02*
X9580000Y-4760000D01*
X9580000Y-6580000D02*
X9620000Y-6620000D01*
X9620000Y-6580000D02*
X9580000Y-6620000D01*
X9730000Y-4230000D02*
X9770000Y-4270000D01*
X9770000Y-4230000D02*
X9730000Y-4270000D01*
X9730000Y-7980000D02*
X9770000Y-8020000D01*
X9770000Y-7980000D02*
X9730000Y-8020000D01*
X9730000Y-8230000D02*
X9770000Y-8270000D01*
X9770000Y-8230000D02*
X9730000Y-8270000D01*
X9730000Y-12230000D02*
X9770000Y-12270000D01*
X9770000Y-12230000D02*
X9730000Y-12270000D01*
X9740000Y-5780000D02*
X9780000Y-5820000D01*
X9780000Y-5780000D02*
X9740000Y-5820000D01*
X9817500Y-6517500D02*
X9857500Y-6557500D01*
X9857500Y-6517500D02*
X9817500Y-6557500D01*
X9820000Y-7800000D02*
X9860000Y-7840000D01*
X9860000Y-7800000D02*
X9820000Y-7840000D01*
X9940000Y-4954950D02*
X9980000Y-4994950D01*
X9980000Y-4954950D02*
X9940000Y-4994950D01*
X9980000Y-4230000D02*
X10020000Y-4270000D01*
X10020000Y-4230000D02*
X9980000Y-4270000D01*
X9980000Y-12230000D02*
X10020000Y-12270000D01*
X10020000Y-12230000D02*
X9980000Y-12270000D01*
X10000000Y-6280000D02*
X10040000Y-6320000D01*
X10040000Y-6280000D02*
X10000000Y-6320000D01*
X10220000Y-4940000D02*
X10260000Y-4980000D01*
X10260000Y-4940000D02*
X10220000Y-4980000D01*
X10230000Y-4230000D02*
X10270000Y-4270000D01*
X10270000Y-4230000D02*
X10230000Y-4270000D01*
X10230000Y-12230000D02*
X10270000Y-12270000D01*
X10270000Y-12230000D02*
X10230000Y-12270000D01*
X10470000Y-4940000D02*
X10510000Y-4980000D01*
X10510000Y-4940000D02*
X10470000Y-4980000D01*
X10480000Y-4230000D02*
X10520000Y-4270000D01*
X10520000Y-4230000D02*
X10480000Y-4270000D01*
X10480000Y-12230000D02*
X10520000Y-12270000D01*
X10520000Y-12230000D02*
X10480000Y-12270000D01*
X10500000Y-5720000D02*
X10540000Y-5760000D01*
X10540000Y-5720000D02*
X10500000Y-5760000D01*
X10720000Y-4940000D02*
X10760000Y-4980000D01*
X10760000Y-4940000D02*
X10720000Y-4980000D01*
X10720000Y-6820000D02*
X10760000Y-6860000D01*
X10760000Y-6820000D02*
X10720000Y-6860000D01*
X10730000Y-4230000D02*
X10770000Y-4270000D01*
X10770000Y-4230000D02*
X10730000Y-4270000D01*
X10730000Y-12230000D02*
X10770000Y-12270000D01*
X10770000Y-12230000D02*
X10730000Y-12270000D01*
X10750000Y-5720000D02*
X10790000Y-5760000D01*
X10790000Y-5720000D02*
X10750000Y-5760000D01*
X10760000Y-5500000D02*
X10800000Y-5540000D01*
X10800000Y-5500000D02*
X10760000Y-5540000D01*
X10940050Y-5240000D02*
X10980050Y-5280000D01*
X10980050Y-5240000D02*
X10940050Y-5280000D01*
X10980000Y-4230000D02*
X11020000Y-4270000D01*
X11020000Y-4230000D02*
X10980000Y-4270000D01*
X10980000Y-12230000D02*
X11020000Y-12270000D01*
X11020000Y-12230000D02*
X10980000Y-12270000D01*
X11020000Y-8460000D02*
X11060000Y-8500000D01*
X11060000Y-8460000D02*
X11020000Y-8500000D01*
X11074500Y-10660000D02*
X11114500Y-10700000D01*
X11114500Y-10660000D02*
X11074500Y-10700000D01*
X11230000Y-4230000D02*
X11270000Y-4270000D01*
X11270000Y-4230000D02*
X11230000Y-4270000D01*
X11230000Y-12230000D02*
X11270000Y-12270000D01*
X11270000Y-12230000D02*
X11230000Y-12270000D01*
X11280000Y-8960000D02*
X11320000Y-9000000D01*
X11320000Y-8960000D02*
X11280000Y-9000000D01*
X11470000Y-5500000D02*
X11510000Y-5540000D01*
X11510000Y-5500000D02*
X11470000Y-5540000D01*
X11480000Y-4230000D02*
X11520000Y-4270000D01*
X11520000Y-4230000D02*
X11480000Y-4270000D01*
X11480000Y-5730000D02*
X11520000Y-5770000D01*
X11520000Y-5730000D02*
X11480000Y-5770000D01*
X11480000Y-5980000D02*
X11520000Y-6020000D01*
X11520000Y-5980000D02*
X11480000Y-6020000D01*
X11480000Y-6230000D02*
X11520000Y-6270000D01*
X11520000Y-6230000D02*
X11480000Y-6270000D01*
X11480000Y-12230000D02*
X11520000Y-12270000D01*
X11520000Y-12230000D02*
X11480000Y-12270000D01*
X11720000Y-5500000D02*
X11760000Y-5540000D01*
X11760000Y-5500000D02*
X11720000Y-5540000D01*
X11730000Y-4230000D02*
X11770000Y-4270000D01*
X11770000Y-4230000D02*
X11730000Y-4270000D01*
X11730000Y-5730000D02*
X11770000Y-5770000D01*
X11770000Y-5730000D02*
X11730000Y-5770000D01*
X11730000Y-5980000D02*
X11770000Y-6020000D01*
X11770000Y-5980000D02*
X11730000Y-6020000D01*
X11730000Y-6230000D02*
X11770000Y-6270000D01*
X11770000Y-6230000D02*
X11730000Y-6270000D01*
X11730000Y-12230000D02*
X11770000Y-12270000D01*
X11770000Y-12230000D02*
X11730000Y-12270000D01*
X11977890Y-6227167D02*
X12017890Y-6267167D01*
X12017890Y-6227167D02*
X11977890Y-6267167D01*
X11980000Y-4230000D02*
X12020000Y-4270000D01*
X12020000Y-4230000D02*
X11980000Y-4270000D01*
X11980000Y-5980000D02*
X12020000Y-6020000D01*
X12020000Y-5980000D02*
X11980000Y-6020000D01*
X11980000Y-6730000D02*
X12020000Y-6770000D01*
X12020000Y-6730000D02*
X11980000Y-6770000D01*
X11980000Y-7230000D02*
X12020000Y-7270000D01*
X12020000Y-7230000D02*
X11980000Y-7270000D01*
X11980000Y-7730000D02*
X12020000Y-7770000D01*
X12020000Y-7730000D02*
X11980000Y-7770000D01*
X11980000Y-8230000D02*
X12020000Y-8270000D01*
X12020000Y-8230000D02*
X11980000Y-8270000D01*
X11980000Y-8730000D02*
X12020000Y-8770000D01*
X12020000Y-8730000D02*
X11980000Y-8770000D01*
X11980000Y-9230000D02*
X12020000Y-9270000D01*
X12020000Y-9230000D02*
X11980000Y-9270000D01*
X11980000Y-9730000D02*
X12020000Y-9770000D01*
X12020000Y-9730000D02*
X11980000Y-9770000D01*
X11980000Y-10230000D02*
X12020000Y-10270000D01*
X12020000Y-10230000D02*
X11980000Y-10270000D01*
X11980000Y-10730000D02*
X12020000Y-10770000D01*
X12020000Y-10730000D02*
X11980000Y-10770000D01*
X11980000Y-11230000D02*
X12020000Y-11270000D01*
X12020000Y-11230000D02*
X11980000Y-11270000D01*
X11980000Y-12230000D02*
X12020000Y-12270000D01*
X12020000Y-12230000D02*
X11980000Y-12270000D01*
X12020000Y-5500000D02*
X12060000Y-5540000D01*
X12060000Y-5500000D02*
X12020000Y-5540000D01*
X12020000Y-5660000D02*
X12060000Y-5700000D01*
X12060000Y-5660000D02*
X12020000Y-5700000D01*
X12230000Y-4230000D02*
X12270000Y-4270000D01*
X12270000Y-4230000D02*
X12230000Y-4270000D01*
X12230000Y-12230000D02*
X12270000Y-12270000D01*
X12270000Y-12230000D02*
X12230000Y-12270000D01*
X12480000Y-4230000D02*
X12520000Y-4270000D01*
X12520000Y-4230000D02*
X12480000Y-4270000D01*
X12480000Y-6730000D02*
X12520000Y-6770000D01*
X12520000Y-6730000D02*
X12480000Y-6770000D01*
X12480000Y-7230000D02*
X12520000Y-7270000D01*
X12520000Y-7230000D02*
X12480000Y-7270000D01*
X12480000Y-7730000D02*
X12520000Y-7770000D01*
X12520000Y-7730000D02*
X12480000Y-7770000D01*
X12480000Y-8230000D02*
X12520000Y-8270000D01*
X12520000Y-8230000D02*
X12480000Y-8270000D01*
X12480000Y-8730000D02*
X12520000Y-8770000D01*
X12520000Y-8730000D02*
X12480000Y-8770000D01*
X12480000Y-9230000D02*
X12520000Y-9270000D01*
X12520000Y-9230000D02*
X12480000Y-9270000D01*
X12480000Y-9730000D02*
X12520000Y-9770000D01*
X12520000Y-9730000D02*
X12480000Y-9770000D01*
X12480000Y-10230000D02*
X12520000Y-10270000D01*
X12520000Y-10230000D02*
X12480000Y-10270000D01*
X12480000Y-10730000D02*
X12520000Y-10770000D01*
X12520000Y-10730000D02*
X12480000Y-10770000D01*
X12480000Y-11230000D02*
X12520000Y-11270000D01*
X12520000Y-11230000D02*
X12480000Y-11270000D01*
X12730000Y-4230000D02*
X12770000Y-4270000D01*
X12770000Y-4230000D02*
X12730000Y-4270000D01*
X12980000Y-4230000D02*
X13020000Y-4270000D01*
X13020000Y-4230000D02*
X12980000Y-4270000D01*
X12980000Y-6730000D02*
X13020000Y-6770000D01*
X13020000Y-6730000D02*
X12980000Y-6770000D01*
X12980000Y-7230000D02*
X13020000Y-7270000D01*
X13020000Y-7230000D02*
X12980000Y-7270000D01*
X12980000Y-7730000D02*
X13020000Y-7770000D01*
X13020000Y-7730000D02*
X12980000Y-7770000D01*
X12980000Y-8230000D02*
X13020000Y-8270000D01*
X13020000Y-8230000D02*
X12980000Y-8270000D01*
X12980000Y-8730000D02*
X13020000Y-8770000D01*
X13020000Y-8730000D02*
X12980000Y-8770000D01*
X12980000Y-9230000D02*
X13020000Y-9270000D01*
X13020000Y-9230000D02*
X12980000Y-9270000D01*
X12980000Y-9730000D02*
X13020000Y-9770000D01*
X13020000Y-9730000D02*
X12980000Y-9770000D01*
X12980000Y-10230000D02*
X13020000Y-10270000D01*
X13020000Y-10230000D02*
X12980000Y-10270000D01*
X12980000Y-10730000D02*
X13020000Y-10770000D01*
X13020000Y-10730000D02*
X12980000Y-10770000D01*
X12980000Y-11230000D02*
X13020000Y-11270000D01*
X13020000Y-11230000D02*
X12980000Y-11270000D01*
X13230000Y-4230000D02*
X13270000Y-4270000D01*
X13270000Y-4230000D02*
X13230000Y-4270000D01*
X13480000Y-4230000D02*
X13520000Y-4270000D01*
X13520000Y-4230000D02*
X13480000Y-4270000D01*
X13480000Y-6730000D02*
X13520000Y-6770000D01*
X13520000Y-6730000D02*
X13480000Y-6770000D01*
X13480000Y-7230000D02*
X13520000Y-7270000D01*
X13520000Y-7230000D02*
X13480000Y-7270000D01*
X13480000Y-7730000D02*
X13520000Y-7770000D01*
X13520000Y-7730000D02*
X13480000Y-7770000D01*
X13480000Y-8230000D02*
X13520000Y-8270000D01*
X13520000Y-8230000D02*
X13480000Y-8270000D01*
X13480000Y-8730000D02*
X13520000Y-8770000D01*
X13520000Y-8730000D02*
X13480000Y-8770000D01*
X13480000Y-9230000D02*
X13520000Y-9270000D01*
X13520000Y-9230000D02*
X13480000Y-9270000D01*
X13480000Y-9730000D02*
X13520000Y-9770000D01*
X13520000Y-9730000D02*
X13480000Y-9770000D01*
X13480000Y-10230000D02*
X13520000Y-10270000D01*
X13520000Y-10230000D02*
X13480000Y-10270000D01*
X13480000Y-10730000D02*
X13520000Y-10770000D01*
X13520000Y-10730000D02*
X13480000Y-10770000D01*
X13480000Y-11230000D02*
X13520000Y-11270000D01*
X13520000Y-11230000D02*
X13480000Y-11270000D01*
X13480000Y-12230000D02*
X13520000Y-12270000D01*
X13520000Y-12230000D02*
X13480000Y-12270000D01*
X13730000Y-4230000D02*
X13770000Y-4270000D01*
X13770000Y-4230000D02*
X13730000Y-4270000D01*
X13730000Y-12230000D02*
X13770000Y-12270000D01*
X13770000Y-12230000D02*
X13730000Y-12270000D01*
X13980000Y-4230000D02*
X14020000Y-4270000D01*
X14020000Y-4230000D02*
X13980000Y-4270000D01*
X13980000Y-6730000D02*
X14020000Y-6770000D01*
X14020000Y-6730000D02*
X13980000Y-6770000D01*
X13980000Y-7230000D02*
X14020000Y-7270000D01*
X14020000Y-7230000D02*
X13980000Y-7270000D01*
X13980000Y-7730000D02*
X14020000Y-7770000D01*
X14020000Y-7730000D02*
X13980000Y-7770000D01*
X13980000Y-8230000D02*
X14020000Y-8270000D01*
X14020000Y-8230000D02*
X13980000Y-8270000D01*
X13980000Y-8730000D02*
X14020000Y-8770000D01*
X14020000Y-8730000D02*
X13980000Y-8770000D01*
X13980000Y-9230000D02*
X14020000Y-9270000D01*
X14020000Y-9230000D02*
X13980000Y-9270000D01*
X13980000Y-9730000D02*
X14020000Y-9770000D01*
X14020000Y-9730000D02*
X13980000Y-9770000D01*
X13980000Y-10230000D02*
X14020000Y-10270000D01*
X14020000Y-10230000D02*
X13980000Y-10270000D01*
X13980000Y-10730000D02*
X14020000Y-10770000D01*
X14020000Y-10730000D02*
X13980000Y-10770000D01*
X13980000Y-11230000D02*
X14020000Y-11270000D01*
X14020000Y-11230000D02*
X13980000Y-11270000D01*
X13980000Y-12230000D02*
X14020000Y-12270000D01*
X14020000Y-12230000D02*
X13980000Y-12270000D01*
X14480000Y-4230000D02*
X14520000Y-4270000D01*
X14520000Y-4230000D02*
X14480000Y-4270000D01*
X14480000Y-12230000D02*
X14520000Y-12270000D01*
X14520000Y-12230000D02*
X14480000Y-12270000D01*
X14730000Y-4230000D02*
X14770000Y-4270000D01*
X14770000Y-4230000D02*
X14730000Y-4270000D01*
X15230000Y-4980000D02*
X15270000Y-5020000D01*
X15270000Y-4980000D02*
X15230000Y-5020000D01*
X15230000Y-5480000D02*
X15270000Y-5520000D01*
X15270000Y-5480000D02*
X15230000Y-5520000D01*
X15230000Y-6480000D02*
X15270000Y-6520000D01*
X15270000Y-6480000D02*
X15230000Y-6520000D01*
X15230000Y-6730000D02*
X15270000Y-6770000D01*
X15270000Y-6730000D02*
X15230000Y-6770000D01*
X15230000Y-6980000D02*
X15270000Y-7020000D01*
X15270000Y-6980000D02*
X15230000Y-7020000D01*
X15230000Y-7230000D02*
X15270000Y-7270000D01*
X15270000Y-7230000D02*
X15230000Y-7270000D01*
X15230000Y-7480000D02*
X15270000Y-7520000D01*
X15270000Y-7480000D02*
X15230000Y-7520000D01*
X15230000Y-7730000D02*
X15270000Y-7770000D01*
X15270000Y-7730000D02*
X15230000Y-7770000D01*
X15230000Y-8730000D02*
X15270000Y-8770000D01*
X15270000Y-8730000D02*
X15230000Y-8770000D01*
X15230000Y-8980000D02*
X15270000Y-9020000D01*
X15270000Y-8980000D02*
X15230000Y-9020000D01*
X15230000Y-9230000D02*
X15270000Y-9270000D01*
X15270000Y-9230000D02*
X15230000Y-9270000D01*
X15230000Y-9480000D02*
X15270000Y-9520000D01*
X15270000Y-9480000D02*
X15230000Y-9520000D01*
X15230000Y-9730000D02*
X15270000Y-9770000D01*
X15270000Y-9730000D02*
X15230000Y-9770000D01*
X15230000Y-9980000D02*
X15270000Y-10020000D01*
X15270000Y-9980000D02*
X15230000Y-10020000D01*
X15230000Y-10980000D02*
X15270000Y-11020000D01*
X15270000Y-10980000D02*
X15230000Y-11020000D01*
X15230000Y-11480000D02*
X15270000Y-11520000D01*
X15270000Y-11480000D02*
X15230000Y-11520000D01*
D13*
X4076000Y-6344750D02*
G75*
G03*
X4076000Y-6344750I-25000J0D01*
G01*
D11*
X4081000Y-6319750D02*
X4021000Y-6319750D01*
X4021000Y-6319750D02*
G75*
G03*
X4021000Y-6369750I0J-25000D01*
G01*
X4021000Y-6369750D02*
X4081000Y-6369750D01*
X4081000Y-6369750D02*
G75*
G03*
X4081000Y-6319750I0J25000D01*
G01*
D13*
X4076000Y-7242750D02*
G75*
G03*
X4076000Y-7242750I-25000J0D01*
G01*
D11*
X4081000Y-7217750D02*
X4021000Y-7217750D01*
X4021000Y-7217750D02*
G75*
G03*
X4021000Y-7267750I0J-25000D01*
G01*
X4021000Y-7267750D02*
X4081000Y-7267750D01*
X4081000Y-7267750D02*
G75*
G03*
X4081000Y-7217750I0J25000D01*
G01*
D13*
X4200000Y-4400000D02*
G75*
G03*
X4200000Y-4400000I-25000J0D01*
G01*
X4200000Y-12100000D02*
G75*
G03*
X4200000Y-12100000I-25000J0D01*
G01*
X4265901Y-4240901D02*
G75*
G03*
X4265901Y-4240901I-25000J0D01*
G01*
X4265901Y-4559099D02*
G75*
G03*
X4265901Y-4559099I-25000J0D01*
G01*
X4265901Y-11940901D02*
G75*
G03*
X4265901Y-11940901I-25000J0D01*
G01*
X4265901Y-12259099D02*
G75*
G03*
X4265901Y-12259099I-25000J0D01*
G01*
X4425000Y-4175000D02*
G75*
G03*
X4425000Y-4175000I-25000J0D01*
G01*
X4425000Y-4625000D02*
G75*
G03*
X4425000Y-4625000I-25000J0D01*
G01*
X4425000Y-11875000D02*
G75*
G03*
X4425000Y-11875000I-25000J0D01*
G01*
X4425000Y-12325000D02*
G75*
G03*
X4425000Y-12325000I-25000J0D01*
G01*
X4584099Y-4240901D02*
G75*
G03*
X4584099Y-4240901I-25000J0D01*
G01*
X4584099Y-4559099D02*
G75*
G03*
X4584099Y-4559099I-25000J0D01*
G01*
X4584099Y-11940901D02*
G75*
G03*
X4584099Y-11940901I-25000J0D01*
G01*
X4584099Y-12259099D02*
G75*
G03*
X4584099Y-12259099I-25000J0D01*
G01*
X4650000Y-4400000D02*
G75*
G03*
X4650000Y-4400000I-25000J0D01*
G01*
X4650000Y-12100000D02*
G75*
G03*
X4650000Y-12100000I-25000J0D01*
G01*
X4671000Y-6380750D02*
G75*
G03*
X4671000Y-6380750I-25000J0D01*
G01*
D11*
X4676000Y-6355750D02*
X4616000Y-6355750D01*
X4616000Y-6355750D02*
G75*
G03*
X4616000Y-6405750I0J-25000D01*
G01*
X4616000Y-6405750D02*
X4676000Y-6405750D01*
X4676000Y-6405750D02*
G75*
G03*
X4676000Y-6355750I0J25000D01*
G01*
D13*
X4671000Y-7206750D02*
G75*
G03*
X4671000Y-7206750I-25000J0D01*
G01*
D11*
X4676000Y-7181750D02*
X4616000Y-7181750D01*
X4616000Y-7181750D02*
G75*
G03*
X4616000Y-7231750I0J-25000D01*
G01*
X4616000Y-7231750D02*
X4676000Y-7231750D01*
X4676000Y-7231750D02*
G75*
G03*
X4676000Y-7181750I0J25000D01*
G01*
D13*
X15000000Y-4400000D02*
G75*
G03*
X15000000Y-4400000I-25000J0D01*
G01*
X15000000Y-12100000D02*
G75*
G03*
X15000000Y-12100000I-25000J0D01*
G01*
X15065901Y-4240901D02*
G75*
G03*
X15065901Y-4240901I-25000J0D01*
G01*
X15065901Y-4559099D02*
G75*
G03*
X15065901Y-4559099I-25000J0D01*
G01*
X15065901Y-11940901D02*
G75*
G03*
X15065901Y-11940901I-25000J0D01*
G01*
X15065901Y-12259099D02*
G75*
G03*
X15065901Y-12259099I-25000J0D01*
G01*
X15225000Y-4175000D02*
G75*
G03*
X15225000Y-4175000I-25000J0D01*
G01*
X15225000Y-4625000D02*
G75*
G03*
X15225000Y-4625000I-25000J0D01*
G01*
X15225000Y-11875000D02*
G75*
G03*
X15225000Y-11875000I-25000J0D01*
G01*
X15225000Y-12325000D02*
G75*
G03*
X15225000Y-12325000I-25000J0D01*
G01*
X15384099Y-4240901D02*
G75*
G03*
X15384099Y-4240901I-25000J0D01*
G01*
X15384099Y-4559099D02*
G75*
G03*
X15384099Y-4559099I-25000J0D01*
G01*
X15384099Y-11940901D02*
G75*
G03*
X15384099Y-11940901I-25000J0D01*
G01*
X15384099Y-12259099D02*
G75*
G03*
X15384099Y-12259099I-25000J0D01*
G01*
X15450000Y-4400000D02*
G75*
G03*
X15450000Y-4400000I-25000J0D01*
G01*
X15450000Y-12100000D02*
G75*
G03*
X15450000Y-12100000I-25000J0D01*
G01*
D14*
X5540000Y-4350000D02*
X5540000Y-4410000D01*
X5510000Y-4380000D02*
X5570000Y-4380000D01*
X7200000Y-12430000D02*
X7200000Y-12490000D01*
X7170000Y-12460000D02*
X7230000Y-12460000D01*
X11000000Y-4830000D02*
X11000000Y-4890000D01*
X10970000Y-4860000D02*
X11030000Y-4860000D01*
X11120000Y-5110000D02*
X11120000Y-5170000D01*
X11090000Y-5140000D02*
X11150000Y-5140000D01*
X11120000Y-6590000D02*
X11120000Y-6650000D01*
X11090000Y-6620000D02*
X11150000Y-6620000D01*
X11120000Y-9450000D02*
X11120000Y-9510000D01*
X11090000Y-9480000D02*
X11150000Y-9480000D01*
X12120000Y-5150000D02*
X12120000Y-5210000D01*
X12090000Y-5180000D02*
X12150000Y-5180000D01*
X12120000Y-5390000D02*
X12120000Y-5450000D01*
X12090000Y-5420000D02*
X12150000Y-5420000D01*
X12380000Y-10470000D02*
X12380000Y-10530000D01*
X12350000Y-10500000D02*
X12410000Y-10500000D01*
X12380000Y-12430000D02*
X12380000Y-12490000D01*
X12350000Y-12460000D02*
X12410000Y-12460000D01*
X12840000Y-5290000D02*
X12840000Y-5350000D01*
X12810000Y-5320000D02*
X12870000Y-5320000D01*
X13260000Y-10490000D02*
X13260000Y-10550000D01*
X13230000Y-10520000D02*
X13290000Y-10520000D01*
X14160000Y-4130000D02*
X14160000Y-4190000D01*
X14130000Y-4160000D02*
X14190000Y-4160000D01*
X15480000Y-6330000D02*
X15480000Y-6390000D01*
X15450000Y-6360000D02*
X15510000Y-6360000D01*
X15520000Y-10950000D02*
X15520000Y-11010000D01*
X15490000Y-10980000D02*
X15550000Y-10980000D01*
D10*
X4615356Y-8893356D02*
X4615356Y-8822644D01*
X4544644Y-8822644D01*
X4544644Y-8893356D01*
X4615356Y-8893356D01*
X4615356Y-9147356D02*
X4615356Y-9076644D01*
X4544644Y-9076644D01*
X4544644Y-9147356D01*
X4615356Y-9147356D01*
X4615356Y-9401356D02*
X4615356Y-9330644D01*
X4544644Y-9330644D01*
X4544644Y-9401356D01*
X4615356Y-9401356D01*
X4615356Y-9655356D02*
X4615356Y-9584644D01*
X4544644Y-9584644D01*
X4544644Y-9655356D01*
X4615356Y-9655356D01*
X4615356Y-10233356D02*
X4615356Y-10162644D01*
X4544644Y-10162644D01*
X4544644Y-10233356D01*
X4615356Y-10233356D01*
X4615356Y-10487356D02*
X4615356Y-10416644D01*
X4544644Y-10416644D01*
X4544644Y-10487356D01*
X4615356Y-10487356D01*
X4615356Y-10741356D02*
X4615356Y-10670644D01*
X4544644Y-10670644D01*
X4544644Y-10741356D01*
X4615356Y-10741356D01*
X4615356Y-10995356D02*
X4615356Y-10924644D01*
X4544644Y-10924644D01*
X4544644Y-10995356D01*
X4615356Y-10995356D01*
X7075356Y-4115356D02*
X7075356Y-4044644D01*
X7004644Y-4044644D01*
X7004644Y-4115356D01*
X7075356Y-4115356D01*
X7329356Y-4115356D02*
X7329356Y-4044644D01*
X7258644Y-4044644D01*
X7258644Y-4115356D01*
X7329356Y-4115356D01*
X12761356Y-12495356D02*
X12761356Y-12424644D01*
X12690644Y-12424644D01*
X12690644Y-12495356D01*
X12761356Y-12495356D01*
X13015356Y-12495356D02*
X13015356Y-12424644D01*
X12944644Y-12424644D01*
X12944644Y-12495356D01*
X13015356Y-12495356D01*
D15*
X4400000Y-4550000D02*
X4550000Y-4400000D01*
X4400000Y-4250000D01*
X4250000Y-4400000D01*
X4400000Y-4550000D01*
X4400000Y-12250000D02*
X4550000Y-12100000D01*
X4400000Y-11950000D01*
X4250000Y-12100000D01*
X4400000Y-12250000D01*
X15200000Y-4550000D02*
X15350000Y-4400000D01*
X15200000Y-4250000D01*
X15050000Y-4400000D01*
X15200000Y-4550000D01*
X15200000Y-12250000D02*
X15350000Y-12100000D01*
X15200000Y-11950000D01*
X15050000Y-12100000D01*
X15200000Y-12250000D01*
D11*
X4096172Y-12963970D02*
X4096172Y-12763970D01*
X4096172Y-12763970D02*
X4143791Y-12763970D01*
X4143791Y-12763970D02*
X4172363Y-12773494D01*
X4172363Y-12773494D02*
X4191410Y-12792542D01*
X4191410Y-12792542D02*
X4200934Y-12811589D01*
X4200934Y-12811589D02*
X4210458Y-12849685D01*
X4210458Y-12849685D02*
X4210458Y-12878256D01*
X4210458Y-12878256D02*
X4200934Y-12916351D01*
X4200934Y-12916351D02*
X4191410Y-12935399D01*
X4191410Y-12935399D02*
X4172363Y-12954447D01*
X4172363Y-12954447D02*
X4143791Y-12963970D01*
X4143791Y-12963970D02*
X4096172Y-12963970D01*
X4296172Y-12963970D02*
X4296172Y-12830637D01*
X4296172Y-12868732D02*
X4305696Y-12849685D01*
X4305696Y-12849685D02*
X4315220Y-12840161D01*
X4315220Y-12840161D02*
X4334268Y-12830637D01*
X4334268Y-12830637D02*
X4353315Y-12830637D01*
X4419982Y-12963970D02*
X4419982Y-12830637D01*
X4419982Y-12763970D02*
X4410458Y-12773494D01*
X4410458Y-12773494D02*
X4419982Y-12783018D01*
X4419982Y-12783018D02*
X4429506Y-12773494D01*
X4429506Y-12773494D02*
X4419982Y-12763970D01*
X4419982Y-12763970D02*
X4419982Y-12783018D01*
X4543791Y-12963970D02*
X4524744Y-12954447D01*
X4524744Y-12954447D02*
X4515220Y-12935399D01*
X4515220Y-12935399D02*
X4515220Y-12763970D01*
X4648553Y-12963970D02*
X4629506Y-12954447D01*
X4629506Y-12954447D02*
X4619982Y-12935399D01*
X4619982Y-12935399D02*
X4619982Y-12763970D01*
X4877125Y-12963970D02*
X4877125Y-12763970D01*
X4877125Y-12763970D02*
X4943792Y-12906827D01*
X4943792Y-12906827D02*
X5010458Y-12763970D01*
X5010458Y-12763970D02*
X5010458Y-12963970D01*
X5191411Y-12963970D02*
X5191411Y-12859208D01*
X5191411Y-12859208D02*
X5181887Y-12840161D01*
X5181887Y-12840161D02*
X5162839Y-12830637D01*
X5162839Y-12830637D02*
X5124744Y-12830637D01*
X5124744Y-12830637D02*
X5105696Y-12840161D01*
X5191411Y-12954447D02*
X5172363Y-12963970D01*
X5172363Y-12963970D02*
X5124744Y-12963970D01*
X5124744Y-12963970D02*
X5105696Y-12954447D01*
X5105696Y-12954447D02*
X5096172Y-12935399D01*
X5096172Y-12935399D02*
X5096172Y-12916351D01*
X5096172Y-12916351D02*
X5105696Y-12897304D01*
X5105696Y-12897304D02*
X5124744Y-12887780D01*
X5124744Y-12887780D02*
X5172363Y-12887780D01*
X5172363Y-12887780D02*
X5191411Y-12878256D01*
X5286649Y-12830637D02*
X5286649Y-13030637D01*
X5286649Y-12840161D02*
X5305696Y-12830637D01*
X5305696Y-12830637D02*
X5343792Y-12830637D01*
X5343792Y-12830637D02*
X5362839Y-12840161D01*
X5362839Y-12840161D02*
X5372363Y-12849685D01*
X5372363Y-12849685D02*
X5381887Y-12868732D01*
X5381887Y-12868732D02*
X5381887Y-12925875D01*
X5381887Y-12925875D02*
X5372363Y-12944923D01*
X5372363Y-12944923D02*
X5362839Y-12954447D01*
X5362839Y-12954447D02*
X5343792Y-12963970D01*
X5343792Y-12963970D02*
X5305696Y-12963970D01*
X5305696Y-12963970D02*
X5286649Y-12954447D01*
X5467601Y-12944923D02*
X5477125Y-12954447D01*
X5477125Y-12954447D02*
X5467601Y-12963970D01*
X5467601Y-12963970D02*
X5458077Y-12954447D01*
X5458077Y-12954447D02*
X5467601Y-12944923D01*
X5467601Y-12944923D02*
X5467601Y-12963970D01*
X5467601Y-12840161D02*
X5477125Y-12849685D01*
X5477125Y-12849685D02*
X5467601Y-12859208D01*
X5467601Y-12859208D02*
X5458077Y-12849685D01*
X5458077Y-12849685D02*
X5467601Y-12840161D01*
X5467601Y-12840161D02*
X5467601Y-12859208D01*
D12*
X3808553Y-13271447D02*
X3848553Y-13311447D01*
X3848553Y-13271447D02*
X3808553Y-13311447D01*
D11*
X4134268Y-13183970D02*
X4153315Y-13183970D01*
X4153315Y-13183970D02*
X4172363Y-13193494D01*
X4172363Y-13193494D02*
X4181887Y-13203018D01*
X4181887Y-13203018D02*
X4191410Y-13222066D01*
X4191410Y-13222066D02*
X4200934Y-13260161D01*
X4200934Y-13260161D02*
X4200934Y-13307780D01*
X4200934Y-13307780D02*
X4191410Y-13345875D01*
X4191410Y-13345875D02*
X4181887Y-13364923D01*
X4181887Y-13364923D02*
X4172363Y-13374447D01*
X4172363Y-13374447D02*
X4153315Y-13383970D01*
X4153315Y-13383970D02*
X4134268Y-13383970D01*
X4134268Y-13383970D02*
X4115220Y-13374447D01*
X4115220Y-13374447D02*
X4105696Y-13364923D01*
X4105696Y-13364923D02*
X4096172Y-13345875D01*
X4096172Y-13345875D02*
X4086649Y-13307780D01*
X4086649Y-13307780D02*
X4086649Y-13260161D01*
X4086649Y-13260161D02*
X4096172Y-13222066D01*
X4096172Y-13222066D02*
X4105696Y-13203018D01*
X4105696Y-13203018D02*
X4115220Y-13193494D01*
X4115220Y-13193494D02*
X4134268Y-13183970D01*
X4286649Y-13364923D02*
X4296172Y-13374447D01*
X4296172Y-13374447D02*
X4286649Y-13383970D01*
X4286649Y-13383970D02*
X4277125Y-13374447D01*
X4277125Y-13374447D02*
X4286649Y-13364923D01*
X4286649Y-13364923D02*
X4286649Y-13383970D01*
X4467601Y-13250637D02*
X4467601Y-13383970D01*
X4419982Y-13174447D02*
X4372363Y-13317304D01*
X4372363Y-13317304D02*
X4496172Y-13317304D01*
X4610458Y-13183970D02*
X4629506Y-13183970D01*
X4629506Y-13183970D02*
X4648553Y-13193494D01*
X4648553Y-13193494D02*
X4658077Y-13203018D01*
X4658077Y-13203018D02*
X4667601Y-13222066D01*
X4667601Y-13222066D02*
X4677125Y-13260161D01*
X4677125Y-13260161D02*
X4677125Y-13307780D01*
X4677125Y-13307780D02*
X4667601Y-13345875D01*
X4667601Y-13345875D02*
X4658077Y-13364923D01*
X4658077Y-13364923D02*
X4648553Y-13374447D01*
X4648553Y-13374447D02*
X4629506Y-13383970D01*
X4629506Y-13383970D02*
X4610458Y-13383970D01*
X4610458Y-13383970D02*
X4591411Y-13374447D01*
X4591411Y-13374447D02*
X4581887Y-13364923D01*
X4581887Y-13364923D02*
X4572363Y-13345875D01*
X4572363Y-13345875D02*
X4562839Y-13307780D01*
X4562839Y-13307780D02*
X4562839Y-13260161D01*
X4562839Y-13260161D02*
X4572363Y-13222066D01*
X4572363Y-13222066D02*
X4581887Y-13203018D01*
X4581887Y-13203018D02*
X4591411Y-13193494D01*
X4591411Y-13193494D02*
X4610458Y-13183970D01*
X4800934Y-13183970D02*
X4819982Y-13183970D01*
X4819982Y-13183970D02*
X4839030Y-13193494D01*
X4839030Y-13193494D02*
X4848553Y-13203018D01*
X4848553Y-13203018D02*
X4858077Y-13222066D01*
X4858077Y-13222066D02*
X4867601Y-13260161D01*
X4867601Y-13260161D02*
X4867601Y-13307780D01*
X4867601Y-13307780D02*
X4858077Y-13345875D01*
X4858077Y-13345875D02*
X4848553Y-13364923D01*
X4848553Y-13364923D02*
X4839030Y-13374447D01*
X4839030Y-13374447D02*
X4819982Y-13383970D01*
X4819982Y-13383970D02*
X4800934Y-13383970D01*
X4800934Y-13383970D02*
X4781887Y-13374447D01*
X4781887Y-13374447D02*
X4772363Y-13364923D01*
X4772363Y-13364923D02*
X4762839Y-13345875D01*
X4762839Y-13345875D02*
X4753315Y-13307780D01*
X4753315Y-13307780D02*
X4753315Y-13260161D01*
X4753315Y-13260161D02*
X4762839Y-13222066D01*
X4762839Y-13222066D02*
X4772363Y-13203018D01*
X4772363Y-13203018D02*
X4781887Y-13193494D01*
X4781887Y-13193494D02*
X4800934Y-13183970D01*
X4953315Y-13383970D02*
X4953315Y-13250637D01*
X4953315Y-13269685D02*
X4962839Y-13260161D01*
X4962839Y-13260161D02*
X4981887Y-13250637D01*
X4981887Y-13250637D02*
X5010458Y-13250637D01*
X5010458Y-13250637D02*
X5029506Y-13260161D01*
X5029506Y-13260161D02*
X5039030Y-13279208D01*
X5039030Y-13279208D02*
X5039030Y-13383970D01*
X5039030Y-13279208D02*
X5048553Y-13260161D01*
X5048553Y-13260161D02*
X5067601Y-13250637D01*
X5067601Y-13250637D02*
X5096172Y-13250637D01*
X5096172Y-13250637D02*
X5115220Y-13260161D01*
X5115220Y-13260161D02*
X5124744Y-13279208D01*
X5124744Y-13279208D02*
X5124744Y-13383970D01*
X5219982Y-13383970D02*
X5219982Y-13250637D01*
X5219982Y-13269685D02*
X5229506Y-13260161D01*
X5229506Y-13260161D02*
X5248553Y-13250637D01*
X5248553Y-13250637D02*
X5277125Y-13250637D01*
X5277125Y-13250637D02*
X5296173Y-13260161D01*
X5296173Y-13260161D02*
X5305696Y-13279208D01*
X5305696Y-13279208D02*
X5305696Y-13383970D01*
X5305696Y-13279208D02*
X5315220Y-13260161D01*
X5315220Y-13260161D02*
X5334268Y-13250637D01*
X5334268Y-13250637D02*
X5362839Y-13250637D01*
X5362839Y-13250637D02*
X5381887Y-13260161D01*
X5381887Y-13260161D02*
X5391411Y-13279208D01*
X5391411Y-13279208D02*
X5391411Y-13383970D01*
X5781887Y-13174447D02*
X5610458Y-13431589D01*
X6039030Y-13183970D02*
X6058077Y-13183970D01*
X6058077Y-13183970D02*
X6077125Y-13193494D01*
X6077125Y-13193494D02*
X6086649Y-13203018D01*
X6086649Y-13203018D02*
X6096173Y-13222066D01*
X6096173Y-13222066D02*
X6105696Y-13260161D01*
X6105696Y-13260161D02*
X6105696Y-13307780D01*
X6105696Y-13307780D02*
X6096173Y-13345875D01*
X6096173Y-13345875D02*
X6086649Y-13364923D01*
X6086649Y-13364923D02*
X6077125Y-13374447D01*
X6077125Y-13374447D02*
X6058077Y-13383970D01*
X6058077Y-13383970D02*
X6039030Y-13383970D01*
X6039030Y-13383970D02*
X6019982Y-13374447D01*
X6019982Y-13374447D02*
X6010458Y-13364923D01*
X6010458Y-13364923D02*
X6000934Y-13345875D01*
X6000934Y-13345875D02*
X5991411Y-13307780D01*
X5991411Y-13307780D02*
X5991411Y-13260161D01*
X5991411Y-13260161D02*
X6000934Y-13222066D01*
X6000934Y-13222066D02*
X6010458Y-13203018D01*
X6010458Y-13203018D02*
X6019982Y-13193494D01*
X6019982Y-13193494D02*
X6039030Y-13183970D01*
X6191411Y-13364923D02*
X6200934Y-13374447D01*
X6200934Y-13374447D02*
X6191411Y-13383970D01*
X6191411Y-13383970D02*
X6181887Y-13374447D01*
X6181887Y-13374447D02*
X6191411Y-13364923D01*
X6191411Y-13364923D02*
X6191411Y-13383970D01*
X6324744Y-13183970D02*
X6343792Y-13183970D01*
X6343792Y-13183970D02*
X6362839Y-13193494D01*
X6362839Y-13193494D02*
X6372363Y-13203018D01*
X6372363Y-13203018D02*
X6381887Y-13222066D01*
X6381887Y-13222066D02*
X6391411Y-13260161D01*
X6391411Y-13260161D02*
X6391411Y-13307780D01*
X6391411Y-13307780D02*
X6381887Y-13345875D01*
X6381887Y-13345875D02*
X6372363Y-13364923D01*
X6372363Y-13364923D02*
X6362839Y-13374447D01*
X6362839Y-13374447D02*
X6343792Y-13383970D01*
X6343792Y-13383970D02*
X6324744Y-13383970D01*
X6324744Y-13383970D02*
X6305696Y-13374447D01*
X6305696Y-13374447D02*
X6296173Y-13364923D01*
X6296173Y-13364923D02*
X6286649Y-13345875D01*
X6286649Y-13345875D02*
X6277125Y-13307780D01*
X6277125Y-13307780D02*
X6277125Y-13260161D01*
X6277125Y-13260161D02*
X6286649Y-13222066D01*
X6286649Y-13222066D02*
X6296173Y-13203018D01*
X6296173Y-13203018D02*
X6305696Y-13193494D01*
X6305696Y-13193494D02*
X6324744Y-13183970D01*
X6581887Y-13383970D02*
X6467601Y-13383970D01*
X6524744Y-13383970D02*
X6524744Y-13183970D01*
X6524744Y-13183970D02*
X6505696Y-13212542D01*
X6505696Y-13212542D02*
X6486649Y-13231589D01*
X6486649Y-13231589D02*
X6467601Y-13241113D01*
X6762839Y-13183970D02*
X6667601Y-13183970D01*
X6667601Y-13183970D02*
X6658077Y-13279208D01*
X6658077Y-13279208D02*
X6667601Y-13269685D01*
X6667601Y-13269685D02*
X6686649Y-13260161D01*
X6686649Y-13260161D02*
X6734268Y-13260161D01*
X6734268Y-13260161D02*
X6753315Y-13269685D01*
X6753315Y-13269685D02*
X6762839Y-13279208D01*
X6762839Y-13279208D02*
X6772363Y-13298256D01*
X6772363Y-13298256D02*
X6772363Y-13345875D01*
X6772363Y-13345875D02*
X6762839Y-13364923D01*
X6762839Y-13364923D02*
X6753315Y-13374447D01*
X6753315Y-13374447D02*
X6734268Y-13383970D01*
X6734268Y-13383970D02*
X6686649Y-13383970D01*
X6686649Y-13383970D02*
X6667601Y-13374447D01*
X6667601Y-13374447D02*
X6658077Y-13364923D01*
X6839030Y-13183970D02*
X6972363Y-13183970D01*
X6972363Y-13183970D02*
X6886649Y-13383970D01*
X7039030Y-13183970D02*
X7039030Y-13222066D01*
X7115220Y-13183970D02*
X7115220Y-13222066D01*
X7410458Y-13460161D02*
X7400935Y-13450637D01*
X7400935Y-13450637D02*
X7381887Y-13422066D01*
X7381887Y-13422066D02*
X7372363Y-13403018D01*
X7372363Y-13403018D02*
X7362839Y-13374447D01*
X7362839Y-13374447D02*
X7353316Y-13326827D01*
X7353316Y-13326827D02*
X7353316Y-13288732D01*
X7353316Y-13288732D02*
X7362839Y-13241113D01*
X7362839Y-13241113D02*
X7372363Y-13212542D01*
X7372363Y-13212542D02*
X7381887Y-13193494D01*
X7381887Y-13193494D02*
X7400935Y-13164923D01*
X7400935Y-13164923D02*
X7410458Y-13155399D01*
X7467601Y-13183970D02*
X7591411Y-13183970D01*
X7591411Y-13183970D02*
X7524744Y-13260161D01*
X7524744Y-13260161D02*
X7553316Y-13260161D01*
X7553316Y-13260161D02*
X7572363Y-13269685D01*
X7572363Y-13269685D02*
X7581887Y-13279208D01*
X7581887Y-13279208D02*
X7591411Y-13298256D01*
X7591411Y-13298256D02*
X7591411Y-13345875D01*
X7591411Y-13345875D02*
X7581887Y-13364923D01*
X7581887Y-13364923D02*
X7572363Y-13374447D01*
X7572363Y-13374447D02*
X7553316Y-13383970D01*
X7553316Y-13383970D02*
X7496173Y-13383970D01*
X7496173Y-13383970D02*
X7477125Y-13374447D01*
X7477125Y-13374447D02*
X7467601Y-13364923D01*
X7667601Y-13203018D02*
X7677125Y-13193494D01*
X7677125Y-13193494D02*
X7696173Y-13183970D01*
X7696173Y-13183970D02*
X7743792Y-13183970D01*
X7743792Y-13183970D02*
X7762839Y-13193494D01*
X7762839Y-13193494D02*
X7772363Y-13203018D01*
X7772363Y-13203018D02*
X7781887Y-13222066D01*
X7781887Y-13222066D02*
X7781887Y-13241113D01*
X7781887Y-13241113D02*
X7772363Y-13269685D01*
X7772363Y-13269685D02*
X7658077Y-13383970D01*
X7658077Y-13383970D02*
X7781887Y-13383970D01*
X7972363Y-13383970D02*
X7858077Y-13383970D01*
X7915220Y-13383970D02*
X7915220Y-13183970D01*
X7915220Y-13183970D02*
X7896173Y-13212542D01*
X7896173Y-13212542D02*
X7877125Y-13231589D01*
X7877125Y-13231589D02*
X7858077Y-13241113D01*
X8210458Y-13383970D02*
X8210458Y-13183970D01*
X8296173Y-13383970D02*
X8296173Y-13279208D01*
X8296173Y-13279208D02*
X8286649Y-13260161D01*
X8286649Y-13260161D02*
X8267601Y-13250637D01*
X8267601Y-13250637D02*
X8239030Y-13250637D01*
X8239030Y-13250637D02*
X8219982Y-13260161D01*
X8219982Y-13260161D02*
X8210458Y-13269685D01*
X8419982Y-13383970D02*
X8400935Y-13374447D01*
X8400935Y-13374447D02*
X8391411Y-13364923D01*
X8391411Y-13364923D02*
X8381887Y-13345875D01*
X8381887Y-13345875D02*
X8381887Y-13288732D01*
X8381887Y-13288732D02*
X8391411Y-13269685D01*
X8391411Y-13269685D02*
X8400935Y-13260161D01*
X8400935Y-13260161D02*
X8419982Y-13250637D01*
X8419982Y-13250637D02*
X8448554Y-13250637D01*
X8448554Y-13250637D02*
X8467601Y-13260161D01*
X8467601Y-13260161D02*
X8477125Y-13269685D01*
X8477125Y-13269685D02*
X8486649Y-13288732D01*
X8486649Y-13288732D02*
X8486649Y-13345875D01*
X8486649Y-13345875D02*
X8477125Y-13364923D01*
X8477125Y-13364923D02*
X8467601Y-13374447D01*
X8467601Y-13374447D02*
X8448554Y-13383970D01*
X8448554Y-13383970D02*
X8419982Y-13383970D01*
X8600935Y-13383970D02*
X8581887Y-13374447D01*
X8581887Y-13374447D02*
X8572363Y-13355399D01*
X8572363Y-13355399D02*
X8572363Y-13183970D01*
X8753316Y-13374447D02*
X8734268Y-13383970D01*
X8734268Y-13383970D02*
X8696173Y-13383970D01*
X8696173Y-13383970D02*
X8677125Y-13374447D01*
X8677125Y-13374447D02*
X8667601Y-13355399D01*
X8667601Y-13355399D02*
X8667601Y-13279208D01*
X8667601Y-13279208D02*
X8677125Y-13260161D01*
X8677125Y-13260161D02*
X8696173Y-13250637D01*
X8696173Y-13250637D02*
X8734268Y-13250637D01*
X8734268Y-13250637D02*
X8753316Y-13260161D01*
X8753316Y-13260161D02*
X8762840Y-13279208D01*
X8762840Y-13279208D02*
X8762840Y-13298256D01*
X8762840Y-13298256D02*
X8667601Y-13317304D01*
X8839030Y-13374447D02*
X8858078Y-13383970D01*
X8858078Y-13383970D02*
X8896173Y-13383970D01*
X8896173Y-13383970D02*
X8915221Y-13374447D01*
X8915221Y-13374447D02*
X8924744Y-13355399D01*
X8924744Y-13355399D02*
X8924744Y-13345875D01*
X8924744Y-13345875D02*
X8915221Y-13326827D01*
X8915221Y-13326827D02*
X8896173Y-13317304D01*
X8896173Y-13317304D02*
X8867601Y-13317304D01*
X8867601Y-13317304D02*
X8848554Y-13307780D01*
X8848554Y-13307780D02*
X8839030Y-13288732D01*
X8839030Y-13288732D02*
X8839030Y-13279208D01*
X8839030Y-13279208D02*
X8848554Y-13260161D01*
X8848554Y-13260161D02*
X8867601Y-13250637D01*
X8867601Y-13250637D02*
X8896173Y-13250637D01*
X8896173Y-13250637D02*
X8915221Y-13260161D01*
X8991411Y-13460161D02*
X9000935Y-13450637D01*
X9000935Y-13450637D02*
X9019982Y-13422066D01*
X9019982Y-13422066D02*
X9029506Y-13403018D01*
X9029506Y-13403018D02*
X9039030Y-13374447D01*
X9039030Y-13374447D02*
X9048554Y-13326827D01*
X9048554Y-13326827D02*
X9048554Y-13288732D01*
X9048554Y-13288732D02*
X9039030Y-13241113D01*
X9039030Y-13241113D02*
X9029506Y-13212542D01*
X9029506Y-13212542D02*
X9019982Y-13193494D01*
X9019982Y-13193494D02*
X9000935Y-13164923D01*
X9000935Y-13164923D02*
X8991411Y-13155399D01*
D13*
X3848553Y-13555447D02*
G75*
G03*
X3848553Y-13555447I-25000J0D01*
G01*
D11*
X4134268Y-13447970D02*
X4153315Y-13447970D01*
X4153315Y-13447970D02*
X4172363Y-13457494D01*
X4172363Y-13457494D02*
X4181887Y-13467018D01*
X4181887Y-13467018D02*
X4191410Y-13486066D01*
X4191410Y-13486066D02*
X4200934Y-13524161D01*
X4200934Y-13524161D02*
X4200934Y-13571780D01*
X4200934Y-13571780D02*
X4191410Y-13609875D01*
X4191410Y-13609875D02*
X4181887Y-13628923D01*
X4181887Y-13628923D02*
X4172363Y-13638447D01*
X4172363Y-13638447D02*
X4153315Y-13647970D01*
X4153315Y-13647970D02*
X4134268Y-13647970D01*
X4134268Y-13647970D02*
X4115220Y-13638447D01*
X4115220Y-13638447D02*
X4105696Y-13628923D01*
X4105696Y-13628923D02*
X4096172Y-13609875D01*
X4096172Y-13609875D02*
X4086649Y-13571780D01*
X4086649Y-13571780D02*
X4086649Y-13524161D01*
X4086649Y-13524161D02*
X4096172Y-13486066D01*
X4096172Y-13486066D02*
X4105696Y-13467018D01*
X4105696Y-13467018D02*
X4115220Y-13457494D01*
X4115220Y-13457494D02*
X4134268Y-13447970D01*
X4286649Y-13628923D02*
X4296172Y-13638447D01*
X4296172Y-13638447D02*
X4286649Y-13647970D01*
X4286649Y-13647970D02*
X4277125Y-13638447D01*
X4277125Y-13638447D02*
X4286649Y-13628923D01*
X4286649Y-13628923D02*
X4286649Y-13647970D01*
X4477125Y-13447970D02*
X4381887Y-13447970D01*
X4381887Y-13447970D02*
X4372363Y-13543208D01*
X4372363Y-13543208D02*
X4381887Y-13533685D01*
X4381887Y-13533685D02*
X4400934Y-13524161D01*
X4400934Y-13524161D02*
X4448553Y-13524161D01*
X4448553Y-13524161D02*
X4467601Y-13533685D01*
X4467601Y-13533685D02*
X4477125Y-13543208D01*
X4477125Y-13543208D02*
X4486649Y-13562256D01*
X4486649Y-13562256D02*
X4486649Y-13609875D01*
X4486649Y-13609875D02*
X4477125Y-13628923D01*
X4477125Y-13628923D02*
X4467601Y-13638447D01*
X4467601Y-13638447D02*
X4448553Y-13647970D01*
X4448553Y-13647970D02*
X4400934Y-13647970D01*
X4400934Y-13647970D02*
X4381887Y-13638447D01*
X4381887Y-13638447D02*
X4372363Y-13628923D01*
X4610458Y-13447970D02*
X4629506Y-13447970D01*
X4629506Y-13447970D02*
X4648553Y-13457494D01*
X4648553Y-13457494D02*
X4658077Y-13467018D01*
X4658077Y-13467018D02*
X4667601Y-13486066D01*
X4667601Y-13486066D02*
X4677125Y-13524161D01*
X4677125Y-13524161D02*
X4677125Y-13571780D01*
X4677125Y-13571780D02*
X4667601Y-13609875D01*
X4667601Y-13609875D02*
X4658077Y-13628923D01*
X4658077Y-13628923D02*
X4648553Y-13638447D01*
X4648553Y-13638447D02*
X4629506Y-13647970D01*
X4629506Y-13647970D02*
X4610458Y-13647970D01*
X4610458Y-13647970D02*
X4591411Y-13638447D01*
X4591411Y-13638447D02*
X4581887Y-13628923D01*
X4581887Y-13628923D02*
X4572363Y-13609875D01*
X4572363Y-13609875D02*
X4562839Y-13571780D01*
X4562839Y-13571780D02*
X4562839Y-13524161D01*
X4562839Y-13524161D02*
X4572363Y-13486066D01*
X4572363Y-13486066D02*
X4581887Y-13467018D01*
X4581887Y-13467018D02*
X4591411Y-13457494D01*
X4591411Y-13457494D02*
X4610458Y-13447970D01*
X4800934Y-13447970D02*
X4819982Y-13447970D01*
X4819982Y-13447970D02*
X4839030Y-13457494D01*
X4839030Y-13457494D02*
X4848553Y-13467018D01*
X4848553Y-13467018D02*
X4858077Y-13486066D01*
X4858077Y-13486066D02*
X4867601Y-13524161D01*
X4867601Y-13524161D02*
X4867601Y-13571780D01*
X4867601Y-13571780D02*
X4858077Y-13609875D01*
X4858077Y-13609875D02*
X4848553Y-13628923D01*
X4848553Y-13628923D02*
X4839030Y-13638447D01*
X4839030Y-13638447D02*
X4819982Y-13647970D01*
X4819982Y-13647970D02*
X4800934Y-13647970D01*
X4800934Y-13647970D02*
X4781887Y-13638447D01*
X4781887Y-13638447D02*
X4772363Y-13628923D01*
X4772363Y-13628923D02*
X4762839Y-13609875D01*
X4762839Y-13609875D02*
X4753315Y-13571780D01*
X4753315Y-13571780D02*
X4753315Y-13524161D01*
X4753315Y-13524161D02*
X4762839Y-13486066D01*
X4762839Y-13486066D02*
X4772363Y-13467018D01*
X4772363Y-13467018D02*
X4781887Y-13457494D01*
X4781887Y-13457494D02*
X4800934Y-13447970D01*
X4953315Y-13647970D02*
X4953315Y-13514637D01*
X4953315Y-13533685D02*
X4962839Y-13524161D01*
X4962839Y-13524161D02*
X4981887Y-13514637D01*
X4981887Y-13514637D02*
X5010458Y-13514637D01*
X5010458Y-13514637D02*
X5029506Y-13524161D01*
X5029506Y-13524161D02*
X5039030Y-13543208D01*
X5039030Y-13543208D02*
X5039030Y-13647970D01*
X5039030Y-13543208D02*
X5048553Y-13524161D01*
X5048553Y-13524161D02*
X5067601Y-13514637D01*
X5067601Y-13514637D02*
X5096172Y-13514637D01*
X5096172Y-13514637D02*
X5115220Y-13524161D01*
X5115220Y-13524161D02*
X5124744Y-13543208D01*
X5124744Y-13543208D02*
X5124744Y-13647970D01*
X5219982Y-13647970D02*
X5219982Y-13514637D01*
X5219982Y-13533685D02*
X5229506Y-13524161D01*
X5229506Y-13524161D02*
X5248553Y-13514637D01*
X5248553Y-13514637D02*
X5277125Y-13514637D01*
X5277125Y-13514637D02*
X5296173Y-13524161D01*
X5296173Y-13524161D02*
X5305696Y-13543208D01*
X5305696Y-13543208D02*
X5305696Y-13647970D01*
X5305696Y-13543208D02*
X5315220Y-13524161D01*
X5315220Y-13524161D02*
X5334268Y-13514637D01*
X5334268Y-13514637D02*
X5362839Y-13514637D01*
X5362839Y-13514637D02*
X5381887Y-13524161D01*
X5381887Y-13524161D02*
X5391411Y-13543208D01*
X5391411Y-13543208D02*
X5391411Y-13647970D01*
X5781887Y-13438447D02*
X5610458Y-13695589D01*
X6039030Y-13447970D02*
X6058077Y-13447970D01*
X6058077Y-13447970D02*
X6077125Y-13457494D01*
X6077125Y-13457494D02*
X6086649Y-13467018D01*
X6086649Y-13467018D02*
X6096173Y-13486066D01*
X6096173Y-13486066D02*
X6105696Y-13524161D01*
X6105696Y-13524161D02*
X6105696Y-13571780D01*
X6105696Y-13571780D02*
X6096173Y-13609875D01*
X6096173Y-13609875D02*
X6086649Y-13628923D01*
X6086649Y-13628923D02*
X6077125Y-13638447D01*
X6077125Y-13638447D02*
X6058077Y-13647970D01*
X6058077Y-13647970D02*
X6039030Y-13647970D01*
X6039030Y-13647970D02*
X6019982Y-13638447D01*
X6019982Y-13638447D02*
X6010458Y-13628923D01*
X6010458Y-13628923D02*
X6000934Y-13609875D01*
X6000934Y-13609875D02*
X5991411Y-13571780D01*
X5991411Y-13571780D02*
X5991411Y-13524161D01*
X5991411Y-13524161D02*
X6000934Y-13486066D01*
X6000934Y-13486066D02*
X6010458Y-13467018D01*
X6010458Y-13467018D02*
X6019982Y-13457494D01*
X6019982Y-13457494D02*
X6039030Y-13447970D01*
X6191411Y-13628923D02*
X6200934Y-13638447D01*
X6200934Y-13638447D02*
X6191411Y-13647970D01*
X6191411Y-13647970D02*
X6181887Y-13638447D01*
X6181887Y-13638447D02*
X6191411Y-13628923D01*
X6191411Y-13628923D02*
X6191411Y-13647970D01*
X6324744Y-13447970D02*
X6343792Y-13447970D01*
X6343792Y-13447970D02*
X6362839Y-13457494D01*
X6362839Y-13457494D02*
X6372363Y-13467018D01*
X6372363Y-13467018D02*
X6381887Y-13486066D01*
X6381887Y-13486066D02*
X6391411Y-13524161D01*
X6391411Y-13524161D02*
X6391411Y-13571780D01*
X6391411Y-13571780D02*
X6381887Y-13609875D01*
X6381887Y-13609875D02*
X6372363Y-13628923D01*
X6372363Y-13628923D02*
X6362839Y-13638447D01*
X6362839Y-13638447D02*
X6343792Y-13647970D01*
X6343792Y-13647970D02*
X6324744Y-13647970D01*
X6324744Y-13647970D02*
X6305696Y-13638447D01*
X6305696Y-13638447D02*
X6296173Y-13628923D01*
X6296173Y-13628923D02*
X6286649Y-13609875D01*
X6286649Y-13609875D02*
X6277125Y-13571780D01*
X6277125Y-13571780D02*
X6277125Y-13524161D01*
X6277125Y-13524161D02*
X6286649Y-13486066D01*
X6286649Y-13486066D02*
X6296173Y-13467018D01*
X6296173Y-13467018D02*
X6305696Y-13457494D01*
X6305696Y-13457494D02*
X6324744Y-13447970D01*
X6581887Y-13647970D02*
X6467601Y-13647970D01*
X6524744Y-13647970D02*
X6524744Y-13447970D01*
X6524744Y-13447970D02*
X6505696Y-13476542D01*
X6505696Y-13476542D02*
X6486649Y-13495589D01*
X6486649Y-13495589D02*
X6467601Y-13505113D01*
X6677125Y-13647970D02*
X6715220Y-13647970D01*
X6715220Y-13647970D02*
X6734268Y-13638447D01*
X6734268Y-13638447D02*
X6743792Y-13628923D01*
X6743792Y-13628923D02*
X6762839Y-13600351D01*
X6762839Y-13600351D02*
X6772363Y-13562256D01*
X6772363Y-13562256D02*
X6772363Y-13486066D01*
X6772363Y-13486066D02*
X6762839Y-13467018D01*
X6762839Y-13467018D02*
X6753315Y-13457494D01*
X6753315Y-13457494D02*
X6734268Y-13447970D01*
X6734268Y-13447970D02*
X6696173Y-13447970D01*
X6696173Y-13447970D02*
X6677125Y-13457494D01*
X6677125Y-13457494D02*
X6667601Y-13467018D01*
X6667601Y-13467018D02*
X6658077Y-13486066D01*
X6658077Y-13486066D02*
X6658077Y-13533685D01*
X6658077Y-13533685D02*
X6667601Y-13552732D01*
X6667601Y-13552732D02*
X6677125Y-13562256D01*
X6677125Y-13562256D02*
X6696173Y-13571780D01*
X6696173Y-13571780D02*
X6734268Y-13571780D01*
X6734268Y-13571780D02*
X6753315Y-13562256D01*
X6753315Y-13562256D02*
X6762839Y-13552732D01*
X6762839Y-13552732D02*
X6772363Y-13533685D01*
X6839030Y-13447970D02*
X6972363Y-13447970D01*
X6972363Y-13447970D02*
X6886649Y-13647970D01*
X7039030Y-13447970D02*
X7039030Y-13486066D01*
X7115220Y-13447970D02*
X7115220Y-13486066D01*
X7410458Y-13724161D02*
X7400935Y-13714637D01*
X7400935Y-13714637D02*
X7381887Y-13686066D01*
X7381887Y-13686066D02*
X7372363Y-13667018D01*
X7372363Y-13667018D02*
X7362839Y-13638447D01*
X7362839Y-13638447D02*
X7353316Y-13590827D01*
X7353316Y-13590827D02*
X7353316Y-13552732D01*
X7353316Y-13552732D02*
X7362839Y-13505113D01*
X7362839Y-13505113D02*
X7372363Y-13476542D01*
X7372363Y-13476542D02*
X7381887Y-13457494D01*
X7381887Y-13457494D02*
X7400935Y-13428923D01*
X7400935Y-13428923D02*
X7410458Y-13419399D01*
X7467601Y-13447970D02*
X7591411Y-13447970D01*
X7591411Y-13447970D02*
X7524744Y-13524161D01*
X7524744Y-13524161D02*
X7553316Y-13524161D01*
X7553316Y-13524161D02*
X7572363Y-13533685D01*
X7572363Y-13533685D02*
X7581887Y-13543208D01*
X7581887Y-13543208D02*
X7591411Y-13562256D01*
X7591411Y-13562256D02*
X7591411Y-13609875D01*
X7591411Y-13609875D02*
X7581887Y-13628923D01*
X7581887Y-13628923D02*
X7572363Y-13638447D01*
X7572363Y-13638447D02*
X7553316Y-13647970D01*
X7553316Y-13647970D02*
X7496173Y-13647970D01*
X7496173Y-13647970D02*
X7477125Y-13638447D01*
X7477125Y-13638447D02*
X7467601Y-13628923D01*
X7667601Y-13467018D02*
X7677125Y-13457494D01*
X7677125Y-13457494D02*
X7696173Y-13447970D01*
X7696173Y-13447970D02*
X7743792Y-13447970D01*
X7743792Y-13447970D02*
X7762839Y-13457494D01*
X7762839Y-13457494D02*
X7772363Y-13467018D01*
X7772363Y-13467018D02*
X7781887Y-13486066D01*
X7781887Y-13486066D02*
X7781887Y-13505113D01*
X7781887Y-13505113D02*
X7772363Y-13533685D01*
X7772363Y-13533685D02*
X7658077Y-13647970D01*
X7658077Y-13647970D02*
X7781887Y-13647970D01*
X8019982Y-13647970D02*
X8019982Y-13447970D01*
X8105697Y-13647970D02*
X8105697Y-13543208D01*
X8105697Y-13543208D02*
X8096173Y-13524161D01*
X8096173Y-13524161D02*
X8077125Y-13514637D01*
X8077125Y-13514637D02*
X8048554Y-13514637D01*
X8048554Y-13514637D02*
X8029506Y-13524161D01*
X8029506Y-13524161D02*
X8019982Y-13533685D01*
X8229506Y-13647970D02*
X8210458Y-13638447D01*
X8210458Y-13638447D02*
X8200935Y-13628923D01*
X8200935Y-13628923D02*
X8191411Y-13609875D01*
X8191411Y-13609875D02*
X8191411Y-13552732D01*
X8191411Y-13552732D02*
X8200935Y-13533685D01*
X8200935Y-13533685D02*
X8210458Y-13524161D01*
X8210458Y-13524161D02*
X8229506Y-13514637D01*
X8229506Y-13514637D02*
X8258078Y-13514637D01*
X8258078Y-13514637D02*
X8277125Y-13524161D01*
X8277125Y-13524161D02*
X8286649Y-13533685D01*
X8286649Y-13533685D02*
X8296173Y-13552732D01*
X8296173Y-13552732D02*
X8296173Y-13609875D01*
X8296173Y-13609875D02*
X8286649Y-13628923D01*
X8286649Y-13628923D02*
X8277125Y-13638447D01*
X8277125Y-13638447D02*
X8258078Y-13647970D01*
X8258078Y-13647970D02*
X8229506Y-13647970D01*
X8410459Y-13647970D02*
X8391411Y-13638447D01*
X8391411Y-13638447D02*
X8381887Y-13619399D01*
X8381887Y-13619399D02*
X8381887Y-13447970D01*
X8562840Y-13638447D02*
X8543792Y-13647970D01*
X8543792Y-13647970D02*
X8505697Y-13647970D01*
X8505697Y-13647970D02*
X8486649Y-13638447D01*
X8486649Y-13638447D02*
X8477125Y-13619399D01*
X8477125Y-13619399D02*
X8477125Y-13543208D01*
X8477125Y-13543208D02*
X8486649Y-13524161D01*
X8486649Y-13524161D02*
X8505697Y-13514637D01*
X8505697Y-13514637D02*
X8543792Y-13514637D01*
X8543792Y-13514637D02*
X8562840Y-13524161D01*
X8562840Y-13524161D02*
X8572363Y-13543208D01*
X8572363Y-13543208D02*
X8572363Y-13562256D01*
X8572363Y-13562256D02*
X8477125Y-13581304D01*
X8648554Y-13638447D02*
X8667601Y-13647970D01*
X8667601Y-13647970D02*
X8705697Y-13647970D01*
X8705697Y-13647970D02*
X8724744Y-13638447D01*
X8724744Y-13638447D02*
X8734268Y-13619399D01*
X8734268Y-13619399D02*
X8734268Y-13609875D01*
X8734268Y-13609875D02*
X8724744Y-13590827D01*
X8724744Y-13590827D02*
X8705697Y-13581304D01*
X8705697Y-13581304D02*
X8677125Y-13581304D01*
X8677125Y-13581304D02*
X8658078Y-13571780D01*
X8658078Y-13571780D02*
X8648554Y-13552732D01*
X8648554Y-13552732D02*
X8648554Y-13543208D01*
X8648554Y-13543208D02*
X8658078Y-13524161D01*
X8658078Y-13524161D02*
X8677125Y-13514637D01*
X8677125Y-13514637D02*
X8705697Y-13514637D01*
X8705697Y-13514637D02*
X8724744Y-13524161D01*
X8972363Y-13571780D02*
X9124744Y-13571780D01*
X9048554Y-13647970D02*
X9048554Y-13495589D01*
X9458078Y-13514637D02*
X9458078Y-13647970D01*
X9410459Y-13438447D02*
X9362840Y-13581304D01*
X9362840Y-13581304D02*
X9486649Y-13581304D01*
X9705697Y-13638447D02*
X9724744Y-13647970D01*
X9724744Y-13647970D02*
X9762840Y-13647970D01*
X9762840Y-13647970D02*
X9781887Y-13638447D01*
X9781887Y-13638447D02*
X9791411Y-13619399D01*
X9791411Y-13619399D02*
X9791411Y-13609875D01*
X9791411Y-13609875D02*
X9781887Y-13590827D01*
X9781887Y-13590827D02*
X9762840Y-13581304D01*
X9762840Y-13581304D02*
X9734268Y-13581304D01*
X9734268Y-13581304D02*
X9715221Y-13571780D01*
X9715221Y-13571780D02*
X9705697Y-13552732D01*
X9705697Y-13552732D02*
X9705697Y-13543208D01*
X9705697Y-13543208D02*
X9715221Y-13524161D01*
X9715221Y-13524161D02*
X9734268Y-13514637D01*
X9734268Y-13514637D02*
X9762840Y-13514637D01*
X9762840Y-13514637D02*
X9781887Y-13524161D01*
X9905697Y-13647970D02*
X9886649Y-13638447D01*
X9886649Y-13638447D02*
X9877125Y-13619399D01*
X9877125Y-13619399D02*
X9877125Y-13447970D01*
X10010459Y-13647970D02*
X9991411Y-13638447D01*
X9991411Y-13638447D02*
X9981887Y-13628923D01*
X9981887Y-13628923D02*
X9972364Y-13609875D01*
X9972364Y-13609875D02*
X9972364Y-13552732D01*
X9972364Y-13552732D02*
X9981887Y-13533685D01*
X9981887Y-13533685D02*
X9991411Y-13524161D01*
X9991411Y-13524161D02*
X10010459Y-13514637D01*
X10010459Y-13514637D02*
X10039030Y-13514637D01*
X10039030Y-13514637D02*
X10058078Y-13524161D01*
X10058078Y-13524161D02*
X10067602Y-13533685D01*
X10067602Y-13533685D02*
X10077125Y-13552732D01*
X10077125Y-13552732D02*
X10077125Y-13609875D01*
X10077125Y-13609875D02*
X10067602Y-13628923D01*
X10067602Y-13628923D02*
X10058078Y-13638447D01*
X10058078Y-13638447D02*
X10039030Y-13647970D01*
X10039030Y-13647970D02*
X10010459Y-13647970D01*
X10134268Y-13514637D02*
X10210459Y-13514637D01*
X10162840Y-13447970D02*
X10162840Y-13619399D01*
X10162840Y-13619399D02*
X10172364Y-13638447D01*
X10172364Y-13638447D02*
X10191411Y-13647970D01*
X10191411Y-13647970D02*
X10210459Y-13647970D01*
X10267602Y-13638447D02*
X10286649Y-13647970D01*
X10286649Y-13647970D02*
X10324744Y-13647970D01*
X10324744Y-13647970D02*
X10343792Y-13638447D01*
X10343792Y-13638447D02*
X10353316Y-13619399D01*
X10353316Y-13619399D02*
X10353316Y-13609875D01*
X10353316Y-13609875D02*
X10343792Y-13590827D01*
X10343792Y-13590827D02*
X10324744Y-13581304D01*
X10324744Y-13581304D02*
X10296173Y-13581304D01*
X10296173Y-13581304D02*
X10277125Y-13571780D01*
X10277125Y-13571780D02*
X10267602Y-13552732D01*
X10267602Y-13552732D02*
X10267602Y-13543208D01*
X10267602Y-13543208D02*
X10277125Y-13524161D01*
X10277125Y-13524161D02*
X10296173Y-13514637D01*
X10296173Y-13514637D02*
X10324744Y-13514637D01*
X10324744Y-13514637D02*
X10343792Y-13524161D01*
X10419983Y-13724161D02*
X10429506Y-13714637D01*
X10429506Y-13714637D02*
X10448554Y-13686066D01*
X10448554Y-13686066D02*
X10458078Y-13667018D01*
X10458078Y-13667018D02*
X10467602Y-13638447D01*
X10467602Y-13638447D02*
X10477125Y-13590827D01*
X10477125Y-13590827D02*
X10477125Y-13552732D01*
X10477125Y-13552732D02*
X10467602Y-13505113D01*
X10467602Y-13505113D02*
X10458078Y-13476542D01*
X10458078Y-13476542D02*
X10448554Y-13457494D01*
X10448554Y-13457494D02*
X10429506Y-13428923D01*
X10429506Y-13428923D02*
X10419983Y-13419399D01*
D14*
X3818553Y-13789447D02*
X3818553Y-13849447D01*
X3788553Y-13819447D02*
X3848553Y-13819447D01*
D11*
X4134268Y-13711970D02*
X4153315Y-13711970D01*
X4153315Y-13711970D02*
X4172363Y-13721494D01*
X4172363Y-13721494D02*
X4181887Y-13731018D01*
X4181887Y-13731018D02*
X4191410Y-13750066D01*
X4191410Y-13750066D02*
X4200934Y-13788161D01*
X4200934Y-13788161D02*
X4200934Y-13835780D01*
X4200934Y-13835780D02*
X4191410Y-13873875D01*
X4191410Y-13873875D02*
X4181887Y-13892923D01*
X4181887Y-13892923D02*
X4172363Y-13902447D01*
X4172363Y-13902447D02*
X4153315Y-13911970D01*
X4153315Y-13911970D02*
X4134268Y-13911970D01*
X4134268Y-13911970D02*
X4115220Y-13902447D01*
X4115220Y-13902447D02*
X4105696Y-13892923D01*
X4105696Y-13892923D02*
X4096172Y-13873875D01*
X4096172Y-13873875D02*
X4086649Y-13835780D01*
X4086649Y-13835780D02*
X4086649Y-13788161D01*
X4086649Y-13788161D02*
X4096172Y-13750066D01*
X4096172Y-13750066D02*
X4105696Y-13731018D01*
X4105696Y-13731018D02*
X4115220Y-13721494D01*
X4115220Y-13721494D02*
X4134268Y-13711970D01*
X4286649Y-13892923D02*
X4296172Y-13902447D01*
X4296172Y-13902447D02*
X4286649Y-13911970D01*
X4286649Y-13911970D02*
X4277125Y-13902447D01*
X4277125Y-13902447D02*
X4286649Y-13892923D01*
X4286649Y-13892923D02*
X4286649Y-13911970D01*
X4467601Y-13711970D02*
X4429506Y-13711970D01*
X4429506Y-13711970D02*
X4410458Y-13721494D01*
X4410458Y-13721494D02*
X4400934Y-13731018D01*
X4400934Y-13731018D02*
X4381887Y-13759589D01*
X4381887Y-13759589D02*
X4372363Y-13797685D01*
X4372363Y-13797685D02*
X4372363Y-13873875D01*
X4372363Y-13873875D02*
X4381887Y-13892923D01*
X4381887Y-13892923D02*
X4391411Y-13902447D01*
X4391411Y-13902447D02*
X4410458Y-13911970D01*
X4410458Y-13911970D02*
X4448553Y-13911970D01*
X4448553Y-13911970D02*
X4467601Y-13902447D01*
X4467601Y-13902447D02*
X4477125Y-13892923D01*
X4477125Y-13892923D02*
X4486649Y-13873875D01*
X4486649Y-13873875D02*
X4486649Y-13826256D01*
X4486649Y-13826256D02*
X4477125Y-13807208D01*
X4477125Y-13807208D02*
X4467601Y-13797685D01*
X4467601Y-13797685D02*
X4448553Y-13788161D01*
X4448553Y-13788161D02*
X4410458Y-13788161D01*
X4410458Y-13788161D02*
X4391411Y-13797685D01*
X4391411Y-13797685D02*
X4381887Y-13807208D01*
X4381887Y-13807208D02*
X4372363Y-13826256D01*
X4610458Y-13711970D02*
X4629506Y-13711970D01*
X4629506Y-13711970D02*
X4648553Y-13721494D01*
X4648553Y-13721494D02*
X4658077Y-13731018D01*
X4658077Y-13731018D02*
X4667601Y-13750066D01*
X4667601Y-13750066D02*
X4677125Y-13788161D01*
X4677125Y-13788161D02*
X4677125Y-13835780D01*
X4677125Y-13835780D02*
X4667601Y-13873875D01*
X4667601Y-13873875D02*
X4658077Y-13892923D01*
X4658077Y-13892923D02*
X4648553Y-13902447D01*
X4648553Y-13902447D02*
X4629506Y-13911970D01*
X4629506Y-13911970D02*
X4610458Y-13911970D01*
X4610458Y-13911970D02*
X4591411Y-13902447D01*
X4591411Y-13902447D02*
X4581887Y-13892923D01*
X4581887Y-13892923D02*
X4572363Y-13873875D01*
X4572363Y-13873875D02*
X4562839Y-13835780D01*
X4562839Y-13835780D02*
X4562839Y-13788161D01*
X4562839Y-13788161D02*
X4572363Y-13750066D01*
X4572363Y-13750066D02*
X4581887Y-13731018D01*
X4581887Y-13731018D02*
X4591411Y-13721494D01*
X4591411Y-13721494D02*
X4610458Y-13711970D01*
X4800934Y-13711970D02*
X4819982Y-13711970D01*
X4819982Y-13711970D02*
X4839030Y-13721494D01*
X4839030Y-13721494D02*
X4848553Y-13731018D01*
X4848553Y-13731018D02*
X4858077Y-13750066D01*
X4858077Y-13750066D02*
X4867601Y-13788161D01*
X4867601Y-13788161D02*
X4867601Y-13835780D01*
X4867601Y-13835780D02*
X4858077Y-13873875D01*
X4858077Y-13873875D02*
X4848553Y-13892923D01*
X4848553Y-13892923D02*
X4839030Y-13902447D01*
X4839030Y-13902447D02*
X4819982Y-13911970D01*
X4819982Y-13911970D02*
X4800934Y-13911970D01*
X4800934Y-13911970D02*
X4781887Y-13902447D01*
X4781887Y-13902447D02*
X4772363Y-13892923D01*
X4772363Y-13892923D02*
X4762839Y-13873875D01*
X4762839Y-13873875D02*
X4753315Y-13835780D01*
X4753315Y-13835780D02*
X4753315Y-13788161D01*
X4753315Y-13788161D02*
X4762839Y-13750066D01*
X4762839Y-13750066D02*
X4772363Y-13731018D01*
X4772363Y-13731018D02*
X4781887Y-13721494D01*
X4781887Y-13721494D02*
X4800934Y-13711970D01*
X4953315Y-13911970D02*
X4953315Y-13778637D01*
X4953315Y-13797685D02*
X4962839Y-13788161D01*
X4962839Y-13788161D02*
X4981887Y-13778637D01*
X4981887Y-13778637D02*
X5010458Y-13778637D01*
X5010458Y-13778637D02*
X5029506Y-13788161D01*
X5029506Y-13788161D02*
X5039030Y-13807208D01*
X5039030Y-13807208D02*
X5039030Y-13911970D01*
X5039030Y-13807208D02*
X5048553Y-13788161D01*
X5048553Y-13788161D02*
X5067601Y-13778637D01*
X5067601Y-13778637D02*
X5096172Y-13778637D01*
X5096172Y-13778637D02*
X5115220Y-13788161D01*
X5115220Y-13788161D02*
X5124744Y-13807208D01*
X5124744Y-13807208D02*
X5124744Y-13911970D01*
X5219982Y-13911970D02*
X5219982Y-13778637D01*
X5219982Y-13797685D02*
X5229506Y-13788161D01*
X5229506Y-13788161D02*
X5248553Y-13778637D01*
X5248553Y-13778637D02*
X5277125Y-13778637D01*
X5277125Y-13778637D02*
X5296173Y-13788161D01*
X5296173Y-13788161D02*
X5305696Y-13807208D01*
X5305696Y-13807208D02*
X5305696Y-13911970D01*
X5305696Y-13807208D02*
X5315220Y-13788161D01*
X5315220Y-13788161D02*
X5334268Y-13778637D01*
X5334268Y-13778637D02*
X5362839Y-13778637D01*
X5362839Y-13778637D02*
X5381887Y-13788161D01*
X5381887Y-13788161D02*
X5391411Y-13807208D01*
X5391411Y-13807208D02*
X5391411Y-13911970D01*
X5781887Y-13702447D02*
X5610458Y-13959589D01*
X6039030Y-13711970D02*
X6058077Y-13711970D01*
X6058077Y-13711970D02*
X6077125Y-13721494D01*
X6077125Y-13721494D02*
X6086649Y-13731018D01*
X6086649Y-13731018D02*
X6096173Y-13750066D01*
X6096173Y-13750066D02*
X6105696Y-13788161D01*
X6105696Y-13788161D02*
X6105696Y-13835780D01*
X6105696Y-13835780D02*
X6096173Y-13873875D01*
X6096173Y-13873875D02*
X6086649Y-13892923D01*
X6086649Y-13892923D02*
X6077125Y-13902447D01*
X6077125Y-13902447D02*
X6058077Y-13911970D01*
X6058077Y-13911970D02*
X6039030Y-13911970D01*
X6039030Y-13911970D02*
X6019982Y-13902447D01*
X6019982Y-13902447D02*
X6010458Y-13892923D01*
X6010458Y-13892923D02*
X6000934Y-13873875D01*
X6000934Y-13873875D02*
X5991411Y-13835780D01*
X5991411Y-13835780D02*
X5991411Y-13788161D01*
X5991411Y-13788161D02*
X6000934Y-13750066D01*
X6000934Y-13750066D02*
X6010458Y-13731018D01*
X6010458Y-13731018D02*
X6019982Y-13721494D01*
X6019982Y-13721494D02*
X6039030Y-13711970D01*
X6191411Y-13892923D02*
X6200934Y-13902447D01*
X6200934Y-13902447D02*
X6191411Y-13911970D01*
X6191411Y-13911970D02*
X6181887Y-13902447D01*
X6181887Y-13902447D02*
X6191411Y-13892923D01*
X6191411Y-13892923D02*
X6191411Y-13911970D01*
X6324744Y-13711970D02*
X6343792Y-13711970D01*
X6343792Y-13711970D02*
X6362839Y-13721494D01*
X6362839Y-13721494D02*
X6372363Y-13731018D01*
X6372363Y-13731018D02*
X6381887Y-13750066D01*
X6381887Y-13750066D02*
X6391411Y-13788161D01*
X6391411Y-13788161D02*
X6391411Y-13835780D01*
X6391411Y-13835780D02*
X6381887Y-13873875D01*
X6381887Y-13873875D02*
X6372363Y-13892923D01*
X6372363Y-13892923D02*
X6362839Y-13902447D01*
X6362839Y-13902447D02*
X6343792Y-13911970D01*
X6343792Y-13911970D02*
X6324744Y-13911970D01*
X6324744Y-13911970D02*
X6305696Y-13902447D01*
X6305696Y-13902447D02*
X6296173Y-13892923D01*
X6296173Y-13892923D02*
X6286649Y-13873875D01*
X6286649Y-13873875D02*
X6277125Y-13835780D01*
X6277125Y-13835780D02*
X6277125Y-13788161D01*
X6277125Y-13788161D02*
X6286649Y-13750066D01*
X6286649Y-13750066D02*
X6296173Y-13731018D01*
X6296173Y-13731018D02*
X6305696Y-13721494D01*
X6305696Y-13721494D02*
X6324744Y-13711970D01*
X6467601Y-13731018D02*
X6477125Y-13721494D01*
X6477125Y-13721494D02*
X6496173Y-13711970D01*
X6496173Y-13711970D02*
X6543792Y-13711970D01*
X6543792Y-13711970D02*
X6562839Y-13721494D01*
X6562839Y-13721494D02*
X6572363Y-13731018D01*
X6572363Y-13731018D02*
X6581887Y-13750066D01*
X6581887Y-13750066D02*
X6581887Y-13769113D01*
X6581887Y-13769113D02*
X6572363Y-13797685D01*
X6572363Y-13797685D02*
X6458077Y-13911970D01*
X6458077Y-13911970D02*
X6581887Y-13911970D01*
X6648554Y-13711970D02*
X6772363Y-13711970D01*
X6772363Y-13711970D02*
X6705696Y-13788161D01*
X6705696Y-13788161D02*
X6734268Y-13788161D01*
X6734268Y-13788161D02*
X6753315Y-13797685D01*
X6753315Y-13797685D02*
X6762839Y-13807208D01*
X6762839Y-13807208D02*
X6772363Y-13826256D01*
X6772363Y-13826256D02*
X6772363Y-13873875D01*
X6772363Y-13873875D02*
X6762839Y-13892923D01*
X6762839Y-13892923D02*
X6753315Y-13902447D01*
X6753315Y-13902447D02*
X6734268Y-13911970D01*
X6734268Y-13911970D02*
X6677125Y-13911970D01*
X6677125Y-13911970D02*
X6658077Y-13902447D01*
X6658077Y-13902447D02*
X6648554Y-13892923D01*
X6943792Y-13711970D02*
X6905696Y-13711970D01*
X6905696Y-13711970D02*
X6886649Y-13721494D01*
X6886649Y-13721494D02*
X6877125Y-13731018D01*
X6877125Y-13731018D02*
X6858077Y-13759589D01*
X6858077Y-13759589D02*
X6848554Y-13797685D01*
X6848554Y-13797685D02*
X6848554Y-13873875D01*
X6848554Y-13873875D02*
X6858077Y-13892923D01*
X6858077Y-13892923D02*
X6867601Y-13902447D01*
X6867601Y-13902447D02*
X6886649Y-13911970D01*
X6886649Y-13911970D02*
X6924744Y-13911970D01*
X6924744Y-13911970D02*
X6943792Y-13902447D01*
X6943792Y-13902447D02*
X6953315Y-13892923D01*
X6953315Y-13892923D02*
X6962839Y-13873875D01*
X6962839Y-13873875D02*
X6962839Y-13826256D01*
X6962839Y-13826256D02*
X6953315Y-13807208D01*
X6953315Y-13807208D02*
X6943792Y-13797685D01*
X6943792Y-13797685D02*
X6924744Y-13788161D01*
X6924744Y-13788161D02*
X6886649Y-13788161D01*
X6886649Y-13788161D02*
X6867601Y-13797685D01*
X6867601Y-13797685D02*
X6858077Y-13807208D01*
X6858077Y-13807208D02*
X6848554Y-13826256D01*
X7039030Y-13711970D02*
X7039030Y-13750066D01*
X7115220Y-13711970D02*
X7115220Y-13750066D01*
X7410458Y-13988161D02*
X7400935Y-13978637D01*
X7400935Y-13978637D02*
X7381887Y-13950066D01*
X7381887Y-13950066D02*
X7372363Y-13931018D01*
X7372363Y-13931018D02*
X7362839Y-13902447D01*
X7362839Y-13902447D02*
X7353316Y-13854827D01*
X7353316Y-13854827D02*
X7353316Y-13816732D01*
X7353316Y-13816732D02*
X7362839Y-13769113D01*
X7362839Y-13769113D02*
X7372363Y-13740542D01*
X7372363Y-13740542D02*
X7381887Y-13721494D01*
X7381887Y-13721494D02*
X7400935Y-13692923D01*
X7400935Y-13692923D02*
X7410458Y-13683399D01*
X7591411Y-13911970D02*
X7477125Y-13911970D01*
X7534268Y-13911970D02*
X7534268Y-13711970D01*
X7534268Y-13711970D02*
X7515220Y-13740542D01*
X7515220Y-13740542D02*
X7496173Y-13759589D01*
X7496173Y-13759589D02*
X7477125Y-13769113D01*
X7772363Y-13711970D02*
X7677125Y-13711970D01*
X7677125Y-13711970D02*
X7667601Y-13807208D01*
X7667601Y-13807208D02*
X7677125Y-13797685D01*
X7677125Y-13797685D02*
X7696173Y-13788161D01*
X7696173Y-13788161D02*
X7743792Y-13788161D01*
X7743792Y-13788161D02*
X7762839Y-13797685D01*
X7762839Y-13797685D02*
X7772363Y-13807208D01*
X7772363Y-13807208D02*
X7781887Y-13826256D01*
X7781887Y-13826256D02*
X7781887Y-13873875D01*
X7781887Y-13873875D02*
X7772363Y-13892923D01*
X7772363Y-13892923D02*
X7762839Y-13902447D01*
X7762839Y-13902447D02*
X7743792Y-13911970D01*
X7743792Y-13911970D02*
X7696173Y-13911970D01*
X7696173Y-13911970D02*
X7677125Y-13902447D01*
X7677125Y-13902447D02*
X7667601Y-13892923D01*
X8019982Y-13911970D02*
X8019982Y-13711970D01*
X8105697Y-13911970D02*
X8105697Y-13807208D01*
X8105697Y-13807208D02*
X8096173Y-13788161D01*
X8096173Y-13788161D02*
X8077125Y-13778637D01*
X8077125Y-13778637D02*
X8048554Y-13778637D01*
X8048554Y-13778637D02*
X8029506Y-13788161D01*
X8029506Y-13788161D02*
X8019982Y-13797685D01*
X8229506Y-13911970D02*
X8210458Y-13902447D01*
X8210458Y-13902447D02*
X8200935Y-13892923D01*
X8200935Y-13892923D02*
X8191411Y-13873875D01*
X8191411Y-13873875D02*
X8191411Y-13816732D01*
X8191411Y-13816732D02*
X8200935Y-13797685D01*
X8200935Y-13797685D02*
X8210458Y-13788161D01*
X8210458Y-13788161D02*
X8229506Y-13778637D01*
X8229506Y-13778637D02*
X8258078Y-13778637D01*
X8258078Y-13778637D02*
X8277125Y-13788161D01*
X8277125Y-13788161D02*
X8286649Y-13797685D01*
X8286649Y-13797685D02*
X8296173Y-13816732D01*
X8296173Y-13816732D02*
X8296173Y-13873875D01*
X8296173Y-13873875D02*
X8286649Y-13892923D01*
X8286649Y-13892923D02*
X8277125Y-13902447D01*
X8277125Y-13902447D02*
X8258078Y-13911970D01*
X8258078Y-13911970D02*
X8229506Y-13911970D01*
X8410459Y-13911970D02*
X8391411Y-13902447D01*
X8391411Y-13902447D02*
X8381887Y-13883399D01*
X8381887Y-13883399D02*
X8381887Y-13711970D01*
X8562840Y-13902447D02*
X8543792Y-13911970D01*
X8543792Y-13911970D02*
X8505697Y-13911970D01*
X8505697Y-13911970D02*
X8486649Y-13902447D01*
X8486649Y-13902447D02*
X8477125Y-13883399D01*
X8477125Y-13883399D02*
X8477125Y-13807208D01*
X8477125Y-13807208D02*
X8486649Y-13788161D01*
X8486649Y-13788161D02*
X8505697Y-13778637D01*
X8505697Y-13778637D02*
X8543792Y-13778637D01*
X8543792Y-13778637D02*
X8562840Y-13788161D01*
X8562840Y-13788161D02*
X8572363Y-13807208D01*
X8572363Y-13807208D02*
X8572363Y-13826256D01*
X8572363Y-13826256D02*
X8477125Y-13845304D01*
X8648554Y-13902447D02*
X8667601Y-13911970D01*
X8667601Y-13911970D02*
X8705697Y-13911970D01*
X8705697Y-13911970D02*
X8724744Y-13902447D01*
X8724744Y-13902447D02*
X8734268Y-13883399D01*
X8734268Y-13883399D02*
X8734268Y-13873875D01*
X8734268Y-13873875D02*
X8724744Y-13854827D01*
X8724744Y-13854827D02*
X8705697Y-13845304D01*
X8705697Y-13845304D02*
X8677125Y-13845304D01*
X8677125Y-13845304D02*
X8658078Y-13835780D01*
X8658078Y-13835780D02*
X8648554Y-13816732D01*
X8648554Y-13816732D02*
X8648554Y-13807208D01*
X8648554Y-13807208D02*
X8658078Y-13788161D01*
X8658078Y-13788161D02*
X8677125Y-13778637D01*
X8677125Y-13778637D02*
X8705697Y-13778637D01*
X8705697Y-13778637D02*
X8724744Y-13788161D01*
X8800935Y-13988161D02*
X8810459Y-13978637D01*
X8810459Y-13978637D02*
X8829506Y-13950066D01*
X8829506Y-13950066D02*
X8839030Y-13931018D01*
X8839030Y-13931018D02*
X8848554Y-13902447D01*
X8848554Y-13902447D02*
X8858078Y-13854827D01*
X8858078Y-13854827D02*
X8858078Y-13816732D01*
X8858078Y-13816732D02*
X8848554Y-13769113D01*
X8848554Y-13769113D02*
X8839030Y-13740542D01*
X8839030Y-13740542D02*
X8829506Y-13721494D01*
X8829506Y-13721494D02*
X8810459Y-13692923D01*
X8810459Y-13692923D02*
X8800935Y-13683399D01*
D10*
X3833909Y-14118802D02*
X3833909Y-14048091D01*
X3763198Y-14048091D01*
X3763198Y-14118802D01*
X3833909Y-14118802D01*
D11*
X4200934Y-14175970D02*
X4086649Y-14175970D01*
X4143791Y-14175970D02*
X4143791Y-13975970D01*
X4143791Y-13975970D02*
X4124744Y-14004542D01*
X4124744Y-14004542D02*
X4105696Y-14023589D01*
X4105696Y-14023589D02*
X4086649Y-14033113D01*
X4286649Y-14156923D02*
X4296172Y-14166447D01*
X4296172Y-14166447D02*
X4286649Y-14175970D01*
X4286649Y-14175970D02*
X4277125Y-14166447D01*
X4277125Y-14166447D02*
X4286649Y-14156923D01*
X4286649Y-14156923D02*
X4286649Y-14175970D01*
X4419982Y-13975970D02*
X4439030Y-13975970D01*
X4439030Y-13975970D02*
X4458077Y-13985494D01*
X4458077Y-13985494D02*
X4467601Y-13995018D01*
X4467601Y-13995018D02*
X4477125Y-14014066D01*
X4477125Y-14014066D02*
X4486649Y-14052161D01*
X4486649Y-14052161D02*
X4486649Y-14099780D01*
X4486649Y-14099780D02*
X4477125Y-14137875D01*
X4477125Y-14137875D02*
X4467601Y-14156923D01*
X4467601Y-14156923D02*
X4458077Y-14166447D01*
X4458077Y-14166447D02*
X4439030Y-14175970D01*
X4439030Y-14175970D02*
X4419982Y-14175970D01*
X4419982Y-14175970D02*
X4400934Y-14166447D01*
X4400934Y-14166447D02*
X4391411Y-14156923D01*
X4391411Y-14156923D02*
X4381887Y-14137875D01*
X4381887Y-14137875D02*
X4372363Y-14099780D01*
X4372363Y-14099780D02*
X4372363Y-14052161D01*
X4372363Y-14052161D02*
X4381887Y-14014066D01*
X4381887Y-14014066D02*
X4391411Y-13995018D01*
X4391411Y-13995018D02*
X4400934Y-13985494D01*
X4400934Y-13985494D02*
X4419982Y-13975970D01*
X4610458Y-13975970D02*
X4629506Y-13975970D01*
X4629506Y-13975970D02*
X4648553Y-13985494D01*
X4648553Y-13985494D02*
X4658077Y-13995018D01*
X4658077Y-13995018D02*
X4667601Y-14014066D01*
X4667601Y-14014066D02*
X4677125Y-14052161D01*
X4677125Y-14052161D02*
X4677125Y-14099780D01*
X4677125Y-14099780D02*
X4667601Y-14137875D01*
X4667601Y-14137875D02*
X4658077Y-14156923D01*
X4658077Y-14156923D02*
X4648553Y-14166447D01*
X4648553Y-14166447D02*
X4629506Y-14175970D01*
X4629506Y-14175970D02*
X4610458Y-14175970D01*
X4610458Y-14175970D02*
X4591411Y-14166447D01*
X4591411Y-14166447D02*
X4581887Y-14156923D01*
X4581887Y-14156923D02*
X4572363Y-14137875D01*
X4572363Y-14137875D02*
X4562839Y-14099780D01*
X4562839Y-14099780D02*
X4562839Y-14052161D01*
X4562839Y-14052161D02*
X4572363Y-14014066D01*
X4572363Y-14014066D02*
X4581887Y-13995018D01*
X4581887Y-13995018D02*
X4591411Y-13985494D01*
X4591411Y-13985494D02*
X4610458Y-13975970D01*
X4800934Y-13975970D02*
X4819982Y-13975970D01*
X4819982Y-13975970D02*
X4839030Y-13985494D01*
X4839030Y-13985494D02*
X4848553Y-13995018D01*
X4848553Y-13995018D02*
X4858077Y-14014066D01*
X4858077Y-14014066D02*
X4867601Y-14052161D01*
X4867601Y-14052161D02*
X4867601Y-14099780D01*
X4867601Y-14099780D02*
X4858077Y-14137875D01*
X4858077Y-14137875D02*
X4848553Y-14156923D01*
X4848553Y-14156923D02*
X4839030Y-14166447D01*
X4839030Y-14166447D02*
X4819982Y-14175970D01*
X4819982Y-14175970D02*
X4800934Y-14175970D01*
X4800934Y-14175970D02*
X4781887Y-14166447D01*
X4781887Y-14166447D02*
X4772363Y-14156923D01*
X4772363Y-14156923D02*
X4762839Y-14137875D01*
X4762839Y-14137875D02*
X4753315Y-14099780D01*
X4753315Y-14099780D02*
X4753315Y-14052161D01*
X4753315Y-14052161D02*
X4762839Y-14014066D01*
X4762839Y-14014066D02*
X4772363Y-13995018D01*
X4772363Y-13995018D02*
X4781887Y-13985494D01*
X4781887Y-13985494D02*
X4800934Y-13975970D01*
X4953315Y-14175970D02*
X4953315Y-14042637D01*
X4953315Y-14061685D02*
X4962839Y-14052161D01*
X4962839Y-14052161D02*
X4981887Y-14042637D01*
X4981887Y-14042637D02*
X5010458Y-14042637D01*
X5010458Y-14042637D02*
X5029506Y-14052161D01*
X5029506Y-14052161D02*
X5039030Y-14071208D01*
X5039030Y-14071208D02*
X5039030Y-14175970D01*
X5039030Y-14071208D02*
X5048553Y-14052161D01*
X5048553Y-14052161D02*
X5067601Y-14042637D01*
X5067601Y-14042637D02*
X5096172Y-14042637D01*
X5096172Y-14042637D02*
X5115220Y-14052161D01*
X5115220Y-14052161D02*
X5124744Y-14071208D01*
X5124744Y-14071208D02*
X5124744Y-14175970D01*
X5219982Y-14175970D02*
X5219982Y-14042637D01*
X5219982Y-14061685D02*
X5229506Y-14052161D01*
X5229506Y-14052161D02*
X5248553Y-14042637D01*
X5248553Y-14042637D02*
X5277125Y-14042637D01*
X5277125Y-14042637D02*
X5296173Y-14052161D01*
X5296173Y-14052161D02*
X5305696Y-14071208D01*
X5305696Y-14071208D02*
X5305696Y-14175970D01*
X5305696Y-14071208D02*
X5315220Y-14052161D01*
X5315220Y-14052161D02*
X5334268Y-14042637D01*
X5334268Y-14042637D02*
X5362839Y-14042637D01*
X5362839Y-14042637D02*
X5381887Y-14052161D01*
X5381887Y-14052161D02*
X5391411Y-14071208D01*
X5391411Y-14071208D02*
X5391411Y-14175970D01*
X5781887Y-13966447D02*
X5610458Y-14223589D01*
X6039030Y-13975970D02*
X6058077Y-13975970D01*
X6058077Y-13975970D02*
X6077125Y-13985494D01*
X6077125Y-13985494D02*
X6086649Y-13995018D01*
X6086649Y-13995018D02*
X6096173Y-14014066D01*
X6096173Y-14014066D02*
X6105696Y-14052161D01*
X6105696Y-14052161D02*
X6105696Y-14099780D01*
X6105696Y-14099780D02*
X6096173Y-14137875D01*
X6096173Y-14137875D02*
X6086649Y-14156923D01*
X6086649Y-14156923D02*
X6077125Y-14166447D01*
X6077125Y-14166447D02*
X6058077Y-14175970D01*
X6058077Y-14175970D02*
X6039030Y-14175970D01*
X6039030Y-14175970D02*
X6019982Y-14166447D01*
X6019982Y-14166447D02*
X6010458Y-14156923D01*
X6010458Y-14156923D02*
X6000934Y-14137875D01*
X6000934Y-14137875D02*
X5991411Y-14099780D01*
X5991411Y-14099780D02*
X5991411Y-14052161D01*
X5991411Y-14052161D02*
X6000934Y-14014066D01*
X6000934Y-14014066D02*
X6010458Y-13995018D01*
X6010458Y-13995018D02*
X6019982Y-13985494D01*
X6019982Y-13985494D02*
X6039030Y-13975970D01*
X6191411Y-14156923D02*
X6200934Y-14166447D01*
X6200934Y-14166447D02*
X6191411Y-14175970D01*
X6191411Y-14175970D02*
X6181887Y-14166447D01*
X6181887Y-14166447D02*
X6191411Y-14156923D01*
X6191411Y-14156923D02*
X6191411Y-14175970D01*
X6324744Y-13975970D02*
X6343792Y-13975970D01*
X6343792Y-13975970D02*
X6362839Y-13985494D01*
X6362839Y-13985494D02*
X6372363Y-13995018D01*
X6372363Y-13995018D02*
X6381887Y-14014066D01*
X6381887Y-14014066D02*
X6391411Y-14052161D01*
X6391411Y-14052161D02*
X6391411Y-14099780D01*
X6391411Y-14099780D02*
X6381887Y-14137875D01*
X6381887Y-14137875D02*
X6372363Y-14156923D01*
X6372363Y-14156923D02*
X6362839Y-14166447D01*
X6362839Y-14166447D02*
X6343792Y-14175970D01*
X6343792Y-14175970D02*
X6324744Y-14175970D01*
X6324744Y-14175970D02*
X6305696Y-14166447D01*
X6305696Y-14166447D02*
X6296173Y-14156923D01*
X6296173Y-14156923D02*
X6286649Y-14137875D01*
X6286649Y-14137875D02*
X6277125Y-14099780D01*
X6277125Y-14099780D02*
X6277125Y-14052161D01*
X6277125Y-14052161D02*
X6286649Y-14014066D01*
X6286649Y-14014066D02*
X6296173Y-13995018D01*
X6296173Y-13995018D02*
X6305696Y-13985494D01*
X6305696Y-13985494D02*
X6324744Y-13975970D01*
X6458077Y-13975970D02*
X6581887Y-13975970D01*
X6581887Y-13975970D02*
X6515220Y-14052161D01*
X6515220Y-14052161D02*
X6543792Y-14052161D01*
X6543792Y-14052161D02*
X6562839Y-14061685D01*
X6562839Y-14061685D02*
X6572363Y-14071208D01*
X6572363Y-14071208D02*
X6581887Y-14090256D01*
X6581887Y-14090256D02*
X6581887Y-14137875D01*
X6581887Y-14137875D02*
X6572363Y-14156923D01*
X6572363Y-14156923D02*
X6562839Y-14166447D01*
X6562839Y-14166447D02*
X6543792Y-14175970D01*
X6543792Y-14175970D02*
X6486649Y-14175970D01*
X6486649Y-14175970D02*
X6467601Y-14166447D01*
X6467601Y-14166447D02*
X6458077Y-14156923D01*
X6677125Y-14175970D02*
X6715220Y-14175970D01*
X6715220Y-14175970D02*
X6734268Y-14166447D01*
X6734268Y-14166447D02*
X6743792Y-14156923D01*
X6743792Y-14156923D02*
X6762839Y-14128351D01*
X6762839Y-14128351D02*
X6772363Y-14090256D01*
X6772363Y-14090256D02*
X6772363Y-14014066D01*
X6772363Y-14014066D02*
X6762839Y-13995018D01*
X6762839Y-13995018D02*
X6753315Y-13985494D01*
X6753315Y-13985494D02*
X6734268Y-13975970D01*
X6734268Y-13975970D02*
X6696173Y-13975970D01*
X6696173Y-13975970D02*
X6677125Y-13985494D01*
X6677125Y-13985494D02*
X6667601Y-13995018D01*
X6667601Y-13995018D02*
X6658077Y-14014066D01*
X6658077Y-14014066D02*
X6658077Y-14061685D01*
X6658077Y-14061685D02*
X6667601Y-14080732D01*
X6667601Y-14080732D02*
X6677125Y-14090256D01*
X6677125Y-14090256D02*
X6696173Y-14099780D01*
X6696173Y-14099780D02*
X6734268Y-14099780D01*
X6734268Y-14099780D02*
X6753315Y-14090256D01*
X6753315Y-14090256D02*
X6762839Y-14080732D01*
X6762839Y-14080732D02*
X6772363Y-14061685D01*
X6943792Y-14042637D02*
X6943792Y-14175970D01*
X6896173Y-13966447D02*
X6848554Y-14109304D01*
X6848554Y-14109304D02*
X6972363Y-14109304D01*
X7039030Y-13975970D02*
X7039030Y-14014066D01*
X7115220Y-13975970D02*
X7115220Y-14014066D01*
X7410458Y-14252161D02*
X7400935Y-14242637D01*
X7400935Y-14242637D02*
X7381887Y-14214066D01*
X7381887Y-14214066D02*
X7372363Y-14195018D01*
X7372363Y-14195018D02*
X7362839Y-14166447D01*
X7362839Y-14166447D02*
X7353316Y-14118827D01*
X7353316Y-14118827D02*
X7353316Y-14080732D01*
X7353316Y-14080732D02*
X7362839Y-14033113D01*
X7362839Y-14033113D02*
X7372363Y-14004542D01*
X7372363Y-14004542D02*
X7381887Y-13985494D01*
X7381887Y-13985494D02*
X7400935Y-13956923D01*
X7400935Y-13956923D02*
X7410458Y-13947399D01*
X7591411Y-14175970D02*
X7477125Y-14175970D01*
X7534268Y-14175970D02*
X7534268Y-13975970D01*
X7534268Y-13975970D02*
X7515220Y-14004542D01*
X7515220Y-14004542D02*
X7496173Y-14023589D01*
X7496173Y-14023589D02*
X7477125Y-14033113D01*
X7667601Y-13995018D02*
X7677125Y-13985494D01*
X7677125Y-13985494D02*
X7696173Y-13975970D01*
X7696173Y-13975970D02*
X7743792Y-13975970D01*
X7743792Y-13975970D02*
X7762839Y-13985494D01*
X7762839Y-13985494D02*
X7772363Y-13995018D01*
X7772363Y-13995018D02*
X7781887Y-14014066D01*
X7781887Y-14014066D02*
X7781887Y-14033113D01*
X7781887Y-14033113D02*
X7772363Y-14061685D01*
X7772363Y-14061685D02*
X7658077Y-14175970D01*
X7658077Y-14175970D02*
X7781887Y-14175970D01*
X8019982Y-14175970D02*
X8019982Y-13975970D01*
X8105697Y-14175970D02*
X8105697Y-14071208D01*
X8105697Y-14071208D02*
X8096173Y-14052161D01*
X8096173Y-14052161D02*
X8077125Y-14042637D01*
X8077125Y-14042637D02*
X8048554Y-14042637D01*
X8048554Y-14042637D02*
X8029506Y-14052161D01*
X8029506Y-14052161D02*
X8019982Y-14061685D01*
X8229506Y-14175970D02*
X8210458Y-14166447D01*
X8210458Y-14166447D02*
X8200935Y-14156923D01*
X8200935Y-14156923D02*
X8191411Y-14137875D01*
X8191411Y-14137875D02*
X8191411Y-14080732D01*
X8191411Y-14080732D02*
X8200935Y-14061685D01*
X8200935Y-14061685D02*
X8210458Y-14052161D01*
X8210458Y-14052161D02*
X8229506Y-14042637D01*
X8229506Y-14042637D02*
X8258078Y-14042637D01*
X8258078Y-14042637D02*
X8277125Y-14052161D01*
X8277125Y-14052161D02*
X8286649Y-14061685D01*
X8286649Y-14061685D02*
X8296173Y-14080732D01*
X8296173Y-14080732D02*
X8296173Y-14137875D01*
X8296173Y-14137875D02*
X8286649Y-14156923D01*
X8286649Y-14156923D02*
X8277125Y-14166447D01*
X8277125Y-14166447D02*
X8258078Y-14175970D01*
X8258078Y-14175970D02*
X8229506Y-14175970D01*
X8410459Y-14175970D02*
X8391411Y-14166447D01*
X8391411Y-14166447D02*
X8381887Y-14147399D01*
X8381887Y-14147399D02*
X8381887Y-13975970D01*
X8562840Y-14166447D02*
X8543792Y-14175970D01*
X8543792Y-14175970D02*
X8505697Y-14175970D01*
X8505697Y-14175970D02*
X8486649Y-14166447D01*
X8486649Y-14166447D02*
X8477125Y-14147399D01*
X8477125Y-14147399D02*
X8477125Y-14071208D01*
X8477125Y-14071208D02*
X8486649Y-14052161D01*
X8486649Y-14052161D02*
X8505697Y-14042637D01*
X8505697Y-14042637D02*
X8543792Y-14042637D01*
X8543792Y-14042637D02*
X8562840Y-14052161D01*
X8562840Y-14052161D02*
X8572363Y-14071208D01*
X8572363Y-14071208D02*
X8572363Y-14090256D01*
X8572363Y-14090256D02*
X8477125Y-14109304D01*
X8648554Y-14166447D02*
X8667601Y-14175970D01*
X8667601Y-14175970D02*
X8705697Y-14175970D01*
X8705697Y-14175970D02*
X8724744Y-14166447D01*
X8724744Y-14166447D02*
X8734268Y-14147399D01*
X8734268Y-14147399D02*
X8734268Y-14137875D01*
X8734268Y-14137875D02*
X8724744Y-14118827D01*
X8724744Y-14118827D02*
X8705697Y-14109304D01*
X8705697Y-14109304D02*
X8677125Y-14109304D01*
X8677125Y-14109304D02*
X8658078Y-14099780D01*
X8658078Y-14099780D02*
X8648554Y-14080732D01*
X8648554Y-14080732D02*
X8648554Y-14071208D01*
X8648554Y-14071208D02*
X8658078Y-14052161D01*
X8658078Y-14052161D02*
X8677125Y-14042637D01*
X8677125Y-14042637D02*
X8705697Y-14042637D01*
X8705697Y-14042637D02*
X8724744Y-14052161D01*
X8800935Y-14252161D02*
X8810459Y-14242637D01*
X8810459Y-14242637D02*
X8829506Y-14214066D01*
X8829506Y-14214066D02*
X8839030Y-14195018D01*
X8839030Y-14195018D02*
X8848554Y-14166447D01*
X8848554Y-14166447D02*
X8858078Y-14118827D01*
X8858078Y-14118827D02*
X8858078Y-14080732D01*
X8858078Y-14080732D02*
X8848554Y-14033113D01*
X8848554Y-14033113D02*
X8839030Y-14004542D01*
X8839030Y-14004542D02*
X8829506Y-13985494D01*
X8829506Y-13985494D02*
X8810459Y-13956923D01*
X8810459Y-13956923D02*
X8800935Y-13947399D01*
X3748553Y-14447447D02*
X3848553Y-14347447D01*
X3748553Y-14247447D01*
X3648553Y-14347447D01*
X3748553Y-14447447D01*
X4077125Y-14239970D02*
X4200934Y-14239970D01*
X4200934Y-14239970D02*
X4134268Y-14316161D01*
X4134268Y-14316161D02*
X4162839Y-14316161D01*
X4162839Y-14316161D02*
X4181887Y-14325685D01*
X4181887Y-14325685D02*
X4191410Y-14335208D01*
X4191410Y-14335208D02*
X4200934Y-14354256D01*
X4200934Y-14354256D02*
X4200934Y-14401875D01*
X4200934Y-14401875D02*
X4191410Y-14420923D01*
X4191410Y-14420923D02*
X4181887Y-14430447D01*
X4181887Y-14430447D02*
X4162839Y-14439970D01*
X4162839Y-14439970D02*
X4105696Y-14439970D01*
X4105696Y-14439970D02*
X4086649Y-14430447D01*
X4086649Y-14430447D02*
X4077125Y-14420923D01*
X4286649Y-14420923D02*
X4296172Y-14430447D01*
X4296172Y-14430447D02*
X4286649Y-14439970D01*
X4286649Y-14439970D02*
X4277125Y-14430447D01*
X4277125Y-14430447D02*
X4286649Y-14420923D01*
X4286649Y-14420923D02*
X4286649Y-14439970D01*
X4419982Y-14239970D02*
X4439030Y-14239970D01*
X4439030Y-14239970D02*
X4458077Y-14249494D01*
X4458077Y-14249494D02*
X4467601Y-14259018D01*
X4467601Y-14259018D02*
X4477125Y-14278066D01*
X4477125Y-14278066D02*
X4486649Y-14316161D01*
X4486649Y-14316161D02*
X4486649Y-14363780D01*
X4486649Y-14363780D02*
X4477125Y-14401875D01*
X4477125Y-14401875D02*
X4467601Y-14420923D01*
X4467601Y-14420923D02*
X4458077Y-14430447D01*
X4458077Y-14430447D02*
X4439030Y-14439970D01*
X4439030Y-14439970D02*
X4419982Y-14439970D01*
X4419982Y-14439970D02*
X4400934Y-14430447D01*
X4400934Y-14430447D02*
X4391411Y-14420923D01*
X4391411Y-14420923D02*
X4381887Y-14401875D01*
X4381887Y-14401875D02*
X4372363Y-14363780D01*
X4372363Y-14363780D02*
X4372363Y-14316161D01*
X4372363Y-14316161D02*
X4381887Y-14278066D01*
X4381887Y-14278066D02*
X4391411Y-14259018D01*
X4391411Y-14259018D02*
X4400934Y-14249494D01*
X4400934Y-14249494D02*
X4419982Y-14239970D01*
X4610458Y-14239970D02*
X4629506Y-14239970D01*
X4629506Y-14239970D02*
X4648553Y-14249494D01*
X4648553Y-14249494D02*
X4658077Y-14259018D01*
X4658077Y-14259018D02*
X4667601Y-14278066D01*
X4667601Y-14278066D02*
X4677125Y-14316161D01*
X4677125Y-14316161D02*
X4677125Y-14363780D01*
X4677125Y-14363780D02*
X4667601Y-14401875D01*
X4667601Y-14401875D02*
X4658077Y-14420923D01*
X4658077Y-14420923D02*
X4648553Y-14430447D01*
X4648553Y-14430447D02*
X4629506Y-14439970D01*
X4629506Y-14439970D02*
X4610458Y-14439970D01*
X4610458Y-14439970D02*
X4591411Y-14430447D01*
X4591411Y-14430447D02*
X4581887Y-14420923D01*
X4581887Y-14420923D02*
X4572363Y-14401875D01*
X4572363Y-14401875D02*
X4562839Y-14363780D01*
X4562839Y-14363780D02*
X4562839Y-14316161D01*
X4562839Y-14316161D02*
X4572363Y-14278066D01*
X4572363Y-14278066D02*
X4581887Y-14259018D01*
X4581887Y-14259018D02*
X4591411Y-14249494D01*
X4591411Y-14249494D02*
X4610458Y-14239970D01*
X4800934Y-14239970D02*
X4819982Y-14239970D01*
X4819982Y-14239970D02*
X4839030Y-14249494D01*
X4839030Y-14249494D02*
X4848553Y-14259018D01*
X4848553Y-14259018D02*
X4858077Y-14278066D01*
X4858077Y-14278066D02*
X4867601Y-14316161D01*
X4867601Y-14316161D02*
X4867601Y-14363780D01*
X4867601Y-14363780D02*
X4858077Y-14401875D01*
X4858077Y-14401875D02*
X4848553Y-14420923D01*
X4848553Y-14420923D02*
X4839030Y-14430447D01*
X4839030Y-14430447D02*
X4819982Y-14439970D01*
X4819982Y-14439970D02*
X4800934Y-14439970D01*
X4800934Y-14439970D02*
X4781887Y-14430447D01*
X4781887Y-14430447D02*
X4772363Y-14420923D01*
X4772363Y-14420923D02*
X4762839Y-14401875D01*
X4762839Y-14401875D02*
X4753315Y-14363780D01*
X4753315Y-14363780D02*
X4753315Y-14316161D01*
X4753315Y-14316161D02*
X4762839Y-14278066D01*
X4762839Y-14278066D02*
X4772363Y-14259018D01*
X4772363Y-14259018D02*
X4781887Y-14249494D01*
X4781887Y-14249494D02*
X4800934Y-14239970D01*
X4953315Y-14439970D02*
X4953315Y-14306637D01*
X4953315Y-14325685D02*
X4962839Y-14316161D01*
X4962839Y-14316161D02*
X4981887Y-14306637D01*
X4981887Y-14306637D02*
X5010458Y-14306637D01*
X5010458Y-14306637D02*
X5029506Y-14316161D01*
X5029506Y-14316161D02*
X5039030Y-14335208D01*
X5039030Y-14335208D02*
X5039030Y-14439970D01*
X5039030Y-14335208D02*
X5048553Y-14316161D01*
X5048553Y-14316161D02*
X5067601Y-14306637D01*
X5067601Y-14306637D02*
X5096172Y-14306637D01*
X5096172Y-14306637D02*
X5115220Y-14316161D01*
X5115220Y-14316161D02*
X5124744Y-14335208D01*
X5124744Y-14335208D02*
X5124744Y-14439970D01*
X5219982Y-14439970D02*
X5219982Y-14306637D01*
X5219982Y-14325685D02*
X5229506Y-14316161D01*
X5229506Y-14316161D02*
X5248553Y-14306637D01*
X5248553Y-14306637D02*
X5277125Y-14306637D01*
X5277125Y-14306637D02*
X5296173Y-14316161D01*
X5296173Y-14316161D02*
X5305696Y-14335208D01*
X5305696Y-14335208D02*
X5305696Y-14439970D01*
X5305696Y-14335208D02*
X5315220Y-14316161D01*
X5315220Y-14316161D02*
X5334268Y-14306637D01*
X5334268Y-14306637D02*
X5362839Y-14306637D01*
X5362839Y-14306637D02*
X5381887Y-14316161D01*
X5381887Y-14316161D02*
X5391411Y-14335208D01*
X5391411Y-14335208D02*
X5391411Y-14439970D01*
X5781887Y-14230447D02*
X5610458Y-14487589D01*
X6039030Y-14239970D02*
X6058077Y-14239970D01*
X6058077Y-14239970D02*
X6077125Y-14249494D01*
X6077125Y-14249494D02*
X6086649Y-14259018D01*
X6086649Y-14259018D02*
X6096173Y-14278066D01*
X6096173Y-14278066D02*
X6105696Y-14316161D01*
X6105696Y-14316161D02*
X6105696Y-14363780D01*
X6105696Y-14363780D02*
X6096173Y-14401875D01*
X6096173Y-14401875D02*
X6086649Y-14420923D01*
X6086649Y-14420923D02*
X6077125Y-14430447D01*
X6077125Y-14430447D02*
X6058077Y-14439970D01*
X6058077Y-14439970D02*
X6039030Y-14439970D01*
X6039030Y-14439970D02*
X6019982Y-14430447D01*
X6019982Y-14430447D02*
X6010458Y-14420923D01*
X6010458Y-14420923D02*
X6000934Y-14401875D01*
X6000934Y-14401875D02*
X5991411Y-14363780D01*
X5991411Y-14363780D02*
X5991411Y-14316161D01*
X5991411Y-14316161D02*
X6000934Y-14278066D01*
X6000934Y-14278066D02*
X6010458Y-14259018D01*
X6010458Y-14259018D02*
X6019982Y-14249494D01*
X6019982Y-14249494D02*
X6039030Y-14239970D01*
X6191411Y-14420923D02*
X6200934Y-14430447D01*
X6200934Y-14430447D02*
X6191411Y-14439970D01*
X6191411Y-14439970D02*
X6181887Y-14430447D01*
X6181887Y-14430447D02*
X6191411Y-14420923D01*
X6191411Y-14420923D02*
X6191411Y-14439970D01*
X6391411Y-14439970D02*
X6277125Y-14439970D01*
X6334268Y-14439970D02*
X6334268Y-14239970D01*
X6334268Y-14239970D02*
X6315220Y-14268542D01*
X6315220Y-14268542D02*
X6296173Y-14287589D01*
X6296173Y-14287589D02*
X6277125Y-14297113D01*
X6581887Y-14439970D02*
X6467601Y-14439970D01*
X6524744Y-14439970D02*
X6524744Y-14239970D01*
X6524744Y-14239970D02*
X6505696Y-14268542D01*
X6505696Y-14268542D02*
X6486649Y-14287589D01*
X6486649Y-14287589D02*
X6467601Y-14297113D01*
X6696173Y-14325685D02*
X6677125Y-14316161D01*
X6677125Y-14316161D02*
X6667601Y-14306637D01*
X6667601Y-14306637D02*
X6658077Y-14287589D01*
X6658077Y-14287589D02*
X6658077Y-14278066D01*
X6658077Y-14278066D02*
X6667601Y-14259018D01*
X6667601Y-14259018D02*
X6677125Y-14249494D01*
X6677125Y-14249494D02*
X6696173Y-14239970D01*
X6696173Y-14239970D02*
X6734268Y-14239970D01*
X6734268Y-14239970D02*
X6753315Y-14249494D01*
X6753315Y-14249494D02*
X6762839Y-14259018D01*
X6762839Y-14259018D02*
X6772363Y-14278066D01*
X6772363Y-14278066D02*
X6772363Y-14287589D01*
X6772363Y-14287589D02*
X6762839Y-14306637D01*
X6762839Y-14306637D02*
X6753315Y-14316161D01*
X6753315Y-14316161D02*
X6734268Y-14325685D01*
X6734268Y-14325685D02*
X6696173Y-14325685D01*
X6696173Y-14325685D02*
X6677125Y-14335208D01*
X6677125Y-14335208D02*
X6667601Y-14344732D01*
X6667601Y-14344732D02*
X6658077Y-14363780D01*
X6658077Y-14363780D02*
X6658077Y-14401875D01*
X6658077Y-14401875D02*
X6667601Y-14420923D01*
X6667601Y-14420923D02*
X6677125Y-14430447D01*
X6677125Y-14430447D02*
X6696173Y-14439970D01*
X6696173Y-14439970D02*
X6734268Y-14439970D01*
X6734268Y-14439970D02*
X6753315Y-14430447D01*
X6753315Y-14430447D02*
X6762839Y-14420923D01*
X6762839Y-14420923D02*
X6772363Y-14401875D01*
X6772363Y-14401875D02*
X6772363Y-14363780D01*
X6772363Y-14363780D02*
X6762839Y-14344732D01*
X6762839Y-14344732D02*
X6753315Y-14335208D01*
X6753315Y-14335208D02*
X6734268Y-14325685D01*
X6962839Y-14439970D02*
X6848554Y-14439970D01*
X6905696Y-14439970D02*
X6905696Y-14239970D01*
X6905696Y-14239970D02*
X6886649Y-14268542D01*
X6886649Y-14268542D02*
X6867601Y-14287589D01*
X6867601Y-14287589D02*
X6848554Y-14297113D01*
X7039030Y-14239970D02*
X7039030Y-14278066D01*
X7115220Y-14239970D02*
X7115220Y-14278066D01*
X7410458Y-14516161D02*
X7400935Y-14506637D01*
X7400935Y-14506637D02*
X7381887Y-14478066D01*
X7381887Y-14478066D02*
X7372363Y-14459018D01*
X7372363Y-14459018D02*
X7362839Y-14430447D01*
X7362839Y-14430447D02*
X7353316Y-14382827D01*
X7353316Y-14382827D02*
X7353316Y-14344732D01*
X7353316Y-14344732D02*
X7362839Y-14297113D01*
X7362839Y-14297113D02*
X7372363Y-14268542D01*
X7372363Y-14268542D02*
X7381887Y-14249494D01*
X7381887Y-14249494D02*
X7400935Y-14220923D01*
X7400935Y-14220923D02*
X7410458Y-14211399D01*
X7572363Y-14306637D02*
X7572363Y-14439970D01*
X7524744Y-14230447D02*
X7477125Y-14373304D01*
X7477125Y-14373304D02*
X7600935Y-14373304D01*
X7829506Y-14439970D02*
X7829506Y-14239970D01*
X7915220Y-14439970D02*
X7915220Y-14335208D01*
X7915220Y-14335208D02*
X7905697Y-14316161D01*
X7905697Y-14316161D02*
X7886649Y-14306637D01*
X7886649Y-14306637D02*
X7858077Y-14306637D01*
X7858077Y-14306637D02*
X7839030Y-14316161D01*
X7839030Y-14316161D02*
X7829506Y-14325685D01*
X8039030Y-14439970D02*
X8019982Y-14430447D01*
X8019982Y-14430447D02*
X8010458Y-14420923D01*
X8010458Y-14420923D02*
X8000935Y-14401875D01*
X8000935Y-14401875D02*
X8000935Y-14344732D01*
X8000935Y-14344732D02*
X8010458Y-14325685D01*
X8010458Y-14325685D02*
X8019982Y-14316161D01*
X8019982Y-14316161D02*
X8039030Y-14306637D01*
X8039030Y-14306637D02*
X8067601Y-14306637D01*
X8067601Y-14306637D02*
X8086649Y-14316161D01*
X8086649Y-14316161D02*
X8096173Y-14325685D01*
X8096173Y-14325685D02*
X8105697Y-14344732D01*
X8105697Y-14344732D02*
X8105697Y-14401875D01*
X8105697Y-14401875D02*
X8096173Y-14420923D01*
X8096173Y-14420923D02*
X8086649Y-14430447D01*
X8086649Y-14430447D02*
X8067601Y-14439970D01*
X8067601Y-14439970D02*
X8039030Y-14439970D01*
X8219982Y-14439970D02*
X8200935Y-14430447D01*
X8200935Y-14430447D02*
X8191411Y-14411399D01*
X8191411Y-14411399D02*
X8191411Y-14239970D01*
X8372363Y-14430447D02*
X8353316Y-14439970D01*
X8353316Y-14439970D02*
X8315220Y-14439970D01*
X8315220Y-14439970D02*
X8296173Y-14430447D01*
X8296173Y-14430447D02*
X8286649Y-14411399D01*
X8286649Y-14411399D02*
X8286649Y-14335208D01*
X8286649Y-14335208D02*
X8296173Y-14316161D01*
X8296173Y-14316161D02*
X8315220Y-14306637D01*
X8315220Y-14306637D02*
X8353316Y-14306637D01*
X8353316Y-14306637D02*
X8372363Y-14316161D01*
X8372363Y-14316161D02*
X8381887Y-14335208D01*
X8381887Y-14335208D02*
X8381887Y-14354256D01*
X8381887Y-14354256D02*
X8286649Y-14373304D01*
X8458078Y-14430447D02*
X8477125Y-14439970D01*
X8477125Y-14439970D02*
X8515220Y-14439970D01*
X8515220Y-14439970D02*
X8534268Y-14430447D01*
X8534268Y-14430447D02*
X8543792Y-14411399D01*
X8543792Y-14411399D02*
X8543792Y-14401875D01*
X8543792Y-14401875D02*
X8534268Y-14382827D01*
X8534268Y-14382827D02*
X8515220Y-14373304D01*
X8515220Y-14373304D02*
X8486649Y-14373304D01*
X8486649Y-14373304D02*
X8467601Y-14363780D01*
X8467601Y-14363780D02*
X8458078Y-14344732D01*
X8458078Y-14344732D02*
X8458078Y-14335208D01*
X8458078Y-14335208D02*
X8467601Y-14316161D01*
X8467601Y-14316161D02*
X8486649Y-14306637D01*
X8486649Y-14306637D02*
X8515220Y-14306637D01*
X8515220Y-14306637D02*
X8534268Y-14316161D01*
X8610459Y-14516161D02*
X8619982Y-14506637D01*
X8619982Y-14506637D02*
X8639030Y-14478066D01*
X8639030Y-14478066D02*
X8648554Y-14459018D01*
X8648554Y-14459018D02*
X8658078Y-14430447D01*
X8658078Y-14430447D02*
X8667601Y-14382827D01*
X8667601Y-14382827D02*
X8667601Y-14344732D01*
X8667601Y-14344732D02*
X8658078Y-14297113D01*
X8658078Y-14297113D02*
X8648554Y-14268542D01*
X8648554Y-14268542D02*
X8639030Y-14249494D01*
X8639030Y-14249494D02*
X8619982Y-14220923D01*
X8619982Y-14220923D02*
X8610459Y-14211399D01*
M02*
